<svg xmlns="http://www.w3.org/2000/svg" width="20" height="20" fill="none" viewBox="0 0 20 20"><g clip-path="url(#clip0_45_1363)"><path fill="url(#paint0_linear_45_1363)" d="M12.1289 13.9805L13.582 14.6016L13.6484 14.5156C13.8359 14.2695 13.9883 14.0039 14.1094 13.7266C14.543 12.7148 14.5117 11.543 13.9961 10.543L12.8594 8.34765C12.582 7.8164 11.9258 7.60546 11.3945 7.88281C10.8633 8.16015 10.6523 8.8164 10.9297 9.34765L12.0664 11.543C12.3398 12.0703 12.2852 12.7227 11.9219 13.1953C11.7187 13.4648 11.8203 13.8477 12.1289 13.9805Z"/><path fill="url(#paint1_linear_45_1363)" d="M12.1289 13.9805L13.582 14.6016L13.6484 14.5156C13.8359 14.2695 13.9883 14.0039 14.1094 13.7266C14.543 12.7148 14.5117 11.543 13.9961 10.543L12.8594 8.34765C12.582 7.8164 11.9258 7.60546 11.3945 7.88281C10.8633 8.16015 10.6523 8.8164 10.9297 9.34765L12.0664 11.543C12.3398 12.0703 12.2852 12.7227 11.9219 13.1953C11.7187 13.4648 11.8203 13.8477 12.1289 13.9805Z"/><path fill="url(#paint2_linear_45_1363)" d="M12.4141 12.832L14.1758 13.4726L14.4727 12.9219C14.4844 12.8984 14.5 12.8711 14.5117 12.8476C15.207 11.4844 15.0703 9.8242 14.1562 8.59373L12.5508 6.42967C12.1875 5.94139 11.5234 5.81248 11.0117 6.10935C10.9727 6.13279 10.9336 6.15623 10.8984 6.18357C10.375 6.5742 10.2656 7.31248 10.6523 7.83982L12.0977 9.78904L12.2578 10.0039C12.6406 10.5195 12.6953 11.2187 12.3984 11.7851C12.4258 12.1601 12.4297 12.5117 12.4141 12.832Z"/><path fill="url(#paint3_linear_45_1363)" d="M12.4141 12.832L14.1758 13.4726L14.4727 12.9219C14.4844 12.8984 14.5 12.8711 14.5117 12.8476C15.207 11.4844 15.0703 9.8242 14.1562 8.59373L12.5508 6.42967C12.1875 5.94139 11.5234 5.81248 11.0117 6.10935C10.9727 6.13279 10.9336 6.15623 10.8984 6.18357C10.375 6.5742 10.2656 7.31248 10.6523 7.83982L12.0977 9.78904L12.2578 10.0039C12.6406 10.5195 12.6953 11.2187 12.3984 11.7851C12.4258 12.1601 12.4297 12.5117 12.4141 12.832Z"/><path fill="url(#paint4_linear_45_1363)" d="M14.6171 10.3711C14.5468 10.5898 14.4609 10.8047 14.3515 11.0156C14.0507 11.5976 13.3398 11.8242 12.7577 11.5273C12.1757 11.2305 11.9491 10.5156 12.246 9.93358C12.5429 9.35545 12.4804 8.64842 12.0859 8.1328L10.4452 5.99608C10.0468 5.47655 10.1445 4.73436 10.664 4.33592C11.1835 3.93748 11.9257 4.03514 12.3241 4.55467L13.9648 6.69139C14.7695 7.74217 15.0038 9.12498 14.6171 10.3711Z"/><path fill="url(#paint5_linear_45_1363)" d="M14.6171 10.3711C14.5468 10.5898 14.4609 10.8047 14.3515 11.0156C14.0507 11.5976 13.3398 11.8242 12.7577 11.5273C12.1757 11.2305 11.9491 10.5156 12.246 9.93358C12.5429 9.35545 12.4804 8.64842 12.0859 8.1328L10.4452 5.99608C10.0468 5.47655 10.1445 4.73436 10.664 4.33592C11.1835 3.93748 11.9257 4.03514 12.3241 4.55467L13.9648 6.69139C14.7695 7.74217 15.0038 9.12498 14.6171 10.3711Z"/><path fill="url(#paint6_linear_45_1363)" d="M14.6171 10.3711C14.5468 10.5898 14.4609 10.8047 14.3515 11.0156C14.0507 11.5976 13.3398 11.8242 12.7577 11.5273C12.1757 11.2305 11.9491 10.5156 12.246 9.93358C12.5429 9.35545 12.4804 8.64842 12.0859 8.1328L10.4452 5.99608C10.0468 5.47655 10.1445 4.73436 10.664 4.33592C11.1835 3.93748 11.9257 4.03514 12.3241 4.55467L13.9648 6.69139C14.7695 7.74217 15.0038 9.12498 14.6171 10.3711Z"/><path fill="url(#paint7_linear_45_1363)" d="M12.25 9.92969C12.5469 9.35156 12.4844 8.64453 12.0898 8.12891L11.2695 7.07031L14.6523 8.08594C14.8555 8.82812 14.8438 9.625 14.6133 10.3672C14.543 10.5859 14.457 10.8008 14.3477 11.0117C14.0469 11.5937 13.3359 11.8203 12.7539 11.5234C12.1719 11.2266 11.9492 10.5117 12.25 9.92969Z"/><path fill="url(#paint8_linear_45_1363)" d="M14.1796 19.8086H12.5195C11.3554 19.8086 10.3789 18.9336 10.25 17.7773C10.0742 16.2109 10.3046 14.0586 12.3398 12.5352L14.1796 19.8086Z"/><path fill="url(#paint9_linear_45_1363)" d="M11.3828 13.8594C12.1484 12.3125 13.0664 11.3359 13.0664 11.3359C13.414 10.5976 13.3906 9.73045 13.0039 9.0117L10.8515 5.02732C10.6836 4.71873 10.6523 4.37107 10.7382 4.05467C10.8281 3.71092 11.0546 3.40623 11.3945 3.22654C12.0429 2.87889 12.8476 3.12107 13.1953 3.7656L15.3437 7.74998C15.9804 8.92967 16.1328 10.3164 15.7929 11.5937C15.7812 11.6328 15.7734 11.6719 15.7617 11.7109C15.6171 12.2031 15.5117 12.707 15.4218 13.2148C15.164 14.707 15.1953 16.2304 15.5156 17.7109L15.7968 19.0156C15.8867 19.4258 15.5742 19.8125 15.1523 19.8125H13.164C13.0234 19.8125 12.8828 19.7656 12.7695 19.6797C10.9687 18.3242 10.3828 15.8789 11.3828 13.8594Z"/><path fill="url(#paint10_linear_45_1363)" d="M12.7694 19.6797C11.5584 18.7695 10.8983 17.3672 10.8983 15.9297C10.8983 15.418 10.9842 14.8984 11.1561 14.3984C11.2967 13.9922 11.3084 13.5547 11.1756 13.1484C10.9881 12.5664 10.7381 12.0078 10.4295 11.4766C10.1288 10.957 10.2108 10.3125 10.6092 9.89063C10.6678 9.82813 10.7303 9.77344 10.8006 9.72266C11.41 9.27734 12.2694 9.42188 12.6952 10.0469C12.785 10.1758 12.9764 10.4922 13.2264 10.9141C13.7928 11.8672 14.6522 13.3594 15.2772 14.4531C15.2616 14.7109 15.2499 14.9688 15.2499 15.2266C15.2499 15.4844 15.2577 15.7578 15.2772 16.0234C15.3163 16.5898 15.3944 17.1563 15.5155 17.7148L15.7967 19.0195C15.8866 19.4297 15.5741 19.8164 15.1522 19.8164H13.1639C13.0233 19.8086 12.8866 19.7656 12.7694 19.6797Z"/><path fill="url(#paint11_linear_45_1363)" d="M12.7694 19.6797C11.5584 18.7695 10.8983 17.3672 10.8983 15.9297C10.8983 15.418 10.9842 14.8984 11.1561 14.3984C11.2967 13.9922 11.3084 13.5547 11.1756 13.1484C10.9881 12.5664 10.7381 12.0078 10.4295 11.4766C10.1288 10.957 10.2108 10.3125 10.6092 9.89063C10.6678 9.82813 10.7303 9.77344 10.8006 9.72266C11.41 9.27734 12.2694 9.42188 12.6952 10.0469C12.785 10.1758 12.9764 10.4922 13.2264 10.9141C13.7928 11.8672 14.6522 13.3594 15.2772 14.4531C15.2616 14.7109 15.2499 14.9688 15.2499 15.2266C15.2499 15.4844 15.2577 15.7578 15.2772 16.0234C15.3163 16.5898 15.3944 17.1563 15.5155 17.7148L15.7967 19.0195C15.8866 19.4297 15.5741 19.8164 15.1522 19.8164H13.1639C13.0233 19.8086 12.8866 19.7656 12.7694 19.6797Z"/><path fill="url(#paint12_linear_45_1363)" d="M10.25 17.7773C10.3789 18.9336 11.3555 19.8086 12.5195 19.8086H14.1797H15.1562C15.5742 19.8086 15.8906 19.4219 15.8008 19.0117L15.5195 17.707C15.3984 17.1484 15.3203 16.582 15.2812 16.0156C15.2617 15.75 15.2539 15.4844 15.2539 15.2187C15.2539 14.9609 15.2617 14.7031 15.2812 14.4453C15.0547 14.0469 14.793 13.5938 14.5273 13.1328H11.1719C11.1719 13.1367 11.1719 13.1367 11.1758 13.1406C11.2226 13.2852 11.25 13.4336 11.2617 13.5859C10.2226 14.9531 10.1094 16.5469 10.25 17.7773Z"/><path fill="url(#paint13_linear_45_1363)" d="M11.2616 13.9062H14.9648C14.3866 12.8984 13.6991 11.7109 13.2265 10.9101C12.9765 10.4882 12.7851 10.1718 12.6952 10.0429C12.2695 9.42183 11.4101 9.2773 10.8007 9.71871C10.7304 9.76949 10.6679 9.82808 10.6093 9.88668C10.2148 10.3125 10.1288 10.9531 10.4296 11.4726C10.7382 12.0039 10.9843 12.5625 11.1757 13.1445C11.2538 13.3906 11.2851 13.6484 11.2616 13.9062Z"/><path fill="url(#paint14_linear_45_1363)" d="M13.2226 10.9062C13.789 11.8594 14.6484 13.3515 15.2734 14.4453C15.3007 14.0312 15.3515 13.6172 15.4218 13.207C15.5078 12.6992 15.6172 12.1992 15.7617 11.7031C15.7734 11.664 15.7851 11.625 15.7929 11.5859C16.1328 10.3047 15.9804 8.92186 15.3437 7.74217L13.1953 3.7578C12.8476 3.10936 12.039 2.86717 11.3945 3.21874C11.0586 3.40233 10.832 3.70311 10.7382 4.04686C10.6562 4.36327 10.6875 4.71092 10.8515 5.01952L13 9.00389C13.3203 9.59374 13.3945 10.2773 13.2226 10.9062Z"/><path fill="url(#paint15_linear_45_1363)" d="M13.0039 9.01172L12.0508 7.24609H15.0781L15.3477 7.74609C15.9844 8.92578 16.1367 10.3125 15.7969 11.5898C15.7852 11.6289 15.7773 11.668 15.7656 11.707C15.6211 12.1992 15.5156 12.7031 15.4258 13.2109C15.3555 13.6211 15.3047 14.0352 15.2773 14.4492C14.6523 13.3555 13.793 11.8633 13.2266 10.9102C13.3945 10.2773 13.3203 9.59375 13.0039 9.01172Z"/><path fill="url(#paint16_linear_45_1363)" d="M15.9727 17.0781L17.5117 19.1172C17.7539 19.4375 17.5273 19.8984 17.1211 19.8984H13.5938L15.9727 17.0781Z"/><path fill="url(#paint17_linear_45_1363)" d="M15.9727 17.0781L17.5117 19.1172C17.7539 19.4375 17.5273 19.8984 17.1211 19.8984H13.5938L15.9727 17.0781Z"/><path fill="url(#paint18_linear_45_1363)" d="M11.7461 19.4844C12.918 19.0313 14.9336 17.9805 15.2461 15.9844C15.2578 15.918 15.3438 15.8945 15.3828 15.9453L16.3047 17.1172C16.3477 17.1719 16.3594 17.2422 16.3399 17.3047C16.2071 17.7383 15.6211 19.4023 14.2774 19.8828C13.9961 19.9844 13.6992 20.0156 13.4024 19.9883L11.7969 19.8398C11.6016 19.8242 11.5625 19.5547 11.7461 19.4844Z"/><path fill="url(#paint19_linear_45_1363)" d="M13.961 18.1914C13.2422 18.8281 12.375 19.2422 11.7461 19.4844C11.5625 19.5547 11.6016 19.8242 11.7969 19.8437L13.4024 19.9922C13.6992 20.0195 13.9961 19.9883 14.2774 19.8867C15.1133 19.5859 15.6563 18.8281 15.9805 18.1914H13.961Z"/><path fill="url(#paint20_linear_45_1363)" d="M7.85558 13.9805L6.40245 14.6016L6.33605 14.5156C6.14855 14.2695 5.9962 14.0039 5.87511 13.7266C5.44152 12.7148 5.47277 11.543 5.98839 10.543L7.12511 8.34765C7.40245 7.8164 8.0587 7.60546 8.58995 7.88281C9.1212 8.16015 9.33214 8.8164 9.0548 9.34765L7.91808 11.543C7.64464 12.0703 7.69933 12.7227 8.06261 13.1953C8.26183 13.4648 8.16027 13.8477 7.85558 13.9805Z"/><path fill="url(#paint21_linear_45_1363)" d="M7.85558 13.9805L6.40245 14.6016L6.33605 14.5156C6.14855 14.2695 5.9962 14.0039 5.87511 13.7266C5.44152 12.7148 5.47277 11.543 5.98839 10.543L7.12511 8.34765C7.40245 7.8164 8.0587 7.60546 8.58995 7.88281C9.1212 8.16015 9.33214 8.8164 9.0548 9.34765L7.91808 11.543C7.64464 12.0703 7.69933 12.7227 8.06261 13.1953C8.26183 13.4648 8.16027 13.8477 7.85558 13.9805Z"/><path fill="url(#paint22_linear_45_1363)" d="M7.57024 12.832L5.80852 13.4726L5.51165 12.9219C5.49993 12.8984 5.4843 12.8711 5.47258 12.8476C4.77727 11.4844 4.91399 9.8242 5.82805 8.59373L7.43352 6.42967C7.7968 5.94139 8.46086 5.81248 8.97258 6.10935C9.01165 6.13279 9.05071 6.15623 9.08586 6.18357C9.6093 6.5742 9.71868 7.31248 9.33196 7.83982L7.88665 9.78904L7.72649 10.0039C7.34368 10.5195 7.28899 11.2187 7.58586 11.7851C7.55461 12.1601 7.55071 12.5117 7.57024 12.832Z"/><path fill="url(#paint23_linear_45_1363)" d="M7.57024 12.832L5.80852 13.4726L5.51165 12.9219C5.49993 12.8984 5.4843 12.8711 5.47258 12.8476C4.77727 11.4844 4.91399 9.8242 5.82805 8.59373L7.43352 6.42967C7.7968 5.94139 8.46086 5.81248 8.97258 6.10935C9.01165 6.13279 9.05071 6.15623 9.08586 6.18357C9.6093 6.5742 9.71868 7.31248 9.33196 7.83982L7.88665 9.78904L7.72649 10.0039C7.34368 10.5195 7.28899 11.2187 7.58586 11.7851C7.55461 12.1601 7.55071 12.5117 7.57024 12.832Z"/><path fill="url(#paint24_linear_45_1363)" d="M7.57024 12.832L5.80852 13.4726L5.51165 12.9219C5.49993 12.8984 5.4843 12.8711 5.47258 12.8476C4.77727 11.4844 4.91399 9.8242 5.82805 8.59373L7.43352 6.42967C7.7968 5.94139 8.46086 5.81248 8.97258 6.10935C9.01165 6.13279 9.05071 6.15623 9.08586 6.18357C9.6093 6.5742 9.71868 7.31248 9.33196 7.83982L7.88665 9.78904L7.72649 10.0039C7.34368 10.5195 7.28899 11.2187 7.58586 11.7851C7.55461 12.1601 7.55071 12.5117 7.57024 12.832Z"/><path fill="url(#paint25_linear_45_1363)" d="M5.36728 10.3711C5.43759 10.5898 5.52353 10.8047 5.6329 11.0156C5.93369 11.5976 6.64462 11.8242 7.22665 11.5273C7.80869 11.2305 8.03525 10.5156 7.73837 9.93358C7.4415 9.35545 7.504 8.64842 7.89853 8.1328L9.53915 5.99608C9.93759 5.47655 9.83994 4.73436 9.3204 4.33592C8.80087 3.93748 8.05869 4.03514 7.66025 4.55467L6.01962 6.69139C5.21103 7.74217 4.98056 9.12498 5.36728 10.3711Z"/><path fill="url(#paint26_linear_45_1363)" d="M5.36728 10.3711C5.43759 10.5898 5.52353 10.8047 5.6329 11.0156C5.93369 11.5976 6.64462 11.8242 7.22665 11.5273C7.80869 11.2305 8.03525 10.5156 7.73837 9.93358C7.4415 9.35545 7.504 8.64842 7.89853 8.1328L9.53915 5.99608C9.93759 5.47655 9.83994 4.73436 9.3204 4.33592C8.80087 3.93748 8.05869 4.03514 7.66025 4.55467L6.01962 6.69139C5.21103 7.74217 4.98056 9.12498 5.36728 10.3711Z"/><path fill="url(#paint27_linear_45_1363)" d="M7.73444 9.92969C7.43757 9.35156 7.50007 8.64453 7.8946 8.12891L8.71101 7.07031L5.32819 8.08594C5.12507 8.82812 5.13679 9.625 5.36726 10.3672C5.43757 10.5859 5.52351 10.8008 5.63288 11.0117C5.93366 11.5937 6.6446 11.8203 7.22663 11.5234C7.80866 11.2266 8.03132 10.5117 7.73444 9.92969Z"/><path fill="url(#paint28_linear_45_1363)" d="M5.80078 19.8086H7.46094C8.625 19.8086 9.60156 18.9336 9.73047 17.7773C9.90625 16.2109 9.67578 14.0586 7.64063 12.5352L5.80078 19.8086Z"/><path fill="url(#paint29_linear_45_1363)" d="M8.5977 13.8594C7.83208 12.3125 6.91411 11.3359 6.91411 11.3359C6.56645 10.5976 6.58989 9.73045 6.97661 9.0117L9.12895 5.02732C9.29692 4.71873 9.32817 4.37107 9.24223 4.05467C9.15239 3.71092 8.92583 3.40623 8.58598 3.22654C7.93754 2.87889 7.13286 3.12107 6.7852 3.7656L4.63286 7.74998C3.99614 8.92967 3.84379 10.3164 4.18364 11.5937C4.19536 11.6328 4.20317 11.6719 4.21489 11.7109C4.35942 12.2031 4.46489 12.707 4.55473 13.2148C4.81254 14.707 4.78129 16.2304 4.46098 17.7109L4.17973 19.0156C4.08989 19.4258 4.40239 19.8125 4.82426 19.8125H6.81254C6.95317 19.8125 7.09379 19.7656 7.20708 19.6797C9.01176 18.3242 9.5977 15.8789 8.5977 13.8594Z"/><path fill="url(#paint30_linear_45_1363)" d="M7.21104 19.6797C8.42198 18.7695 9.08213 17.3672 9.08213 15.9297C9.08213 15.418 8.99619 14.8984 8.82432 14.3984C8.68369 13.9922 8.67198 13.5547 8.80479 13.1484C8.99229 12.5664 9.24229 12.0078 9.55088 11.4766C9.85166 10.957 9.76963 10.3125 9.37119 9.89063C9.3126 9.82813 9.2501 9.77344 9.17979 9.72266C8.57041 9.27734 7.71104 9.42188 7.28526 10.0469C7.19541 10.1758 7.00401 10.4922 6.75401 10.9141C6.1876 11.8672 5.32823 13.3594 4.70323 14.4531C4.71885 14.7109 4.73057 14.9688 4.73057 15.2266C4.73057 15.4922 4.72276 15.7578 4.70323 16.0234C4.66416 16.5898 4.58604 17.1563 4.46494 17.7148L4.18369 19.0195C4.09385 19.4297 4.40635 19.8164 4.82823 19.8164H6.81651C6.95713 19.8086 7.09776 19.7656 7.21104 19.6797Z"/><path fill="url(#paint31_linear_45_1363)" d="M7.21104 19.6797C8.42198 18.7695 9.08213 17.3672 9.08213 15.9297C9.08213 15.418 8.99619 14.8984 8.82432 14.3984C8.68369 13.9922 8.67198 13.5547 8.80479 13.1484C8.99229 12.5664 9.24229 12.0078 9.55088 11.4766C9.85166 10.957 9.76963 10.3125 9.37119 9.89063C9.3126 9.82813 9.2501 9.77344 9.17979 9.72266C8.57041 9.27734 7.71104 9.42188 7.28526 10.0469C7.19541 10.1758 7.00401 10.4922 6.75401 10.9141C6.1876 11.8672 5.32823 13.3594 4.70323 14.4531C4.71885 14.7109 4.73057 14.9688 4.73057 15.2266C4.73057 15.4922 4.72276 15.7578 4.70323 16.0234C4.66416 16.5898 4.58604 17.1563 4.46494 17.7148L4.18369 19.0195C4.09385 19.4297 4.40635 19.8164 4.82823 19.8164H6.81651C6.95713 19.8086 7.09776 19.7656 7.21104 19.6797Z"/><path fill="url(#paint32_linear_45_1363)" d="M9.73434 17.7773C9.60543 18.9336 8.62887 19.8086 7.46481 19.8086H5.80465H4.82809C4.41012 19.8086 4.09371 19.4219 4.18355 19.0117L4.4648 17.707C4.5859 17.1484 4.66793 16.582 4.70309 16.0156C4.72262 15.75 4.73043 15.4844 4.73043 15.2187C4.73043 14.9531 4.72262 14.7031 4.70309 14.4453C4.92965 14.0469 5.19137 13.5938 5.45699 13.1328H8.80465C8.80465 13.1367 8.80074 13.1367 8.80074 13.1406C8.75387 13.2852 8.72652 13.4336 8.71481 13.5859C9.75777 14.9531 9.87105 16.5469 9.73434 17.7773Z"/><path fill="url(#paint33_linear_45_1363)" d="M8.71875 13.9062H5.01562C5.59375 12.8984 6.27734 11.7109 6.75781 10.9101C7.00781 10.4882 7.19922 10.1718 7.28906 10.0429C7.71484 9.42183 8.57422 9.2773 9.18359 9.71871C9.25391 9.76949 9.31641 9.82808 9.375 9.88668C9.76953 10.3125 9.85547 10.9531 9.55469 11.4726C9.24609 12.0039 9 12.5625 8.80859 13.1445C8.72656 13.3906 8.69922 13.6484 8.71875 13.9062Z"/><path fill="url(#paint34_linear_45_1363)" d="M6.75786 10.9062C6.19145 11.8594 5.33208 13.3515 4.70708 14.4453C4.67973 14.0312 4.62895 13.6172 4.55864 13.207C4.4727 12.6992 4.36333 12.1992 4.21879 11.7031C4.20708 11.664 4.19536 11.625 4.18754 11.5859C3.8477 10.3047 4.00004 8.92186 4.63676 7.74217L6.7852 3.7578C7.13286 3.10936 7.94145 2.86717 8.58598 3.21874C8.92192 3.40233 9.14848 3.70311 9.24223 4.04686C9.32426 4.36327 9.29301 4.71092 9.12895 5.01952L6.97661 9.00389C6.66411 9.59374 6.58989 10.2773 6.75786 10.9062Z"/><path fill="url(#paint35_linear_45_1363)" d="M6.97661 9.01172L7.92973 7.24609H4.90629L4.63676 7.74609C4.00004 8.92578 3.8477 10.3125 4.18754 11.5898C4.19926 11.6289 4.21098 11.668 4.21879 11.707C4.36333 12.1992 4.46879 12.7031 4.55864 13.2109C4.62895 13.6211 4.67973 14.0352 4.70708 14.4492C5.33208 13.3555 6.19145 11.8633 6.75786 10.9102C6.58989 10.2773 6.66411 9.59375 6.97661 9.01172Z"/><path fill="url(#paint36_linear_45_1363)" d="M4.02734 17.0781L2.48828 19.1172C2.24609 19.4375 2.47656 19.8984 2.8789 19.8984H6.40625L4.02734 17.0781Z"/><path fill="url(#paint37_linear_45_1363)" d="M4.02734 17.0781L2.48828 19.1172C2.24609 19.4375 2.47656 19.8984 2.8789 19.8984H6.40625L4.02734 17.0781Z"/><path fill="url(#paint38_linear_45_1363)" d="M8.25378 19.4844C7.078 19.0313 5.06628 17.9805 4.75378 15.9844C4.74207 15.918 4.65613 15.8945 4.61316 15.9453L3.69128 17.1172C3.64832 17.1719 3.6366 17.2422 3.65613 17.3047C3.78894 17.7383 4.37488 19.4023 5.71863 19.8828C5.99988 19.9844 6.29675 20.0156 6.59363 19.9883L8.1991 19.8398C8.39832 19.8242 8.43738 19.5547 8.25378 19.4844Z"/><path fill="url(#paint39_linear_45_1363)" d="M6.03906 18.1914C6.75781 18.8281 7.625 19.2422 8.25391 19.4844C8.4375 19.5547 8.39844 19.8242 8.20312 19.8437L6.59766 19.9922C6.30078 20.0195 6.00391 19.9883 5.72266 19.8867C4.88672 19.5859 4.34375 18.8281 4.01953 18.1914H6.03906Z"/><path fill="url(#paint40_linear_45_1363)" d="M10 0C9.83984 0 9.70703 0.132812 9.70703 0.292969V1.69922C9.70703 1.85938 9.83984 1.99219 10 1.99219C10.1602 1.99219 10.293 1.85938 10.293 1.69922V0.292969C10.293 0.132812 10.1602 0 10 0Z"/><path fill="url(#paint41_linear_45_1363)" d="M16.2148 2.57422C16.1016 2.46094 15.9141 2.46094 15.8008 2.57422L14.8047 3.57031C14.6914 3.68359 14.6914 3.87109 14.8047 3.98437C14.8633 4.04297 14.9375 4.07031 15.0117 4.07031C15.0859 4.07031 15.1602 4.04297 15.2188 3.98437L16.2148 2.98828C16.3281 2.875 16.3281 2.6875 16.2148 2.57422Z"/><path fill="url(#paint42_linear_45_1363)" d="M4.19922 2.57422C4.08594 2.46094 3.89844 2.46094 3.78516 2.57422C3.67188 2.6875 3.67188 2.875 3.78516 2.98828L4.78125 3.98437C4.83984 4.04297 4.91406 4.07031 4.98828 4.07031C5.0625 4.07031 5.13672 4.04297 5.19531 3.98437C5.30859 3.87109 5.30859 3.68359 5.19531 3.57031L4.19922 2.57422Z"/><path fill="url(#paint43_linear_45_1363)" d="M13.3086 0.648461C13.1602 0.585961 12.9883 0.66018 12.9258 0.808617L12.3985 2.1094C12.336 2.25784 12.4102 2.42971 12.5586 2.49221C12.5938 2.50784 12.6328 2.51565 12.668 2.51565C12.7852 2.51565 12.8946 2.44534 12.9414 2.33205L13.4727 1.03127C13.5313 0.87893 13.461 0.707055 13.3086 0.648461Z"/><path fill="url(#paint44_linear_45_1363)" d="M6.96863 0.847658C6.90613 0.69922 6.73425 0.628908 6.58582 0.691408C6.43738 0.753908 6.36707 0.925783 6.42957 1.07422L6.97644 2.3711C7.02332 2.48438 7.13269 2.55078 7.24597 2.55078C7.28504 2.55078 7.3241 2.54297 7.35925 2.52735C7.50769 2.46485 7.578 2.29297 7.5155 2.14453L6.96863 0.847658Z"/></g><defs><linearGradient id="paint0_linear_45_1363" x1="12.202" x2="13.181" y1="11.394" y2="10.937" gradientUnits="userSpaceOnUse"><stop stop-color="#FFDFCF"/><stop offset="1" stop-color="#FFA78F"/></linearGradient><linearGradient id="paint1_linear_45_1363" x1="11.585" x2="11.036" y1="11.375" y2="11.454" gradientUnits="userSpaceOnUse"><stop stop-color="#fff" stop-opacity="0"/><stop offset=".09" stop-color="#fff" stop-opacity=".02"/><stop offset=".22" stop-color="#fff" stop-opacity=".09"/><stop offset=".36" stop-color="#fff" stop-opacity=".2"/><stop offset=".52" stop-color="#fff" stop-opacity=".36"/><stop offset=".69" stop-color="#fff" stop-opacity=".56"/><stop offset=".87" stop-color="#fff" stop-opacity=".8"/><stop offset="1" stop-color="#fff"/></linearGradient><linearGradient id="paint2_linear_45_1363" x1="11.9" x2="13.145" y1="10.045" y2="9.597" gradientUnits="userSpaceOnUse"><stop stop-color="#FFDFCF"/><stop offset="1" stop-color="#FFA78F"/></linearGradient><linearGradient id="paint3_linear_45_1363" x1="11.627" x2="10.567" y1="9.896" y2="10.044" gradientUnits="userSpaceOnUse"><stop stop-color="#fff" stop-opacity="0"/><stop offset=".09" stop-color="#fff" stop-opacity=".02"/><stop offset=".22" stop-color="#fff" stop-opacity=".09"/><stop offset=".36" stop-color="#fff" stop-opacity=".2"/><stop offset=".52" stop-color="#fff" stop-opacity=".36"/><stop offset=".69" stop-color="#fff" stop-opacity=".56"/><stop offset=".87" stop-color="#fff" stop-opacity=".8"/><stop offset="1" stop-color="#fff"/></linearGradient><linearGradient id="paint4_linear_45_1363" x1="11.804" x2="14.022" y1="8.124" y2="7.054" gradientUnits="userSpaceOnUse"><stop stop-color="#FFDFCF"/><stop offset="1" stop-color="#FFA78F"/></linearGradient><linearGradient id="paint5_linear_45_1363" x1="10.537" x2="9.386" y1="7.234" y2="6.866" gradientUnits="userSpaceOnUse"><stop stop-color="#fff" stop-opacity="0"/><stop offset=".09" stop-color="#fff" stop-opacity=".02"/><stop offset=".22" stop-color="#fff" stop-opacity=".09"/><stop offset=".36" stop-color="#fff" stop-opacity=".2"/><stop offset=".52" stop-color="#fff" stop-opacity=".36"/><stop offset=".69" stop-color="#fff" stop-opacity=".56"/><stop offset=".87" stop-color="#fff" stop-opacity=".8"/><stop offset="1" stop-color="#fff"/></linearGradient><linearGradient id="paint6_linear_45_1363" x1="12.709" x2="13.761" y1="7.797" y2="7.59" gradientUnits="userSpaceOnUse"><stop stop-color="#F89580" stop-opacity="0"/><stop offset=".1" stop-color="#F5937E" stop-opacity=".05"/><stop offset=".27" stop-color="#EE8E79" stop-opacity=".18"/><stop offset=".49" stop-color="#E38671" stop-opacity=".39"/><stop offset=".75" stop-color="#D57C65" stop-opacity=".69"/><stop offset="1" stop-color="#C5715A"/></linearGradient><linearGradient id="paint7_linear_45_1363" x1="12.985" x2="12.069" y1="8.729" y2="10.649" gradientUnits="userSpaceOnUse"><stop stop-color="#F89580" stop-opacity="0"/><stop offset=".1" stop-color="#F5937E" stop-opacity=".05"/><stop offset=".27" stop-color="#EE8E79" stop-opacity=".18"/><stop offset=".49" stop-color="#E38671" stop-opacity=".39"/><stop offset=".75" stop-color="#D57C65" stop-opacity=".69"/><stop offset="1" stop-color="#C5715A"/></linearGradient><linearGradient id="paint8_linear_45_1363" x1="10.242" x2="12.832" y1="17.633" y2="16.38" gradientUnits="userSpaceOnUse"><stop stop-color="#FFDFCF"/><stop offset="1" stop-color="#FFA78F"/></linearGradient><linearGradient id="paint9_linear_45_1363" x1="10.867" x2="16.37" y1="11.219" y2="11.907" gradientUnits="userSpaceOnUse"><stop stop-color="#FFDFCF"/><stop offset="1" stop-color="#FFA78F"/></linearGradient><linearGradient id="paint10_linear_45_1363" x1="10.47" x2="15.973" y1="14.395" y2="15.082" gradientUnits="userSpaceOnUse"><stop stop-color="#FFDFCF"/><stop offset="1" stop-color="#FFA78F"/></linearGradient><linearGradient id="paint11_linear_45_1363" x1="14.449" x2="15.519" y1="13.277" y2="12.092" gradientUnits="userSpaceOnUse"><stop stop-color="#F89580" stop-opacity="0"/><stop offset=".1" stop-color="#F5937E" stop-opacity=".05"/><stop offset=".27" stop-color="#EE8E79" stop-opacity=".18"/><stop offset=".49" stop-color="#E38671" stop-opacity=".39"/><stop offset=".75" stop-color="#D57C65" stop-opacity=".69"/><stop offset="1" stop-color="#C5715A"/></linearGradient><linearGradient id="paint12_linear_45_1363" x1="13.2" x2="13.98" y1="17.158" y2="18.745" gradientUnits="userSpaceOnUse"><stop stop-color="#F89580" stop-opacity="0"/><stop offset=".1" stop-color="#F5937E" stop-opacity=".05"/><stop offset=".27" stop-color="#EE8E79" stop-opacity=".18"/><stop offset=".49" stop-color="#E38671" stop-opacity=".39"/><stop offset=".75" stop-color="#D57C65" stop-opacity=".69"/><stop offset="1" stop-color="#C5715A"/></linearGradient><linearGradient id="paint13_linear_45_1363" x1="10.965" x2="9.905" y1="11.535" y2="11.248" gradientUnits="userSpaceOnUse"><stop stop-color="#fff" stop-opacity="0"/><stop offset=".09" stop-color="#fff" stop-opacity=".02"/><stop offset=".22" stop-color="#fff" stop-opacity=".09"/><stop offset=".36" stop-color="#fff" stop-opacity=".2"/><stop offset=".52" stop-color="#fff" stop-opacity=".36"/><stop offset=".69" stop-color="#fff" stop-opacity=".56"/><stop offset=".87" stop-color="#fff" stop-opacity=".8"/><stop offset="1" stop-color="#fff"/></linearGradient><linearGradient id="paint14_linear_45_1363" x1="13.575" x2="15.668" y1="8.731" y2="7.842" gradientUnits="userSpaceOnUse"><stop stop-color="#F89580" stop-opacity="0"/><stop offset=".1" stop-color="#F5937E" stop-opacity=".05"/><stop offset=".27" stop-color="#EE8E79" stop-opacity=".18"/><stop offset=".49" stop-color="#E38671" stop-opacity=".39"/><stop offset=".75" stop-color="#D57C65" stop-opacity=".69"/><stop offset="1" stop-color="#C5715A"/></linearGradient><linearGradient id="paint15_linear_45_1363" x1="13.672" x2="13.141" y1="10.845" y2="11.088" gradientUnits="userSpaceOnUse"><stop stop-color="#F89580" stop-opacity="0"/><stop offset=".1" stop-color="#F5937E" stop-opacity=".05"/><stop offset=".27" stop-color="#EE8E79" stop-opacity=".18"/><stop offset=".49" stop-color="#E38671" stop-opacity=".39"/><stop offset=".75" stop-color="#D57C65" stop-opacity=".69"/><stop offset="1" stop-color="#C5715A"/></linearGradient><linearGradient id="paint16_linear_45_1363" x1="16.296" x2="15.553" y1="18.235" y2="19.814" gradientUnits="userSpaceOnUse"><stop stop-color="#B3DAFE"/><stop offset="1" stop-color="#0182FC"/></linearGradient><linearGradient id="paint17_linear_45_1363" x1="16.641" x2="14.928" y1="19.395" y2="18.559" gradientUnits="userSpaceOnUse"><stop stop-color="#0182FC" stop-opacity="0"/><stop offset=".16" stop-color="#017EF2" stop-opacity=".07"/><stop offset=".4" stop-color="#0174D6" stop-opacity=".25"/><stop offset=".68" stop-color="#0163A8" stop-opacity=".56"/><stop offset=".99" stop-color="#014D69" stop-opacity=".98"/><stop offset="1" stop-color="#024C67"/></linearGradient><linearGradient id="paint18_linear_45_1363" x1="14.941" x2="13.677" y1="16.868" y2="19.132" gradientUnits="userSpaceOnUse"><stop stop-color="#EAF6FF"/><stop offset="1" stop-color="#B4D2E2"/></linearGradient><linearGradient id="paint19_linear_45_1363" x1="13.758" x2="13.721" y1="19.578" y2="20.098" gradientUnits="userSpaceOnUse"><stop stop-color="#3692BC" stop-opacity="0"/><stop offset=".12" stop-color="#3692BC" stop-opacity=".03"/><stop offset=".27" stop-color="#3692BC" stop-opacity=".1"/><stop offset=".43" stop-color="#3692BC" stop-opacity=".23"/><stop offset=".6" stop-color="#3692BC" stop-opacity=".41"/><stop offset=".77" stop-color="#3692BC" stop-opacity=".64"/><stop offset=".95" stop-color="#3692BC" stop-opacity=".92"/><stop offset="1" stop-color="#3692BC"/></linearGradient><linearGradient id="paint20_linear_45_1363" x1="6.976" x2="7.942" y1="10.857" y2="11.562" gradientUnits="userSpaceOnUse"><stop stop-color="#FFDFCF"/><stop offset="1" stop-color="#FFA78F"/></linearGradient><linearGradient id="paint21_linear_45_1363" x1="7.947" x2="7.186" y1="11.464" y2="11.093" gradientUnits="userSpaceOnUse"><stop stop-color="#F89580" stop-opacity="0"/><stop offset=".1" stop-color="#F5937E" stop-opacity=".05"/><stop offset=".27" stop-color="#EE8E79" stop-opacity=".18"/><stop offset=".49" stop-color="#E38671" stop-opacity=".39"/><stop offset=".75" stop-color="#D57C65" stop-opacity=".69"/><stop offset="1" stop-color="#C5715A"/></linearGradient><linearGradient id="paint22_linear_45_1363" x1="7.276" x2="8.836" y1="9.736" y2="10.349" gradientUnits="userSpaceOnUse"><stop stop-color="#FFDFCF"/><stop offset="1" stop-color="#FFA78F"/></linearGradient><linearGradient id="paint23_linear_45_1363" x1="7.651" x2="6.667" y1="9.949" y2="9.337" gradientUnits="userSpaceOnUse"><stop stop-color="#F89580" stop-opacity="0"/><stop offset=".1" stop-color="#F5937E" stop-opacity=".05"/><stop offset=".27" stop-color="#EE8E79" stop-opacity=".18"/><stop offset=".49" stop-color="#E38671" stop-opacity=".39"/><stop offset=".75" stop-color="#D57C65" stop-opacity=".69"/><stop offset="1" stop-color="#C5715A"/></linearGradient><linearGradient id="paint24_linear_45_1363" x1="8.397" x2="7.297" y1="9.06" y2="9.687" gradientUnits="userSpaceOnUse"><stop stop-color="#F89580" stop-opacity="0"/><stop offset=".1" stop-color="#F5937E" stop-opacity=".05"/><stop offset=".27" stop-color="#EE8E79" stop-opacity=".18"/><stop offset=".49" stop-color="#E38671" stop-opacity=".39"/><stop offset=".75" stop-color="#D57C65" stop-opacity=".69"/><stop offset="1" stop-color="#C5715A"/></linearGradient><linearGradient id="paint25_linear_45_1363" x1="7.442" x2="9.15" y1="7.797" y2="8.447" gradientUnits="userSpaceOnUse"><stop stop-color="#FFDFCF"/><stop offset="1" stop-color="#FFA78F"/></linearGradient><linearGradient id="paint26_linear_45_1363" x1="8.243" x2="7.036" y1="8.187" y2="7.557" gradientUnits="userSpaceOnUse"><stop stop-color="#F89580" stop-opacity="0"/><stop offset=".1" stop-color="#F5937E" stop-opacity=".05"/><stop offset=".27" stop-color="#EE8E79" stop-opacity=".18"/><stop offset=".49" stop-color="#E38671" stop-opacity=".39"/><stop offset=".75" stop-color="#D57C65" stop-opacity=".69"/><stop offset="1" stop-color="#C5715A"/></linearGradient><linearGradient id="paint27_linear_45_1363" x1="7.003" x2="7.92" y1="8.726" y2="10.646" gradientUnits="userSpaceOnUse"><stop stop-color="#F89580" stop-opacity="0"/><stop offset=".1" stop-color="#F5937E" stop-opacity=".05"/><stop offset=".27" stop-color="#EE8E79" stop-opacity=".18"/><stop offset=".49" stop-color="#E38671" stop-opacity=".39"/><stop offset=".75" stop-color="#D57C65" stop-opacity=".69"/><stop offset="1" stop-color="#C5715A"/></linearGradient><linearGradient id="paint28_linear_45_1363" x1="5.379" x2="9.306" y1="14.739" y2="18.777" gradientUnits="userSpaceOnUse"><stop stop-color="#FFDFCF"/><stop offset="1" stop-color="#FFA78F"/></linearGradient><linearGradient id="paint29_linear_45_1363" x1="4.735" x2="11.028" y1="10.689" y2="13.418" gradientUnits="userSpaceOnUse"><stop stop-color="#FFDFCF"/><stop offset="1" stop-color="#FFA78F"/></linearGradient><linearGradient id="paint30_linear_45_1363" x1="3.602" x2="9.895" y1="13.301" y2="16.03" gradientUnits="userSpaceOnUse"><stop stop-color="#FFDFCF"/><stop offset="1" stop-color="#FFA78F"/></linearGradient><linearGradient id="paint31_linear_45_1363" x1="5.533" x2="4.463" y1="13.277" y2="12.092" gradientUnits="userSpaceOnUse"><stop stop-color="#F89580" stop-opacity="0"/><stop offset=".1" stop-color="#F5937E" stop-opacity=".05"/><stop offset=".27" stop-color="#EE8E79" stop-opacity=".18"/><stop offset=".49" stop-color="#E38671" stop-opacity=".39"/><stop offset=".75" stop-color="#D57C65" stop-opacity=".69"/><stop offset="1" stop-color="#C5715A"/></linearGradient><linearGradient id="paint32_linear_45_1363" x1="6.782" x2="6.003" y1="17.158" y2="18.745" gradientUnits="userSpaceOnUse"><stop stop-color="#F89580" stop-opacity="0"/><stop offset=".1" stop-color="#F5937E" stop-opacity=".05"/><stop offset=".27" stop-color="#EE8E79" stop-opacity=".18"/><stop offset=".49" stop-color="#E38671" stop-opacity=".39"/><stop offset=".75" stop-color="#D57C65" stop-opacity=".69"/><stop offset="1" stop-color="#C5715A"/></linearGradient><linearGradient id="paint33_linear_45_1363" x1="9.018" x2="10.078" y1="11.535" y2="11.248" gradientUnits="userSpaceOnUse"><stop stop-color="#fff" stop-opacity="0"/><stop offset=".09" stop-color="#fff" stop-opacity=".02"/><stop offset=".22" stop-color="#fff" stop-opacity=".09"/><stop offset=".36" stop-color="#fff" stop-opacity=".2"/><stop offset=".52" stop-color="#fff" stop-opacity=".36"/><stop offset=".69" stop-color="#fff" stop-opacity=".56"/><stop offset=".87" stop-color="#fff" stop-opacity=".8"/><stop offset="1" stop-color="#fff"/></linearGradient><linearGradient id="paint34_linear_45_1363" x1="6.424" x2="8.485" y1="8.751" y2="9.438" gradientUnits="userSpaceOnUse"><stop stop-color="#F89580" stop-opacity="0"/><stop offset=".1" stop-color="#F5937E" stop-opacity=".05"/><stop offset=".27" stop-color="#EE8E79" stop-opacity=".18"/><stop offset=".49" stop-color="#E38671" stop-opacity=".39"/><stop offset=".75" stop-color="#D57C65" stop-opacity=".69"/><stop offset="1" stop-color="#C5715A"/></linearGradient><linearGradient id="paint35_linear_45_1363" x1="6.311" x2="6.841" y1="10.845" y2="11.088" gradientUnits="userSpaceOnUse"><stop stop-color="#F89580" stop-opacity="0"/><stop offset=".1" stop-color="#F5937E" stop-opacity=".05"/><stop offset=".27" stop-color="#EE8E79" stop-opacity=".18"/><stop offset=".49" stop-color="#E38671" stop-opacity=".39"/><stop offset=".75" stop-color="#D57C65" stop-opacity=".69"/><stop offset="1" stop-color="#C5715A"/></linearGradient><linearGradient id="paint36_linear_45_1363" x1="3.704" x2="4.447" y1="18.235" y2="19.814" gradientUnits="userSpaceOnUse"><stop stop-color="#FEF0AE"/><stop offset="1" stop-color="#FAC600"/></linearGradient><linearGradient id="paint37_linear_45_1363" x1="3.359" x2="5.071" y1="19.395" y2="18.56" gradientUnits="userSpaceOnUse"><stop stop-color="#FE9738" stop-opacity="0"/><stop offset=".1" stop-color="#FE9738" stop-opacity=".02"/><stop offset=".23" stop-color="#FE9738" stop-opacity=".08"/><stop offset=".36" stop-color="#FE9738" stop-opacity=".17"/><stop offset=".5" stop-color="#FE9738" stop-opacity=".31"/><stop offset=".65" stop-color="#FE9738" stop-opacity=".48"/><stop offset=".81" stop-color="#FE9738" stop-opacity=".69"/><stop offset=".96" stop-color="#FE9738" stop-opacity=".94"/><stop offset="1" stop-color="#FE9738"/></linearGradient><linearGradient id="paint38_linear_45_1363" x1="5.059" x2="6.323" y1="16.868" y2="19.132" gradientUnits="userSpaceOnUse"><stop stop-color="#EAF6FF"/><stop offset="1" stop-color="#B4D2E2"/></linearGradient><linearGradient id="paint39_linear_45_1363" x1="6.242" x2="6.279" y1="19.578" y2="20.098" gradientUnits="userSpaceOnUse"><stop stop-color="#3692BC" stop-opacity="0"/><stop offset=".12" stop-color="#3692BC" stop-opacity=".03"/><stop offset=".27" stop-color="#3692BC" stop-opacity=".1"/><stop offset=".43" stop-color="#3692BC" stop-opacity=".23"/><stop offset=".6" stop-color="#3692BC" stop-opacity=".41"/><stop offset=".77" stop-color="#3692BC" stop-opacity=".64"/><stop offset=".95" stop-color="#3692BC" stop-opacity=".92"/><stop offset="1" stop-color="#3692BC"/></linearGradient><linearGradient id="paint40_linear_45_1363" x1="9.441" x2="10.559" y1=".437" y2="1.555" gradientUnits="userSpaceOnUse"><stop stop-color="#C9F6B0"/><stop offset="1" stop-color="#0AB69F"/></linearGradient><linearGradient id="paint41_linear_45_1363" x1="15.303" x2="15.717" y1="3.071" y2="3.486" gradientUnits="userSpaceOnUse"><stop stop-color="#C9F6B0"/><stop offset="1" stop-color="#0AB69F"/></linearGradient><linearGradient id="paint42_linear_45_1363" x1="3.785" x2="5.194" y1="2.574" y2="3.983" gradientUnits="userSpaceOnUse"><stop stop-color="#C9F6B0"/><stop offset="1" stop-color="#0AB69F"/></linearGradient><linearGradient id="paint43_linear_45_1363" x1="12.535" x2="13.335" y1="1.17" y2="1.97" gradientUnits="userSpaceOnUse"><stop stop-color="#C9F6B0"/><stop offset="1" stop-color="#0AB69F"/></linearGradient><linearGradient id="paint44_linear_45_1363" x1="6.303" x2="7.639" y1=".941" y2="2.277" gradientUnits="userSpaceOnUse"><stop stop-color="#C9F6B0"/><stop offset="1" stop-color="#0AB69F"/></linearGradient><clipPath id="clip0_45_1363"><rect width="20" height="20" fill="#fff"/></clipPath></defs></svg>