<svg xmlns="http://www.w3.org/2000/svg" width="16" height="16" fill="none" viewBox="0 0 16 16"><g clip-path="url(#clip0_143_3442)"><path fill="url(#paint0_linear_143_3442)" stroke="url(#paint1_linear_143_3442)" stroke-width=".133" d="M4.18738 5.91095C4.37375 5.87409 4.56564 5.87415 4.75183 5.91193C4.93807 5.94972 5.11504 6.02404 5.27234 6.13068C5.42968 6.23736 5.56378 6.37492 5.66785 6.534H5.66882C5.71236 6.60227 5.72808 6.68495 5.71277 6.76447C5.69745 6.84383 5.65241 6.91454 5.58679 6.96173L5.58289 6.96368C5.51489 7.00627 5.43314 7.02194 5.35437 7.00665C5.27574 6.99136 5.20617 6.94644 5.15906 6.88165L5.15613 6.87872V6.87775C5.09678 6.78692 5.02015 6.70847 4.93054 6.64728C4.84065 6.5859 4.73926 6.54346 4.63269 6.5213C4.52621 6.49919 4.41626 6.49793 4.30945 6.51837C4.20261 6.53888 4.10043 6.5805 4.00964 6.64044L4.00281 6.64532L3.995 6.64825C3.92867 6.67189 3.85581 6.67227 3.78894 6.65021C3.72232 6.62814 3.66502 6.58443 3.62585 6.52618C3.58661 6.46768 3.56816 6.39723 3.57312 6.32697C3.57814 6.25682 3.60621 6.18985 3.6532 6.13751L3.65808 6.13165L3.66492 6.12677C3.82275 6.02082 4.0009 5.94788 4.18738 5.91095Z"/><path fill="url(#paint2_linear_143_3442)" stroke="url(#paint3_linear_143_3442)" stroke-width=".133" d="M3.27563 9.0473C3.3428 9.05832 3.40506 9.09116 3.45239 9.14008C3.49949 9.18891 3.52953 9.25151 3.53833 9.31879L3.54028 9.33051L3.53735 9.34125C3.5147 9.44762 3.51355 9.55757 3.53345 9.66449C3.55341 9.77149 3.59404 9.87414 3.65356 9.96527C3.71302 10.0563 3.79032 10.1345 3.88013 10.1957C3.94773 10.2418 4.02205 10.278 4.09985 10.3022L4.17798 10.3227L4.20532 10.3276L4.21509 10.3422C4.2705 10.3681 4.31731 10.4092 4.34985 10.4614C4.38656 10.5202 4.4032 10.5896 4.39673 10.6586C4.39022 10.7274 4.36148 10.7923 4.3147 10.8432C4.26777 10.8941 4.20513 10.9287 4.13696 10.9409L4.12524 10.9428V10.9418H4.0647V10.9409C3.87804 10.9043 3.70035 10.8308 3.54224 10.725C3.38419 10.6194 3.24889 10.4831 3.1438 10.3246C3.03869 10.1661 2.96578 9.98801 2.92993 9.80121C2.89414 9.61459 2.89595 9.42275 2.93481 9.23676L2.93677 9.22797L2.9397 9.22113C2.96959 9.15998 3.01887 9.10979 3.07935 9.07855C3.13976 9.04736 3.20854 9.03634 3.27563 9.0473Z"/><path fill="url(#paint4_linear_143_3442)" stroke="url(#paint5_linear_143_3442)" stroke-width=".133" d="M5.34729 9.02057C5.39358 9.03527 5.43629 9.06015 5.47131 9.09381C5.50631 9.12746 5.53292 9.16925 5.54944 9.2149C5.56412 9.25562 5.56872 9.29876 5.56604 9.34186L5.58069 9.42194C5.62371 9.60762 5.73015 9.77333 5.88245 9.89069C6.05636 10.0247 6.27604 10.0848 6.49377 10.0567H6.49475C6.57496 10.0474 6.65559 10.069 6.72034 10.1172C6.76879 10.1534 6.80548 10.2022 6.82678 10.2579L6.84338 10.3155L6.84436 10.3194H6.84338C6.85268 10.3996 6.83111 10.4812 6.78284 10.546C6.73457 10.6105 6.66301 10.6541 6.58362 10.668L6.58167 10.669C6.51213 10.6786 6.44189 10.6826 6.3717 10.6817C6.0246 10.6795 5.69045 10.5512 5.4303 10.3214C5.17145 10.0927 5.00469 9.77875 4.95862 9.43658C4.94256 9.39541 4.93316 9.35192 4.93518 9.30768C4.93742 9.25922 4.95082 9.21149 4.97424 9.16901C4.99768 9.12661 5.03118 9.09027 5.07092 9.06256C5.11063 9.03495 5.15592 9.01615 5.20374 9.00885C5.25172 9.00156 5.30103 9.0059 5.34729 9.02057Z"/><mask id="path-4-outside-1_143_3442" width="18" height="17" x="-.993" y="-.718" fill="#000" maskUnits="userSpaceOnUse"><rect width="18" height="17" x="-.993" y="-.718" fill="#fff"/><path d="M15.0875 9.7325C14.8881 9.73298 14.6944 9.79875 14.5359 9.91974C14.3775 10.0407 14.263 10.2103 14.21 10.4025H13.3725L12.1025 8.945C12.0794 8.91942 12.0513 8.89888 12.0199 8.88468C11.9885 8.87048 11.9545 8.86293 11.92 8.8625H8.53749V8.39501V7.14501H11.92C11.9545 7.14458 11.9885 7.13703 12.0199 7.12283C12.0513 7.10863 12.0794 7.08809 12.1025 7.06251L13.3725 5.60501H14.21C14.2687 5.81857 14.4029 6.00359 14.5876 6.12574C14.7724 6.2479 14.9951 6.2989 15.2146 6.26929C15.4341 6.23967 15.6354 6.13145 15.7812 5.9647C15.9269 5.79795 16.0073 5.58399 16.0073 5.36251C16.0073 5.14103 15.9269 4.92706 15.7812 4.76031C15.6354 4.59356 15.4341 4.48534 15.2146 4.45572C14.9951 4.42611 14.7724 4.47711 14.5876 4.59927C14.4029 4.72143 14.2687 4.90645 14.21 5.12001H13.2625C13.228 5.12043 13.194 5.12798 13.1626 5.14218C13.1312 5.15638 13.1031 5.17692 13.08 5.20251L11.81 6.66001H8.53749V5.75001H11.7075C11.7423 5.75024 11.7767 5.74274 11.8083 5.72804C11.8399 5.71334 11.8678 5.69181 11.89 5.66501L12.775 4.62501C12.8129 4.58136 12.8333 4.52529 12.8325 4.46751V3.50001C13.044 3.44135 13.2271 3.30804 13.3478 3.12475C13.4686 2.94146 13.5188 2.72062 13.4892 2.50314C13.4596 2.28566 13.3522 2.08627 13.1869 1.94191C13.0215 1.79755 12.8095 1.71801 12.59 1.71801C12.3705 1.71801 12.1585 1.79755 11.9931 1.94191C11.8278 2.08627 11.7204 2.28566 11.6908 2.50314C11.6612 2.72062 11.7114 2.94146 11.8322 3.12475C11.9529 3.30804 12.136 3.44135 12.3475 3.50001V4.38501L11.5975 5.26501H8.53749V4.10501H9.64499C9.68508 4.10522 9.72463 4.09579 9.76031 4.07752C9.79598 4.05925 9.82675 4.03266 9.84999 4.00001L10.16 3.50001C10.2411 3.52458 10.3252 3.53804 10.41 3.54001C10.5909 3.54099 10.7679 3.48835 10.9189 3.38874C11.0699 3.28913 11.1879 3.14701 11.2582 2.98035C11.3284 2.81368 11.3477 2.62994 11.3135 2.45232C11.2794 2.27471 11.1934 2.1112 11.0664 1.98244C10.9394 1.85369 10.777 1.76546 10.5999 1.7289C10.4228 1.69235 10.2388 1.70911 10.0712 1.77706C9.90356 1.84502 9.75985 1.96112 9.65819 2.11071C9.55653 2.26029 9.50148 2.43665 9.49999 2.61751C9.50102 2.84779 9.59053 3.06887 9.74999 3.23501L9.49999 3.62001H8.53749V1.77751C8.53749 1.76501 8.53749 1.75751 8.53749 1.74751C8.53992 1.73009 8.53992 1.71242 8.53749 1.69501C8.39307 1.2804 8.12261 0.921328 7.76399 0.668051C7.40537 0.414775 6.97653 0.27997 6.53749 0.282506C6.13113 0.285491 5.73411 0.4048 5.39342 0.626319C5.05272 0.847837 4.7826 1.1623 4.61499 1.53251C4.29966 1.43415 3.96562 1.4113 3.63983 1.46579C3.31404 1.52029 3.00561 1.65059 2.73944 1.84621C2.47328 2.04182 2.25681 2.29726 2.10752 2.59191C1.95823 2.88657 1.88029 3.21219 1.87999 3.54251C1.8788 3.73621 1.90574 3.92905 1.95999 4.11501C1.66265 4.21033 1.39006 4.37023 1.16176 4.58327C0.933467 4.7963 0.755111 5.05719 0.639473 5.34724C0.523834 5.63729 0.473775 5.94933 0.492883 6.261C0.51199 6.57267 0.59979 6.87625 0.749994 7.15001C0.483743 7.35696 0.276612 7.6303 0.14939 7.9426C0.022167 8.2549 -0.0206713 8.59518 0.0251742 8.92927C0.0710198 9.26336 0.203936 9.57951 0.410583 9.846C0.61723 10.1125 0.890337 10.3199 1.20249 10.4475C1.01139 10.7499 0.90022 11.0959 0.8794 11.453C0.85858 11.8102 0.928795 12.1667 1.08346 12.4893C1.23813 12.8119 1.47218 13.0899 1.76367 13.2973C2.05516 13.5047 2.39454 13.6346 2.74999 13.675C2.76256 13.9975 2.8561 14.3116 3.02198 14.5884C3.18787 14.8652 3.42077 15.0958 3.69921 15.2589C3.97765 15.422 4.29267 15.5125 4.61525 15.5218C4.93782 15.5312 5.25756 15.4592 5.54499 15.3125C5.88268 15.5761 6.29909 15.7188 6.72749 15.7175C7.11675 15.7157 7.49642 15.5966 7.81704 15.3759C8.13766 15.1552 8.38436 14.843 8.52499 14.48C8.52721 14.4609 8.52721 14.4416 8.52499 14.4225C8.5262 14.4125 8.5262 14.4025 8.52499 14.3925V12.3925H9.49999L9.74999 12.7775C9.59053 12.9436 9.50102 13.1647 9.49999 13.395C9.4995 13.5761 9.55274 13.7532 9.65298 13.904C9.75322 14.0548 9.89595 14.1725 10.0631 14.2421C10.2303 14.3118 10.4143 14.3302 10.592 14.2952C10.7696 14.2602 10.9329 14.1733 11.0611 14.0454C11.1893 13.9175 11.2767 13.7545 11.3122 13.5769C11.3477 13.3994 11.3298 13.2153 11.2606 13.0479C11.1914 12.8806 11.0741 12.7375 10.9236 12.6369C10.7731 12.5362 10.5961 12.4825 10.415 12.4825C10.3302 12.4845 10.2461 12.4979 10.165 12.5225L9.84999 12C9.82787 11.9655 9.7976 11.937 9.76185 11.9169C9.7261 11.8969 9.68597 11.8859 9.64499 11.885H8.53749V10.75H11.595L12.345 11.63V12.5C12.1301 12.5587 11.9438 12.6935 11.8207 12.8792C11.6976 13.0649 11.646 13.289 11.6757 13.5098C11.7053 13.7306 11.8141 13.9332 11.9818 14.0799C12.1494 14.2266 12.3647 14.3075 12.5875 14.3075C12.8103 14.3075 13.0255 14.2266 13.1932 14.0799C13.3609 13.9332 13.4697 13.7306 13.4993 13.5098C13.529 13.289 13.4774 13.0649 13.3543 12.8792C13.2312 12.6935 13.0449 12.5587 12.83 12.5V11.525C12.8308 11.4672 12.8104 11.4111 12.7725 11.3675L11.8875 10.3325C11.8653 10.3057 11.8374 10.2842 11.8058 10.2695C11.7742 10.2548 11.7398 10.2473 11.705 10.2475H8.53749V9.3475H11.81L13.08 10.805C13.1031 10.8306 13.1312 10.8511 13.1626 10.8653C13.194 10.8795 13.228 10.8871 13.2625 10.8875H14.21C14.2552 11.0515 14.3454 11.1996 14.4703 11.3151C14.5952 11.4306 14.75 11.5088 14.917 11.541C15.0841 11.5732 15.2568 11.5581 15.4157 11.4973C15.5746 11.4365 15.7134 11.3325 15.8163 11.197C15.9192 11.0616 15.9822 10.9 15.9982 10.7306C16.0141 10.5613 15.9824 10.3908 15.9066 10.2385C15.8308 10.0862 15.714 9.95807 15.5692 9.86867C15.4245 9.77926 15.2576 9.7321 15.0875 9.7325ZM15.0875 4.92501C15.1725 4.92501 15.2557 4.95022 15.3264 4.99747C15.3971 5.04472 15.4522 5.11188 15.4848 5.19045C15.5173 5.26902 15.5258 5.35548 15.5092 5.43889C15.4926 5.52231 15.4517 5.59892 15.3916 5.65906C15.3314 5.7192 15.2548 5.76015 15.1714 5.77674C15.088 5.79333 15.0015 5.78482 14.9229 5.75227C14.8444 5.71973 14.7772 5.66461 14.73 5.5939C14.6827 5.52319 14.6575 5.44005 14.6575 5.35501C14.6575 5.24096 14.7028 5.13159 14.7834 5.05095C14.8641 4.97031 14.9735 4.92501 15.0875 4.92501ZM12.1625 2.61751C12.162 2.53225 12.1869 2.44877 12.2339 2.37767C12.281 2.30658 12.3481 2.25108 12.4268 2.21822C12.5055 2.18537 12.5921 2.17664 12.6758 2.19315C12.7594 2.20967 12.8363 2.25067 12.8965 2.31096C12.9568 2.37124 12.9978 2.44809 13.0143 2.53174C13.0309 2.61538 13.0221 2.70204 12.9893 2.78072C12.9564 2.85939 12.9009 2.92652 12.8298 2.97358C12.7587 3.02064 12.6753 3.0455 12.59 3.04501C12.4768 3.04435 12.3685 2.9991 12.2884 2.91907C12.2084 2.83904 12.1632 2.73068 12.1625 2.61751ZM10.4125 2.18751C10.4975 2.18751 10.5807 2.21272 10.6514 2.25997C10.7221 2.30722 10.7772 2.37438 10.8098 2.45295C10.8423 2.53152 10.8508 2.61798 10.8342 2.70139C10.8176 2.78481 10.7767 2.86142 10.7165 2.92156C10.6564 2.9817 10.5798 3.02265 10.4964 3.03924C10.413 3.05584 10.3265 3.04732 10.2479 3.01477C10.1694 2.98223 10.1022 2.92711 10.055 2.8564C10.0077 2.78569 9.98249 2.70255 9.98249 2.61751C9.98249 2.56083 9.9937 2.50471 10.0155 2.45237C10.0372 2.40004 10.0691 2.35252 10.1093 2.31256C10.1495 2.2726 10.1972 2.24098 10.2497 2.21952C10.3021 2.19806 10.3583 2.18718 10.415 2.18751H10.4125ZM8.04999 3.86251V5.00001C7.83602 4.89388 7.59784 4.84609 7.35949 4.86145C7.12114 4.87681 6.89107 4.95479 6.69249 5.08751C6.64056 5.12478 6.60489 5.18054 6.5928 5.24331C6.58071 5.30609 6.59312 5.37111 6.62749 5.42501C6.66471 5.47626 6.72 5.51149 6.78218 5.52355C6.84436 5.53562 6.90881 5.52363 6.96249 5.49001C7.12707 5.37845 7.32505 5.32699 7.52312 5.34429C7.72119 5.36159 7.90725 5.4466 8.04999 5.58501V6.89001V7.89001C7.83629 7.78246 7.59769 7.73409 7.35897 7.74991C7.12026 7.76574 6.89013 7.84519 6.69249 7.98001C6.6547 8.02148 6.63195 8.07446 6.62792 8.13043C6.62389 8.18639 6.6388 8.24209 6.67025 8.28856C6.70171 8.33502 6.74789 8.36955 6.80135 8.38659C6.85481 8.40363 6.91245 8.40219 6.96499 8.3825C7.12847 8.27003 7.3258 8.21755 7.52355 8.23395C7.7213 8.25036 7.90729 8.33464 8.04999 8.4725V9.0875V10.5V12.1375V14.335C7.97166 14.5287 7.85197 14.7029 7.6993 14.8456C7.54663 14.9882 7.36466 15.0958 7.1661 15.1608C6.96753 15.2258 6.75717 15.2466 6.54971 15.2219C6.34225 15.1971 6.1427 15.1274 5.96499 15.0175C6.18716 14.8194 6.33791 14.5536 6.39394 14.2613C6.44997 13.9689 6.40817 13.6662 6.27499 13.4C6.26739 13.3624 6.25124 13.3271 6.22779 13.2968C6.20435 13.2664 6.17424 13.2419 6.1398 13.225C6.10535 13.2082 6.0675 13.1995 6.02916 13.1996C5.99081 13.1997 5.95301 13.2087 5.91868 13.2257C5.88435 13.2428 5.8544 13.2676 5.83115 13.298C5.80791 13.3285 5.79199 13.364 5.78462 13.4016C5.77726 13.4392 5.77865 13.478 5.78868 13.515C5.79872 13.5521 5.81713 13.5863 5.84249 13.615C5.89367 13.7209 5.92334 13.836 5.92979 13.9534C5.93623 14.0709 5.91931 14.1885 5.88002 14.2994C5.84073 14.4103 5.77985 14.5123 5.70088 14.5995C5.62192 14.6867 5.52645 14.7574 5.41999 14.8075C5.40095 14.8196 5.38334 14.8339 5.36749 14.85C5.15202 14.9725 4.90845 15.037 4.6606 15.0371C4.41275 15.0373 4.16909 14.9732 3.95345 14.851C3.73781 14.7288 3.55755 14.5528 3.43031 14.3401C3.30306 14.1274 3.23318 13.8853 3.22749 13.6375C3.65249 13.515 4.45499 13.2075 4.57249 12.6025C4.58297 12.5394 4.56885 12.4747 4.53304 12.4216C4.49723 12.3686 4.44245 12.3314 4.37999 12.3175C4.31903 12.308 4.2567 12.3214 4.20501 12.3551C4.15332 12.3888 4.11592 12.4404 4.09999 12.5C4.02749 12.86 3.27249 13.1275 2.97249 13.1925C2.66023 13.1882 2.35583 13.094 2.0957 12.9212C1.83557 12.7485 1.63074 12.5044 1.50572 12.2182C1.3807 11.932 1.34079 11.6159 1.39076 11.3076C1.44073 10.9994 1.57847 10.712 1.78749 10.48C1.81791 10.4469 1.83885 10.4062 1.84809 10.3622C1.85732 10.3182 1.85453 10.2725 1.83999 10.23C1.82545 10.1897 1.80079 10.1539 1.7684 10.1258C1.736 10.0978 1.69695 10.0786 1.65499 10.07C1.36955 10.014 1.10781 9.87275 0.904351 9.66487C0.700889 9.45698 0.565282 9.19227 0.515442 8.90569C0.465602 8.61911 0.503875 8.32415 0.625206 8.05978C0.746536 7.79542 0.945215 7.57408 1.19499 7.42501C1.29244 7.35948 1.40193 7.31395 1.5171 7.29104C1.63227 7.26814 1.75085 7.26832 1.86595 7.29157C1.98106 7.31482 2.0904 7.36069 2.18765 7.42651C2.2849 7.49233 2.36812 7.57679 2.43249 7.67501C2.45525 7.70698 2.48521 7.73314 2.51996 7.75138C2.5547 7.76962 2.59326 7.77943 2.63249 7.78001C2.6815 7.77962 2.72932 7.76484 2.76999 7.73751C2.82152 7.69985 2.8567 7.64392 2.86832 7.58118C2.87994 7.51843 2.86712 7.45361 2.83249 7.40001C2.6544 7.13212 2.38787 6.9353 2.07944 6.84391C1.77101 6.75253 1.44028 6.77238 1.14499 6.90001C1.03004 6.68566 0.964907 6.44814 0.954443 6.20513C0.943979 5.96213 0.988453 5.7199 1.08456 5.49646C1.18066 5.27302 1.32591 5.07413 1.50951 4.91459C1.69311 4.75506 1.91033 4.63898 2.14499 4.57501C2.24023 4.73202 2.3741 4.86203 2.53383 4.95262C2.69357 5.04321 2.87386 5.09137 3.05749 5.09251C3.1829 5.09307 3.30739 5.07105 3.42499 5.02751C3.463 5.02392 3.49968 5.01167 3.53222 4.9917C3.56476 4.97174 3.5923 4.94459 3.61272 4.91233C3.63314 4.88008 3.6459 4.84357 3.65002 4.80562C3.65415 4.76767 3.64952 4.72927 3.63651 4.69338C3.62349 4.6575 3.60243 4.62506 3.57494 4.59858C3.54745 4.57209 3.51425 4.55225 3.4779 4.54058C3.44156 4.52891 3.40302 4.52572 3.36524 4.53125C3.32747 4.53679 3.29147 4.5509 3.25999 4.57251C3.11275 4.62306 2.95153 4.61364 2.81119 4.54627C2.67084 4.47891 2.56264 4.35901 2.50999 4.21251C2.51094 4.20504 2.51094 4.19748 2.50999 4.19001C2.38036 3.88931 2.34475 3.55643 2.40783 3.23512C2.47091 2.9138 2.62973 2.6191 2.86343 2.38973C3.09712 2.16036 3.39475 2.00707 3.71718 1.95001C4.03962 1.89295 4.37177 1.93478 4.66999 2.07001H4.69499H4.71999C5.41249 2.20501 5.61749 2.84001 5.50999 3.40751C5.50021 3.47023 5.51466 3.53433 5.55041 3.5868C5.58616 3.63926 5.64053 3.67616 5.70249 3.69001H5.74749C5.80563 3.6913 5.8624 3.67229 5.90803 3.63624C5.95366 3.60019 5.9853 3.54936 5.99749 3.49251C6.15499 2.64751 5.79249 1.93751 5.10249 1.67001C5.23636 1.39707 5.44366 1.16686 5.70112 1.00523C5.95858 0.843601 6.25601 0.756949 6.55999 0.755006C6.8905 0.754454 7.21321 0.855315 7.48458 1.04397C7.75594 1.23263 7.96289 1.50001 8.07749 1.81001L8.04999 3.86251ZM10.4125 12.955C10.4976 12.955 10.5809 12.9803 10.6516 13.0276C10.7224 13.075 10.7775 13.1423 10.81 13.221C10.8425 13.2998 10.8508 13.3863 10.834 13.4698C10.8172 13.5533 10.776 13.6299 10.7157 13.6899C10.6553 13.75 10.5784 13.7907 10.4948 13.807C10.4113 13.8234 10.3247 13.8145 10.2462 13.7816C10.1677 13.7486 10.1007 13.6931 10.0537 13.6221C10.0068 13.551 9.982 13.4677 9.98249 13.3825C9.98282 13.326 9.99427 13.2702 10.0162 13.2181C10.0381 13.1661 10.07 13.1189 10.1102 13.0792C10.1504 13.0395 10.198 13.0081 10.2502 12.9868C10.3025 12.9655 10.3585 12.9547 10.415 12.955H10.4125ZM13.0175 13.3825C13.018 13.4677 12.9932 13.551 12.9462 13.6221C12.8993 13.6931 12.8323 13.7486 12.7538 13.7816C12.6753 13.8145 12.5887 13.8234 12.5051 13.807C12.4216 13.7907 12.3447 13.75 12.2843 13.6899C12.2239 13.6299 12.1827 13.5533 12.1659 13.4698C12.1492 13.3863 12.1575 13.2998 12.19 13.221C12.2225 13.1423 12.2776 13.075 12.3483 13.0276C12.4191 12.9803 12.5023 12.955 12.5875 12.955C12.644 12.9547 12.6999 12.9655 12.7522 12.9868C12.8045 13.0081 12.8521 13.0395 12.8923 13.0792C12.9324 13.1189 12.9644 13.1661 12.9863 13.2181C13.0082 13.2702 13.0197 13.326 13.02 13.3825H13.0175ZM15.085 11.075C14.9998 11.0755 14.9165 11.0507 14.8454 11.0038C14.7744 10.9568 14.7189 10.8898 14.6859 10.8113C14.653 10.7328 14.6441 10.6462 14.6605 10.5627C14.6768 10.4791 14.7175 10.4022 14.7776 10.3418C14.8376 10.2815 14.9142 10.2403 14.9977 10.2235C15.0812 10.2067 15.1677 10.215 15.2465 10.2475C15.3252 10.28 15.3925 10.3351 15.4398 10.4059C15.4872 10.4766 15.5125 10.5599 15.5125 10.645C15.5125 10.7582 15.4679 10.8668 15.3883 10.9473C15.3088 11.0278 15.2007 11.0737 15.0875 11.075H15.085Z"/></mask><path fill="url(#paint6_linear_143_3442)" d="M15.0875 9.7325C14.8881 9.73298 14.6944 9.79875 14.5359 9.91974C14.3775 10.0407 14.263 10.2103 14.21 10.4025H13.3725L12.1025 8.945C12.0794 8.91942 12.0513 8.89888 12.0199 8.88468C11.9885 8.87048 11.9545 8.86293 11.92 8.8625H8.53749V8.39501V7.14501H11.92C11.9545 7.14458 11.9885 7.13703 12.0199 7.12283C12.0513 7.10863 12.0794 7.08809 12.1025 7.06251L13.3725 5.60501H14.21C14.2687 5.81857 14.4029 6.00359 14.5876 6.12574C14.7724 6.2479 14.9951 6.2989 15.2146 6.26929C15.4341 6.23967 15.6354 6.13145 15.7812 5.9647C15.9269 5.79795 16.0073 5.58399 16.0073 5.36251C16.0073 5.14103 15.9269 4.92706 15.7812 4.76031C15.6354 4.59356 15.4341 4.48534 15.2146 4.45572C14.9951 4.42611 14.7724 4.47711 14.5876 4.59927C14.4029 4.72143 14.2687 4.90645 14.21 5.12001H13.2625C13.228 5.12043 13.194 5.12798 13.1626 5.14218C13.1312 5.15638 13.1031 5.17692 13.08 5.20251L11.81 6.66001H8.53749V5.75001H11.7075C11.7423 5.75024 11.7767 5.74274 11.8083 5.72804C11.8399 5.71334 11.8678 5.69181 11.89 5.66501L12.775 4.62501C12.8129 4.58136 12.8333 4.52529 12.8325 4.46751V3.50001C13.044 3.44135 13.2271 3.30804 13.3478 3.12475C13.4686 2.94146 13.5188 2.72062 13.4892 2.50314C13.4596 2.28566 13.3522 2.08627 13.1869 1.94191C13.0215 1.79755 12.8095 1.71801 12.59 1.71801C12.3705 1.71801 12.1585 1.79755 11.9931 1.94191C11.8278 2.08627 11.7204 2.28566 11.6908 2.50314C11.6612 2.72062 11.7114 2.94146 11.8322 3.12475C11.9529 3.30804 12.136 3.44135 12.3475 3.50001V4.38501L11.5975 5.26501H8.53749V4.10501H9.64499C9.68508 4.10522 9.72463 4.09579 9.76031 4.07752C9.79598 4.05925 9.82675 4.03266 9.84999 4.00001L10.16 3.50001C10.2411 3.52458 10.3252 3.53804 10.41 3.54001C10.5909 3.54099 10.7679 3.48835 10.9189 3.38874C11.0699 3.28913 11.1879 3.14701 11.2582 2.98035C11.3284 2.81368 11.3477 2.62994 11.3135 2.45232C11.2794 2.27471 11.1934 2.1112 11.0664 1.98244C10.9394 1.85369 10.777 1.76546 10.5999 1.7289C10.4228 1.69235 10.2388 1.70911 10.0712 1.77706C9.90356 1.84502 9.75985 1.96112 9.65819 2.11071C9.55653 2.26029 9.50148 2.43665 9.49999 2.61751C9.50102 2.84779 9.59053 3.06887 9.74999 3.23501L9.49999 3.62001H8.53749V1.77751C8.53749 1.76501 8.53749 1.75751 8.53749 1.74751C8.53992 1.73009 8.53992 1.71242 8.53749 1.69501C8.39307 1.2804 8.12261 0.921328 7.76399 0.668051C7.40537 0.414775 6.97653 0.27997 6.53749 0.282506C6.13113 0.285491 5.73411 0.4048 5.39342 0.626319C5.05272 0.847837 4.7826 1.1623 4.61499 1.53251C4.29966 1.43415 3.96562 1.4113 3.63983 1.46579C3.31404 1.52029 3.00561 1.65059 2.73944 1.84621C2.47328 2.04182 2.25681 2.29726 2.10752 2.59191C1.95823 2.88657 1.88029 3.21219 1.87999 3.54251C1.8788 3.73621 1.90574 3.92905 1.95999 4.11501C1.66265 4.21033 1.39006 4.37023 1.16176 4.58327C0.933467 4.7963 0.755111 5.05719 0.639473 5.34724C0.523834 5.63729 0.473775 5.94933 0.492883 6.261C0.51199 6.57267 0.59979 6.87625 0.749994 7.15001C0.483743 7.35696 0.276612 7.6303 0.14939 7.9426C0.022167 8.2549 -0.0206713 8.59518 0.0251742 8.92927C0.0710198 9.26336 0.203936 9.57951 0.410583 9.846C0.61723 10.1125 0.890337 10.3199 1.20249 10.4475C1.01139 10.7499 0.90022 11.0959 0.8794 11.453C0.85858 11.8102 0.928795 12.1667 1.08346 12.4893C1.23813 12.8119 1.47218 13.0899 1.76367 13.2973C2.05516 13.5047 2.39454 13.6346 2.74999 13.675C2.76256 13.9975 2.8561 14.3116 3.02198 14.5884C3.18787 14.8652 3.42077 15.0958 3.69921 15.2589C3.97765 15.422 4.29267 15.5125 4.61525 15.5218C4.93782 15.5312 5.25756 15.4592 5.54499 15.3125C5.88268 15.5761 6.29909 15.7188 6.72749 15.7175C7.11675 15.7157 7.49642 15.5966 7.81704 15.3759C8.13766 15.1552 8.38436 14.843 8.52499 14.48C8.52721 14.4609 8.52721 14.4416 8.52499 14.4225C8.5262 14.4125 8.5262 14.4025 8.52499 14.3925V12.3925H9.49999L9.74999 12.7775C9.59053 12.9436 9.50102 13.1647 9.49999 13.395C9.4995 13.5761 9.55274 13.7532 9.65298 13.904C9.75322 14.0548 9.89595 14.1725 10.0631 14.2421C10.2303 14.3118 10.4143 14.3302 10.592 14.2952C10.7696 14.2602 10.9329 14.1733 11.0611 14.0454C11.1893 13.9175 11.2767 13.7545 11.3122 13.5769C11.3477 13.3994 11.3298 13.2153 11.2606 13.0479C11.1914 12.8806 11.0741 12.7375 10.9236 12.6369C10.7731 12.5362 10.5961 12.4825 10.415 12.4825C10.3302 12.4845 10.2461 12.4979 10.165 12.5225L9.84999 12C9.82787 11.9655 9.7976 11.937 9.76185 11.9169C9.7261 11.8969 9.68597 11.8859 9.64499 11.885H8.53749V10.75H11.595L12.345 11.63V12.5C12.1301 12.5587 11.9438 12.6935 11.8207 12.8792C11.6976 13.0649 11.646 13.289 11.6757 13.5098C11.7053 13.7306 11.8141 13.9332 11.9818 14.0799C12.1494 14.2266 12.3647 14.3075 12.5875 14.3075C12.8103 14.3075 13.0255 14.2266 13.1932 14.0799C13.3609 13.9332 13.4697 13.7306 13.4993 13.5098C13.529 13.289 13.4774 13.0649 13.3543 12.8792C13.2312 12.6935 13.0449 12.5587 12.83 12.5V11.525C12.8308 11.4672 12.8104 11.4111 12.7725 11.3675L11.8875 10.3325C11.8653 10.3057 11.8374 10.2842 11.8058 10.2695C11.7742 10.2548 11.7398 10.2473 11.705 10.2475H8.53749V9.3475H11.81L13.08 10.805C13.1031 10.8306 13.1312 10.8511 13.1626 10.8653C13.194 10.8795 13.228 10.8871 13.2625 10.8875H14.21C14.2552 11.0515 14.3454 11.1996 14.4703 11.3151C14.5952 11.4306 14.75 11.5088 14.917 11.541C15.0841 11.5732 15.2568 11.5581 15.4157 11.4973C15.5746 11.4365 15.7134 11.3325 15.8163 11.197C15.9192 11.0616 15.9822 10.9 15.9982 10.7306C16.0141 10.5613 15.9824 10.3908 15.9066 10.2385C15.8308 10.0862 15.714 9.95807 15.5692 9.86867C15.4245 9.77926 15.2576 9.7321 15.0875 9.7325ZM15.0875 4.92501C15.1725 4.92501 15.2557 4.95022 15.3264 4.99747C15.3971 5.04472 15.4522 5.11188 15.4848 5.19045C15.5173 5.26902 15.5258 5.35548 15.5092 5.43889C15.4926 5.52231 15.4517 5.59892 15.3916 5.65906C15.3314 5.7192 15.2548 5.76015 15.1714 5.77674C15.088 5.79333 15.0015 5.78482 14.9229 5.75227C14.8444 5.71973 14.7772 5.66461 14.73 5.5939C14.6827 5.52319 14.6575 5.44005 14.6575 5.35501C14.6575 5.24096 14.7028 5.13159 14.7834 5.05095C14.8641 4.97031 14.9735 4.92501 15.0875 4.92501ZM12.1625 2.61751C12.162 2.53225 12.1869 2.44877 12.2339 2.37767C12.281 2.30658 12.3481 2.25108 12.4268 2.21822C12.5055 2.18537 12.5921 2.17664 12.6758 2.19315C12.7594 2.20967 12.8363 2.25067 12.8965 2.31096C12.9568 2.37124 12.9978 2.44809 13.0143 2.53174C13.0309 2.61538 13.0221 2.70204 12.9893 2.78072C12.9564 2.85939 12.9009 2.92652 12.8298 2.97358C12.7587 3.02064 12.6753 3.0455 12.59 3.04501C12.4768 3.04435 12.3685 2.9991 12.2884 2.91907C12.2084 2.83904 12.1632 2.73068 12.1625 2.61751ZM10.4125 2.18751C10.4975 2.18751 10.5807 2.21272 10.6514 2.25997C10.7221 2.30722 10.7772 2.37438 10.8098 2.45295C10.8423 2.53152 10.8508 2.61798 10.8342 2.70139C10.8176 2.78481 10.7767 2.86142 10.7165 2.92156C10.6564 2.9817 10.5798 3.02265 10.4964 3.03924C10.413 3.05584 10.3265 3.04732 10.2479 3.01477C10.1694 2.98223 10.1022 2.92711 10.055 2.8564C10.0077 2.78569 9.98249 2.70255 9.98249 2.61751C9.98249 2.56083 9.9937 2.50471 10.0155 2.45237C10.0372 2.40004 10.0691 2.35252 10.1093 2.31256C10.1495 2.2726 10.1972 2.24098 10.2497 2.21952C10.3021 2.19806 10.3583 2.18718 10.415 2.18751H10.4125ZM8.04999 3.86251V5.00001C7.83602 4.89388 7.59784 4.84609 7.35949 4.86145C7.12114 4.87681 6.89107 4.95479 6.69249 5.08751C6.64056 5.12478 6.60489 5.18054 6.5928 5.24331C6.58071 5.30609 6.59312 5.37111 6.62749 5.42501C6.66471 5.47626 6.72 5.51149 6.78218 5.52355C6.84436 5.53562 6.90881 5.52363 6.96249 5.49001C7.12707 5.37845 7.32505 5.32699 7.52312 5.34429C7.72119 5.36159 7.90725 5.4466 8.04999 5.58501V6.89001V7.89001C7.83629 7.78246 7.59769 7.73409 7.35897 7.74991C7.12026 7.76574 6.89013 7.84519 6.69249 7.98001C6.6547 8.02148 6.63195 8.07446 6.62792 8.13043C6.62389 8.18639 6.6388 8.24209 6.67025 8.28856C6.70171 8.33502 6.74789 8.36955 6.80135 8.38659C6.85481 8.40363 6.91245 8.40219 6.96499 8.3825C7.12847 8.27003 7.3258 8.21755 7.52355 8.23395C7.7213 8.25036 7.90729 8.33464 8.04999 8.4725V9.0875V10.5V12.1375V14.335C7.97166 14.5287 7.85197 14.7029 7.6993 14.8456C7.54663 14.9882 7.36466 15.0958 7.1661 15.1608C6.96753 15.2258 6.75717 15.2466 6.54971 15.2219C6.34225 15.1971 6.1427 15.1274 5.96499 15.0175C6.18716 14.8194 6.33791 14.5536 6.39394 14.2613C6.44997 13.9689 6.40817 13.6662 6.27499 13.4C6.26739 13.3624 6.25124 13.3271 6.22779 13.2968C6.20435 13.2664 6.17424 13.2419 6.1398 13.225C6.10535 13.2082 6.0675 13.1995 6.02916 13.1996C5.99081 13.1997 5.95301 13.2087 5.91868 13.2257C5.88435 13.2428 5.8544 13.2676 5.83115 13.298C5.80791 13.3285 5.79199 13.364 5.78462 13.4016C5.77726 13.4392 5.77865 13.478 5.78868 13.515C5.79872 13.5521 5.81713 13.5863 5.84249 13.615C5.89367 13.7209 5.92334 13.836 5.92979 13.9534C5.93623 14.0709 5.91931 14.1885 5.88002 14.2994C5.84073 14.4103 5.77985 14.5123 5.70088 14.5995C5.62192 14.6867 5.52645 14.7574 5.41999 14.8075C5.40095 14.8196 5.38334 14.8339 5.36749 14.85C5.15202 14.9725 4.90845 15.037 4.6606 15.0371C4.41275 15.0373 4.16909 14.9732 3.95345 14.851C3.73781 14.7288 3.55755 14.5528 3.43031 14.3401C3.30306 14.1274 3.23318 13.8853 3.22749 13.6375C3.65249 13.515 4.45499 13.2075 4.57249 12.6025C4.58297 12.5394 4.56885 12.4747 4.53304 12.4216C4.49723 12.3686 4.44245 12.3314 4.37999 12.3175C4.31903 12.308 4.2567 12.3214 4.20501 12.3551C4.15332 12.3888 4.11592 12.4404 4.09999 12.5C4.02749 12.86 3.27249 13.1275 2.97249 13.1925C2.66023 13.1882 2.35583 13.094 2.0957 12.9212C1.83557 12.7485 1.63074 12.5044 1.50572 12.2182C1.3807 11.932 1.34079 11.6159 1.39076 11.3076C1.44073 10.9994 1.57847 10.712 1.78749 10.48C1.81791 10.4469 1.83885 10.4062 1.84809 10.3622C1.85732 10.3182 1.85453 10.2725 1.83999 10.23C1.82545 10.1897 1.80079 10.1539 1.7684 10.1258C1.736 10.0978 1.69695 10.0786 1.65499 10.07C1.36955 10.014 1.10781 9.87275 0.904351 9.66487C0.700889 9.45698 0.565282 9.19227 0.515442 8.90569C0.465602 8.61911 0.503875 8.32415 0.625206 8.05978C0.746536 7.79542 0.945215 7.57408 1.19499 7.42501C1.29244 7.35948 1.40193 7.31395 1.5171 7.29104C1.63227 7.26814 1.75085 7.26832 1.86595 7.29157C1.98106 7.31482 2.0904 7.36069 2.18765 7.42651C2.2849 7.49233 2.36812 7.57679 2.43249 7.67501C2.45525 7.70698 2.48521 7.73314 2.51996 7.75138C2.5547 7.76962 2.59326 7.77943 2.63249 7.78001C2.6815 7.77962 2.72932 7.76484 2.76999 7.73751C2.82152 7.69985 2.8567 7.64392 2.86832 7.58118C2.87994 7.51843 2.86712 7.45361 2.83249 7.40001C2.6544 7.13212 2.38787 6.9353 2.07944 6.84391C1.77101 6.75253 1.44028 6.77238 1.14499 6.90001C1.03004 6.68566 0.964907 6.44814 0.954443 6.20513C0.943979 5.96213 0.988453 5.7199 1.08456 5.49646C1.18066 5.27302 1.32591 5.07413 1.50951 4.91459C1.69311 4.75506 1.91033 4.63898 2.14499 4.57501C2.24023 4.73202 2.3741 4.86203 2.53383 4.95262C2.69357 5.04321 2.87386 5.09137 3.05749 5.09251C3.1829 5.09307 3.30739 5.07105 3.42499 5.02751C3.463 5.02392 3.49968 5.01167 3.53222 4.9917C3.56476 4.97174 3.5923 4.94459 3.61272 4.91233C3.63314 4.88008 3.6459 4.84357 3.65002 4.80562C3.65415 4.76767 3.64952 4.72927 3.63651 4.69338C3.62349 4.6575 3.60243 4.62506 3.57494 4.59858C3.54745 4.57209 3.51425 4.55225 3.4779 4.54058C3.44156 4.52891 3.40302 4.52572 3.36524 4.53125C3.32747 4.53679 3.29147 4.5509 3.25999 4.57251C3.11275 4.62306 2.95153 4.61364 2.81119 4.54627C2.67084 4.47891 2.56264 4.35901 2.50999 4.21251C2.51094 4.20504 2.51094 4.19748 2.50999 4.19001C2.38036 3.88931 2.34475 3.55643 2.40783 3.23512C2.47091 2.9138 2.62973 2.6191 2.86343 2.38973C3.09712 2.16036 3.39475 2.00707 3.71718 1.95001C4.03962 1.89295 4.37177 1.93478 4.66999 2.07001H4.69499H4.71999C5.41249 2.20501 5.61749 2.84001 5.50999 3.40751C5.50021 3.47023 5.51466 3.53433 5.55041 3.5868C5.58616 3.63926 5.64053 3.67616 5.70249 3.69001H5.74749C5.80563 3.6913 5.8624 3.67229 5.90803 3.63624C5.95366 3.60019 5.9853 3.54936 5.99749 3.49251C6.15499 2.64751 5.79249 1.93751 5.10249 1.67001C5.23636 1.39707 5.44366 1.16686 5.70112 1.00523C5.95858 0.843601 6.25601 0.756949 6.55999 0.755006C6.8905 0.754454 7.21321 0.855315 7.48458 1.04397C7.75594 1.23263 7.96289 1.50001 8.07749 1.81001L8.04999 3.86251ZM10.4125 12.955C10.4976 12.955 10.5809 12.9803 10.6516 13.0276C10.7224 13.075 10.7775 13.1423 10.81 13.221C10.8425 13.2998 10.8508 13.3863 10.834 13.4698C10.8172 13.5533 10.776 13.6299 10.7157 13.6899C10.6553 13.75 10.5784 13.7907 10.4948 13.807C10.4113 13.8234 10.3247 13.8145 10.2462 13.7816C10.1677 13.7486 10.1007 13.6931 10.0537 13.6221C10.0068 13.551 9.982 13.4677 9.98249 13.3825C9.98282 13.326 9.99427 13.2702 10.0162 13.2181C10.0381 13.1661 10.07 13.1189 10.1102 13.0792C10.1504 13.0395 10.198 13.0081 10.2502 12.9868C10.3025 12.9655 10.3585 12.9547 10.415 12.955H10.4125ZM13.0175 13.3825C13.018 13.4677 12.9932 13.551 12.9462 13.6221C12.8993 13.6931 12.8323 13.7486 12.7538 13.7816C12.6753 13.8145 12.5887 13.8234 12.5051 13.807C12.4216 13.7907 12.3447 13.75 12.2843 13.6899C12.2239 13.6299 12.1827 13.5533 12.1659 13.4698C12.1492 13.3863 12.1575 13.2998 12.19 13.221C12.2225 13.1423 12.2776 13.075 12.3483 13.0276C12.4191 12.9803 12.5023 12.955 12.5875 12.955C12.644 12.9547 12.6999 12.9655 12.7522 12.9868C12.8045 13.0081 12.8521 13.0395 12.8923 13.0792C12.9324 13.1189 12.9644 13.1661 12.9863 13.2181C13.0082 13.2702 13.0197 13.326 13.02 13.3825H13.0175ZM15.085 11.075C14.9998 11.0755 14.9165 11.0507 14.8454 11.0038C14.7744 10.9568 14.7189 10.8898 14.6859 10.8113C14.653 10.7328 14.6441 10.6462 14.6605 10.5627C14.6768 10.4791 14.7175 10.4022 14.7776 10.3418C14.8376 10.2815 14.9142 10.2403 14.9977 10.2235C15.0812 10.2067 15.1677 10.215 15.2465 10.2475C15.3252 10.28 15.3925 10.3351 15.4398 10.4059C15.4872 10.4766 15.5125 10.5599 15.5125 10.645C15.5125 10.7582 15.4679 10.8668 15.3883 10.9473C15.3088 11.0278 15.2007 11.0737 15.0875 11.075H15.085Z"/><path stroke="url(#paint7_linear_143_3442)" stroke-width=".267" d="M15.0875 9.7325C14.8881 9.73298 14.6944 9.79875 14.5359 9.91974C14.3775 10.0407 14.263 10.2103 14.21 10.4025H13.3725L12.1025 8.945C12.0794 8.91942 12.0513 8.89888 12.0199 8.88468C11.9885 8.87048 11.9545 8.86293 11.92 8.8625H8.53749V8.39501V7.14501H11.92C11.9545 7.14458 11.9885 7.13703 12.0199 7.12283C12.0513 7.10863 12.0794 7.08809 12.1025 7.06251L13.3725 5.60501H14.21C14.2687 5.81857 14.4029 6.00359 14.5876 6.12574C14.7724 6.2479 14.9951 6.2989 15.2146 6.26929C15.4341 6.23967 15.6354 6.13145 15.7812 5.9647C15.9269 5.79795 16.0073 5.58399 16.0073 5.36251C16.0073 5.14103 15.9269 4.92706 15.7812 4.76031C15.6354 4.59356 15.4341 4.48534 15.2146 4.45572C14.9951 4.42611 14.7724 4.47711 14.5876 4.59927C14.4029 4.72143 14.2687 4.90645 14.21 5.12001H13.2625C13.228 5.12043 13.194 5.12798 13.1626 5.14218C13.1312 5.15638 13.1031 5.17692 13.08 5.20251L11.81 6.66001H8.53749V5.75001H11.7075C11.7423 5.75024 11.7767 5.74274 11.8083 5.72804C11.8399 5.71334 11.8678 5.69181 11.89 5.66501L12.775 4.62501C12.8129 4.58136 12.8333 4.52529 12.8325 4.46751V3.50001C13.044 3.44135 13.2271 3.30804 13.3478 3.12475C13.4686 2.94146 13.5188 2.72062 13.4892 2.50314C13.4596 2.28566 13.3522 2.08627 13.1869 1.94191C13.0215 1.79755 12.8095 1.71801 12.59 1.71801C12.3705 1.71801 12.1585 1.79755 11.9931 1.94191C11.8278 2.08627 11.7204 2.28566 11.6908 2.50314C11.6612 2.72062 11.7114 2.94146 11.8322 3.12475C11.9529 3.30804 12.136 3.44135 12.3475 3.50001V4.38501L11.5975 5.26501H8.53749V4.10501H9.64499C9.68508 4.10522 9.72463 4.09579 9.76031 4.07752C9.79598 4.05925 9.82675 4.03266 9.84999 4.00001L10.16 3.50001C10.2411 3.52458 10.3252 3.53804 10.41 3.54001C10.5909 3.54099 10.7679 3.48835 10.9189 3.38874C11.0699 3.28913 11.1879 3.14701 11.2582 2.98035C11.3284 2.81368 11.3477 2.62994 11.3135 2.45232C11.2794 2.27471 11.1934 2.1112 11.0664 1.98244C10.9394 1.85369 10.777 1.76546 10.5999 1.7289C10.4228 1.69235 10.2388 1.70911 10.0712 1.77706C9.90356 1.84502 9.75985 1.96112 9.65819 2.11071C9.55653 2.26029 9.50148 2.43665 9.49999 2.61751C9.50102 2.84779 9.59053 3.06887 9.74999 3.23501L9.49999 3.62001H8.53749V1.77751C8.53749 1.76501 8.53749 1.75751 8.53749 1.74751C8.53992 1.73009 8.53992 1.71242 8.53749 1.69501C8.39307 1.2804 8.12261 0.921328 7.76399 0.668051C7.40537 0.414775 6.97653 0.27997 6.53749 0.282506C6.13113 0.285491 5.73411 0.4048 5.39342 0.626319C5.05272 0.847837 4.7826 1.1623 4.61499 1.53251C4.29966 1.43415 3.96562 1.4113 3.63983 1.46579C3.31404 1.52029 3.00561 1.65059 2.73944 1.84621C2.47328 2.04182 2.25681 2.29726 2.10752 2.59191C1.95823 2.88657 1.88029 3.21219 1.87999 3.54251C1.8788 3.73621 1.90574 3.92905 1.95999 4.11501C1.66265 4.21033 1.39006 4.37023 1.16176 4.58327C0.933467 4.7963 0.755111 5.05719 0.639473 5.34724C0.523834 5.63729 0.473775 5.94933 0.492883 6.261C0.51199 6.57267 0.59979 6.87625 0.749994 7.15001C0.483743 7.35696 0.276612 7.6303 0.14939 7.9426C0.022167 8.2549 -0.0206713 8.59518 0.0251742 8.92927C0.0710198 9.26336 0.203936 9.57951 0.410583 9.846C0.61723 10.1125 0.890337 10.3199 1.20249 10.4475C1.01139 10.7499 0.90022 11.0959 0.8794 11.453C0.85858 11.8102 0.928795 12.1667 1.08346 12.4893C1.23813 12.8119 1.47218 13.0899 1.76367 13.2973C2.05516 13.5047 2.39454 13.6346 2.74999 13.675C2.76256 13.9975 2.8561 14.3116 3.02198 14.5884C3.18787 14.8652 3.42077 15.0958 3.69921 15.2589C3.97765 15.422 4.29267 15.5125 4.61525 15.5218C4.93782 15.5312 5.25756 15.4592 5.54499 15.3125C5.88268 15.5761 6.29909 15.7188 6.72749 15.7175C7.11675 15.7157 7.49642 15.5966 7.81704 15.3759C8.13766 15.1552 8.38436 14.843 8.52499 14.48C8.52721 14.4609 8.52721 14.4416 8.52499 14.4225C8.5262 14.4125 8.5262 14.4025 8.52499 14.3925V12.3925H9.49999L9.74999 12.7775C9.59053 12.9436 9.50102 13.1647 9.49999 13.395C9.4995 13.5761 9.55274 13.7532 9.65298 13.904C9.75322 14.0548 9.89595 14.1725 10.0631 14.2421C10.2303 14.3118 10.4143 14.3302 10.592 14.2952C10.7696 14.2602 10.9329 14.1733 11.0611 14.0454C11.1893 13.9175 11.2767 13.7545 11.3122 13.5769C11.3477 13.3994 11.3298 13.2153 11.2606 13.0479C11.1914 12.8806 11.0741 12.7375 10.9236 12.6369C10.7731 12.5362 10.5961 12.4825 10.415 12.4825C10.3302 12.4845 10.2461 12.4979 10.165 12.5225L9.84999 12C9.82787 11.9655 9.7976 11.937 9.76185 11.9169C9.7261 11.8969 9.68597 11.8859 9.64499 11.885H8.53749V10.75H11.595L12.345 11.63V12.5C12.1301 12.5587 11.9438 12.6935 11.8207 12.8792C11.6976 13.0649 11.646 13.289 11.6757 13.5098C11.7053 13.7306 11.8141 13.9332 11.9818 14.0799C12.1494 14.2266 12.3647 14.3075 12.5875 14.3075C12.8103 14.3075 13.0255 14.2266 13.1932 14.0799C13.3609 13.9332 13.4697 13.7306 13.4993 13.5098C13.529 13.289 13.4774 13.0649 13.3543 12.8792C13.2312 12.6935 13.0449 12.5587 12.83 12.5V11.525C12.8308 11.4672 12.8104 11.4111 12.7725 11.3675L11.8875 10.3325C11.8653 10.3057 11.8374 10.2842 11.8058 10.2695C11.7742 10.2548 11.7398 10.2473 11.705 10.2475H8.53749V9.3475H11.81L13.08 10.805C13.1031 10.8306 13.1312 10.8511 13.1626 10.8653C13.194 10.8795 13.228 10.8871 13.2625 10.8875H14.21C14.2552 11.0515 14.3454 11.1996 14.4703 11.3151C14.5952 11.4306 14.75 11.5088 14.917 11.541C15.0841 11.5732 15.2568 11.5581 15.4157 11.4973C15.5746 11.4365 15.7134 11.3325 15.8163 11.197C15.9192 11.0616 15.9822 10.9 15.9982 10.7306C16.0141 10.5613 15.9824 10.3908 15.9066 10.2385C15.8308 10.0862 15.714 9.95807 15.5692 9.86867C15.4245 9.77926 15.2576 9.7321 15.0875 9.7325ZM15.0875 4.92501C15.1725 4.92501 15.2557 4.95022 15.3264 4.99747C15.3971 5.04472 15.4522 5.11188 15.4848 5.19045C15.5173 5.26902 15.5258 5.35548 15.5092 5.43889C15.4926 5.52231 15.4517 5.59892 15.3916 5.65906C15.3314 5.7192 15.2548 5.76015 15.1714 5.77674C15.088 5.79333 15.0015 5.78482 14.9229 5.75227C14.8444 5.71973 14.7772 5.66461 14.73 5.5939C14.6827 5.52319 14.6575 5.44005 14.6575 5.35501C14.6575 5.24096 14.7028 5.13159 14.7834 5.05095C14.8641 4.97031 14.9735 4.92501 15.0875 4.92501ZM12.1625 2.61751C12.162 2.53225 12.1869 2.44877 12.2339 2.37767C12.281 2.30658 12.3481 2.25108 12.4268 2.21822C12.5055 2.18537 12.5921 2.17664 12.6758 2.19315C12.7594 2.20967 12.8363 2.25067 12.8965 2.31096C12.9568 2.37124 12.9978 2.44809 13.0143 2.53174C13.0309 2.61538 13.0221 2.70204 12.9893 2.78072C12.9564 2.85939 12.9009 2.92652 12.8298 2.97358C12.7587 3.02064 12.6753 3.0455 12.59 3.04501C12.4768 3.04435 12.3685 2.9991 12.2884 2.91907C12.2084 2.83904 12.1632 2.73068 12.1625 2.61751ZM10.4125 2.18751C10.4975 2.18751 10.5807 2.21272 10.6514 2.25997C10.7221 2.30722 10.7772 2.37438 10.8098 2.45295C10.8423 2.53152 10.8508 2.61798 10.8342 2.70139C10.8176 2.78481 10.7767 2.86142 10.7165 2.92156C10.6564 2.9817 10.5798 3.02265 10.4964 3.03924C10.413 3.05584 10.3265 3.04732 10.2479 3.01477C10.1694 2.98223 10.1022 2.92711 10.055 2.8564C10.0077 2.78569 9.98249 2.70255 9.98249 2.61751C9.98249 2.56083 9.9937 2.50471 10.0155 2.45237C10.0372 2.40004 10.0691 2.35252 10.1093 2.31256C10.1495 2.2726 10.1972 2.24098 10.2497 2.21952C10.3021 2.19806 10.3583 2.18718 10.415 2.18751H10.4125ZM8.04999 3.86251V5.00001C7.83602 4.89388 7.59784 4.84609 7.35949 4.86145C7.12114 4.87681 6.89107 4.95479 6.69249 5.08751C6.64056 5.12478 6.60489 5.18054 6.5928 5.24331C6.58071 5.30609 6.59312 5.37111 6.62749 5.42501C6.66471 5.47626 6.72 5.51149 6.78218 5.52355C6.84436 5.53562 6.90881 5.52363 6.96249 5.49001C7.12707 5.37845 7.32505 5.32699 7.52312 5.34429C7.72119 5.36159 7.90725 5.4466 8.04999 5.58501V6.89001V7.89001C7.83629 7.78246 7.59769 7.73409 7.35897 7.74991C7.12026 7.76574 6.89013 7.84519 6.69249 7.98001C6.6547 8.02148 6.63195 8.07446 6.62792 8.13043C6.62389 8.18639 6.6388 8.24209 6.67025 8.28856C6.70171 8.33502 6.74789 8.36955 6.80135 8.38659C6.85481 8.40363 6.91245 8.40219 6.96499 8.3825C7.12847 8.27003 7.3258 8.21755 7.52355 8.23395C7.7213 8.25036 7.90729 8.33464 8.04999 8.4725V9.0875V10.5V12.1375V14.335C7.97166 14.5287 7.85197 14.7029 7.6993 14.8456C7.54663 14.9882 7.36466 15.0958 7.1661 15.1608C6.96753 15.2258 6.75717 15.2466 6.54971 15.2219C6.34225 15.1971 6.1427 15.1274 5.96499 15.0175C6.18716 14.8194 6.33791 14.5536 6.39394 14.2613C6.44997 13.9689 6.40817 13.6662 6.27499 13.4C6.26739 13.3624 6.25124 13.3271 6.22779 13.2968C6.20435 13.2664 6.17424 13.2419 6.1398 13.225C6.10535 13.2082 6.0675 13.1995 6.02916 13.1996C5.99081 13.1997 5.95301 13.2087 5.91868 13.2257C5.88435 13.2428 5.8544 13.2676 5.83115 13.298C5.80791 13.3285 5.79199 13.364 5.78462 13.4016C5.77726 13.4392 5.77865 13.478 5.78868 13.515C5.79872 13.5521 5.81713 13.5863 5.84249 13.615C5.89367 13.7209 5.92334 13.836 5.92979 13.9534C5.93623 14.0709 5.91931 14.1885 5.88002 14.2994C5.84073 14.4103 5.77985 14.5123 5.70088 14.5995C5.62192 14.6867 5.52645 14.7574 5.41999 14.8075C5.40095 14.8196 5.38334 14.8339 5.36749 14.85C5.15202 14.9725 4.90845 15.037 4.6606 15.0371C4.41275 15.0373 4.16909 14.9732 3.95345 14.851C3.73781 14.7288 3.55755 14.5528 3.43031 14.3401C3.30306 14.1274 3.23318 13.8853 3.22749 13.6375C3.65249 13.515 4.45499 13.2075 4.57249 12.6025C4.58297 12.5394 4.56885 12.4747 4.53304 12.4216C4.49723 12.3686 4.44245 12.3314 4.37999 12.3175C4.31903 12.308 4.2567 12.3214 4.20501 12.3551C4.15332 12.3888 4.11592 12.4404 4.09999 12.5C4.02749 12.86 3.27249 13.1275 2.97249 13.1925C2.66023 13.1882 2.35583 13.094 2.0957 12.9212C1.83557 12.7485 1.63074 12.5044 1.50572 12.2182C1.3807 11.932 1.34079 11.6159 1.39076 11.3076C1.44073 10.9994 1.57847 10.712 1.78749 10.48C1.81791 10.4469 1.83885 10.4062 1.84809 10.3622C1.85732 10.3182 1.85453 10.2725 1.83999 10.23C1.82545 10.1897 1.80079 10.1539 1.7684 10.1258C1.736 10.0978 1.69695 10.0786 1.65499 10.07C1.36955 10.014 1.10781 9.87275 0.904351 9.66487C0.700889 9.45698 0.565282 9.19227 0.515442 8.90569C0.465602 8.61911 0.503875 8.32415 0.625206 8.05978C0.746536 7.79542 0.945215 7.57408 1.19499 7.42501C1.29244 7.35948 1.40193 7.31395 1.5171 7.29104C1.63227 7.26814 1.75085 7.26832 1.86595 7.29157C1.98106 7.31482 2.0904 7.36069 2.18765 7.42651C2.2849 7.49233 2.36812 7.57679 2.43249 7.67501C2.45525 7.70698 2.48521 7.73314 2.51996 7.75138C2.5547 7.76962 2.59326 7.77943 2.63249 7.78001C2.6815 7.77962 2.72932 7.76484 2.76999 7.73751C2.82152 7.69985 2.8567 7.64392 2.86832 7.58118C2.87994 7.51843 2.86712 7.45361 2.83249 7.40001C2.6544 7.13212 2.38787 6.9353 2.07944 6.84391C1.77101 6.75253 1.44028 6.77238 1.14499 6.90001C1.03004 6.68566 0.964907 6.44814 0.954443 6.20513C0.943979 5.96213 0.988453 5.7199 1.08456 5.49646C1.18066 5.27302 1.32591 5.07413 1.50951 4.91459C1.69311 4.75506 1.91033 4.63898 2.14499 4.57501C2.24023 4.73202 2.3741 4.86203 2.53383 4.95262C2.69357 5.04321 2.87386 5.09137 3.05749 5.09251C3.1829 5.09307 3.30739 5.07105 3.42499 5.02751C3.463 5.02392 3.49968 5.01167 3.53222 4.9917C3.56476 4.97174 3.5923 4.94459 3.61272 4.91233C3.63314 4.88008 3.6459 4.84357 3.65002 4.80562C3.65415 4.76767 3.64952 4.72927 3.63651 4.69338C3.62349 4.6575 3.60243 4.62506 3.57494 4.59858C3.54745 4.57209 3.51425 4.55225 3.4779 4.54058C3.44156 4.52891 3.40302 4.52572 3.36524 4.53125C3.32747 4.53679 3.29147 4.5509 3.25999 4.57251C3.11275 4.62306 2.95153 4.61364 2.81119 4.54627C2.67084 4.47891 2.56264 4.35901 2.50999 4.21251C2.51094 4.20504 2.51094 4.19748 2.50999 4.19001C2.38036 3.88931 2.34475 3.55643 2.40783 3.23512C2.47091 2.9138 2.62973 2.6191 2.86343 2.38973C3.09712 2.16036 3.39475 2.00707 3.71718 1.95001C4.03962 1.89295 4.37177 1.93478 4.66999 2.07001H4.69499H4.71999C5.41249 2.20501 5.61749 2.84001 5.50999 3.40751C5.50021 3.47023 5.51466 3.53433 5.55041 3.5868C5.58616 3.63926 5.64053 3.67616 5.70249 3.69001H5.74749C5.80563 3.6913 5.8624 3.67229 5.90803 3.63624C5.95366 3.60019 5.9853 3.54936 5.99749 3.49251C6.15499 2.64751 5.79249 1.93751 5.10249 1.67001C5.23636 1.39707 5.44366 1.16686 5.70112 1.00523C5.95858 0.843601 6.25601 0.756949 6.55999 0.755006C6.8905 0.754454 7.21321 0.855315 7.48458 1.04397C7.75594 1.23263 7.96289 1.50001 8.07749 1.81001L8.04999 3.86251ZM10.4125 12.955C10.4976 12.955 10.5809 12.9803 10.6516 13.0276C10.7224 13.075 10.7775 13.1423 10.81 13.221C10.8425 13.2998 10.8508 13.3863 10.834 13.4698C10.8172 13.5533 10.776 13.6299 10.7157 13.6899C10.6553 13.75 10.5784 13.7907 10.4948 13.807C10.4113 13.8234 10.3247 13.8145 10.2462 13.7816C10.1677 13.7486 10.1007 13.6931 10.0537 13.6221C10.0068 13.551 9.982 13.4677 9.98249 13.3825C9.98282 13.326 9.99427 13.2702 10.0162 13.2181C10.0381 13.1661 10.07 13.1189 10.1102 13.0792C10.1504 13.0395 10.198 13.0081 10.2502 12.9868C10.3025 12.9655 10.3585 12.9547 10.415 12.955H10.4125ZM13.0175 13.3825C13.018 13.4677 12.9932 13.551 12.9462 13.6221C12.8993 13.6931 12.8323 13.7486 12.7538 13.7816C12.6753 13.8145 12.5887 13.8234 12.5051 13.807C12.4216 13.7907 12.3447 13.75 12.2843 13.6899C12.2239 13.6299 12.1827 13.5533 12.1659 13.4698C12.1492 13.3863 12.1575 13.2998 12.19 13.221C12.2225 13.1423 12.2776 13.075 12.3483 13.0276C12.4191 12.9803 12.5023 12.955 12.5875 12.955C12.644 12.9547 12.6999 12.9655 12.7522 12.9868C12.8045 13.0081 12.8521 13.0395 12.8923 13.0792C12.9324 13.1189 12.9644 13.1661 12.9863 13.2181C13.0082 13.2702 13.0197 13.326 13.02 13.3825H13.0175ZM15.085 11.075C14.9998 11.0755 14.9165 11.0507 14.8454 11.0038C14.7744 10.9568 14.7189 10.8898 14.6859 10.8113C14.653 10.7328 14.6441 10.6462 14.6605 10.5627C14.6768 10.4791 14.7175 10.4022 14.7776 10.3418C14.8376 10.2815 14.9142 10.2403 14.9977 10.2235C15.0812 10.2067 15.1677 10.215 15.2465 10.2475C15.3252 10.28 15.3925 10.3351 15.4398 10.4059C15.4872 10.4766 15.5125 10.5599 15.5125 10.645C15.5125 10.7582 15.4679 10.8668 15.3883 10.9473C15.3088 11.0278 15.2007 11.0737 15.0875 11.075H15.085Z" mask="url(#path-4-outside-1_143_3442)"/></g><defs><linearGradient id="paint0_linear_143_3442" x1="3.639" x2="5.652" y1="6.448" y2="6.448" gradientUnits="userSpaceOnUse"><stop stop-color="#FFA18D"/><stop offset="1" stop-color="#FD3E84"/></linearGradient><linearGradient id="paint1_linear_143_3442" x1="3.639" x2="5.652" y1="6.448" y2="6.448" gradientUnits="userSpaceOnUse"><stop stop-color="#FFA18D"/><stop offset="1" stop-color="#FD3E84"/></linearGradient><linearGradient id="paint2_linear_143_3442" x1="2.971" x2="4.331" y1="9.992" y2="9.992" gradientUnits="userSpaceOnUse"><stop stop-color="#FFA18D"/><stop offset="1" stop-color="#FD3E84"/></linearGradient><linearGradient id="paint3_linear_143_3442" x1="2.971" x2="4.331" y1="9.992" y2="9.992" gradientUnits="userSpaceOnUse"><stop stop-color="#FFA18D"/><stop offset="1" stop-color="#FD3E84"/></linearGradient><linearGradient id="paint4_linear_143_3442" x1="5.002" x2="6.779" y1="9.844" y2="9.844" gradientUnits="userSpaceOnUse"><stop stop-color="#FFA18D"/><stop offset="1" stop-color="#FD3E84"/></linearGradient><linearGradient id="paint5_linear_143_3442" x1="5.002" x2="6.779" y1="9.844" y2="9.844" gradientUnits="userSpaceOnUse"><stop stop-color="#FFA18D"/><stop offset="1" stop-color="#FD3E84"/></linearGradient><linearGradient id="paint6_linear_143_3442" x1=".007" x2="16.007" y1="8" y2="8" gradientUnits="userSpaceOnUse"><stop stop-color="#FFA18D"/><stop offset="1" stop-color="#FD3E84"/></linearGradient><linearGradient id="paint7_linear_143_3442" x1=".007" x2="16.007" y1="8" y2="8" gradientUnits="userSpaceOnUse"><stop stop-color="#FFA18D"/><stop offset="1" stop-color="#FD3E84"/></linearGradient><clipPath id="clip0_143_3442"><rect width="16" height="16" fill="#fff"/></clipPath></defs></svg>