<svg xmlns="http://www.w3.org/2000/svg" width="16" height="16" fill="none" viewBox="0 0 16 16"><mask id="path-1-outside-1_143_3438" width="9" height="14" x="3.194" y="2.288" fill="#000" maskUnits="userSpaceOnUse"><rect width="9" height="14" x="3.194" y="2.288" fill="#fff"/><path d="M11.5005 10.1255C11.33 9.95449 11.1051 9.84848 10.8646 9.82582C10.9764 9.67911 11.0471 9.50526 11.0694 9.32216C11.0916 9.13907 11.0647 8.95334 10.9914 8.7841C10.9181 8.61487 10.801 8.46823 10.6521 8.35928C10.5033 8.25033 10.3281 8.18301 10.1446 8.16424C10.3159 7.9667 10.4056 7.71136 10.3955 7.45007C10.3854 7.18879 10.2761 6.94116 10.09 6.75749C9.92225 6.59163 9.70314 6.48763 9.46856 6.46249L10.8654 5.06564C11.0607 4.87023 11.1703 4.60525 11.1702 4.329C11.1701 4.05274 11.0603 3.78785 10.8648 3.59258C10.6694 3.39732 10.4044 3.28768 10.1282 3.28778C9.85194 3.28789 9.58705 3.39773 9.39178 3.59314L7.94041 5.04499L7.78738 4.67567C7.68594 4.43077 7.51404 4.22153 7.29349 4.07448C7.07294 3.92744 6.81368 3.84922 6.54861 3.84974C6.37351 3.84921 6.20006 3.88352 6.03836 3.95069C5.84366 4.03149 5.689 4.18628 5.60837 4.38104C5.52774 4.57581 5.52774 4.79462 5.60836 4.98939L6.30731 6.67827L4.78048 8.20534C4.47303 8.51477 4.27421 8.91556 4.21385 9.34756C4.1535 9.77957 4.23487 10.2195 4.44576 10.6013L5.63178 12.7328C5.76661 12.9758 5.83744 13.249 5.83761 13.5269V15.3302C5.83761 15.3799 5.85736 15.4276 5.89252 15.4628C5.92769 15.498 5.97538 15.5177 6.02511 15.5177C6.07484 15.5177 6.12253 15.498 6.15769 15.4628C6.19285 15.4276 6.21261 15.3799 6.21261 15.3302V13.5268C6.21239 13.1852 6.12527 12.8492 5.95943 12.5504L4.77341 10.4189C4.60195 10.1084 4.5358 9.75066 4.58488 9.39934C4.63395 9.04803 4.79561 8.7221 5.04561 8.47044L9.65653 3.85887C9.7836 3.73741 9.95258 3.66958 10.1284 3.66949C10.3041 3.6694 10.4732 3.73706 10.6004 3.85839C10.725 3.98347 10.795 4.15287 10.795 4.32946C10.795 4.50605 10.725 4.67544 10.6004 4.80052L8.20316 7.19774C8.185 7.21497 8.17047 7.23566 8.16043 7.2586C8.15039 7.28153 8.14505 7.30624 8.14472 7.33128C8.14439 7.35631 8.14907 7.38115 8.15849 7.40435C8.16791 7.42754 8.18189 7.44861 8.19958 7.46632C8.21728 7.48402 8.23834 7.49801 8.26153 7.50744C8.28472 7.51688 8.30956 7.52158 8.33459 7.52126C8.35962 7.52094 8.38434 7.51561 8.40728 7.50559C8.43022 7.49556 8.45092 7.48105 8.46816 7.46289L9.00613 6.92499C9.13423 6.84811 9.28425 6.81602 9.43258 6.83377C9.58092 6.85151 9.71914 6.91809 9.82548 7.02302C9.88759 7.08474 9.93687 7.15814 9.97049 7.23899C10.0041 7.31984 10.0214 7.40654 10.0213 7.4941C10.0213 7.58166 10.0039 7.66835 9.97025 7.74916C9.93655 7.82998 9.8872 7.90333 9.82503 7.96499L9.14753 8.64249C9.12911 8.65966 9.11434 8.68036 9.10409 8.70336C9.09384 8.72636 9.08833 8.75119 9.08788 8.77636C9.08744 8.80154 9.09207 8.82655 9.1015 8.84989C9.11093 8.87324 9.12497 8.89445 9.14277 8.91225C9.16058 8.93006 9.18179 8.94409 9.20513 8.95352C9.22848 8.96295 9.25349 8.96759 9.27866 8.96714C9.30384 8.9667 9.32867 8.96119 9.35167 8.95094C9.37467 8.94069 9.39537 8.92592 9.41253 8.90749L9.68701 8.63302C9.82612 8.54652 9.99222 8.5143 10.1536 8.54253C10.3149 8.57076 10.4602 8.65745 10.5617 8.78604C10.6632 8.91463 10.7138 9.0761 10.7037 9.2396C10.6937 9.4031 10.6237 9.55717 10.5073 9.67237L10.0898 10.0899C10.0713 10.107 10.0566 10.1277 10.0463 10.1507C10.0361 10.1737 10.0306 10.1986 10.0301 10.2237C10.0297 10.2489 10.0343 10.2739 10.0437 10.2973C10.0532 10.3206 10.0672 10.3418 10.085 10.3596C10.1028 10.3774 10.124 10.3915 10.1474 10.4009C10.1707 10.4103 10.1957 10.415 10.2209 10.4145C10.2461 10.4141 10.2709 10.4086 10.2939 10.3983C10.3169 10.3881 10.3376 10.3733 10.3548 10.3549L10.4189 10.2908C10.5466 10.2138 10.6964 10.1818 10.8445 10.1999C10.9925 10.218 11.1303 10.2852 11.2356 10.3908C11.298 10.4524 11.3475 10.5257 11.3813 10.6066C11.415 10.6875 11.4323 10.7743 11.4322 10.862C11.432 10.9496 11.4144 11.0364 11.3805 11.1172C11.3465 11.198 11.2967 11.2712 11.2342 11.3326L10.4527 12.1166C10.3479 12.2241 10.2665 12.3521 10.2137 12.4926C10.1712 12.6086 10.1497 12.7313 10.15 12.8548V15.3298C10.15 15.3796 10.1698 15.4273 10.205 15.4624C10.2401 15.4976 10.2878 15.5173 10.3375 15.5173C10.3873 15.5173 10.435 15.4976 10.4701 15.4624C10.5053 15.4273 10.525 15.3796 10.525 15.3298V12.8548C10.5249 12.776 10.5385 12.6978 10.5653 12.6236C10.5997 12.5327 10.6524 12.4498 10.72 12.38L11.5 11.5975C11.5974 11.5012 11.6747 11.3866 11.7274 11.2603C11.7802 11.134 11.8074 10.9985 11.8074 10.8616C11.8075 10.7247 11.7804 10.5891 11.7277 10.4628C11.675 10.3364 11.5978 10.2218 11.5005 10.1255ZM6.59453 6.39104L5.95486 4.84544C5.91239 4.74259 5.91244 4.62709 5.955 4.52428C5.99757 4.42147 6.07917 4.33973 6.18191 4.29699C6.29814 4.24882 6.42279 4.22425 6.54861 4.22472C6.73954 4.22428 6.92629 4.28058 7.08517 4.38646C7.24405 4.49235 7.36788 4.64305 7.44096 4.81944L7.65326 5.33214L6.59453 6.39104Z"/></mask><path fill="url(#paint0_linear_143_3438)" d="M11.5005 10.1255C11.33 9.95449 11.1051 9.84848 10.8646 9.82582C10.9764 9.67911 11.0471 9.50526 11.0694 9.32216C11.0916 9.13907 11.0647 8.95334 10.9914 8.7841C10.9181 8.61487 10.801 8.46823 10.6521 8.35928C10.5033 8.25033 10.3281 8.18301 10.1446 8.16424C10.3159 7.9667 10.4056 7.71136 10.3955 7.45007C10.3854 7.18879 10.2761 6.94116 10.09 6.75749C9.92225 6.59163 9.70314 6.48763 9.46856 6.46249L10.8654 5.06564C11.0607 4.87023 11.1703 4.60525 11.1702 4.329C11.1701 4.05274 11.0603 3.78785 10.8648 3.59258C10.6694 3.39732 10.4044 3.28768 10.1282 3.28778C9.85194 3.28789 9.58705 3.39773 9.39178 3.59314L7.94041 5.04499L7.78738 4.67567C7.68594 4.43077 7.51404 4.22153 7.29349 4.07448C7.07294 3.92744 6.81368 3.84922 6.54861 3.84974C6.37351 3.84921 6.20006 3.88352 6.03836 3.95069C5.84366 4.03149 5.689 4.18628 5.60837 4.38104C5.52774 4.57581 5.52774 4.79462 5.60836 4.98939L6.30731 6.67827L4.78048 8.20534C4.47303 8.51477 4.27421 8.91556 4.21385 9.34756C4.1535 9.77957 4.23487 10.2195 4.44576 10.6013L5.63178 12.7328C5.76661 12.9758 5.83744 13.249 5.83761 13.5269V15.3302C5.83761 15.3799 5.85736 15.4276 5.89252 15.4628C5.92769 15.498 5.97538 15.5177 6.02511 15.5177C6.07484 15.5177 6.12253 15.498 6.15769 15.4628C6.19285 15.4276 6.21261 15.3799 6.21261 15.3302V13.5268C6.21239 13.1852 6.12527 12.8492 5.95943 12.5504L4.77341 10.4189C4.60195 10.1084 4.5358 9.75066 4.58488 9.39934C4.63395 9.04803 4.79561 8.7221 5.04561 8.47044L9.65653 3.85887C9.7836 3.73741 9.95258 3.66958 10.1284 3.66949C10.3041 3.6694 10.4732 3.73706 10.6004 3.85839C10.725 3.98347 10.795 4.15287 10.795 4.32946C10.795 4.50605 10.725 4.67544 10.6004 4.80052L8.20316 7.19774C8.185 7.21497 8.17047 7.23566 8.16043 7.2586C8.15039 7.28153 8.14505 7.30624 8.14472 7.33128C8.14439 7.35631 8.14907 7.38115 8.15849 7.40435C8.16791 7.42754 8.18189 7.44861 8.19958 7.46632C8.21728 7.48402 8.23834 7.49801 8.26153 7.50744C8.28472 7.51688 8.30956 7.52158 8.33459 7.52126C8.35962 7.52094 8.38434 7.51561 8.40728 7.50559C8.43022 7.49556 8.45092 7.48105 8.46816 7.46289L9.00613 6.92499C9.13423 6.84811 9.28425 6.81602 9.43258 6.83377C9.58092 6.85151 9.71914 6.91809 9.82548 7.02302C9.88759 7.08474 9.93687 7.15814 9.97049 7.23899C10.0041 7.31984 10.0214 7.40654 10.0213 7.4941C10.0213 7.58166 10.0039 7.66835 9.97025 7.74916C9.93655 7.82998 9.8872 7.90333 9.82503 7.96499L9.14753 8.64249C9.12911 8.65966 9.11434 8.68036 9.10409 8.70336C9.09384 8.72636 9.08833 8.75119 9.08788 8.77636C9.08744 8.80154 9.09207 8.82655 9.1015 8.84989C9.11093 8.87324 9.12497 8.89445 9.14277 8.91225C9.16058 8.93006 9.18179 8.94409 9.20513 8.95352C9.22848 8.96295 9.25349 8.96759 9.27866 8.96714C9.30384 8.9667 9.32867 8.96119 9.35167 8.95094C9.37467 8.94069 9.39537 8.92592 9.41253 8.90749L9.68701 8.63302C9.82612 8.54652 9.99222 8.5143 10.1536 8.54253C10.3149 8.57076 10.4602 8.65745 10.5617 8.78604C10.6632 8.91463 10.7138 9.0761 10.7037 9.2396C10.6937 9.4031 10.6237 9.55717 10.5073 9.67237L10.0898 10.0899C10.0713 10.107 10.0566 10.1277 10.0463 10.1507C10.0361 10.1737 10.0306 10.1986 10.0301 10.2237C10.0297 10.2489 10.0343 10.2739 10.0437 10.2973C10.0532 10.3206 10.0672 10.3418 10.085 10.3596C10.1028 10.3774 10.124 10.3915 10.1474 10.4009C10.1707 10.4103 10.1957 10.415 10.2209 10.4145C10.2461 10.4141 10.2709 10.4086 10.2939 10.3983C10.3169 10.3881 10.3376 10.3733 10.3548 10.3549L10.4189 10.2908C10.5466 10.2138 10.6964 10.1818 10.8445 10.1999C10.9925 10.218 11.1303 10.2852 11.2356 10.3908C11.298 10.4524 11.3475 10.5257 11.3813 10.6066C11.415 10.6875 11.4323 10.7743 11.4322 10.862C11.432 10.9496 11.4144 11.0364 11.3805 11.1172C11.3465 11.198 11.2967 11.2712 11.2342 11.3326L10.4527 12.1166C10.3479 12.2241 10.2665 12.3521 10.2137 12.4926C10.1712 12.6086 10.1497 12.7313 10.15 12.8548V15.3298C10.15 15.3796 10.1698 15.4273 10.205 15.4624C10.2401 15.4976 10.2878 15.5173 10.3375 15.5173C10.3873 15.5173 10.435 15.4976 10.4701 15.4624C10.5053 15.4273 10.525 15.3796 10.525 15.3298V12.8548C10.5249 12.776 10.5385 12.6978 10.5653 12.6236C10.5997 12.5327 10.6524 12.4498 10.72 12.38L11.5 11.5975C11.5974 11.5012 11.6747 11.3866 11.7274 11.2603C11.7802 11.134 11.8074 10.9985 11.8074 10.8616C11.8075 10.7247 11.7804 10.5891 11.7277 10.4628C11.675 10.3364 11.5978 10.2218 11.5005 10.1255ZM6.59453 6.39104L5.95486 4.84544C5.91239 4.74259 5.91244 4.62709 5.955 4.52428C5.99757 4.42147 6.07917 4.33973 6.18191 4.29699C6.29814 4.24882 6.42279 4.22425 6.54861 4.22472C6.73954 4.22428 6.92629 4.28058 7.08517 4.38646C7.24405 4.49235 7.36788 4.64305 7.44096 4.81944L7.65326 5.33214L6.59453 6.39104Z"/><path stroke="url(#paint1_linear_143_3438)" stroke-width=".333" d="M11.5005 10.1255C11.33 9.95449 11.1051 9.84848 10.8646 9.82582C10.9764 9.67911 11.0471 9.50526 11.0694 9.32216C11.0916 9.13907 11.0647 8.95334 10.9914 8.7841C10.9181 8.61487 10.801 8.46823 10.6521 8.35928C10.5033 8.25033 10.3281 8.18301 10.1446 8.16424C10.3159 7.9667 10.4056 7.71136 10.3955 7.45007C10.3854 7.18879 10.2761 6.94116 10.09 6.75749C9.92225 6.59163 9.70314 6.48763 9.46856 6.46249L10.8654 5.06564C11.0607 4.87023 11.1703 4.60525 11.1702 4.329C11.1701 4.05274 11.0603 3.78785 10.8648 3.59258C10.6694 3.39732 10.4044 3.28768 10.1282 3.28778C9.85194 3.28789 9.58705 3.39773 9.39178 3.59314L7.94041 5.04499L7.78738 4.67567C7.68594 4.43077 7.51404 4.22153 7.29349 4.07448C7.07294 3.92744 6.81368 3.84922 6.54861 3.84974C6.37351 3.84921 6.20006 3.88352 6.03836 3.95069C5.84366 4.03149 5.689 4.18628 5.60837 4.38104C5.52774 4.57581 5.52774 4.79462 5.60836 4.98939L6.30731 6.67827L4.78048 8.20534C4.47303 8.51477 4.27421 8.91556 4.21385 9.34756C4.1535 9.77957 4.23487 10.2195 4.44576 10.6013L5.63178 12.7328C5.76661 12.9758 5.83744 13.249 5.83761 13.5269V15.3302C5.83761 15.3799 5.85736 15.4276 5.89252 15.4628C5.92769 15.498 5.97538 15.5177 6.02511 15.5177C6.07484 15.5177 6.12253 15.498 6.15769 15.4628C6.19285 15.4276 6.21261 15.3799 6.21261 15.3302V13.5268C6.21239 13.1852 6.12527 12.8492 5.95943 12.5504L4.77341 10.4189C4.60195 10.1084 4.5358 9.75066 4.58488 9.39934C4.63395 9.04803 4.79561 8.7221 5.04561 8.47044L9.65653 3.85887C9.7836 3.73741 9.95258 3.66958 10.1284 3.66949C10.3041 3.6694 10.4732 3.73706 10.6004 3.85839C10.725 3.98347 10.795 4.15287 10.795 4.32946C10.795 4.50605 10.725 4.67544 10.6004 4.80052L8.20316 7.19774C8.185 7.21497 8.17047 7.23566 8.16043 7.2586C8.15039 7.28153 8.14505 7.30624 8.14472 7.33128C8.14439 7.35631 8.14907 7.38115 8.15849 7.40435C8.16791 7.42754 8.18189 7.44861 8.19958 7.46632C8.21728 7.48402 8.23834 7.49801 8.26153 7.50744C8.28472 7.51688 8.30956 7.52158 8.33459 7.52126C8.35962 7.52094 8.38434 7.51561 8.40728 7.50559C8.43022 7.49556 8.45092 7.48105 8.46816 7.46289L9.00613 6.92499C9.13423 6.84811 9.28425 6.81602 9.43258 6.83377C9.58092 6.85151 9.71914 6.91809 9.82548 7.02302C9.88759 7.08474 9.93687 7.15814 9.97049 7.23899C10.0041 7.31984 10.0214 7.40654 10.0213 7.4941C10.0213 7.58166 10.0039 7.66835 9.97025 7.74916C9.93655 7.82998 9.8872 7.90333 9.82503 7.96499L9.14753 8.64249C9.12911 8.65966 9.11434 8.68036 9.10409 8.70336C9.09384 8.72636 9.08833 8.75119 9.08788 8.77636C9.08744 8.80154 9.09207 8.82655 9.1015 8.84989C9.11093 8.87324 9.12497 8.89445 9.14277 8.91225C9.16058 8.93006 9.18179 8.94409 9.20513 8.95352C9.22848 8.96295 9.25349 8.96759 9.27866 8.96714C9.30384 8.9667 9.32867 8.96119 9.35167 8.95094C9.37467 8.94069 9.39537 8.92592 9.41253 8.90749L9.68701 8.63302C9.82612 8.54652 9.99222 8.5143 10.1536 8.54253C10.3149 8.57076 10.4602 8.65745 10.5617 8.78604C10.6632 8.91463 10.7138 9.0761 10.7037 9.2396C10.6937 9.4031 10.6237 9.55717 10.5073 9.67237L10.0898 10.0899C10.0713 10.107 10.0566 10.1277 10.0463 10.1507C10.0361 10.1737 10.0306 10.1986 10.0301 10.2237C10.0297 10.2489 10.0343 10.2739 10.0437 10.2973C10.0532 10.3206 10.0672 10.3418 10.085 10.3596C10.1028 10.3774 10.124 10.3915 10.1474 10.4009C10.1707 10.4103 10.1957 10.415 10.2209 10.4145C10.2461 10.4141 10.2709 10.4086 10.2939 10.3983C10.3169 10.3881 10.3376 10.3733 10.3548 10.3549L10.4189 10.2908C10.5466 10.2138 10.6964 10.1818 10.8445 10.1999C10.9925 10.218 11.1303 10.2852 11.2356 10.3908C11.298 10.4524 11.3475 10.5257 11.3813 10.6066C11.415 10.6875 11.4323 10.7743 11.4322 10.862C11.432 10.9496 11.4144 11.0364 11.3805 11.1172C11.3465 11.198 11.2967 11.2712 11.2342 11.3326L10.4527 12.1166C10.3479 12.2241 10.2665 12.3521 10.2137 12.4926C10.1712 12.6086 10.1497 12.7313 10.15 12.8548V15.3298C10.15 15.3796 10.1698 15.4273 10.205 15.4624C10.2401 15.4976 10.2878 15.5173 10.3375 15.5173C10.3873 15.5173 10.435 15.4976 10.4701 15.4624C10.5053 15.4273 10.525 15.3796 10.525 15.3298V12.8548C10.5249 12.776 10.5385 12.6978 10.5653 12.6236C10.5997 12.5327 10.6524 12.4498 10.72 12.38L11.5 11.5975C11.5974 11.5012 11.6747 11.3866 11.7274 11.2603C11.7802 11.134 11.8074 10.9985 11.8074 10.8616C11.8075 10.7247 11.7804 10.5891 11.7277 10.4628C11.675 10.3364 11.5978 10.2218 11.5005 10.1255ZM6.59453 6.39104L5.95486 4.84544C5.91239 4.74259 5.91244 4.62709 5.955 4.52428C5.99757 4.42147 6.07917 4.33973 6.18191 4.29699C6.29814 4.24882 6.42279 4.22425 6.54861 4.22472C6.73954 4.22428 6.92629 4.28058 7.08517 4.38646C7.24405 4.49235 7.36788 4.64305 7.44096 4.81944L7.65326 5.33214L6.59453 6.39104Z" mask="url(#path-1-outside-1_143_3438)"/><path fill="url(#paint2_linear_143_3438)" stroke="url(#paint3_linear_143_3438)" stroke-width=".167" d="M7.26611 0.408813C7.57649 0.368279 7.89122 0.438668 8.15479 0.607056C8.41848 0.438376 8.7338 0.368246 9.04443 0.408813C9.35862 0.449896 9.64768 0.602192 9.85986 0.837524H9.86084C10.0911 1.09652 10.212 1.43456 10.1997 1.78088C10.1873 2.12719 10.0415 2.45494 9.79346 2.6969L9.79443 2.69788L8.58838 3.90393C8.47358 4.01865 8.31708 4.08362 8.15479 4.08362C7.99265 4.0835 7.83686 4.01855 7.72217 3.90393L6.51611 2.69788C6.26809 2.45586 6.1232 2.12722 6.11084 1.78088C6.09859 1.43454 6.21946 1.09655 6.44971 0.837524H6.45068C6.66289 0.602171 6.95189 0.44988 7.26611 0.408813ZM8.96143 1.04749C8.79896 1.02619 8.63402 1.06376 8.49658 1.15295L8.49561 1.15393C8.39417 1.21937 8.27551 1.25452 8.15479 1.25452C8.03401 1.25443 7.9154 1.21951 7.81396 1.15393V1.15295C7.67656 1.06361 7.51163 1.02619 7.34912 1.04749C7.18664 1.06878 7.03698 1.14747 6.92725 1.26917C6.81039 1.40652 6.74958 1.5831 6.75732 1.76331C6.76511 1.94395 6.84143 2.11492 6.97021 2.24182L8.15479 3.42639L9.33936 2.2428L9.34033 2.24182C9.46916 2.11496 9.54544 1.94395 9.55322 1.76331C9.56095 1.58334 9.49988 1.40738 9.3833 1.27014L9.29443 1.18616C9.19838 1.11166 9.08338 1.06348 8.96143 1.04749Z"/><defs><linearGradient id="paint0_linear_143_3438" x1="4.194" x2="11.807" y1="9.403" y2="9.403" gradientUnits="userSpaceOnUse"><stop stop-color="#FFA18D"/><stop offset="1" stop-color="#FD3E84"/></linearGradient><linearGradient id="paint1_linear_143_3438" x1="4.194" x2="11.807" y1="9.403" y2="9.403" gradientUnits="userSpaceOnUse"><stop stop-color="#FFA18D"/><stop offset="1" stop-color="#FD3E84"/></linearGradient><linearGradient id="paint2_linear_143_3438" x1="6.193" x2="10.118" y1="2.241" y2="2.241" gradientUnits="userSpaceOnUse"><stop stop-color="#FFA18D"/><stop offset="1" stop-color="#FD3E84"/></linearGradient><linearGradient id="paint3_linear_143_3438" x1="6.193" x2="10.118" y1="2.241" y2="2.241" gradientUnits="userSpaceOnUse"><stop stop-color="#FFA18D"/><stop offset="1" stop-color="#FD3E84"/></linearGradient></defs></svg>