<svg width="20" height="20" viewBox="0 0 20 20" fill="none" xmlns="http://www.w3.org/2000/svg">
<path d="M10.0747 4.87012C11.0383 3.61032 12.4185 2.99893 13.8726 3.18164L14.1636 3.22852C14.9648 3.38833 15.6998 3.78498 16.2739 4.36621C16.848 4.94741 17.2353 5.68719 17.3853 6.49023L17.3872 6.49902C17.7245 7.82811 17.4195 12.3374 9.95459 16.9502C2.49125 12.3329 2.18309 7.82951 2.52295 6.49707H2.52393L2.52588 6.4873C2.67149 5.70271 3.04476 4.97829 3.59912 4.4043C4.15346 3.8304 4.86409 3.43159 5.64307 3.25879C6.42209 3.086 7.23493 3.14688 7.97998 3.43262C8.72497 3.71837 9.36982 4.21684 9.8335 4.86621L9.95068 5.03125L10.0747 4.87012ZM9.95557 7.2002C9.89523 7.2002 9.83505 7.21308 9.77979 7.2373C9.75228 7.24939 9.72599 7.26389 9.70166 7.28125L9.63428 7.34082L9.62939 7.34668C9.53368 7.46181 9.06893 8.02663 8.62744 8.69629C8.40681 9.03095 8.19008 9.39493 8.02783 9.74414C7.86729 10.0897 7.75244 10.4372 7.75244 10.7334C7.75322 11.3173 7.98511 11.8771 8.39795 12.29C8.81092 12.703 9.37153 12.9358 9.95557 12.9365C10.5395 12.9358 11.0993 12.7029 11.5122 12.29C11.9251 11.8771 12.1579 11.3173 12.1587 10.7334C12.1587 10.4372 12.0438 10.0897 11.8833 9.74414C11.7211 9.39498 11.5043 9.03092 11.2837 8.69629C10.8424 8.027 10.3778 7.46225 10.2817 7.34668L10.2759 7.34082C10.235 7.29658 10.1855 7.26148 10.1304 7.2373C10.0752 7.21312 10.0158 7.20024 9.95557 7.2002ZM9.95459 8.29883C10.2486 8.68182 10.569 9.13499 10.8247 9.56348C10.9699 9.8068 11.0928 10.0393 11.1792 10.2441C11.2451 10.4006 11.2859 10.5331 11.3022 10.6377L11.311 10.7334C11.2484 12.522 8.66192 12.5223 8.59912 10.7334H8.6001C8.6001 10.606 8.64913 10.4258 8.74463 10.2051C8.83856 9.98806 8.97114 9.74586 9.12256 9.49805C9.38371 9.07067 9.69653 8.63529 9.95459 8.29883Z" fill="url(#paint0_linear_39_397)" stroke="#FFDBE3" stroke-width="0.3"/>
<defs>
<linearGradient id="paint0_linear_39_397" x1="2.28564" y1="10.0639" x2="17.624" y2="10.0639" gradientUnits="userSpaceOnUse">
<stop stop-color="#FFA18D"/>
<stop offset="1" stop-color="#FD3E84"/>
</linearGradient>
</defs>
</svg>
