<svg xmlns="http://www.w3.org/2000/svg" width="16" height="16" fill="none" viewBox="0 0 16 16"><path fill="url(#paint0_linear_143_3427)" stroke="url(#paint1_linear_143_3427)" stroke-width=".2" d="M4.11035 1.52338C5.59091 1.23152 7.0139 1.78965 8.00098 3.01361C8.98725 1.79074 10.4087 1.23326 11.8887 1.52435H11.8896C12.6676 1.6796 13.381 2.06447 13.9385 2.62885C14.4944 3.19162 14.8691 3.90728 15.0156 4.68451C15.36 6.03799 14.9943 10.2709 8.05371 14.5361L8.00195 14.5673L7.94922 14.5361C3.87477 12.0895 1.6419 9.19504 1.06055 6.72748C0.769561 5.49233 0.891698 4.36038 1.41113 3.45013C1.93096 2.53929 2.84215 1.86193 4.10449 1.52435L4.11035 1.5224V1.52338ZM4.58496 2.15033C3.5012 2.23093 2.50286 2.88058 1.98828 3.9306C1.47455 4.97903 1.43776 6.43869 2.30664 8.14447C3.17107 9.84152 4.93199 11.7778 8.00098 13.7802C11.0706 11.7764 12.8315 9.8395 13.6953 8.14252C14.5635 6.43688 14.5262 4.97736 14.0117 3.92963C13.4964 2.88026 12.4967 2.23155 11.4131 2.15131C10.332 2.07134 9.15759 2.55701 8.29199 3.79779L8.29102 3.79974C8.25761 3.84513 8.21338 3.88272 8.16309 3.90814C8.11289 3.93345 8.0572 3.94624 8.00098 3.94623C7.94473 3.9462 7.88907 3.93351 7.83887 3.90814C7.78859 3.8827 7.7453 3.84513 7.71191 3.79974L7.70996 3.79779C6.84196 2.55581 5.66634 2.07004 4.58496 2.15033Z"/><path fill="url(#paint2_linear_143_3427)" stroke="url(#paint3_linear_143_3427)" stroke-width=".2" d="M8 5.42041C8.0501 5.42041 8.09972 5.43036 8.14551 5.45068C8.16863 5.46096 8.1906 5.47396 8.21094 5.48877L8.2666 5.53857L8.26855 5.5415C8.35576 5.64602 8.77948 6.16044 9.18164 6.77002C9.38263 7.0747 9.57942 7.40562 9.72656 7.72217C9.87248 8.03612 9.97449 8.34668 9.97461 8.60889V8.61279C9.88232 11.2229 6.11771 11.2224 6.02539 8.61279V8.60889C6.02552 8.34668 6.12753 8.03612 6.27344 7.72217C6.42058 7.40561 6.61737 7.0747 6.81836 6.77002C7.22052 6.16043 7.64423 5.64602 7.73145 5.5415L7.7334 5.53857C7.76701 5.50132 7.80865 5.47107 7.85449 5.45068C7.90028 5.43036 7.9499 5.42041 8 5.42041ZM8 6.32666C7.75809 6.63976 7.45647 7.05529 7.20703 7.46338C7.06827 7.69041 6.94702 7.91363 6.86035 8.11377C6.77279 8.31603 6.72473 8.48522 6.72461 8.60889C6.72499 8.94684 6.85974 9.27123 7.09863 9.51025C7.33765 9.74927 7.66198 9.88386 8 9.88428L8.12598 9.87842C8.41773 9.84914 8.69222 9.7194 8.90137 9.51025C9.14026 9.27123 9.27501 8.94684 9.27539 8.60889C9.27527 8.49722 9.23303 8.34036 9.15234 8.14893C9.07261 7.95979 8.95918 7.74597 8.82617 7.52295C8.58332 7.11578 8.27689 6.6845 8 6.32666Z"/><defs><linearGradient id="paint0_linear_143_3427" x1="1.006" x2="15.003" y1="7.999" y2="7.999" gradientUnits="userSpaceOnUse"><stop stop-color="#FFA18D"/><stop offset="1" stop-color="#FD3E84"/></linearGradient><linearGradient id="paint1_linear_143_3427" x1="1.006" x2="15.003" y1="7.999" y2="7.999" gradientUnits="userSpaceOnUse"><stop stop-color="#FFA18D"/><stop offset="1" stop-color="#FD3E84"/></linearGradient><linearGradient id="paint2_linear_143_3427" x1="6.125" x2="9.875" y1="7.995" y2="7.995" gradientUnits="userSpaceOnUse"><stop stop-color="#FFA18D"/><stop offset="1" stop-color="#FD3E84"/></linearGradient><linearGradient id="paint3_linear_143_3427" x1="6.125" x2="9.875" y1="7.995" y2="7.995" gradientUnits="userSpaceOnUse"><stop stop-color="#FFA18D"/><stop offset="1" stop-color="#FD3E84"/></linearGradient></defs></svg>