<svg width="16" height="16" viewBox="0 0 16 16" fill="none" xmlns="http://www.w3.org/2000/svg">
<g clip-path="url(#clip0_142_3278)">
<path d="M15.3296 7.48995C17.2576 4.23752 14.7848 -0.0443835 10.9986 0.00341796C7.96692 -0.0233396 5.57189 2.78258 6.06255 5.771C5.94044 5.85177 5.83341 5.94176 5.73009 6.05063C1.6487 5.42084 -1.41218 9.9262 0.673034 13.4847C0.549456 13.9453 0.425909 14.4059 0.302268 14.8672C0.238949 15.1049 0.305703 15.3499 0.48086 15.5225C0.653551 15.6926 0.904798 15.758 1.13706 15.6933C1.59566 15.5705 2.05416 15.4475 2.51269 15.3244C6.13099 17.4249 10.6338 14.2993 9.93215 10.1724C10.017 10.0939 10.1009 10.0122 10.183 9.92807C11.313 10.1163 12.502 9.90247 13.49 9.32967C13.9486 9.45271 14.4071 9.57573 14.8657 9.69859C15.098 9.76322 15.3491 9.69784 15.5218 9.52771C15.697 9.35511 15.7637 9.11014 15.7003 8.87204C15.5767 8.41107 15.4532 7.95051 15.3296 7.48995ZM10.4752 8.54077C9.92182 9.4993 8.85367 10.3367 8.31356 10.5345C7.17097 10.1122 4.74128 7.61728 6.33477 6.34321C6.8541 5.95256 7.58086 5.95662 8.09275 6.47666C8.21471 6.59858 8.41237 6.59858 8.53433 6.47666C9.1106 5.90036 9.8496 6.00355 10.2923 6.34321C10.7787 6.71642 11.0821 7.48967 10.4752 8.54077ZM9.37508 10.9937C9.41755 14.3586 5.56452 16.5149 2.72216 14.7226C2.64919 14.6778 2.56089 14.665 2.47806 14.6872C1.97666 14.8217 1.47526 14.9563 0.973799 15.0906C0.929994 15.1063 0.892153 15.0573 0.905547 15.0284C1.04043 14.5251 1.17534 14.0222 1.31028 13.5193C1.33248 13.4366 1.31968 13.3483 1.27488 13.2752C-0.592752 10.283 1.82917 6.32957 5.34755 6.63599C4.97847 7.4355 5.27824 8.5522 6.00778 9.43264H2.942C2.52867 9.44775 2.52802 10.0417 2.942 10.0571H6.57335C7.19592 10.6419 7.80241 11.0822 8.31352 11.1743C8.64383 11.1242 8.96167 10.9234 9.36122 10.6444C9.37043 10.7605 9.37508 10.8771 9.37508 10.9937ZM15.0834 9.08295C15.0734 9.09409 15.0516 9.1043 15.0288 9.09587C14.5274 8.96149 14.0259 8.82699 13.5246 8.69245C13.4417 8.67025 13.3535 8.68305 13.2804 8.72785C12.5058 9.20428 11.5873 9.42602 10.6769 9.35836C11.4064 8.44863 11.6416 7.32831 11.2455 6.56009H13.0607C13.2331 6.56009 13.3729 6.4203 13.3729 6.24786C13.3729 6.07542 13.2331 5.93564 13.0607 5.93564H10.7786C10.1506 5.38288 9.13811 5.22321 8.31359 5.84194C7.79305 5.44607 7.18562 5.37226 6.65702 5.50839C6.34083 2.93835 8.40675 0.61035 10.9987 0.627834C14.3632 0.584997 16.5199 4.43843 14.7277 7.28045C14.6829 7.35348 14.6701 7.44177 14.6923 7.52458C14.8273 8.02744 14.9622 8.53031 15.0969 9.03324C15.0991 9.04111 15.1046 9.06206 15.0834 9.08295Z" fill="url(#paint0_linear_142_3278)"/>
<path d="M2.94211 11.306H5.00406C5.41723 11.2909 5.4182 10.697 5.00406 10.6815H2.94211C2.76967 10.6815 2.62988 10.8213 2.62988 10.9938C2.62988 11.1662 2.76967 11.306 2.94211 11.306Z" fill="url(#paint1_linear_142_3278)"/>
<path d="M7.06592 11.9304H2.94204C2.5295 11.9452 2.52737 12.5392 2.94204 12.5549H7.06592C7.47849 12.5401 7.48062 11.9461 7.06592 11.9304Z" fill="url(#paint2_linear_142_3278)"/>
<path d="M13.0605 3.4379H8.93667C8.52413 3.45266 8.522 4.0467 8.93667 4.06234H13.0605C13.4731 4.04758 13.4752 3.45354 13.0605 3.4379Z" fill="url(#paint3_linear_142_3278)"/>
<path d="M13.0606 4.68677H10.9987C10.5856 4.70182 10.5846 5.29576 10.9987 5.31122H13.0606C13.233 5.31122 13.3728 5.17143 13.3728 4.99899C13.3728 4.82655 13.233 4.68677 13.0606 4.68677Z" fill="url(#paint4_linear_142_3278)"/>
</g>
<defs>
<linearGradient id="paint0_linear_142_3278" x1="0" y1="7.99996" x2="16" y2="7.99996" gradientUnits="userSpaceOnUse">
<stop stop-color="#FFA18D"/>
<stop offset="1" stop-color="#FD3E84"/>
</linearGradient>
<linearGradient id="paint1_linear_142_3278" x1="2.62988" y1="10.9938" x2="5.3143" y2="10.9938" gradientUnits="userSpaceOnUse">
<stop stop-color="#FFA18D"/>
<stop offset="1" stop-color="#FD3E84"/>
</linearGradient>
<linearGradient id="paint2_linear_142_3278" x1="2.63184" y1="12.2426" x2="7.37615" y2="12.2426" gradientUnits="userSpaceOnUse">
<stop stop-color="#FFA18D"/>
<stop offset="1" stop-color="#FD3E84"/>
</linearGradient>
<linearGradient id="paint3_linear_142_3278" x1="8.62646" y1="3.75012" x2="13.3708" y2="3.75012" gradientUnits="userSpaceOnUse">
<stop stop-color="#FFA18D"/>
<stop offset="1" stop-color="#FD3E84"/>
</linearGradient>
<linearGradient id="paint4_linear_142_3278" x1="10.6885" y1="4.99899" x2="13.3728" y2="4.99899" gradientUnits="userSpaceOnUse">
<stop stop-color="#FFA18D"/>
<stop offset="1" stop-color="#FD3E84"/>
</linearGradient>
<clipPath id="clip0_142_3278">
<rect width="16" height="16" fill="white"/>
</clipPath>
</defs>
</svg>
