<svg width="20" height="20" viewBox="0 0 20 20" fill="none" xmlns="http://www.w3.org/2000/svg">
<path d="M5.84961 13.9515C7.19241 13.9515 8.28503 15.0433 8.28516 16.3861C8.28516 17.729 7.19249 18.8217 5.84961 18.8217C4.50685 18.8215 3.41504 17.7289 3.41504 16.3861C3.41516 15.0434 4.50693 13.9517 5.84961 13.9515ZM14.1504 13.9515C15.4931 13.9517 16.5848 15.0434 16.585 16.3861C16.585 17.7289 15.4931 18.8215 14.1504 18.8217C12.8075 18.8217 11.7148 17.729 11.7148 16.3861C11.715 15.0433 12.8076 13.9515 14.1504 13.9515ZM3.28516 6.05701C4.62803 6.05701 5.7207 7.14968 5.7207 8.49255C5.72065 9.83539 4.628 10.9271 3.28516 10.9271C1.94231 10.9271 0.849662 9.83539 0.849609 8.49255C0.849609 7.14968 1.94228 6.05701 3.28516 6.05701ZM16.7148 6.05701C18.0577 6.05701 19.1504 7.14968 19.1504 8.49255C19.1503 9.83539 18.0577 10.9271 16.7148 10.9271C15.372 10.9271 14.2793 9.83539 14.2793 8.49255C14.2793 7.14968 15.372 6.05701 16.7148 6.05701ZM10 1.1781C11.3429 1.1781 12.4355 2.27077 12.4355 3.61365C12.4355 4.95653 11.3429 6.04919 10 6.04919C8.65723 6.04906 7.56543 4.95644 7.56543 3.61365C7.56543 2.27085 8.65723 1.17823 10 1.1781Z" fill="url(#paint0_linear_39_387)" stroke="#FFDBE3" stroke-width="0.3"/>
<path d="M12.1973 4.37299L15.3154 6.63861L15.4688 6.74994L15.3252 6.87396C15.0745 7.0896 14.8735 7.36203 14.7441 7.67084L14.6787 7.82513L14.6377 7.99994C14.6001 8.15832 14.5801 8.32292 14.5801 8.49213C14.5801 8.66153 14.6001 8.82674 14.6377 8.98529L14.6777 9.15326L14.7451 9.31439C14.8745 9.62321 15.0744 9.89566 15.3252 10.1113L15.458 10.2265L15.6045 10.3154C15.8816 10.4848 16.2009 10.5925 16.542 10.6201L16.7305 10.6347L16.6719 10.8154L15.4814 14.4814L15.4229 14.662L15.2607 14.5634C14.9837 14.394 14.6644 14.2863 14.3232 14.2587L14.1494 14.2441L13.9766 14.2587C13.6355 14.2863 13.317 14.394 13.04 14.5634L12.8936 14.6513L12.7607 14.7675C12.51 14.9832 12.3091 15.2556 12.1797 15.5644L12.1143 15.7187L12.0732 15.8935C12.0356 16.052 12.0146 16.2173 12.0146 16.3867C12.0147 16.5559 12.0357 16.7205 12.0732 16.8788L12.1172 17.0634H7.88379L7.92676 16.8788C7.96427 16.7205 7.98532 16.5558 7.98535 16.3867C7.98535 16.2172 7.9644 16.0521 7.92676 15.8935L7.88477 15.7187L7.82031 15.5644C7.69091 15.2556 7.49006 14.9832 7.23926 14.7675L7.10547 14.6513L6.95996 14.5634C6.68294 14.3941 6.36447 14.2863 6.02344 14.2587L5.84961 14.2441L5.67676 14.2587C5.33568 14.2862 5.01723 14.3941 4.74023 14.5634L4.57812 14.662L4.51953 14.4814L3.32812 10.8154L3.26953 10.6347L3.45898 10.6201C3.8 10.5925 4.11853 10.4847 4.39551 10.3154L4.54102 10.2265L4.6748 10.1113C4.92561 9.89562 5.12646 9.62321 5.25586 9.31439L5.32031 9.15912L5.3623 8.98529C5.39991 8.82675 5.41992 8.66151 5.41992 8.49213C5.4199 8.32292 5.39985 8.15832 5.3623 7.99994L5.32031 7.82318L5.25586 7.66986C5.1265 7.36112 4.92553 7.08951 4.6748 6.87396L4.53125 6.74994L4.68457 6.63861L7.80371 4.37299L7.95703 4.26166L8.03027 4.43646C8.15975 4.74511 8.3606 5.01688 8.61133 5.23236L8.74707 5.34955L8.89062 5.43646C9.16763 5.60579 9.48611 5.71363 9.82715 5.74115L10 5.75482L10.1729 5.74115C10.514 5.71368 10.8333 5.60581 11.1104 5.43646L11.2578 5.34662L11.3896 5.23236C11.6404 5.01681 11.8413 4.74513 11.9707 4.43646L12.0439 4.26166L12.1973 4.37299ZM8.04688 15.6279L7.93555 15.7089H12.0645L11.9531 15.6279L10 14.2079L8.04688 15.6279ZM9.95801 5.93646L9.05957 8.70209C8.98018 8.94613 8.77087 9.12106 8.52344 9.16107L8.41504 9.16986H5.37109L5.48242 9.25092L7.83398 10.9599C8.07105 11.1324 8.16968 11.4378 8.0791 11.7167L7.18164 14.4814L7.1377 14.6122L7.24902 14.5322L9.60156 12.8232C9.83896 12.6507 10.161 12.6507 10.3984 12.8232L12.751 14.5322L12.8613 14.6122L12.8193 14.4814L11.9209 11.7167C11.8303 11.4377 11.9296 11.1324 12.167 10.9599L14.5186 9.25092L14.6299 9.16986H11.585C11.2917 9.16979 11.0322 8.98085 10.9414 8.70209L10.043 5.93646L10 5.8056L9.95801 5.93646ZM4.61621 10.3974L5.80762 14.0624L5.84961 14.1933L5.89258 14.0634L6.63867 11.7656L4.68457 10.3466L4.57324 10.2656L4.61621 10.3974ZM15.3154 10.3466L13.3604 11.7656L14.1074 14.0624L14.1494 14.1933L14.1934 14.0634L15.3838 10.3974L15.4258 10.2656L15.3154 10.3466ZM8.60156 5.46771L5.48242 7.73334L5.36914 7.81537H7.92285L8.66895 5.51849L8.71094 5.38763L8.60156 5.46771ZM11.3311 5.51849L12.0781 7.81537H14.6299L14.5186 7.73334L11.3994 5.46771L11.2881 5.38666L11.3311 5.51849Z" fill="url(#paint1_linear_39_387)" stroke="#FFDBE3" stroke-width="0.3"/>
<defs>
<linearGradient id="paint0_linear_39_387" x1="1.00024" y1="9.99989" x2="18.9997" y2="9.99989" gradientUnits="userSpaceOnUse">
<stop stop-color="#FFD2DA"/>
<stop offset="1" stop-color="#FFECE6"/>
</linearGradient>
<linearGradient id="paint1_linear_39_387" x1="3.4707" y1="10.7039" x2="16.5296" y2="10.7039" gradientUnits="userSpaceOnUse">
<stop stop-color="#FFA18D"/>
<stop offset="1" stop-color="#FD3E84"/>
</linearGradient>
</defs>
</svg>
