<svg width="18" height="18" viewBox="0 0 18 18" fill="none" xmlns="http://www.w3.org/2000/svg">
<g clip-path="url(#clip0_29_320)">
<path d="M8.99997 17.28C13.5729 17.28 17.28 13.5729 17.28 8.99997C17.28 4.42705 13.5729 0.719971 8.99997 0.719971C4.42705 0.719971 0.719971 4.42705 0.719971 8.99997C0.719971 13.5729 4.42705 17.28 8.99997 17.28Z" fill="url(#paint0_linear_29_320)"/>
<path d="M9.00024 0.870361C13.4902 0.870509 17.1301 4.51026 17.1301 9.00024C17.13 13.4901 13.4901 17.13 9.00024 17.1301C4.51026 17.1301 0.870509 13.4902 0.870361 9.00024C0.870361 4.51017 4.51017 0.870361 9.00024 0.870361Z" stroke="#FFDBE3" stroke-opacity="0.9" stroke-width="0.3"/>
<path d="M14.1746 7.5958C14.1746 8.73342 13.1379 9.62621 11.957 9.38141C11.255 9.2374 10.6934 8.66501 10.5566 7.96301C10.4738 7.5274 10.5422 7.11342 10.7222 6.7606C10.7331 6.739 10.7582 6.72461 10.7834 6.72461H13.9154C13.9406 6.72461 13.9622 6.739 13.9731 6.7606C14.1026 7.0126 14.1746 7.29702 14.1746 7.5958Z" fill="url(#paint1_linear_29_320)"/>
<path d="M7.27706 6.7606C7.40661 7.0126 7.47868 7.29702 7.47868 7.5958C7.47868 8.73342 6.43823 9.62621 5.25742 9.38141C4.55904 9.2374 3.99742 8.66501 3.86066 7.96301C3.77426 7.5274 3.84625 7.11342 4.02625 6.7606C4.03706 6.739 4.06219 6.72461 4.08382 6.72461H7.21589C7.24102 6.72461 7.26625 6.739 7.27706 6.7606Z" fill="url(#paint2_linear_29_320)"/>
<path d="M13.6464 7.59943C13.6464 7.90272 13.3997 8.14942 13.0964 8.14942C12.7931 8.14942 12.5464 7.90272 12.5464 7.59943C12.5464 7.29615 12.7931 7.04944 13.0964 7.04944C13.3997 7.04944 13.6464 7.29615 13.6464 7.59943Z" fill="url(#paint3_linear_29_320)"/>
<path d="M7.00358 7.59943C7.00358 7.90272 6.75685 8.14942 6.45354 8.14942C6.15029 8.14942 5.90356 7.90272 5.90356 7.59943C5.90356 7.29615 6.15029 7.04944 6.45354 7.04944C6.75685 7.04944 7.00358 7.29615 7.00358 7.59943Z" fill="url(#paint4_linear_29_320)"/>
<path d="M7.53959 13.9021C7.435 13.9021 7.33147 13.8567 7.26027 13.7692C7.13477 13.6152 7.15797 13.3885 7.31213 13.263L7.47754 13.1283C8.77533 12.0733 10.5179 11.6897 12.1391 12.0989C12.3317 12.1478 12.4485 12.3436 12.3996 12.5363C12.3509 12.7293 12.1547 12.8456 11.9622 12.7971C10.5604 12.4424 9.05395 12.7746 7.93193 13.6869L7.7667 13.8212C7.6999 13.8757 7.61957 13.9021 7.53959 13.9021Z" fill="url(#paint5_linear_29_320)"/>
</g>
<defs>
<linearGradient id="paint0_linear_29_320" x1="0.719971" y1="8.99997" x2="17.28" y2="8.99997" gradientUnits="userSpaceOnUse">
<stop stop-color="#FFA18D"/>
<stop offset="1" stop-color="#FD3E84"/>
</linearGradient>
<linearGradient id="paint1_linear_29_320" x1="10.5217" y1="8.07334" x2="14.1746" y2="8.07334" gradientUnits="userSpaceOnUse">
<stop stop-color="#FFF4F0"/>
<stop offset="1" stop-color="#FFC2CC"/>
</linearGradient>
<linearGradient id="paint2_linear_29_320" x1="3.82427" y1="8.07334" x2="7.47863" y2="8.07334" gradientUnits="userSpaceOnUse">
<stop stop-color="#FFD2DA"/>
<stop offset="1" stop-color="#FFECE6"/>
</linearGradient>
<linearGradient id="paint3_linear_29_320" x1="12.5464" y1="7.59961" x2="13.6465" y2="7.59961" gradientUnits="userSpaceOnUse">
<stop stop-color="#FFA08D"/>
<stop offset="1" stop-color="#FD4D85"/>
</linearGradient>
<linearGradient id="paint4_linear_29_320" x1="5.90362" y1="7.59961" x2="7.00342" y2="7.59961" gradientUnits="userSpaceOnUse">
<stop stop-color="#FFAEA1"/>
<stop offset="1" stop-color="#FD4F85"/>
</linearGradient>
<linearGradient id="paint5_linear_29_320" x1="7.17956" y1="12.9204" x2="12.4107" y2="12.9204" gradientUnits="userSpaceOnUse">
<stop stop-color="#FFF4F0"/>
<stop offset="1" stop-color="#FFC2CC"/>
</linearGradient>
<clipPath id="clip0_29_320">
<rect width="18" height="18" fill="white"/>
</clipPath>
</defs>
</svg>
