<svg xmlns="http://www.w3.org/2000/svg" width="20" height="20" fill="none" viewBox="0 0 20 20"><path fill="url(#paint0_linear_39_408)" stroke="#FFDBE3" stroke-width=".3" d="M8.15625 1.84961C9.5344 1.84961 10.6504 3.00249 10.6504 4.375V15.625C10.6504 16.9975 9.5344 18.1504 8.15625 18.1504C6.96547 18.1504 6.00766 17.2997 5.74414 16.2422C3.87303 16.2149 2.42103 14.3797 2.96387 12.4707C2.29212 11.8277 1.84961 10.9515 1.84961 10C1.84961 9.04831 2.29184 8.1714 2.96387 7.52832C2.43772 5.67245 3.78998 3.77851 5.73926 3.75684C6.00238 2.71781 6.94966 1.84961 8.15625 1.84961Z"/><mask id="path-2-outside-1_39_408" width="15" height="18" x="3.875" y="1" fill="#000" maskUnits="userSpaceOnUse"><rect width="15" height="18" x="3.875" y="1" fill="#fff"/><path d="M5.34375 10.4688C5.08466 10.4688 4.875 10.6784 4.875 10.9375C4.875 11.1966 5.08466 11.4062 5.34375 11.4062C5.95406 11.4062 6.4695 11.0132 6.66366 10.4688H7.21875C7.47784 10.4688 7.6875 10.2591 7.6875 10C7.6875 9.74091 7.47784 9.53125 7.21875 9.53125H6.66366C6.4695 8.98681 5.95406 8.59375 5.34375 8.59375C5.08466 8.59375 4.875 8.80341 4.875 9.0625C4.875 9.32159 5.08466 9.53125 5.34375 9.53125C5.60194 9.53125 5.8125 9.74137 5.8125 10C5.8125 10.2586 5.60194 10.4688 5.34375 10.4688ZM6.28125 7.65625H7.21875C7.47784 7.65625 7.6875 7.44659 7.6875 7.1875C7.6875 6.92841 7.47784 6.71875 7.21875 6.71875H6.28125C6.02306 6.71875 5.8125 6.50863 5.8125 6.25C5.8125 5.99091 5.60284 5.78125 5.34375 5.78125C5.08466 5.78125 4.875 5.99091 4.875 6.25C4.875 7.02544 5.50581 7.65625 6.28125 7.65625ZM7.21875 12.3438H6.28125C5.50581 12.3438 4.875 12.9746 4.875 13.75C4.875 14.0091 5.08466 14.2188 5.34375 14.2188C5.60284 14.2188 5.8125 14.0091 5.8125 13.75C5.8125 13.4914 6.02306 13.2812 6.28125 13.2812H7.21875C7.47784 13.2812 7.6875 13.0716 7.6875 12.8125C7.6875 12.5534 7.47784 12.3438 7.21875 12.3438ZM8.15625 14.2188C7.89716 14.2188 7.6875 14.4284 7.6875 14.6875V15.625C7.6875 15.8841 7.89716 16.0938 8.15625 16.0938C8.41534 16.0938 8.625 15.8841 8.625 15.625V14.6875C8.625 14.4284 8.41534 14.2188 8.15625 14.2188ZM8.15625 5.78125C8.41534 5.78125 8.625 5.57159 8.625 5.3125V4.375C8.625 4.11591 8.41534 3.90625 8.15625 3.90625C7.89716 3.90625 7.6875 4.11591 7.6875 4.375V5.3125C7.6875 5.57159 7.89716 5.78125 8.15625 5.78125ZM16.5938 12.3438C16.535 12.3438 16.4772 12.3478 16.4203 12.3548L15.7305 10.9752C15.9745 10.7222 16.125 10.3784 16.125 10C16.125 9.62156 15.9745 9.27781 15.7305 9.02478L16.4203 7.64519C16.4772 7.65222 16.535 7.65625 16.5938 7.65625C17.3692 7.65625 18 7.02544 18 6.25C18 5.47456 17.3692 4.84375 16.5938 4.84375C16.3071 4.84375 16.0404 4.93012 15.8178 5.07794L14.1844 3.83053C14.2269 3.69659 14.25 3.55409 14.25 3.40625C14.25 2.63081 13.6192 2 12.8438 2C12.0683 2 11.4375 2.63081 11.4375 3.40625C11.4375 3.74684 11.5592 4.05944 11.7614 4.30303L10.3138 6.74725C10.2225 6.72856 10.128 6.71872 10.0312 6.71872C9.25581 6.71872 8.625 7.34953 8.625 8.12497C8.625 8.90041 9.25581 9.53122 10.0312 9.53122C10.4516 9.53122 10.8292 9.34559 11.0871 9.05231L13.314 9.94291C13.3132 9.96187 13.3125 9.98088 13.3125 10C13.3125 10.0191 13.3132 10.0381 13.3139 10.0571L11.0871 10.9477C10.8292 10.6544 10.4516 10.4688 10.0312 10.4688C9.25581 10.4688 8.625 11.0996 8.625 11.875C8.625 12.6504 9.25581 13.2812 10.0312 13.2812C10.128 13.2812 10.2225 13.2714 10.3138 13.2527L11.7614 15.6969C11.5592 15.9406 11.4375 16.2532 11.4375 16.5938C11.4375 17.3692 12.0683 18 12.8438 18C13.6192 18 14.25 17.3692 14.25 16.5938C14.25 16.4459 14.2269 16.3034 14.1844 16.1695L15.8178 14.9221C16.0404 15.0699 16.3071 15.1562 16.5938 15.1562C17.3692 15.1562 18 14.5254 18 13.75C18 12.9746 17.3692 12.3438 16.5938 12.3438ZM15.2533 5.82509C15.219 5.93278 15.1976 6.04606 15.1904 6.16319L14.1912 6.44866L13.6764 4.61663L15.2533 5.82509ZM11.1146 7.22937L12.5647 4.78459C12.6271 4.79722 12.6911 4.80547 12.7562 4.8095L13.2904 6.70606L11.1762 7.31003C11.1565 7.28247 11.1362 7.25544 11.1146 7.22937ZM11.4788 8.19916L13.5483 7.60797L13.9046 8.85447C13.8158 8.91775 13.7347 8.991 13.6629 9.07269L11.4788 8.19916ZM12.7562 15.1905C12.6911 15.1945 12.6271 15.2028 12.5647 15.2154L11.1146 12.7706C11.1362 12.7446 11.1565 12.7176 11.1762 12.69L13.2904 13.294L12.7562 15.1905ZM11.4788 11.8008L13.6629 10.9273C13.7347 11.009 13.8158 11.0823 13.9046 11.1455L13.5483 12.392L11.4788 11.8008ZM13.6764 15.3834L14.1912 13.5513L15.1905 13.8368C15.1976 13.9539 15.2191 14.0672 15.2533 14.1749L13.6764 15.3834ZM15.4488 12.935L14.4491 12.6494L14.8053 11.4033C14.8345 11.4015 14.8635 11.3987 14.8922 11.3952L15.582 12.7747C15.5338 12.8248 15.4893 12.8783 15.4488 12.935ZM14.8922 8.60481C14.8635 8.60125 14.8345 8.59844 14.8053 8.59666L14.449 7.35056L15.4487 7.06494C15.4892 7.12162 15.5337 7.17519 15.582 7.22519L14.8922 8.60481Z"/></mask><path fill="url(#paint1_linear_39_408)" d="M5.34375 10.4688C5.08466 10.4688 4.875 10.6784 4.875 10.9375C4.875 11.1966 5.08466 11.4062 5.34375 11.4062C5.95406 11.4062 6.4695 11.0132 6.66366 10.4688H7.21875C7.47784 10.4688 7.6875 10.2591 7.6875 10C7.6875 9.74091 7.47784 9.53125 7.21875 9.53125H6.66366C6.4695 8.98681 5.95406 8.59375 5.34375 8.59375C5.08466 8.59375 4.875 8.80341 4.875 9.0625C4.875 9.32159 5.08466 9.53125 5.34375 9.53125C5.60194 9.53125 5.8125 9.74137 5.8125 10C5.8125 10.2586 5.60194 10.4688 5.34375 10.4688ZM6.28125 7.65625H7.21875C7.47784 7.65625 7.6875 7.44659 7.6875 7.1875C7.6875 6.92841 7.47784 6.71875 7.21875 6.71875H6.28125C6.02306 6.71875 5.8125 6.50863 5.8125 6.25C5.8125 5.99091 5.60284 5.78125 5.34375 5.78125C5.08466 5.78125 4.875 5.99091 4.875 6.25C4.875 7.02544 5.50581 7.65625 6.28125 7.65625ZM7.21875 12.3438H6.28125C5.50581 12.3438 4.875 12.9746 4.875 13.75C4.875 14.0091 5.08466 14.2188 5.34375 14.2188C5.60284 14.2188 5.8125 14.0091 5.8125 13.75C5.8125 13.4914 6.02306 13.2812 6.28125 13.2812H7.21875C7.47784 13.2812 7.6875 13.0716 7.6875 12.8125C7.6875 12.5534 7.47784 12.3438 7.21875 12.3438ZM8.15625 14.2188C7.89716 14.2188 7.6875 14.4284 7.6875 14.6875V15.625C7.6875 15.8841 7.89716 16.0938 8.15625 16.0938C8.41534 16.0938 8.625 15.8841 8.625 15.625V14.6875C8.625 14.4284 8.41534 14.2188 8.15625 14.2188ZM8.15625 5.78125C8.41534 5.78125 8.625 5.57159 8.625 5.3125V4.375C8.625 4.11591 8.41534 3.90625 8.15625 3.90625C7.89716 3.90625 7.6875 4.11591 7.6875 4.375V5.3125C7.6875 5.57159 7.89716 5.78125 8.15625 5.78125ZM16.5938 12.3438C16.535 12.3438 16.4772 12.3478 16.4203 12.3548L15.7305 10.9752C15.9745 10.7222 16.125 10.3784 16.125 10C16.125 9.62156 15.9745 9.27781 15.7305 9.02478L16.4203 7.64519C16.4772 7.65222 16.535 7.65625 16.5938 7.65625C17.3692 7.65625 18 7.02544 18 6.25C18 5.47456 17.3692 4.84375 16.5938 4.84375C16.3071 4.84375 16.0404 4.93012 15.8178 5.07794L14.1844 3.83053C14.2269 3.69659 14.25 3.55409 14.25 3.40625C14.25 2.63081 13.6192 2 12.8438 2C12.0683 2 11.4375 2.63081 11.4375 3.40625C11.4375 3.74684 11.5592 4.05944 11.7614 4.30303L10.3138 6.74725C10.2225 6.72856 10.128 6.71872 10.0312 6.71872C9.25581 6.71872 8.625 7.34953 8.625 8.12497C8.625 8.90041 9.25581 9.53122 10.0312 9.53122C10.4516 9.53122 10.8292 9.34559 11.0871 9.05231L13.314 9.94291C13.3132 9.96187 13.3125 9.98088 13.3125 10C13.3125 10.0191 13.3132 10.0381 13.3139 10.0571L11.0871 10.9477C10.8292 10.6544 10.4516 10.4688 10.0312 10.4688C9.25581 10.4688 8.625 11.0996 8.625 11.875C8.625 12.6504 9.25581 13.2812 10.0312 13.2812C10.128 13.2812 10.2225 13.2714 10.3138 13.2527L11.7614 15.6969C11.5592 15.9406 11.4375 16.2532 11.4375 16.5938C11.4375 17.3692 12.0683 18 12.8438 18C13.6192 18 14.25 17.3692 14.25 16.5938C14.25 16.4459 14.2269 16.3034 14.1844 16.1695L15.8178 14.9221C16.0404 15.0699 16.3071 15.1562 16.5938 15.1562C17.3692 15.1562 18 14.5254 18 13.75C18 12.9746 17.3692 12.3438 16.5938 12.3438ZM15.2533 5.82509C15.219 5.93278 15.1976 6.04606 15.1904 6.16319L14.1912 6.44866L13.6764 4.61663L15.2533 5.82509ZM11.1146 7.22937L12.5647 4.78459C12.6271 4.79722 12.6911 4.80547 12.7562 4.8095L13.2904 6.70606L11.1762 7.31003C11.1565 7.28247 11.1362 7.25544 11.1146 7.22937ZM11.4788 8.19916L13.5483 7.60797L13.9046 8.85447C13.8158 8.91775 13.7347 8.991 13.6629 9.07269L11.4788 8.19916ZM12.7562 15.1905C12.6911 15.1945 12.6271 15.2028 12.5647 15.2154L11.1146 12.7706C11.1362 12.7446 11.1565 12.7176 11.1762 12.69L13.2904 13.294L12.7562 15.1905ZM11.4788 11.8008L13.6629 10.9273C13.7347 11.009 13.8158 11.0823 13.9046 11.1455L13.5483 12.392L11.4788 11.8008ZM13.6764 15.3834L14.1912 13.5513L15.1905 13.8368C15.1976 13.9539 15.2191 14.0672 15.2533 14.1749L13.6764 15.3834ZM15.4488 12.935L14.4491 12.6494L14.8053 11.4033C14.8345 11.4015 14.8635 11.3987 14.8922 11.3952L15.582 12.7747C15.5338 12.8248 15.4893 12.8783 15.4488 12.935ZM14.8922 8.60481C14.8635 8.60125 14.8345 8.59844 14.8053 8.59666L14.449 7.35056L15.4487 7.06494C15.4892 7.12162 15.5337 7.17519 15.582 7.22519L14.8922 8.60481Z"/><path stroke="#FFDBE3" stroke-width=".6" d="M5.34375 10.4688C5.08466 10.4688 4.875 10.6784 4.875 10.9375C4.875 11.1966 5.08466 11.4062 5.34375 11.4062C5.95406 11.4062 6.4695 11.0132 6.66366 10.4688H7.21875C7.47784 10.4688 7.6875 10.2591 7.6875 10C7.6875 9.74091 7.47784 9.53125 7.21875 9.53125H6.66366C6.4695 8.98681 5.95406 8.59375 5.34375 8.59375C5.08466 8.59375 4.875 8.80341 4.875 9.0625C4.875 9.32159 5.08466 9.53125 5.34375 9.53125C5.60194 9.53125 5.8125 9.74137 5.8125 10C5.8125 10.2586 5.60194 10.4688 5.34375 10.4688ZM6.28125 7.65625H7.21875C7.47784 7.65625 7.6875 7.44659 7.6875 7.1875C7.6875 6.92841 7.47784 6.71875 7.21875 6.71875H6.28125C6.02306 6.71875 5.8125 6.50863 5.8125 6.25C5.8125 5.99091 5.60284 5.78125 5.34375 5.78125C5.08466 5.78125 4.875 5.99091 4.875 6.25C4.875 7.02544 5.50581 7.65625 6.28125 7.65625ZM7.21875 12.3438H6.28125C5.50581 12.3438 4.875 12.9746 4.875 13.75C4.875 14.0091 5.08466 14.2188 5.34375 14.2188C5.60284 14.2188 5.8125 14.0091 5.8125 13.75C5.8125 13.4914 6.02306 13.2812 6.28125 13.2812H7.21875C7.47784 13.2812 7.6875 13.0716 7.6875 12.8125C7.6875 12.5534 7.47784 12.3438 7.21875 12.3438ZM8.15625 14.2188C7.89716 14.2188 7.6875 14.4284 7.6875 14.6875V15.625C7.6875 15.8841 7.89716 16.0938 8.15625 16.0938C8.41534 16.0938 8.625 15.8841 8.625 15.625V14.6875C8.625 14.4284 8.41534 14.2188 8.15625 14.2188ZM8.15625 5.78125C8.41534 5.78125 8.625 5.57159 8.625 5.3125V4.375C8.625 4.11591 8.41534 3.90625 8.15625 3.90625C7.89716 3.90625 7.6875 4.11591 7.6875 4.375V5.3125C7.6875 5.57159 7.89716 5.78125 8.15625 5.78125ZM16.5938 12.3438C16.535 12.3438 16.4772 12.3478 16.4203 12.3548L15.7305 10.9752C15.9745 10.7222 16.125 10.3784 16.125 10C16.125 9.62156 15.9745 9.27781 15.7305 9.02478L16.4203 7.64519C16.4772 7.65222 16.535 7.65625 16.5938 7.65625C17.3692 7.65625 18 7.02544 18 6.25C18 5.47456 17.3692 4.84375 16.5938 4.84375C16.3071 4.84375 16.0404 4.93012 15.8178 5.07794L14.1844 3.83053C14.2269 3.69659 14.25 3.55409 14.25 3.40625C14.25 2.63081 13.6192 2 12.8438 2C12.0683 2 11.4375 2.63081 11.4375 3.40625C11.4375 3.74684 11.5592 4.05944 11.7614 4.30303L10.3138 6.74725C10.2225 6.72856 10.128 6.71872 10.0312 6.71872C9.25581 6.71872 8.625 7.34953 8.625 8.12497C8.625 8.90041 9.25581 9.53122 10.0312 9.53122C10.4516 9.53122 10.8292 9.34559 11.0871 9.05231L13.314 9.94291C13.3132 9.96187 13.3125 9.98088 13.3125 10C13.3125 10.0191 13.3132 10.0381 13.3139 10.0571L11.0871 10.9477C10.8292 10.6544 10.4516 10.4688 10.0312 10.4688C9.25581 10.4688 8.625 11.0996 8.625 11.875C8.625 12.6504 9.25581 13.2812 10.0312 13.2812C10.128 13.2812 10.2225 13.2714 10.3138 13.2527L11.7614 15.6969C11.5592 15.9406 11.4375 16.2532 11.4375 16.5938C11.4375 17.3692 12.0683 18 12.8438 18C13.6192 18 14.25 17.3692 14.25 16.5938C14.25 16.4459 14.2269 16.3034 14.1844 16.1695L15.8178 14.9221C16.0404 15.0699 16.3071 15.1562 16.5938 15.1562C17.3692 15.1562 18 14.5254 18 13.75C18 12.9746 17.3692 12.3438 16.5938 12.3438ZM15.2533 5.82509C15.219 5.93278 15.1976 6.04606 15.1904 6.16319L14.1912 6.44866L13.6764 4.61663L15.2533 5.82509ZM11.1146 7.22937L12.5647 4.78459C12.6271 4.79722 12.6911 4.80547 12.7562 4.8095L13.2904 6.70606L11.1762 7.31003C11.1565 7.28247 11.1362 7.25544 11.1146 7.22937ZM11.4788 8.19916L13.5483 7.60797L13.9046 8.85447C13.8158 8.91775 13.7347 8.991 13.6629 9.07269L11.4788 8.19916ZM12.7562 15.1905C12.6911 15.1945 12.6271 15.2028 12.5647 15.2154L11.1146 12.7706C11.1362 12.7446 11.1565 12.7176 11.1762 12.69L13.2904 13.294L12.7562 15.1905ZM11.4788 11.8008L13.6629 10.9273C13.7347 11.009 13.8158 11.0823 13.9046 11.1455L13.5483 12.392L11.4788 11.8008ZM13.6764 15.3834L14.1912 13.5513L15.1905 13.8368C15.1976 13.9539 15.2191 14.0672 15.2533 14.1749L13.6764 15.3834ZM15.4488 12.935L14.4491 12.6494L14.8053 11.4033C14.8345 11.4015 14.8635 11.3987 14.8922 11.3952L15.582 12.7747C15.5338 12.8248 15.4893 12.8783 15.4488 12.935ZM14.8922 8.60481C14.8635 8.60125 14.8345 8.59844 14.8053 8.59666L14.449 7.35056L15.4487 7.06494C15.4892 7.12162 15.5337 7.17519 15.582 7.22519L14.8922 8.60481Z" mask="url(#path-2-outside-1_39_408)"/><defs><linearGradient id="paint0_linear_39_408" x1="2" x2="10.5" y1="10" y2="10" gradientUnits="userSpaceOnUse"><stop stop-color="#FFA18D"/><stop offset="1" stop-color="#FD3E84"/></linearGradient><linearGradient id="paint1_linear_39_408" x1="4.875" x2="18" y1="10" y2="10" gradientUnits="userSpaceOnUse"><stop stop-color="#FFD2DA"/><stop offset="1" stop-color="#FFECE6"/></linearGradient></defs></svg>