<svg xmlns="http://www.w3.org/2000/svg" width="16" height="16" fill="none" viewBox="0 0 16 16"><g clip-path="url(#clip0_143_3392)"><path fill="url(#paint0_linear_143_3392)" fill-rule="evenodd" d="M3.57115 15.8125C3.34619 15.8125 3.11187 15.7282 2.95252 15.5688L0.271796 12.8506C-0.103131 12.4944 -0.103131 11.9508 0.271796 11.5852L1.26535 10.6011C1.48093 10.3761 1.79962 10.3011 2.08082 10.3761L4.41474 8.39837C4.9865 7.90159 5.91444 7.55478 6.68304 7.90159C8.28585 8.6327 8.3046 8.6327 9.65434 8.62333C10.4604 8.61395 11.5009 8.4921 11.932 9.16697C12.8225 8.39837 13.1318 7.50792 13.4973 7.10487C14.5003 5.92385 16.478 6.5706 15.9156 7.8641C14.997 9.98244 13.1599 12.5226 10.6666 13.4411C9.68246 13.8067 7.40478 13.5536 5.91444 13.4318C5.77385 13.4224 5.59576 13.6192 5.43641 13.7973C5.4739 14.0504 5.38955 14.3691 5.20208 14.5659L4.19915 15.5688C4.03044 15.7282 3.80548 15.8125 3.57115 15.8125ZM6.05504 2.33393C6.05504 1.15291 7.02985 0.178101 8.21087 0.178101C9.08257 0.178101 9.5981 0.543654 9.99177 1.13416C10.3667 0.59052 10.8822 0.178101 11.7727 0.178101C12.9818 0.178101 13.9285 1.12479 13.9285 2.33393C13.9285 4.27418 12.0632 6.13944 10.2636 7.93909C10.1136 8.08906 9.87929 8.08906 9.72932 7.93909C7.9203 6.13944 6.05504 4.27418 6.05504 2.33393ZM8.21087 0.927954C7.44227 0.927954 6.80489 1.56533 6.80489 2.33393C6.80489 3.8805 8.38896 5.53955 9.99177 7.15174C11.604 5.53018 13.1786 3.8805 13.1786 2.33393C13.1786 1.54658 12.56 0.927954 11.7727 0.927954C11.1072 0.927954 10.7416 1.21852 10.3292 2.06211C10.198 2.3433 9.79494 2.3433 9.65434 2.06211C9.24192 1.19978 8.90448 0.927954 8.21087 0.927954ZM5.01462 13.1318C5.56764 12.5601 5.86758 12.6725 6.64555 12.7381C7.85469 12.8413 9.68246 12.9912 10.3948 12.7288C13.4317 11.604 15.0345 7.97658 15.2126 7.56416C15.2314 7.48917 15.3157 7.40481 15.1658 7.31108C14.9314 7.17049 14.369 7.1986 14.0691 7.57353C13.9566 7.71413 13.8441 7.90159 13.7129 8.1078C13.3755 8.66082 12.9537 9.34506 12.1195 9.97306C12.0539 10.9104 11.2197 11.051 10.5635 11.051L8.12651 11.0885C7.62973 11.0885 7.62973 10.348 8.11714 10.3386L10.5635 10.3011C11.3603 10.3011 11.3696 10.0668 11.3696 9.86996C11.3603 9.4013 11.1353 9.36381 10.3386 9.36381C8.35147 9.36381 8.43583 9.52315 6.37373 8.58583C5.76447 8.30464 4.90214 8.90452 4.90214 8.97013L2.70882 10.826L5.01462 13.1318ZM1.87461 11.0978C1.84649 11.0978 1.809 11.1072 1.79025 11.126L0.768574 12.1476C0.684215 12.2226 0.78732 12.3164 0.796693 12.3164L3.47742 15.0346C3.52429 15.0814 3.62739 15.0814 3.66488 15.0346L4.65844 14.0504C4.7053 13.9848 4.71468 13.891 4.66781 13.8536L1.94959 11.1353C1.93085 11.1072 1.90273 11.0978 1.87461 11.0978Z" clip-rule="evenodd"/></g><defs><linearGradient id="paint0_linear_143_3392" x1="-.009" x2="16.014" y1="7.995" y2="7.995" gradientUnits="userSpaceOnUse"><stop stop-color="#FFA18D"/><stop offset="1" stop-color="#FD3E84"/></linearGradient><clipPath id="clip0_143_3392"><rect width="16" height="16" fill="#fff"/></clipPath></defs></svg>