<svg width="18" height="16" viewBox="0 0 18 16" fill="none" xmlns="http://www.w3.org/2000/svg">
<path d="M13.6941 6.86793C13.4234 6.86793 13.204 7.08739 13.204 7.35804V13.332C13.204 14.2627 12.4465 15.0202 11.5158 15.0202H3.55415C2.62347 15.0202 1.86597 14.2627 1.86597 13.332V3.74263C1.86597 2.81195 2.62347 2.05445 3.55415 2.05445H8.90185C9.17251 2.05445 9.39197 1.83499 9.39197 1.56433C9.39197 1.29368 9.17251 1.07422 8.90185 1.07422H3.55415C2.08271 1.07422 0.885742 2.27119 0.885742 3.74263V13.3326C0.885742 14.804 2.08271 16.001 3.55415 16.001H11.5158C12.9872 16.001 14.1842 14.804 14.1842 13.3326V7.35859C14.1842 7.08739 13.9647 6.86793 13.6941 6.86793Z" fill="url(#paint0_linear_313_1117)"/>
<path d="M10.5953 8.27344H6.9635C6.69285 8.27344 6.47339 8.4929 6.47339 8.76355C6.47339 9.03421 6.69285 9.25367 6.9635 9.25367H10.5953C10.8659 9.25367 11.0854 9.03421 11.0854 8.76355C11.0854 8.4929 10.8659 8.27344 10.5953 8.27344Z" fill="url(#paint1_linear_313_1117)"/>
<path d="M4.8685 8.27344H4.47205C4.2014 8.27344 3.98193 8.4929 3.98193 8.76355C3.98193 9.03421 4.2014 9.25367 4.47205 9.25367H4.86904C5.1397 9.25367 5.35916 9.03421 5.35916 8.76355C5.35916 8.4929 5.13915 8.27344 4.8685 8.27344Z" fill="url(#paint2_linear_313_1117)"/>
<path d="M10.5953 5.81641H6.9635C6.69285 5.81641 6.47339 6.03587 6.47339 6.30652C6.47339 6.57717 6.69285 6.79664 6.9635 6.79664H10.5953C10.8659 6.79664 11.0854 6.57717 11.0854 6.30652C11.0854 6.03587 10.8659 5.81641 10.5953 5.81641Z" fill="url(#paint3_linear_313_1117)"/>
<path d="M4.8685 5.81641H4.47205C4.2014 5.81641 3.98193 6.03587 3.98193 6.30652C3.98193 6.57717 4.2014 6.79664 4.47205 6.79664H4.86904C5.1397 6.79664 5.35916 6.57717 5.35916 6.30652C5.35916 6.03587 5.13915 5.81641 4.8685 5.81641Z" fill="url(#paint4_linear_313_1117)"/>
<path d="M10.5953 10.7285H6.9635C6.69285 10.7285 6.47339 10.948 6.47339 11.2186C6.47339 11.4893 6.69285 11.7087 6.9635 11.7087H10.5953C10.8659 11.7087 11.0854 11.4893 11.0854 11.2186C11.0854 10.948 10.8659 10.7285 10.5953 10.7285Z" fill="url(#paint5_linear_313_1117)"/>
<path d="M4.8685 10.7285H4.47205C4.2014 10.7285 3.98193 10.948 3.98193 11.2186C3.98193 11.4893 4.2014 11.7087 4.47205 11.7087H4.86904C5.1397 11.7087 5.35916 11.4893 5.35916 11.2186C5.35916 10.948 5.13915 10.7285 4.8685 10.7285Z" fill="url(#paint6_linear_313_1117)"/>
<path d="M16.4951 0.618413C15.73 -0.146167 14.5183 -0.199535 13.6917 0.459398C12.8645 -0.20008 11.6517 -0.146167 10.8866 0.618958C10.0648 1.44126 10.0648 2.77873 10.8866 3.60049L12.901 5.61487C13.1188 5.8327 13.4052 5.94216 13.6917 5.94216C13.9781 5.94216 14.2646 5.83324 14.4824 5.61487L16.4968 3.60049C17.318 2.77928 17.318 1.44181 16.4951 0.618413ZM15.8035 2.9078L13.7892 4.92217C13.7352 4.97609 13.6476 4.97609 13.5942 4.92217L11.5798 2.9078C11.1404 2.46778 11.1404 1.75221 11.5809 1.31111C11.8009 1.09165 12.0895 0.981643 12.3787 0.981643C12.6668 0.981643 12.9554 1.0911 13.1749 1.31002L13.3453 1.48047C13.5365 1.67216 13.8469 1.67216 14.0375 1.48047L14.2079 1.31057C14.6479 0.872729 15.3635 0.872729 15.803 1.31274C16.243 1.75276 16.243 2.46833 15.8035 2.9078Z" fill="url(#paint7_linear_313_1117)"/>
<defs>
<linearGradient id="paint0_linear_313_1117" x1="0.885742" y1="8.53759" x2="14.1842" y2="8.53759" gradientUnits="userSpaceOnUse">
<stop stop-color="#FFA18D"/>
<stop offset="1" stop-color="#FD3E84"/>
</linearGradient>
<linearGradient id="paint1_linear_313_1117" x1="6.47339" y1="8.76355" x2="11.0854" y2="8.76355" gradientUnits="userSpaceOnUse">
<stop stop-color="#FFA18D"/>
<stop offset="1" stop-color="#FD3E84"/>
</linearGradient>
<linearGradient id="paint2_linear_313_1117" x1="3.98193" y1="8.76355" x2="5.35916" y2="8.76355" gradientUnits="userSpaceOnUse">
<stop stop-color="#FFA18D"/>
<stop offset="1" stop-color="#FD3E84"/>
</linearGradient>
<linearGradient id="paint3_linear_313_1117" x1="6.47339" y1="6.30652" x2="11.0854" y2="6.30652" gradientUnits="userSpaceOnUse">
<stop stop-color="#FFA18D"/>
<stop offset="1" stop-color="#FD3E84"/>
</linearGradient>
<linearGradient id="paint4_linear_313_1117" x1="3.98193" y1="6.30652" x2="5.35916" y2="6.30652" gradientUnits="userSpaceOnUse">
<stop stop-color="#FFA18D"/>
<stop offset="1" stop-color="#FD3E84"/>
</linearGradient>
<linearGradient id="paint5_linear_313_1117" x1="6.47339" y1="11.2186" x2="11.0854" y2="11.2186" gradientUnits="userSpaceOnUse">
<stop stop-color="#FFA18D"/>
<stop offset="1" stop-color="#FD3E84"/>
</linearGradient>
<linearGradient id="paint6_linear_313_1117" x1="3.98193" y1="11.2186" x2="5.35916" y2="11.2186" gradientUnits="userSpaceOnUse">
<stop stop-color="#FFA18D"/>
<stop offset="1" stop-color="#FD3E84"/>
</linearGradient>
<linearGradient id="paint7_linear_313_1117" x1="10.2703" y1="2.97206" x2="17.1125" y2="2.97206" gradientUnits="userSpaceOnUse">
<stop stop-color="#FFA18D"/>
<stop offset="1" stop-color="#FD3E84"/>
</linearGradient>
</defs>
</svg>
