<svg xmlns="http://www.w3.org/2000/svg" width="18" height="18" fill="none" viewBox="0 0 18 18"><path fill="url(#paint0_linear_30_350)" stroke="#FFDBE3" stroke-width=".3" d="M9.60486 2.8512C9.60319 2.85234 9.60085 2.85489 9.599 2.85608C9.59404 2.85904 9.57416 2.86933 9.55798 2.87463C9.51075 2.86961 9.46964 2.83648 9.43884 2.79749C9.47783 2.76449 9.50485 2.74149 9.51501 2.73303L9.61267 2.84729C9.67674 2.79518 9.75502 2.76288 9.83728 2.75549C9.91951 2.74817 10.0023 2.76541 10.0746 2.8053C10.147 2.84527 10.2059 2.90647 10.2435 2.9801C10.2809 3.05323 10.2952 3.13589 10.2855 3.21741L10.2152 3.75159V3.75256C10.1632 4.16765 10.2086 4.58962 10.348 4.98401C10.4702 5.32917 10.6617 5.64573 10.9095 5.9137L11.0199 6.026C11.3068 6.29978 11.5349 6.62912 11.6908 6.99377C11.8467 7.35848 11.9275 7.75144 11.9271 8.14807V8.15588L11.9281 8.16467C11.9766 8.60343 11.9328 9.04765 11.7992 9.46838C11.6655 9.88923 11.4446 10.2776 11.1517 10.608L11.1488 10.611C11.0321 10.7505 10.8963 10.8726 10.7455 10.9742L10.2582 11.2164L10.2562 11.2174C8.37458 12.1833 6.03108 10.7417 6.07361 8.62854V7.38635C6.07384 7.3174 6.09108 7.24947 6.12439 7.18909C6.15773 7.12873 6.20582 7.0776 6.26404 7.04065C6.32235 7.00369 6.38948 6.98157 6.45837 6.97717C6.49283 6.97501 6.52726 6.97761 6.56091 6.98401L6.65857 7.01526H6.65955L7.57947 7.43713L7.82263 7.54944L7.79041 7.28381L7.65857 6.17249C7.60592 5.70554 7.66799 5.23274 7.84021 4.79553C7.99105 4.41271 8.22219 4.06698 8.51697 3.78186L8.64783 3.6637C8.65042 3.66159 8.65395 3.65891 8.65759 3.65588C8.66529 3.64949 8.67613 3.64005 8.68982 3.62854C8.71766 3.60512 8.75773 3.57092 8.80505 3.53088C8.8997 3.45081 9.02577 3.34406 9.14978 3.23889C9.27385 3.13368 9.39645 3.02952 9.48474 2.95471C9.52882 2.91736 9.56443 2.88707 9.58728 2.8678C9.59509 2.86121 9.60038 2.85495 9.60486 2.8512ZM9.60486 2.8512H9.60681L9.60876 2.84924C9.6078 2.85005 9.60607 2.85018 9.60486 2.8512ZM11.0736 3.83752C13.4289 2.77813 16.3766 4.39866 16.684 6.9928V6.99573C16.7862 7.71781 16.6939 8.45453 16.4154 9.12854C16.1368 9.80264 15.6823 10.3904 15.1 10.8297L15.098 10.8307L9.81091 14.9733C9.57954 15.1532 9.29443 15.2511 9.00134 15.2516C8.70842 15.252 8.4236 15.1553 8.19177 14.9762H8.19275L2.83728 10.7799H2.8363C0.00144177 8.59286 1.27744 3.99139 4.82556 3.54651C5.66923 3.44144 6.52201 3.60579 7.26697 4.01038C6.89991 4.66317 6.73444 5.40837 6.79138 6.15393C6.66563 6.12335 6.53574 6.11024 6.40564 6.11877C6.19231 6.13281 5.98567 6.1997 5.80505 6.31409C5.6244 6.42851 5.47533 6.58713 5.37146 6.77405C5.26772 6.96088 5.21208 7.1707 5.21033 7.3844V8.62561L5.21814 8.87952C5.25597 9.47016 5.43379 10.0446 5.73767 10.5553C6.08493 11.1389 6.58393 11.6174 7.18201 11.9391H7.18298C7.71448 12.2198 8.3056 12.3709 8.90662 12.3795C9.50753 12.3881 10.1017 12.2542 10.641 11.9889H10.642L11.1371 11.7418L11.1469 11.736C11.369 11.6039 11.5695 11.4385 11.7416 11.2457L11.7406 11.2448C12.1256 10.8303 12.4194 10.3395 12.6 9.80334C12.7792 9.27107 12.8432 8.70702 12.7894 8.14807C12.7897 7.63421 12.6856 7.12552 12.4838 6.65295C12.282 6.1804 11.986 5.75318 11.6146 5.39807C11.3998 5.18924 11.2396 4.931 11.1469 4.64612C11.0619 4.38514 11.0383 4.10904 11.0736 3.83752ZM9.81189 7.3219L9.54724 7.54358L9.54626 7.54456C9.37951 7.68838 9.24976 7.87082 9.16931 8.07581C9.0903 8.27714 9.06127 8.49456 9.08337 8.70959V8.71057C9.08683 8.80169 9.10369 8.90042 9.11853 8.98987C9.13401 9.08313 9.14839 9.16972 9.15369 9.25159C9.16171 9.37588 9.14636 9.46104 9.10193 9.52112L9.04724 9.57288L9.0365 9.58167C8.97385 9.63362 8.89953 9.64232 8.79431 9.61389C8.68088 9.58323 8.57262 9.52202 8.44861 9.4635L8.23865 9.36487L8.23376 9.59631C8.23035 9.78428 8.22328 10.0157 8.25134 10.2379C8.27952 10.4607 8.34583 10.6943 8.50427 10.8785L8.50525 10.8795C8.50847 10.8848 8.51277 10.8934 8.51892 10.9049C8.53255 10.9305 8.54914 10.9644 8.56677 11.0006C8.5835 11.035 8.60321 11.0739 8.61755 11.1031C8.62952 11.1276 8.64627 11.1638 8.65955 11.1832L8.70056 11.2418L8.77185 11.2477C9.2437 11.2841 9.71673 11.1917 10.14 10.9801L10.6127 10.7496L10.6273 10.7418L10.64 10.7321C10.7261 10.6637 10.8083 10.5901 10.8861 10.5123L10.9154 10.483L10.9261 10.443C10.98 10.232 10.9995 10.0137 10.9838 9.79651H10.9828C10.9813 9.6135 10.9442 9.43273 10.8724 9.26428C10.8176 9.13557 10.7439 9.01604 10.6537 8.90979L10.558 8.80725C10.3973 8.65354 10.2693 8.46881 10.182 8.26428C10.0948 8.05971 10.0499 7.83922 10.0502 7.61682V7.61584C10.0502 7.56446 10.0528 7.50726 10.058 7.44983L10.0912 7.08752L9.81189 7.3219Z"/><defs><linearGradient id="paint0_linear_30_350" x1="1.134" x2="16.874" y1="9" y2="9" gradientUnits="userSpaceOnUse"><stop stop-color="#FFA68D"/><stop offset="1" stop-color="#FD3A84"/></linearGradient></defs></svg>