<svg xmlns="http://www.w3.org/2000/svg" width="20" height="20" fill="none" viewBox="0 0 20 20"><path fill="url(#paint0_linear_29_300)" d="M13.7812 2.50458H6.21875C3.89241 2.50458 2 4.39698 2 6.72333V10.4733C2 12.7997 3.89241 14.6921 6.21875 14.6921H7.60956C7.64069 14.8459 7.65625 15.0025 7.65625 15.1608C7.65625 15.7344 7.44659 16.2869 7.06666 16.7159C6.93941 16.8587 6.91284 17.0647 6.998 17.2359C7.08013 17.4011 7.25475 17.5084 7.45484 17.4941C8.98653 17.37 10.2179 16.1785 10.4349 14.6921H13.7812C16.1076 14.6921 18 12.7997 18 10.4734V6.72336C18 4.39698 16.1076 2.50458 13.7812 2.50458Z"/><path stroke="#FFDBE3" stroke-opacity=".9" stroke-width=".3" d="M6.21875 2.65497H13.7812C16.0247 2.65497 17.8496 4.47981 17.8496 6.72333V10.4733C17.8496 12.7168 16.0248 14.5417 13.7812 14.5417H10.3057L10.2861 14.6706C10.079 16.0891 8.90293 17.2251 7.44238 17.3434C7.305 17.3526 7.18725 17.2801 7.13184 17.1686C7.07405 17.0519 7.09298 16.9125 7.17871 16.8161V16.8151C7.58294 16.3588 7.80664 15.771 7.80664 15.1608C7.80664 14.9927 7.7899 14.8263 7.75684 14.6628L7.73242 14.5417H6.21875C3.97525 14.5417 2.15039 12.7168 2.15039 10.4733V6.72333C2.15039 4.47983 3.97525 2.65497 6.21875 2.65497Z"/><path fill="url(#paint1_linear_29_300)" d="M11.3333 5.99994C10.6875 5.99994 10.2572 6.31823 10 6.60786C9.74284 6.31825 9.31251 5.99994 8.66667 5.99994C7.7168 5.99994 7 6.6994 7 7.62713C7 8.45905 7.60287 8.96168 8.36589 9.59827C8.78971 9.95166 9.27018 10.3524 9.74349 10.887C9.80664 10.9584 9.90104 10.9999 10 10.9999C10.099 10.9999 10.1934 10.9584 10.2565 10.887C10.7298 10.3524 11.2103 9.95166 11.6341 9.59827C12.3971 8.96168 13 8.45905 13 7.62715C13 6.6994 12.2832 5.99994 11.3333 5.99994Z"/><defs><linearGradient id="paint0_linear_29_300" x1="10" x2="10" y1="17.495" y2="2.505" gradientUnits="userSpaceOnUse"><stop stop-color="#FD3A84"/><stop offset="1" stop-color="#FFA68D"/></linearGradient><linearGradient id="paint1_linear_29_300" x1="10" x2="10" y1="11" y2="6" gradientUnits="userSpaceOnUse"><stop stop-color="#FFC2CC"/><stop offset="1" stop-color="#FFF2F4"/></linearGradient></defs></svg>