<svg xmlns="http://www.w3.org/2000/svg" width="20" height="20" fill="none" viewBox="0 0 20 20"><path fill="url(#paint0_linear_39_383)" stroke="#FFDBE3" stroke-width=".3" d="M16.0125 14.0582C16.196 14.0704 16.3739 14.1228 16.5339 14.2106L16.6873 14.3102C16.8421 14.4287 16.9668 14.5823 17.0505 14.7584C17.1343 14.9347 17.1746 15.1288 17.1687 15.3239L17.1638 15.484L17.324 15.4781C17.5204 15.4711 17.716 15.5115 17.8933 15.5963C18.0705 15.6811 18.2247 15.8073 18.3425 15.9645C18.4903 16.1623 18.5758 16.3996 18.5896 16.6461C18.6034 16.8926 18.5445 17.1382 18.4197 17.3512C18.2949 17.5639 18.1099 17.7349 17.8884 17.8434C17.6666 17.9519 17.4174 17.9928 17.1726 17.9606H17.1707L15.3337 17.7389H15.3328C15.2246 17.7262 15.1237 17.6772 15.0466 17.6002C14.9696 17.5232 14.9206 17.4223 14.908 17.3141V17.3131L14.6804 15.4479C14.654 15.2043 14.6987 14.958 14.8103 14.7399C14.9221 14.5214 15.0959 14.3405 15.3093 14.2194C15.5228 14.0983 15.7676 14.0421 16.0125 14.0582ZM9.80347 7.78772C10.4676 7.50456 11.2024 7.43219 11.9089 7.58069C12.6155 7.72921 13.2598 8.09119 13.7537 8.6178C14.247 9.144 14.5665 9.80917 14.6697 10.5231V10.524C14.7577 11.1502 14.6773 11.7885 14.4353 12.3727C14.1933 12.9568 13.7987 13.4649 13.2937 13.8453L13.2917 13.8473L8.77319 17.3883C8.56738 17.5498 8.31311 17.6373 8.05151 17.6373C7.78991 17.6373 7.53565 17.5498 7.32983 17.3883L2.75854 13.8043L2.75757 13.8033L2.58179 13.6578C2.18395 13.3064 1.87037 12.8685 1.66577 12.3766C1.43195 11.8143 1.34823 11.2006 1.42358 10.5963C1.82829 7.33001 6.17689 6.36097 7.90698 9.16272L7.95093 9.23401H8.1521L8.19604 9.1637C8.57798 8.55102 9.13936 8.07093 9.80347 7.78772ZM12.0505 5.56702C12.8535 4.42276 14.1119 3.72846 15.5447 3.92932V3.9303H15.5466C18.6588 4.33114 19.6869 8.37253 17.1912 10.2389L17.1882 10.2408L15.6003 11.484C16.0609 7.3836 11.0111 4.92258 8.05249 7.86975C7.33724 7.15599 6.39905 6.70871 5.39429 6.6051C5.55568 5.93862 5.90592 5.33169 6.40698 4.85999C6.94892 4.34985 7.63772 4.02269 8.37573 3.92639C9.04304 3.8392 9.72136 3.94738 10.3289 4.23694C10.9365 4.52669 11.4481 4.98659 11.8005 5.56018L11.9197 5.75452L12.0505 5.56702ZM2.50757 5.47522C1.04977 5.43585 1.05144 3.31477 2.49585 3.26526L2.63647 3.26038L2.64038 3.11975C2.64557 2.91474 2.70774 2.71481 2.81909 2.5426C2.9304 2.37055 3.08657 2.23201 3.27124 2.14319C3.45598 2.05437 3.66202 2.01817 3.86597 2.0387C4.06927 2.05921 4.26353 2.13522 4.42651 2.25842V2.2594C4.57646 2.37636 4.6936 2.52999 4.76636 2.70569C4.8391 2.88153 4.86505 3.0735 4.84155 3.26233V3.26331L4.64429 4.88147V4.88245C4.63232 4.98095 4.58846 5.073 4.51831 5.14319C4.448 5.2135 4.35531 5.25825 4.25659 5.27014H4.25562C4.22632 5.27398 3.78072 5.32827 3.34351 5.38049C3.12541 5.40654 2.90992 5.43179 2.74976 5.44983C2.6695 5.45887 2.60334 5.46687 2.55835 5.47131C2.53559 5.47356 2.51922 5.47454 2.50952 5.47522H2.50757Z"/><defs><linearGradient id="paint0_linear_39_383" x1="1.248" x2="18.753" y1="10.002" y2="10.002" gradientUnits="userSpaceOnUse"><stop stop-color="#FFA68D"/><stop offset="1" stop-color="#FD3A84"/></linearGradient></defs></svg>