<svg width="20" height="20" viewBox="0 0 20 20" fill="none" xmlns="http://www.w3.org/2000/svg">
<mask id="path-1-inside-1_29_296" fill="white">
<path d="M4.77406 9.28279C4.38523 9.5374 3.93941 9.35998 3.61527 9.07188C3.19237 8.71441 2.73117 7.9226 3.14562 7.40407C3.25088 7.29163 3.39582 7.22463 3.54966 7.21728C3.70351 7.20993 3.85417 7.2628 3.96968 7.36469C4.08932 7.46275 4.24198 7.51127 4.39628 7.50029C4.55059 7.4893 4.69483 7.41965 4.79938 7.30562C4.8697 7.26203 4.94843 7.23376 5.03042 7.22268C5.11241 7.21159 5.19582 7.21794 5.2752 7.2413C5.35457 7.26466 5.42812 7.30451 5.49104 7.35824C5.55395 7.41198 5.60482 7.47838 5.64031 7.55312C5.87267 8.22879 5.3392 8.95812 4.77406 9.28279ZM17 10.1406V14.3594C17 14.6204 16.8963 14.8708 16.7117 15.0554C16.5271 15.24 16.2767 15.3438 16.0156 15.3438H11.7969C11.5358 15.3438 11.2854 15.24 11.1008 15.0554C10.9162 14.8708 10.8125 14.6204 10.8125 14.3594V11.2066L9.71283 10.2447C9.65667 10.197 9.58403 10.1732 9.51053 10.1786C9.43704 10.1839 9.36858 10.2179 9.3199 10.2732C9.27122 10.3285 9.24621 10.4007 9.25027 10.4743C9.25432 10.5479 9.28711 10.6169 9.34158 10.6666C9.42159 10.7356 10.147 11.3742 10.25 11.4625V14.3594C10.2512 14.7693 10.4146 15.162 10.7044 15.4518C10.9942 15.7417 11.387 15.905 11.7969 15.9062H13.9062V16.75C13.9062 17.0484 13.7877 17.3345 13.5767 17.5455C13.3658 17.7565 13.0796 17.875 12.7812 17.875H5.46875C5.17038 17.875 4.88423 17.7565 4.67325 17.5455C4.46228 17.3345 4.34375 17.0484 4.34375 16.75V11.9688H8.11083C8.1847 11.9677 8.25517 11.9375 8.30702 11.8849C8.35887 11.8323 8.38794 11.7614 8.38794 11.6875C8.38794 11.6136 8.35887 11.5427 8.30702 11.4901C8.25517 11.4375 8.1847 11.4073 8.11083 11.4062H2.23438C1.9733 11.4062 1.72292 11.3025 1.53832 11.1179C1.35371 10.9333 1.25 10.6829 1.25 10.4219V6.20312C1.25 5.94205 1.35371 5.69167 1.53832 5.50707C1.72292 5.32246 1.9733 5.21875 2.23438 5.21875H6.45312C6.7142 5.21875 6.96458 5.32246 7.14918 5.50707C7.33379 5.69167 7.4375 5.94205 7.4375 6.20312V9.35594L8.53715 10.3187C8.59345 10.3661 8.6661 10.3895 8.73948 10.384C8.81287 10.3784 8.88114 10.3443 8.92964 10.2889C8.97815 10.2336 9.00301 10.1614 8.9989 10.0879C8.99479 10.0144 8.96203 9.94551 8.90766 9.89591L8 9.1V6.20312C7.9988 5.79324 7.83544 5.40048 7.54561 5.11064C7.25577 4.82081 6.86301 4.65745 6.45312 4.65625H4.34375V3.25C4.34375 2.95163 4.46228 2.66548 4.67325 2.4545C4.88423 2.24353 5.17038 2.125 5.46875 2.125L6.45877 2.12503C6.58897 2.45087 6.90279 3.23392 7.03531 3.56219C7.09841 3.71916 7.20703 3.85367 7.3472 3.9484C7.48737 4.04313 7.65269 4.09375 7.82187 4.09375H10.4272C10.5967 4.09375 10.7622 4.04304 10.9026 3.94815C11.0431 3.85326 11.1519 3.71853 11.215 3.56129C11.3493 3.22817 11.6617 2.4493 11.7912 2.125H12.7812C13.0796 2.125 13.3658 2.24353 13.5767 2.4545C13.7877 2.66548 13.9062 2.95163 13.9062 3.25V8.59375H10.1234C10.0488 8.59375 9.97731 8.62338 9.92456 8.67613C9.87182 8.72887 9.84219 8.80041 9.84219 8.875C9.84219 8.94959 9.87182 9.02113 9.92456 9.07387C9.97731 9.12662 10.0488 9.15625 10.1234 9.15625H16.0156C16.2767 9.15625 16.5271 9.25996 16.7117 9.44457C16.8963 9.62917 17 9.87955 17 10.1406ZM5.11156 6.65312C4.82865 6.65446 4.55584 6.75839 4.34375 6.94562C4.16957 6.79045 3.95252 6.69162 3.72112 6.66212C3.48972 6.63262 3.25481 6.67383 3.04727 6.78034C2.83973 6.88684 2.66928 7.05366 2.55833 7.25886C2.44738 7.46405 2.40111 7.69802 2.42563 7.93C2.46596 8.42256 2.66654 8.88834 2.9967 9.25608C3.32686 9.62382 3.7684 9.87328 4.25378 9.96628C5.29343 9.97582 6.13372 8.99739 6.25907 7.99467C6.28124 7.82954 6.26831 7.66158 6.22114 7.50178C6.17396 7.34198 6.09359 7.19393 5.98529 7.06732C5.87698 6.9407 5.74318 6.83836 5.59262 6.76699C5.44206 6.69561 5.27814 6.65682 5.11156 6.65312ZM15.1944 10.7144C14.9877 10.6102 14.7545 10.5703 14.5249 10.5999C14.2953 10.6295 14.0798 10.7272 13.9062 10.8803C13.7263 10.7243 13.5028 10.6273 13.2659 10.6024C13.029 10.5776 12.7901 10.6262 12.5818 10.7416C12.3734 10.857 12.2055 11.0336 12.1008 11.2476C11.9961 11.4615 11.9597 11.7025 11.9965 11.9378C12.0963 12.896 12.9117 13.8351 13.8978 13.9122C14.9079 13.8547 15.7554 12.8539 15.8244 11.8675C15.8435 11.6348 15.794 11.4015 15.682 11.1966C15.5701 10.9917 15.4005 10.824 15.1944 10.7144ZM15.2028 11.4906C15.1407 11.3574 15.0305 11.2527 14.8943 11.1974C14.7582 11.1421 14.6061 11.1404 14.4688 11.1925C14.2792 11.2682 14.1267 11.4638 13.9062 11.4428C13.6657 11.4665 13.5144 11.238 13.2988 11.1756C12.7753 11.0243 12.4292 11.5759 12.5788 12.0419C12.6772 12.4494 12.9125 12.8107 13.2453 13.0656C13.3655 13.1813 13.514 13.2635 13.6758 13.3039C13.8377 13.3444 14.0073 13.3417 14.1678 13.2962C14.8145 13.0427 15.4523 12.2063 15.2028 11.4906ZM7.55562 3.34844C7.5754 3.40193 7.61105 3.4481 7.6578 3.48078C7.70454 3.51345 7.76016 3.53106 7.81719 3.53125H10.4328C10.4898 3.53098 10.5454 3.51334 10.5921 3.48068C10.6389 3.44802 10.6745 3.40189 10.6944 3.34844L11.1838 2.125H7.06625C7.18625 2.42607 7.43469 3.04533 7.55562 3.34844Z"/>
</mask>
<path d="M4.77406 9.28279C4.38523 9.5374 3.93941 9.35998 3.61527 9.07188C3.19237 8.71441 2.73117 7.9226 3.14562 7.40407C3.25088 7.29163 3.39582 7.22463 3.54966 7.21728C3.70351 7.20993 3.85417 7.2628 3.96968 7.36469C4.08932 7.46275 4.24198 7.51127 4.39628 7.50029C4.55059 7.4893 4.69483 7.41965 4.79938 7.30562C4.8697 7.26203 4.94843 7.23376 5.03042 7.22268C5.11241 7.21159 5.19582 7.21794 5.2752 7.2413C5.35457 7.26466 5.42812 7.30451 5.49104 7.35824C5.55395 7.41198 5.60482 7.47838 5.64031 7.55312C5.87267 8.22879 5.3392 8.95812 4.77406 9.28279ZM17 10.1406V14.3594C17 14.6204 16.8963 14.8708 16.7117 15.0554C16.5271 15.24 16.2767 15.3438 16.0156 15.3438H11.7969C11.5358 15.3438 11.2854 15.24 11.1008 15.0554C10.9162 14.8708 10.8125 14.6204 10.8125 14.3594V11.2066L9.71283 10.2447C9.65667 10.197 9.58403 10.1732 9.51053 10.1786C9.43704 10.1839 9.36858 10.2179 9.3199 10.2732C9.27122 10.3285 9.24621 10.4007 9.25027 10.4743C9.25432 10.5479 9.28711 10.6169 9.34158 10.6666C9.42159 10.7356 10.147 11.3742 10.25 11.4625V14.3594C10.2512 14.7693 10.4146 15.162 10.7044 15.4518C10.9942 15.7417 11.387 15.905 11.7969 15.9062H13.9062V16.75C13.9062 17.0484 13.7877 17.3345 13.5767 17.5455C13.3658 17.7565 13.0796 17.875 12.7812 17.875H5.46875C5.17038 17.875 4.88423 17.7565 4.67325 17.5455C4.46228 17.3345 4.34375 17.0484 4.34375 16.75V11.9688H8.11083C8.1847 11.9677 8.25517 11.9375 8.30702 11.8849C8.35887 11.8323 8.38794 11.7614 8.38794 11.6875C8.38794 11.6136 8.35887 11.5427 8.30702 11.4901C8.25517 11.4375 8.1847 11.4073 8.11083 11.4062H2.23438C1.9733 11.4062 1.72292 11.3025 1.53832 11.1179C1.35371 10.9333 1.25 10.6829 1.25 10.4219V6.20312C1.25 5.94205 1.35371 5.69167 1.53832 5.50707C1.72292 5.32246 1.9733 5.21875 2.23438 5.21875H6.45312C6.7142 5.21875 6.96458 5.32246 7.14918 5.50707C7.33379 5.69167 7.4375 5.94205 7.4375 6.20312V9.35594L8.53715 10.3187C8.59345 10.3661 8.6661 10.3895 8.73948 10.384C8.81287 10.3784 8.88114 10.3443 8.92964 10.2889C8.97815 10.2336 9.00301 10.1614 8.9989 10.0879C8.99479 10.0144 8.96203 9.94551 8.90766 9.89591L8 9.1V6.20312C7.9988 5.79324 7.83544 5.40048 7.54561 5.11064C7.25577 4.82081 6.86301 4.65745 6.45312 4.65625H4.34375V3.25C4.34375 2.95163 4.46228 2.66548 4.67325 2.4545C4.88423 2.24353 5.17038 2.125 5.46875 2.125L6.45877 2.12503C6.58897 2.45087 6.90279 3.23392 7.03531 3.56219C7.09841 3.71916 7.20703 3.85367 7.3472 3.9484C7.48737 4.04313 7.65269 4.09375 7.82187 4.09375H10.4272C10.5967 4.09375 10.7622 4.04304 10.9026 3.94815C11.0431 3.85326 11.1519 3.71853 11.215 3.56129C11.3493 3.22817 11.6617 2.4493 11.7912 2.125H12.7812C13.0796 2.125 13.3658 2.24353 13.5767 2.4545C13.7877 2.66548 13.9062 2.95163 13.9062 3.25V8.59375H10.1234C10.0488 8.59375 9.97731 8.62338 9.92456 8.67613C9.87182 8.72887 9.84219 8.80041 9.84219 8.875C9.84219 8.94959 9.87182 9.02113 9.92456 9.07387C9.97731 9.12662 10.0488 9.15625 10.1234 9.15625H16.0156C16.2767 9.15625 16.5271 9.25996 16.7117 9.44457C16.8963 9.62917 17 9.87955 17 10.1406ZM5.11156 6.65312C4.82865 6.65446 4.55584 6.75839 4.34375 6.94562C4.16957 6.79045 3.95252 6.69162 3.72112 6.66212C3.48972 6.63262 3.25481 6.67383 3.04727 6.78034C2.83973 6.88684 2.66928 7.05366 2.55833 7.25886C2.44738 7.46405 2.40111 7.69802 2.42563 7.93C2.46596 8.42256 2.66654 8.88834 2.9967 9.25608C3.32686 9.62382 3.7684 9.87328 4.25378 9.96628C5.29343 9.97582 6.13372 8.99739 6.25907 7.99467C6.28124 7.82954 6.26831 7.66158 6.22114 7.50178C6.17396 7.34198 6.09359 7.19393 5.98529 7.06732C5.87698 6.9407 5.74318 6.83836 5.59262 6.76699C5.44206 6.69561 5.27814 6.65682 5.11156 6.65312ZM15.1944 10.7144C14.9877 10.6102 14.7545 10.5703 14.5249 10.5999C14.2953 10.6295 14.0798 10.7272 13.9062 10.8803C13.7263 10.7243 13.5028 10.6273 13.2659 10.6024C13.029 10.5776 12.7901 10.6262 12.5818 10.7416C12.3734 10.857 12.2055 11.0336 12.1008 11.2476C11.9961 11.4615 11.9597 11.7025 11.9965 11.9378C12.0963 12.896 12.9117 13.8351 13.8978 13.9122C14.9079 13.8547 15.7554 12.8539 15.8244 11.8675C15.8435 11.6348 15.794 11.4015 15.682 11.1966C15.5701 10.9917 15.4005 10.824 15.1944 10.7144ZM15.2028 11.4906C15.1407 11.3574 15.0305 11.2527 14.8943 11.1974C14.7582 11.1421 14.6061 11.1404 14.4688 11.1925C14.2792 11.2682 14.1267 11.4638 13.9062 11.4428C13.6657 11.4665 13.5144 11.238 13.2988 11.1756C12.7753 11.0243 12.4292 11.5759 12.5788 12.0419C12.6772 12.4494 12.9125 12.8107 13.2453 13.0656C13.3655 13.1813 13.514 13.2635 13.6758 13.3039C13.8377 13.3444 14.0073 13.3417 14.1678 13.2962C14.8145 13.0427 15.4523 12.2063 15.2028 11.4906ZM7.55562 3.34844C7.5754 3.40193 7.61105 3.4481 7.6578 3.48078C7.70454 3.51345 7.76016 3.53106 7.81719 3.53125H10.4328C10.4898 3.53098 10.5454 3.51334 10.5921 3.48068C10.6389 3.44802 10.6745 3.40189 10.6944 3.34844L11.1838 2.125H7.06625C7.18625 2.42607 7.43469 3.04533 7.55562 3.34844Z" fill="url(#paint0_linear_29_296)" stroke="#FFDBE3" stroke-opacity="0.9" stroke-width="0.54" mask="url(#path-1-inside-1_29_296)"/>
<mask id="path-2-outside-2_29_296" maskUnits="userSpaceOnUse" x="14" y="2" width="5" height="7" fill="black">
<rect fill="white" x="14" y="2" width="5" height="7"/>
<path d="M16.958 2.566C17.4811 2.566 17.8991 2.70289 18.212 2.97667C18.5298 3.25044 18.6887 3.63667 18.6887 4.13533C18.6887 4.59489 18.5371 4.95422 18.234 5.21333C17.9358 5.46756 17.5398 5.59711 17.046 5.602L17.0093 6.152H15.9093L15.8727 4.788H16.3127C16.6891 4.788 16.9751 4.74156 17.1707 4.64867C17.3711 4.55578 17.4713 4.38711 17.4713 4.14267C17.4713 3.97155 17.4249 3.83711 17.332 3.73933C17.2391 3.64156 17.1096 3.59267 16.9433 3.59267C16.7673 3.59267 16.6304 3.644 16.5327 3.74667C16.4349 3.84444 16.386 3.97889 16.386 4.15H15.2053C15.1956 3.85178 15.2567 3.58289 15.3887 3.34333C15.5256 3.10378 15.726 2.91556 15.99 2.77867C16.2589 2.63689 16.5816 2.566 16.958 2.566ZM16.474 8.05867C16.254 8.05867 16.0731 7.99511 15.9313 7.868C15.7944 7.736 15.726 7.57467 15.726 7.384C15.726 7.18844 15.7944 7.02467 15.9313 6.89267C16.0731 6.76067 16.254 6.69467 16.474 6.69467C16.6891 6.69467 16.8651 6.76067 17.002 6.89267C17.1438 7.02467 17.2147 7.18844 17.2147 7.384C17.2147 7.57467 17.1438 7.736 17.002 7.868C16.8651 7.99511 16.6891 8.05867 16.474 8.05867Z"/>
</mask>
<path d="M16.958 2.566C17.4811 2.566 17.8991 2.70289 18.212 2.97667C18.5298 3.25044 18.6887 3.63667 18.6887 4.13533C18.6887 4.59489 18.5371 4.95422 18.234 5.21333C17.9358 5.46756 17.5398 5.59711 17.046 5.602L17.0093 6.152H15.9093L15.8727 4.788H16.3127C16.6891 4.788 16.9751 4.74156 17.1707 4.64867C17.3711 4.55578 17.4713 4.38711 17.4713 4.14267C17.4713 3.97155 17.4249 3.83711 17.332 3.73933C17.2391 3.64156 17.1096 3.59267 16.9433 3.59267C16.7673 3.59267 16.6304 3.644 16.5327 3.74667C16.4349 3.84444 16.386 3.97889 16.386 4.15H15.2053C15.1956 3.85178 15.2567 3.58289 15.3887 3.34333C15.5256 3.10378 15.726 2.91556 15.99 2.77867C16.2589 2.63689 16.5816 2.566 16.958 2.566ZM16.474 8.05867C16.254 8.05867 16.0731 7.99511 15.9313 7.868C15.7944 7.736 15.726 7.57467 15.726 7.384C15.726 7.18844 15.7944 7.02467 15.9313 6.89267C16.0731 6.76067 16.254 6.69467 16.474 6.69467C16.6891 6.69467 16.8651 6.76067 17.002 6.89267C17.1438 7.02467 17.2147 7.18844 17.2147 7.384C17.2147 7.57467 17.1438 7.736 17.002 7.868C16.8651 7.99511 16.6891 8.05867 16.474 8.05867Z" fill="url(#paint1_linear_29_296)"/>
<path d="M18.212 2.97667L18.0144 3.20245L18.0162 3.20395L18.212 2.97667ZM18.234 5.21333L18.4286 5.44164L18.4289 5.44137L18.234 5.21333ZM17.046 5.602L17.043 5.30201L16.7651 5.30477L16.7467 5.58204L17.046 5.602ZM17.0093 6.152V6.452H17.29L17.3087 6.17196L17.0093 6.152ZM15.9093 6.152L15.6094 6.16006L15.6173 6.452H15.9093V6.152ZM15.8727 4.788V4.488H15.5645L15.5728 4.79606L15.8727 4.788ZM17.1707 4.64867L17.0445 4.37646L17.0419 4.37768L17.1707 4.64867ZM16.5327 3.74667L16.7449 3.95886L16.7499 3.95356L16.5327 3.74667ZM16.386 4.15V4.45H16.686V4.15H16.386ZM15.2053 4.15L14.9055 4.15983L14.915 4.45H15.2053V4.15ZM15.3887 3.34333L15.1282 3.19447L15.1259 3.19855L15.3887 3.34333ZM15.99 2.77867L16.1281 3.045L16.1299 3.04404L15.99 2.77867ZM15.9313 7.868L15.723 8.0841L15.7311 8.09137L15.9313 7.868ZM15.9313 6.89267L15.7269 6.67306L15.7231 6.67671L15.9313 6.89267ZM17.002 6.89267L16.7937 7.10865L16.7976 7.11223L17.002 6.89267ZM17.002 7.868L17.2061 8.08784L17.2064 8.08757L17.002 7.868ZM16.958 2.566V2.866C17.4278 2.866 17.7693 2.9879 18.0144 3.20244L18.212 2.97667L18.4096 2.75089C18.029 2.41788 17.5344 2.266 16.958 2.266V2.566ZM18.212 2.97667L18.0162 3.20395C18.2552 3.40988 18.3887 3.70584 18.3887 4.13533H18.6887H18.9887C18.9887 3.56749 18.8043 3.09101 18.4078 2.74938L18.212 2.97667ZM18.6887 4.13533H18.3887C18.3887 4.52204 18.265 4.79218 18.0391 4.9853L18.234 5.21333L18.4289 5.44137C18.8093 5.11626 18.9887 4.66773 18.9887 4.13533H18.6887ZM18.234 5.21333L18.0394 4.98503C17.8074 5.18278 17.4853 5.29764 17.043 5.30201L17.046 5.602L17.049 5.90199C17.5943 5.89659 18.0642 5.75233 18.4286 5.44164L18.234 5.21333ZM17.046 5.602L16.7467 5.58204L16.71 6.13204L17.0093 6.152L17.3087 6.17196L17.3453 5.62196L17.046 5.602ZM17.0093 6.152V5.852H15.9093V6.152V6.452H17.0093V6.152ZM15.9093 6.152L16.2092 6.14394L16.1726 4.77994L15.8727 4.788L15.5728 4.79606L15.6094 6.16006L15.9093 6.152ZM15.8727 4.788V5.088H16.3127V4.788V4.488H15.8727V4.788ZM16.3127 4.788V5.088C16.7054 5.088 17.0442 5.04088 17.2994 4.91965L17.1707 4.64867L17.0419 4.37768C16.9061 4.44223 16.6728 4.488 16.3127 4.488V4.788ZM17.1707 4.64867L17.2968 4.92086C17.4448 4.85229 17.5692 4.74853 17.6541 4.60575C17.7378 4.46491 17.7713 4.30567 17.7713 4.14267H17.4713H17.1713C17.1713 4.2241 17.1548 4.27142 17.1383 4.29925C17.1229 4.32514 17.097 4.35215 17.0445 4.37647L17.1707 4.64867ZM17.4713 4.14267H17.7713C17.7713 3.9162 17.7085 3.70012 17.5495 3.53271L17.332 3.73933L17.1145 3.94596C17.1412 3.9741 17.1713 4.02691 17.1713 4.14267H17.4713ZM17.332 3.73933L17.5495 3.53271C17.3873 3.36195 17.1713 3.29267 16.9433 3.29267V3.59267V3.89267C17.0478 3.89267 17.0909 3.92116 17.1145 3.94596L17.332 3.73933ZM16.9433 3.59267V3.29267C16.7064 3.29267 16.4829 3.3639 16.3154 3.53977L16.5327 3.74667L16.7499 3.95356C16.778 3.9241 16.8283 3.89267 16.9433 3.89267V3.59267ZM16.5327 3.74667L16.3205 3.53453C16.1538 3.7013 16.086 3.91934 16.086 4.15H16.386H16.686C16.686 4.03843 16.716 3.98758 16.7448 3.9588L16.5327 3.74667ZM16.386 4.15V3.85H15.2053V4.15V4.45H16.386V4.15ZM15.2053 4.15L15.5052 4.14017C15.497 3.89082 15.5478 3.67616 15.6514 3.48811L15.3887 3.34333L15.1259 3.19855C14.9655 3.48962 14.8941 3.81273 14.9055 4.15983L15.2053 4.15ZM15.3887 3.34333L15.6491 3.49217C15.7551 3.30666 15.9112 3.15747 16.1281 3.04499L15.99 2.77867L15.8519 2.51234C15.5408 2.67364 15.296 2.90089 15.1282 3.19449L15.3887 3.34333ZM15.99 2.77867L16.1299 3.04404C16.3466 2.9298 16.6189 2.866 16.958 2.866V2.566V2.266C16.5442 2.266 16.1712 2.34398 15.8501 2.5133L15.99 2.77867ZM16.474 8.05867V7.75867C16.3157 7.75867 16.2099 7.7148 16.1316 7.64463L15.9313 7.868L15.7311 8.09137C15.9364 8.27542 16.1923 8.35867 16.474 8.35867V8.05867ZM15.9313 7.868L16.1396 7.65205C16.0615 7.57676 16.026 7.49345 16.026 7.384H15.726H15.426C15.426 7.65588 15.5274 7.89524 15.7231 8.08395L15.9313 7.868ZM15.726 7.384H16.026C16.026 7.2673 16.0632 7.1823 16.1396 7.10862L15.9313 6.89267L15.7231 6.67671C15.5257 6.86703 15.426 7.10959 15.426 7.384H15.726ZM15.9313 6.89267L16.1358 7.11223C16.2144 7.03901 16.3188 6.99467 16.474 6.99467V6.69467V6.39467C16.1892 6.39467 15.9318 6.48232 15.7269 6.6731L15.9313 6.89267ZM16.474 6.69467V6.99467C16.6225 6.99467 16.7203 7.03775 16.7938 7.10862L17.002 6.89267L17.2102 6.67671C17.01 6.48359 16.7557 6.39467 16.474 6.39467V6.69467ZM17.002 6.89267L16.7976 7.11223C16.8777 7.18687 16.9147 7.27083 16.9147 7.384H17.2147H17.5147C17.5147 7.10606 17.4098 6.86246 17.2064 6.6731L17.002 6.89267ZM17.2147 7.384H16.9147C16.9147 7.48988 16.8795 7.57215 16.7976 7.64843L17.002 7.868L17.2064 8.08757C17.4081 7.89985 17.5147 7.65945 17.5147 7.384H17.2147ZM17.002 7.868L16.7979 7.64816C16.7249 7.71595 16.6257 7.75867 16.474 7.75867V8.05867V8.35867C16.7525 8.35867 17.0054 8.27427 17.2061 8.08784L17.002 7.868Z" fill="#FFDBE3" mask="url(#path-2-outside-2_29_296)"/>
<defs>
<linearGradient id="paint0_linear_29_296" x1="1.25" y1="10" x2="17" y2="10" gradientUnits="userSpaceOnUse">
<stop stop-color="#FFA68D"/>
<stop offset="1" stop-color="#FD3A84"/>
</linearGradient>
<linearGradient id="paint1_linear_29_296" x1="19" y1="1.5" x2="15" y2="8.5" gradientUnits="userSpaceOnUse">
<stop stop-color="#FE5486"/>
<stop offset="1" stop-color="#FFA18D"/>
</linearGradient>
</defs>
</svg>
