<svg width="16" height="16" viewBox="0 0 16 16" fill="none" xmlns="http://www.w3.org/2000/svg">
<mask id="path-1-outside-1_143_3404" maskUnits="userSpaceOnUse" x="-0.333252" y="3.16675" width="17" height="12" fill="black">
<rect fill="white" x="-0.333252" y="3.16675" width="17" height="12"/>
<path d="M15.2522 11.3049L14.9167 11.1373V7.66676C14.9167 6.47282 14.6436 5.55532 14.1049 4.93963C13.8961 4.69643 13.6371 4.50139 13.3456 4.36796C13.0542 4.23453 12.7373 4.16589 12.4167 4.16676C11.5724 4.16676 11.0447 4.4961 10.8383 4.65582C10.3371 4.60804 9.92315 4.72291 9.60709 4.99804C8.91519 5.60047 8.91625 6.79754 8.91675 7.37279V11.1372L8.58128 11.3049C8.52732 11.332 8.4768 11.3655 8.43078 11.4046C8.39176 11.3674 8.34879 11.3346 8.30265 11.3067L6.16675 10.0252V9.85166C6.39815 9.69064 6.5872 9.47607 6.71779 9.22622C6.84838 8.97638 6.91664 8.69867 6.91675 8.41676V7.76788C7.4105 7.20654 7.41675 6.45304 7.41675 6.41976C7.41675 5.85651 7.25559 5.43882 6.93778 5.17826C6.61753 4.91576 6.2284 4.89513 6.0184 4.90729C5.68124 4.54523 5.23654 4.30124 4.75003 4.21138C4.26444 4.12506 3.76465 4.16882 3.30144 4.33819C2.46028 4.64272 1.91675 5.26363 1.91675 5.91988C1.91675 6.92451 2.22684 7.36591 2.41675 7.54219V8.41676C2.41686 8.69867 2.48511 8.97638 2.6157 9.22622C2.74629 9.47607 2.93534 9.69064 3.16675 9.85166V10.0252L1.03087 11.3067C0.920069 11.3736 0.828362 11.468 0.764587 11.5806C0.700812 11.6932 0.667117 11.8204 0.666748 11.9498V14.6668C0.666748 14.7331 0.693087 14.7966 0.739971 14.8435C0.786855 14.8904 0.850444 14.9168 0.916748 14.9168H15.4167C15.4831 14.9168 15.5466 14.8904 15.5935 14.8435C15.6404 14.7966 15.6667 14.7331 15.6667 14.6668V11.9758C15.6672 11.8364 15.6286 11.6997 15.5554 11.5811C15.4821 11.4625 15.377 11.3669 15.2522 11.3049ZM2.41675 5.91988C2.41675 5.48354 2.84069 5.03688 3.47162 4.80844C4.14697 4.56397 5.0935 4.57251 5.72475 5.32994C5.75356 5.36451 5.79116 5.39066 5.83359 5.40564C5.87603 5.42062 5.92172 5.42386 5.96584 5.41504C5.96969 5.41429 6.35281 5.34532 6.62084 5.56504C6.81722 5.72604 6.91681 6.01366 6.91681 6.4191C6.91681 6.42441 6.91081 6.85685 6.68244 7.24279L5.87472 6.03122C5.85526 6.00204 5.82988 5.97727 5.80022 5.95854C5.77057 5.93981 5.7373 5.92752 5.70258 5.92249C5.66787 5.91746 5.63248 5.91978 5.59873 5.92932C5.56497 5.93886 5.5336 5.95539 5.50665 5.97785C5.49265 5.98951 4.11603 7.12382 2.74919 7.16847C2.65425 7.07497 2.41675 6.75738 2.41675 5.91988ZM2.91675 8.41676V7.65926C4.06928 7.56607 5.15456 6.86213 5.60715 6.53113L6.41675 7.74544V8.41676C6.41638 8.74816 6.28456 9.06589 6.05022 9.30023C5.81588 9.53457 5.49815 9.66638 5.16675 9.66676H4.16675C3.83534 9.66638 3.51762 9.53457 3.28328 9.30023C3.04894 9.06589 2.91712 8.74816 2.91675 8.41676ZM5.66675 10.0936V10.1668C5.66675 10.432 5.56139 10.6863 5.37385 10.8739C5.18632 11.0614 4.93196 11.1668 4.66675 11.1668C4.40153 11.1668 4.14718 11.0614 3.95964 10.8739C3.7721 10.6863 3.66675 10.432 3.66675 10.1668V10.0936C3.82898 10.1421 3.99741 10.1668 4.16675 10.1668H5.16675C5.33608 10.1668 5.50452 10.1421 5.66675 10.0936ZM8.16675 11.9758V14.4168H7.16675V13.6668C7.16675 13.6005 7.14041 13.5369 7.09352 13.49C7.04664 13.4431 6.98305 13.4168 6.91675 13.4168C6.85044 13.4168 6.78686 13.4431 6.73997 13.49C6.69309 13.5369 6.66675 13.6005 6.66675 13.6668V14.4168H2.66675V13.6668C2.66675 13.6005 2.64041 13.5369 2.59352 13.49C2.54664 13.4431 2.48305 13.4168 2.41675 13.4168C2.35044 13.4168 2.28686 13.4431 2.23997 13.49C2.19309 13.5369 2.16675 13.6005 2.16675 13.6668V14.4168H1.16675V11.9498C1.16687 11.9067 1.1781 11.8643 1.19936 11.8268C1.22062 11.7892 1.25119 11.7578 1.28812 11.7355L3.22347 10.5743C3.31217 10.8888 3.50115 11.1657 3.76167 11.3629C4.0222 11.5601 4.34 11.6668 4.66675 11.6668C4.99349 11.6668 5.3113 11.5601 5.57182 11.3629C5.83234 11.1657 6.02133 10.8888 6.11003 10.5743L8.04537 11.7355C8.08231 11.7578 8.11288 11.7892 8.13414 11.8268C8.1554 11.8643 8.16663 11.9067 8.16675 11.9499V11.9758ZM9.9355 5.37513C10.1641 5.17613 10.4736 5.10713 10.8821 5.16435C10.9201 5.16994 10.9589 5.16657 10.9954 5.1545C11.0318 5.14244 11.065 5.12203 11.0922 5.09488C11.1102 5.07741 11.5439 4.66676 12.4167 4.66676C12.6659 4.6664 12.9122 4.72004 13.1387 4.82399C13.3651 4.92793 13.5664 5.07971 13.7286 5.26888C14.1852 5.79073 14.4167 6.59751 14.4167 7.66676V10.8873L13.1667 10.2623V9.85166C13.3982 9.69064 13.5872 9.47607 13.7178 9.22622C13.8484 8.97638 13.9166 8.69867 13.9167 8.41676V7.66676C13.9167 7.611 13.8981 7.55685 13.8638 7.5129C13.8295 7.46896 13.7815 7.43775 13.7274 7.42422C12.7652 7.18369 12.1832 6.76051 11.8644 6.44801C11.5201 6.11051 11.3995 5.82519 11.3987 5.82379C11.3785 5.77311 11.3422 5.73046 11.2954 5.70234C11.2487 5.67421 11.194 5.66216 11.1397 5.66803C11.0855 5.67389 11.0346 5.69735 10.995 5.73482C10.9553 5.77228 10.929 5.82171 10.92 5.87554C10.8554 6.26304 10.5693 7.34772 10.0279 7.70863C9.9937 7.73149 9.96564 7.76244 9.94624 7.79875C9.92685 7.83506 9.91671 7.87559 9.91675 7.91676V8.41676C9.91686 8.69867 9.98511 8.97638 10.1157 9.22622C10.2463 9.47607 10.4353 9.69064 10.6667 9.85166V10.2623L9.41675 10.8873V7.37235C9.41631 6.87107 9.4154 5.82794 9.9355 5.37513ZM12.1667 9.66676H11.6667C11.3353 9.66638 11.0176 9.53457 10.7833 9.30023C10.5489 9.06589 10.4171 8.74816 10.4167 8.41676V8.04235C10.724 7.79129 10.9815 7.37869 11.1834 6.81335C11.2171 6.71904 11.2466 6.62766 11.2722 6.54191C11.6162 6.96251 12.2667 7.53069 13.4167 7.85866V8.41676C13.4164 8.74816 13.2846 9.06589 13.0502 9.30023C12.8159 9.53457 12.4982 9.66638 12.1667 9.66676ZM12.6667 10.0936V10.4168C12.6667 10.6157 12.5877 10.8064 12.4471 10.9471C12.3064 11.0877 12.1157 11.1668 11.9167 11.1668C11.7178 11.1668 11.5271 11.0877 11.3864 10.9471C11.2458 10.8064 11.1667 10.6157 11.1667 10.4168V10.0936C11.329 10.1421 11.4974 10.1668 11.6667 10.1668H12.1667C12.3361 10.1668 12.5045 10.1421 12.6667 10.0936ZM15.1667 14.4168H14.1667V13.6668C14.1667 13.6005 14.1404 13.5369 14.0935 13.49C14.0466 13.4431 13.9831 13.4168 13.9167 13.4168C13.8504 13.4168 13.7869 13.4431 13.74 13.49C13.6931 13.5369 13.6667 13.6005 13.6667 13.6668V14.4168H10.1667V13.6668C10.1667 13.6005 10.1404 13.5369 10.0935 13.49C10.0466 13.4431 9.98305 13.4168 9.91675 13.4168C9.85044 13.4168 9.78686 13.4431 9.73997 13.49C9.69309 13.5369 9.66675 13.6005 9.66675 13.6668V14.4168H8.66675V11.9758C8.66659 11.9293 8.67945 11.8837 8.70388 11.8442C8.72831 11.8047 8.76333 11.7728 8.80497 11.7522L10.7245 10.7924C10.8044 11.0459 10.9631 11.2674 11.1775 11.4246C11.3919 11.5819 11.6508 11.6666 11.9167 11.6666C12.1825 11.6666 12.4415 11.5819 12.6559 11.4246C12.8703 11.2674 13.029 11.0459 13.1089 10.7924L15.0284 11.7522C15.0701 11.7728 15.1051 11.8047 15.1296 11.8442C15.154 11.8837 15.1669 11.9293 15.1667 11.9758V14.4168Z"/>
</mask>
<path d="M15.2522 11.3049L14.9167 11.1373V7.66676C14.9167 6.47282 14.6436 5.55532 14.1049 4.93963C13.8961 4.69643 13.6371 4.50139 13.3456 4.36796C13.0542 4.23453 12.7373 4.16589 12.4167 4.16676C11.5724 4.16676 11.0447 4.4961 10.8383 4.65582C10.3371 4.60804 9.92315 4.72291 9.60709 4.99804C8.91519 5.60047 8.91625 6.79754 8.91675 7.37279V11.1372L8.58128 11.3049C8.52732 11.332 8.4768 11.3655 8.43078 11.4046C8.39176 11.3674 8.34879 11.3346 8.30265 11.3067L6.16675 10.0252V9.85166C6.39815 9.69064 6.5872 9.47607 6.71779 9.22622C6.84838 8.97638 6.91664 8.69867 6.91675 8.41676V7.76788C7.4105 7.20654 7.41675 6.45304 7.41675 6.41976C7.41675 5.85651 7.25559 5.43882 6.93778 5.17826C6.61753 4.91576 6.2284 4.89513 6.0184 4.90729C5.68124 4.54523 5.23654 4.30124 4.75003 4.21138C4.26444 4.12506 3.76465 4.16882 3.30144 4.33819C2.46028 4.64272 1.91675 5.26363 1.91675 5.91988C1.91675 6.92451 2.22684 7.36591 2.41675 7.54219V8.41676C2.41686 8.69867 2.48511 8.97638 2.6157 9.22622C2.74629 9.47607 2.93534 9.69064 3.16675 9.85166V10.0252L1.03087 11.3067C0.920069 11.3736 0.828362 11.468 0.764587 11.5806C0.700812 11.6932 0.667117 11.8204 0.666748 11.9498V14.6668C0.666748 14.7331 0.693087 14.7966 0.739971 14.8435C0.786855 14.8904 0.850444 14.9168 0.916748 14.9168H15.4167C15.4831 14.9168 15.5466 14.8904 15.5935 14.8435C15.6404 14.7966 15.6667 14.7331 15.6667 14.6668V11.9758C15.6672 11.8364 15.6286 11.6997 15.5554 11.5811C15.4821 11.4625 15.377 11.3669 15.2522 11.3049ZM2.41675 5.91988C2.41675 5.48354 2.84069 5.03688 3.47162 4.80844C4.14697 4.56397 5.0935 4.57251 5.72475 5.32994C5.75356 5.36451 5.79116 5.39066 5.83359 5.40564C5.87603 5.42062 5.92172 5.42386 5.96584 5.41504C5.96969 5.41429 6.35281 5.34532 6.62084 5.56504C6.81722 5.72604 6.91681 6.01366 6.91681 6.4191C6.91681 6.42441 6.91081 6.85685 6.68244 7.24279L5.87472 6.03122C5.85526 6.00204 5.82988 5.97727 5.80022 5.95854C5.77057 5.93981 5.7373 5.92752 5.70258 5.92249C5.66787 5.91746 5.63248 5.91978 5.59873 5.92932C5.56497 5.93886 5.5336 5.95539 5.50665 5.97785C5.49265 5.98951 4.11603 7.12382 2.74919 7.16847C2.65425 7.07497 2.41675 6.75738 2.41675 5.91988ZM2.91675 8.41676V7.65926C4.06928 7.56607 5.15456 6.86213 5.60715 6.53113L6.41675 7.74544V8.41676C6.41638 8.74816 6.28456 9.06589 6.05022 9.30023C5.81588 9.53457 5.49815 9.66638 5.16675 9.66676H4.16675C3.83534 9.66638 3.51762 9.53457 3.28328 9.30023C3.04894 9.06589 2.91712 8.74816 2.91675 8.41676ZM5.66675 10.0936V10.1668C5.66675 10.432 5.56139 10.6863 5.37385 10.8739C5.18632 11.0614 4.93196 11.1668 4.66675 11.1668C4.40153 11.1668 4.14718 11.0614 3.95964 10.8739C3.7721 10.6863 3.66675 10.432 3.66675 10.1668V10.0936C3.82898 10.1421 3.99741 10.1668 4.16675 10.1668H5.16675C5.33608 10.1668 5.50452 10.1421 5.66675 10.0936ZM8.16675 11.9758V14.4168H7.16675V13.6668C7.16675 13.6005 7.14041 13.5369 7.09352 13.49C7.04664 13.4431 6.98305 13.4168 6.91675 13.4168C6.85044 13.4168 6.78686 13.4431 6.73997 13.49C6.69309 13.5369 6.66675 13.6005 6.66675 13.6668V14.4168H2.66675V13.6668C2.66675 13.6005 2.64041 13.5369 2.59352 13.49C2.54664 13.4431 2.48305 13.4168 2.41675 13.4168C2.35044 13.4168 2.28686 13.4431 2.23997 13.49C2.19309 13.5369 2.16675 13.6005 2.16675 13.6668V14.4168H1.16675V11.9498C1.16687 11.9067 1.1781 11.8643 1.19936 11.8268C1.22062 11.7892 1.25119 11.7578 1.28812 11.7355L3.22347 10.5743C3.31217 10.8888 3.50115 11.1657 3.76167 11.3629C4.0222 11.5601 4.34 11.6668 4.66675 11.6668C4.99349 11.6668 5.3113 11.5601 5.57182 11.3629C5.83234 11.1657 6.02133 10.8888 6.11003 10.5743L8.04537 11.7355C8.08231 11.7578 8.11288 11.7892 8.13414 11.8268C8.1554 11.8643 8.16663 11.9067 8.16675 11.9499V11.9758ZM9.9355 5.37513C10.1641 5.17613 10.4736 5.10713 10.8821 5.16435C10.9201 5.16994 10.9589 5.16657 10.9954 5.1545C11.0318 5.14244 11.065 5.12203 11.0922 5.09488C11.1102 5.07741 11.5439 4.66676 12.4167 4.66676C12.6659 4.6664 12.9122 4.72004 13.1387 4.82399C13.3651 4.92793 13.5664 5.07971 13.7286 5.26888C14.1852 5.79073 14.4167 6.59751 14.4167 7.66676V10.8873L13.1667 10.2623V9.85166C13.3982 9.69064 13.5872 9.47607 13.7178 9.22622C13.8484 8.97638 13.9166 8.69867 13.9167 8.41676V7.66676C13.9167 7.611 13.8981 7.55685 13.8638 7.5129C13.8295 7.46896 13.7815 7.43775 13.7274 7.42422C12.7652 7.18369 12.1832 6.76051 11.8644 6.44801C11.5201 6.11051 11.3995 5.82519 11.3987 5.82379C11.3785 5.77311 11.3422 5.73046 11.2954 5.70234C11.2487 5.67421 11.194 5.66216 11.1397 5.66803C11.0855 5.67389 11.0346 5.69735 10.995 5.73482C10.9553 5.77228 10.929 5.82171 10.92 5.87554C10.8554 6.26304 10.5693 7.34772 10.0279 7.70863C9.9937 7.73149 9.96564 7.76244 9.94624 7.79875C9.92685 7.83506 9.91671 7.87559 9.91675 7.91676V8.41676C9.91686 8.69867 9.98511 8.97638 10.1157 9.22622C10.2463 9.47607 10.4353 9.69064 10.6667 9.85166V10.2623L9.41675 10.8873V7.37235C9.41631 6.87107 9.4154 5.82794 9.9355 5.37513ZM12.1667 9.66676H11.6667C11.3353 9.66638 11.0176 9.53457 10.7833 9.30023C10.5489 9.06589 10.4171 8.74816 10.4167 8.41676V8.04235C10.724 7.79129 10.9815 7.37869 11.1834 6.81335C11.2171 6.71904 11.2466 6.62766 11.2722 6.54191C11.6162 6.96251 12.2667 7.53069 13.4167 7.85866V8.41676C13.4164 8.74816 13.2846 9.06589 13.0502 9.30023C12.8159 9.53457 12.4982 9.66638 12.1667 9.66676ZM12.6667 10.0936V10.4168C12.6667 10.6157 12.5877 10.8064 12.4471 10.9471C12.3064 11.0877 12.1157 11.1668 11.9167 11.1668C11.7178 11.1668 11.5271 11.0877 11.3864 10.9471C11.2458 10.8064 11.1667 10.6157 11.1667 10.4168V10.0936C11.329 10.1421 11.4974 10.1668 11.6667 10.1668H12.1667C12.3361 10.1668 12.5045 10.1421 12.6667 10.0936ZM15.1667 14.4168H14.1667V13.6668C14.1667 13.6005 14.1404 13.5369 14.0935 13.49C14.0466 13.4431 13.9831 13.4168 13.9167 13.4168C13.8504 13.4168 13.7869 13.4431 13.74 13.49C13.6931 13.5369 13.6667 13.6005 13.6667 13.6668V14.4168H10.1667V13.6668C10.1667 13.6005 10.1404 13.5369 10.0935 13.49C10.0466 13.4431 9.98305 13.4168 9.91675 13.4168C9.85044 13.4168 9.78686 13.4431 9.73997 13.49C9.69309 13.5369 9.66675 13.6005 9.66675 13.6668V14.4168H8.66675V11.9758C8.66659 11.9293 8.67945 11.8837 8.70388 11.8442C8.72831 11.8047 8.76333 11.7728 8.80497 11.7522L10.7245 10.7924C10.8044 11.0459 10.9631 11.2674 11.1775 11.4246C11.3919 11.5819 11.6508 11.6666 11.9167 11.6666C12.1825 11.6666 12.4415 11.5819 12.6559 11.4246C12.8703 11.2674 13.029 11.0459 13.1089 10.7924L15.0284 11.7522C15.0701 11.7728 15.1051 11.8047 15.1296 11.8442C15.154 11.8837 15.1669 11.9293 15.1667 11.9758V14.4168Z" fill="url(#paint0_linear_143_3404)"/>
<path d="M15.2522 11.3049L14.9167 11.1373V7.66676C14.9167 6.47282 14.6436 5.55532 14.1049 4.93963C13.8961 4.69643 13.6371 4.50139 13.3456 4.36796C13.0542 4.23453 12.7373 4.16589 12.4167 4.16676C11.5724 4.16676 11.0447 4.4961 10.8383 4.65582C10.3371 4.60804 9.92315 4.72291 9.60709 4.99804C8.91519 5.60047 8.91625 6.79754 8.91675 7.37279V11.1372L8.58128 11.3049C8.52732 11.332 8.4768 11.3655 8.43078 11.4046C8.39176 11.3674 8.34879 11.3346 8.30265 11.3067L6.16675 10.0252V9.85166C6.39815 9.69064 6.5872 9.47607 6.71779 9.22622C6.84838 8.97638 6.91664 8.69867 6.91675 8.41676V7.76788C7.4105 7.20654 7.41675 6.45304 7.41675 6.41976C7.41675 5.85651 7.25559 5.43882 6.93778 5.17826C6.61753 4.91576 6.2284 4.89513 6.0184 4.90729C5.68124 4.54523 5.23654 4.30124 4.75003 4.21138C4.26444 4.12506 3.76465 4.16882 3.30144 4.33819C2.46028 4.64272 1.91675 5.26363 1.91675 5.91988C1.91675 6.92451 2.22684 7.36591 2.41675 7.54219V8.41676C2.41686 8.69867 2.48511 8.97638 2.6157 9.22622C2.74629 9.47607 2.93534 9.69064 3.16675 9.85166V10.0252L1.03087 11.3067C0.920069 11.3736 0.828362 11.468 0.764587 11.5806C0.700812 11.6932 0.667117 11.8204 0.666748 11.9498V14.6668C0.666748 14.7331 0.693087 14.7966 0.739971 14.8435C0.786855 14.8904 0.850444 14.9168 0.916748 14.9168H15.4167C15.4831 14.9168 15.5466 14.8904 15.5935 14.8435C15.6404 14.7966 15.6667 14.7331 15.6667 14.6668V11.9758C15.6672 11.8364 15.6286 11.6997 15.5554 11.5811C15.4821 11.4625 15.377 11.3669 15.2522 11.3049ZM2.41675 5.91988C2.41675 5.48354 2.84069 5.03688 3.47162 4.80844C4.14697 4.56397 5.0935 4.57251 5.72475 5.32994C5.75356 5.36451 5.79116 5.39066 5.83359 5.40564C5.87603 5.42062 5.92172 5.42386 5.96584 5.41504C5.96969 5.41429 6.35281 5.34532 6.62084 5.56504C6.81722 5.72604 6.91681 6.01366 6.91681 6.4191C6.91681 6.42441 6.91081 6.85685 6.68244 7.24279L5.87472 6.03122C5.85526 6.00204 5.82988 5.97727 5.80022 5.95854C5.77057 5.93981 5.7373 5.92752 5.70258 5.92249C5.66787 5.91746 5.63248 5.91978 5.59873 5.92932C5.56497 5.93886 5.5336 5.95539 5.50665 5.97785C5.49265 5.98951 4.11603 7.12382 2.74919 7.16847C2.65425 7.07497 2.41675 6.75738 2.41675 5.91988ZM2.91675 8.41676V7.65926C4.06928 7.56607 5.15456 6.86213 5.60715 6.53113L6.41675 7.74544V8.41676C6.41638 8.74816 6.28456 9.06589 6.05022 9.30023C5.81588 9.53457 5.49815 9.66638 5.16675 9.66676H4.16675C3.83534 9.66638 3.51762 9.53457 3.28328 9.30023C3.04894 9.06589 2.91712 8.74816 2.91675 8.41676ZM5.66675 10.0936V10.1668C5.66675 10.432 5.56139 10.6863 5.37385 10.8739C5.18632 11.0614 4.93196 11.1668 4.66675 11.1668C4.40153 11.1668 4.14718 11.0614 3.95964 10.8739C3.7721 10.6863 3.66675 10.432 3.66675 10.1668V10.0936C3.82898 10.1421 3.99741 10.1668 4.16675 10.1668H5.16675C5.33608 10.1668 5.50452 10.1421 5.66675 10.0936ZM8.16675 11.9758V14.4168H7.16675V13.6668C7.16675 13.6005 7.14041 13.5369 7.09352 13.49C7.04664 13.4431 6.98305 13.4168 6.91675 13.4168C6.85044 13.4168 6.78686 13.4431 6.73997 13.49C6.69309 13.5369 6.66675 13.6005 6.66675 13.6668V14.4168H2.66675V13.6668C2.66675 13.6005 2.64041 13.5369 2.59352 13.49C2.54664 13.4431 2.48305 13.4168 2.41675 13.4168C2.35044 13.4168 2.28686 13.4431 2.23997 13.49C2.19309 13.5369 2.16675 13.6005 2.16675 13.6668V14.4168H1.16675V11.9498C1.16687 11.9067 1.1781 11.8643 1.19936 11.8268C1.22062 11.7892 1.25119 11.7578 1.28812 11.7355L3.22347 10.5743C3.31217 10.8888 3.50115 11.1657 3.76167 11.3629C4.0222 11.5601 4.34 11.6668 4.66675 11.6668C4.99349 11.6668 5.3113 11.5601 5.57182 11.3629C5.83234 11.1657 6.02133 10.8888 6.11003 10.5743L8.04537 11.7355C8.08231 11.7578 8.11288 11.7892 8.13414 11.8268C8.1554 11.8643 8.16663 11.9067 8.16675 11.9499V11.9758ZM9.9355 5.37513C10.1641 5.17613 10.4736 5.10713 10.8821 5.16435C10.9201 5.16994 10.9589 5.16657 10.9954 5.1545C11.0318 5.14244 11.065 5.12203 11.0922 5.09488C11.1102 5.07741 11.5439 4.66676 12.4167 4.66676C12.6659 4.6664 12.9122 4.72004 13.1387 4.82399C13.3651 4.92793 13.5664 5.07971 13.7286 5.26888C14.1852 5.79073 14.4167 6.59751 14.4167 7.66676V10.8873L13.1667 10.2623V9.85166C13.3982 9.69064 13.5872 9.47607 13.7178 9.22622C13.8484 8.97638 13.9166 8.69867 13.9167 8.41676V7.66676C13.9167 7.611 13.8981 7.55685 13.8638 7.5129C13.8295 7.46896 13.7815 7.43775 13.7274 7.42422C12.7652 7.18369 12.1832 6.76051 11.8644 6.44801C11.5201 6.11051 11.3995 5.82519 11.3987 5.82379C11.3785 5.77311 11.3422 5.73046 11.2954 5.70234C11.2487 5.67421 11.194 5.66216 11.1397 5.66803C11.0855 5.67389 11.0346 5.69735 10.995 5.73482C10.9553 5.77228 10.929 5.82171 10.92 5.87554C10.8554 6.26304 10.5693 7.34772 10.0279 7.70863C9.9937 7.73149 9.96564 7.76244 9.94624 7.79875C9.92685 7.83506 9.91671 7.87559 9.91675 7.91676V8.41676C9.91686 8.69867 9.98511 8.97638 10.1157 9.22622C10.2463 9.47607 10.4353 9.69064 10.6667 9.85166V10.2623L9.41675 10.8873V7.37235C9.41631 6.87107 9.4154 5.82794 9.9355 5.37513ZM12.1667 9.66676H11.6667C11.3353 9.66638 11.0176 9.53457 10.7833 9.30023C10.5489 9.06589 10.4171 8.74816 10.4167 8.41676V8.04235C10.724 7.79129 10.9815 7.37869 11.1834 6.81335C11.2171 6.71904 11.2466 6.62766 11.2722 6.54191C11.6162 6.96251 12.2667 7.53069 13.4167 7.85866V8.41676C13.4164 8.74816 13.2846 9.06589 13.0502 9.30023C12.8159 9.53457 12.4982 9.66638 12.1667 9.66676ZM12.6667 10.0936V10.4168C12.6667 10.6157 12.5877 10.8064 12.4471 10.9471C12.3064 11.0877 12.1157 11.1668 11.9167 11.1668C11.7178 11.1668 11.5271 11.0877 11.3864 10.9471C11.2458 10.8064 11.1667 10.6157 11.1667 10.4168V10.0936C11.329 10.1421 11.4974 10.1668 11.6667 10.1668H12.1667C12.3361 10.1668 12.5045 10.1421 12.6667 10.0936ZM15.1667 14.4168H14.1667V13.6668C14.1667 13.6005 14.1404 13.5369 14.0935 13.49C14.0466 13.4431 13.9831 13.4168 13.9167 13.4168C13.8504 13.4168 13.7869 13.4431 13.74 13.49C13.6931 13.5369 13.6667 13.6005 13.6667 13.6668V14.4168H10.1667V13.6668C10.1667 13.6005 10.1404 13.5369 10.0935 13.49C10.0466 13.4431 9.98305 13.4168 9.91675 13.4168C9.85044 13.4168 9.78686 13.4431 9.73997 13.49C9.69309 13.5369 9.66675 13.6005 9.66675 13.6668V14.4168H8.66675V11.9758C8.66659 11.9293 8.67945 11.8837 8.70388 11.8442C8.72831 11.8047 8.76333 11.7728 8.80497 11.7522L10.7245 10.7924C10.8044 11.0459 10.9631 11.2674 11.1775 11.4246C11.3919 11.5819 11.6508 11.6666 11.9167 11.6666C12.1825 11.6666 12.4415 11.5819 12.6559 11.4246C12.8703 11.2674 13.029 11.0459 13.1089 10.7924L15.0284 11.7522C15.0701 11.7728 15.1051 11.8047 15.1296 11.8442C15.154 11.8837 15.1669 11.9293 15.1667 11.9758V14.4168Z" stroke="url(#paint1_linear_143_3404)" stroke-width="0.133333" mask="url(#path-1-outside-1_143_3404)"/>
<path d="M9.1665 0.633484C9.50687 0.633484 9.83398 0.768839 10.0747 1.00946C10.3147 1.25036 10.4497 1.57667 10.4497 1.91669C10.4497 2.2567 10.3146 2.583 10.0747 2.82391L8.3667 4.53192C8.3136 4.58483 8.24148 4.61493 8.1665 4.61493C8.09151 4.61488 8.01938 4.5849 7.96631 4.53192L6.25928 2.82391C6.14015 2.70476 6.04544 2.56356 5.98096 2.4079C5.91646 2.25219 5.8833 2.08522 5.8833 1.91669C5.88332 1.74818 5.91647 1.58115 5.98096 1.42548C6.04545 1.26983 6.14015 1.12859 6.25928 1.00946C6.37841 0.890327 6.51965 0.795638 6.67529 0.73114C6.83098 0.666652 6.99799 0.633498 7.1665 0.633484C7.33505 0.633482 7.502 0.666643 7.65771 0.73114C7.81339 0.795619 7.95457 0.890331 8.07373 1.00946L8.1665 1.10223L8.25928 1.00946C8.49995 0.768898 8.82623 0.63355 9.1665 0.633484ZM9.1665 1.19989C8.97646 1.19994 8.79405 1.27546 8.65967 1.40985L8.3667 1.70282C8.31358 1.75584 8.24156 1.78583 8.1665 1.78583C8.09143 1.78578 8.0194 1.7559 7.96631 1.70282L7.67334 1.40985C7.53889 1.27559 7.35652 1.19989 7.1665 1.19989C6.97648 1.19994 6.79409 1.27553 6.65967 1.40985C6.52561 1.54442 6.45072 1.72674 6.45068 1.91669C6.45069 2.10661 6.52567 2.28894 6.65967 2.42352L8.1665 3.93036L9.67334 2.42352C9.80776 2.2891 9.8833 2.10679 9.8833 1.91669C9.88327 1.72662 9.80774 1.54425 9.67334 1.40985C9.53893 1.27551 9.35654 1.19989 9.1665 1.19989Z" fill="url(#paint2_linear_143_3404)" stroke="url(#paint3_linear_143_3404)" stroke-width="0.0666667"/>
<defs>
<linearGradient id="paint0_linear_143_3404" x1="0.666748" y1="9.54175" x2="15.6668" y2="9.54175" gradientUnits="userSpaceOnUse">
<stop stop-color="#FFA18D"/>
<stop offset="1" stop-color="#FD3E84"/>
</linearGradient>
<linearGradient id="paint1_linear_143_3404" x1="0.666748" y1="9.54175" x2="15.6668" y2="9.54175" gradientUnits="userSpaceOnUse">
<stop stop-color="#FFA18D"/>
<stop offset="1" stop-color="#FD3E84"/>
</linearGradient>
<linearGradient id="paint2_linear_143_3404" x1="5.9165" y1="2.62393" x2="10.416" y2="2.62393" gradientUnits="userSpaceOnUse">
<stop stop-color="#FFA18D"/>
<stop offset="1" stop-color="#FD3E84"/>
</linearGradient>
<linearGradient id="paint3_linear_143_3404" x1="5.9165" y1="2.62393" x2="10.416" y2="2.62393" gradientUnits="userSpaceOnUse">
<stop stop-color="#FFA18D"/>
<stop offset="1" stop-color="#FD3E84"/>
</linearGradient>
</defs>
</svg>
