<svg width="16" height="16" viewBox="0 0 16 16" fill="none" xmlns="http://www.w3.org/2000/svg">
<g clip-path="url(#clip0_143_3300)">
<path d="M6.47681 5.69901C6.63232 5.69913 6.77376 5.78465 6.84497 5.92264C6.98369 6.19236 7.05688 6.49608 7.05688 6.80057C7.05666 8.00817 5.9512 8.92992 4.72974 8.67654C3.99304 8.52309 3.40088 7.92332 3.2561 7.18338C3.17099 6.74722 3.23173 6.31117 3.43091 5.92361C3.50189 5.78501 3.6428 5.69905 3.79907 5.69901H6.47681ZM3.99927 6.41385C3.93141 6.61365 3.91578 6.82923 3.95825 7.04666C4.04841 7.50705 4.41754 7.88132 4.87524 7.97635L4.99731 7.99588C5.23524 8.02206 5.46402 7.97601 5.67017 7.87088C5.18748 7.75337 4.82642 7.3226 4.82642 6.8035C4.82646 6.66541 4.8549 6.53492 4.90161 6.41385H3.99927ZM5.93188 6.41385C5.71725 6.41385 5.5424 6.58877 5.54224 6.8035C5.54224 7.01836 5.71715 7.19315 5.93188 7.19315C6.1464 7.19288 6.32056 7.0182 6.32056 6.8035C6.32039 6.58893 6.1463 6.41411 5.93188 6.41385Z" fill="url(#paint0_linear_143_3300)" stroke="url(#paint1_linear_143_3300)" stroke-width="0.1"/>
<path d="M12.2009 5.69901C12.3564 5.69913 12.4979 5.78465 12.5691 5.92264C12.7078 6.19236 12.781 6.49608 12.781 6.80057C12.7808 8.00817 11.6753 8.92992 10.4539 8.67654C9.71716 8.52309 9.125 7.92332 8.98022 7.18338C8.89599 6.75144 8.95461 6.32016 9.14917 5.93533V5.93338L9.15503 5.92264C9.22628 5.78492 9.36744 5.69905 9.52319 5.69901H12.2009ZM9.72339 6.41385C9.65565 6.61367 9.6399 6.82923 9.68237 7.04666C9.77253 7.50705 10.1417 7.88132 10.5994 7.97635L10.7214 7.99588C10.9592 8.02204 11.1881 7.97601 11.3943 7.87088C10.9116 7.75337 10.5505 7.32261 10.5505 6.8035C10.5506 6.66541 10.579 6.53492 10.6257 6.41385H9.72339ZM11.655 6.41385C11.4406 6.41411 11.2665 6.58893 11.2664 6.8035C11.2664 7.0182 11.4405 7.19288 11.655 7.19315C11.8698 7.19315 12.0447 7.01836 12.0447 6.8035C12.0445 6.58877 11.8697 6.41385 11.655 6.41385Z" fill="url(#paint2_linear_143_3300)" stroke="url(#paint3_linear_143_3300)" stroke-width="0.1"/>
<path d="M8 0.565582C12.0994 0.565663 15.4346 3.90077 15.4346 8.00015C15.4345 12.0995 12.0993 15.4346 8 15.4347C3.90062 15.4347 0.565511 12.0995 0.56543 8.00015C0.56543 3.90072 3.90057 0.565582 8 0.565582ZM8 1.28043C4.29504 1.28043 1.28027 4.29519 1.28027 8.00015C1.28035 11.705 4.29509 14.7189 8 14.7189C11.7048 14.7188 14.7187 11.705 14.7188 8.00015C14.7188 4.29524 11.7049 1.28051 8 1.28043Z" fill="url(#paint4_linear_143_3300)" stroke="url(#paint5_linear_143_3300)" stroke-width="0.1"/>
<path d="M7.69678 10.8588C8.42239 10.5321 9.45274 10.2865 10.6948 10.6C10.8862 10.6485 11.002 10.8431 10.9536 11.0345C10.9052 11.2264 10.7102 11.3425 10.519 11.2943C9.47141 11.0293 8.59836 11.2394 7.98096 11.5189C7.67247 11.6586 7.42775 11.8153 7.25732 11.9388C7.17208 12.0006 7.10497 12.0544 7.05811 12.0931C7.03473 12.1124 7.01615 12.1275 7.00244 12.139C6.99585 12.1446 6.99049 12.15 6.98584 12.1537C6.98305 12.1559 6.97546 12.1618 6.96826 12.1654C6.81596 12.2823 6.597 12.2589 6.47412 12.1078C6.34948 11.9547 6.37275 11.7295 6.52588 11.6049L6.53467 11.598H6.53564C6.53968 11.5948 6.54485 11.5896 6.55225 11.5834C6.56728 11.5707 6.58954 11.5522 6.6167 11.5297C6.67113 11.4845 6.74873 11.422 6.84814 11.35C7.04736 11.2056 7.33411 11.022 7.69678 10.8588Z" fill="url(#paint6_linear_143_3300)" stroke="url(#paint7_linear_143_3300)" stroke-width="0.1"/>
</g>
<defs>
<linearGradient id="paint0_linear_143_3300" x1="3.2688" y1="7.20883" x2="7.00667" y2="7.20883" gradientUnits="userSpaceOnUse">
<stop stop-color="#FFA18D"/>
<stop offset="1" stop-color="#FD3E84"/>
</linearGradient>
<linearGradient id="paint1_linear_143_3300" x1="3.2688" y1="7.20883" x2="7.00667" y2="7.20883" gradientUnits="userSpaceOnUse">
<stop stop-color="#FFA18D"/>
<stop offset="1" stop-color="#FD3E84"/>
</linearGradient>
<linearGradient id="paint2_linear_143_3300" x1="8.99292" y1="7.20883" x2="12.7308" y2="7.20883" gradientUnits="userSpaceOnUse">
<stop stop-color="#FFA18D"/>
<stop offset="1" stop-color="#FD3E84"/>
</linearGradient>
<linearGradient id="paint3_linear_143_3300" x1="8.99292" y1="7.20883" x2="12.7308" y2="7.20883" gradientUnits="userSpaceOnUse">
<stop stop-color="#FFA18D"/>
<stop offset="1" stop-color="#FD3E84"/>
</linearGradient>
<linearGradient id="paint4_linear_143_3300" x1="0.615234" y1="8" x2="15.3845" y2="8" gradientUnits="userSpaceOnUse">
<stop stop-color="#FFA18D"/>
<stop offset="1" stop-color="#FD3E84"/>
</linearGradient>
<linearGradient id="paint5_linear_143_3300" x1="0.615234" y1="8" x2="15.3845" y2="8" gradientUnits="userSpaceOnUse">
<stop stop-color="#FFA18D"/>
<stop offset="1" stop-color="#FD3E84"/>
</linearGradient>
<linearGradient id="paint6_linear_143_3300" x1="6.44385" y1="11.3476" x2="10.915" y2="11.3476" gradientUnits="userSpaceOnUse">
<stop stop-color="#FFA18D"/>
<stop offset="1" stop-color="#FD3E84"/>
</linearGradient>
<linearGradient id="paint7_linear_143_3300" x1="6.44385" y1="11.3476" x2="10.915" y2="11.3476" gradientUnits="userSpaceOnUse">
<stop stop-color="#FFA18D"/>
<stop offset="1" stop-color="#FD3E84"/>
</linearGradient>
<clipPath id="clip0_143_3300">
<rect width="16" height="16" fill="white"/>
</clipPath>
</defs>
</svg>
