<svg width="18" height="18" viewBox="0 0 18 18" fill="none" xmlns="http://www.w3.org/2000/svg">
<path d="M10.9189 3.5127C11.8048 0.151186 16.6525 0.735174 16.7246 4.20898V4.20996C16.744 4.95925 16.3908 5.7867 15.9111 6.53613C15.4338 7.28185 14.8437 7.93026 14.4189 8.31836L14.1338 8.5791H15.2744L15.4482 8.59277C17.1904 8.81518 17.1311 11.4046 15.2744 11.4688H11.999C11.6874 11.4719 11.3892 11.5979 11.1699 11.8193C10.9506 12.0409 10.8281 12.3406 10.8281 12.6523C10.8282 12.9639 10.9507 13.2629 11.1699 13.4844C11.3892 13.7059 11.6873 13.8318 11.999 13.835H15.2793C15.6625 13.835 16.0308 13.9878 16.3018 14.2588C16.5725 14.5297 16.7246 14.8973 16.7246 15.2803C16.7246 15.6633 16.5725 16.0308 16.3018 16.3018C16.0308 16.5727 15.6625 16.7246 15.2793 16.7246H4.21777C4.19931 16.7248 4.18052 16.72 4.16504 16.71C4.08693 16.6588 3.36873 16.0832 2.66504 15.2217C2.0033 14.4115 1.37625 13.3735 1.28613 12.3018L1.27539 12.0869C1.43814 8.18023 7.00132 8.17755 7.16211 12.0947C7.18213 12.8422 6.82951 13.6685 6.34961 14.418C5.87173 15.1642 5.28128 15.8137 4.85742 16.2012L4.57227 16.4619H15.2812C15.5926 16.4591 15.8901 16.3334 16.1094 16.1123C16.3287 15.891 16.4521 15.5919 16.4521 15.2803C16.4522 14.9687 16.3287 14.6696 16.1094 14.4482C15.8901 14.2271 15.5927 14.1015 15.2812 14.0986H12C11.6166 14.0985 11.2487 13.9459 10.9775 13.6748C10.7064 13.4036 10.5538 13.0358 10.5537 12.6523C10.5537 12.2689 10.7065 11.9011 10.9775 11.6299C11.2487 11.3588 11.6166 11.2062 12 11.2061H15.2812C15.5928 11.2032 15.891 11.0777 16.1104 10.8564C16.3296 10.6352 16.4521 10.3359 16.4521 10.0244C16.4522 9.71294 16.3295 9.41368 16.1104 9.19238C15.891 8.97113 15.5928 8.84558 15.2812 8.84277H13.7881C13.7819 8.8407 13.7702 8.83621 13.7529 8.82715C13.7185 8.80906 13.6719 8.77879 13.6133 8.73633C13.4964 8.65167 13.344 8.52454 13.1699 8.36133C12.822 8.03517 12.3942 7.57291 12 7.03711C11.6054 6.50085 11.2473 5.89609 11.0322 5.28516C10.817 4.67361 10.7496 4.0671 10.918 3.51855L10.9189 3.5127ZM3.76074 10.4219C3.56371 10.3957 3.36278 10.4183 3.17676 10.4883C2.99084 10.5583 2.82511 10.6737 2.69434 10.8232C2.56518 10.971 2.47386 11.1479 2.42871 11.3389C2.28129 11.866 2.47484 12.47 2.81445 12.9336C3.15391 13.397 3.66984 13.7617 4.21875 13.7705H4.22559C4.7747 13.756 5.28754 13.3928 5.625 12.9307C5.96249 12.4684 6.15336 11.8681 6.01172 11.3408H6.01074C5.96518 11.1491 5.87411 10.9714 5.74414 10.8232C5.61302 10.6738 5.44684 10.5592 5.26074 10.4893C5.07481 10.4194 4.87465 10.3959 4.67773 10.4219C4.51502 10.4434 4.35918 10.4994 4.21875 10.583C4.07857 10.4993 3.92331 10.4435 3.76074 10.4219ZM3.7207 11.293C3.78242 11.3162 3.8368 11.3561 3.87598 11.4092L3.875 11.4102L3.88184 11.417C3.92314 11.4661 3.97503 11.5061 4.0332 11.5332C4.09127 11.5602 4.15473 11.5742 4.21875 11.5742C4.28281 11.5742 4.34621 11.5602 4.4043 11.5332C4.43336 11.5197 4.46102 11.5028 4.48633 11.4834L4.55566 11.417L4.56055 11.4102C4.60004 11.3574 4.65409 11.3169 4.71582 11.2939C4.77754 11.271 4.84483 11.2662 4.90918 11.2803C4.97355 11.2943 5.03256 11.3274 5.0791 11.374C5.12531 11.4204 5.1569 11.479 5.1709 11.543V11.5439L5.17383 11.5527C5.2412 11.795 5.13988 12.1398 4.92188 12.4346C4.70567 12.7269 4.41894 12.9101 4.1709 12.9014C3.94078 12.8628 3.67434 12.6624 3.48047 12.3818C3.2846 12.0983 3.19631 11.7837 3.2627 11.5537L3.11914 11.5117L3.26367 11.5537L3.26562 11.543C3.2791 11.4785 3.31109 11.4189 3.35742 11.3721C3.40382 11.3253 3.46296 11.2924 3.52734 11.2783C3.59176 11.2643 3.65899 11.2698 3.7207 11.293ZM13.3223 2.53906C13.1254 2.51295 12.9251 2.53555 12.7393 2.60547C12.5533 2.67547 12.3877 2.79088 12.2568 2.94043C12.1272 3.08864 12.0363 3.2664 11.9912 3.45801C11.8445 3.98475 12.0368 4.58759 12.376 5.05078C12.7155 5.51425 13.2322 5.87896 13.7812 5.8877H13.7871C14.3363 5.87326 14.849 5.51006 15.1865 5.04785C15.5231 4.58691 15.7136 3.98913 15.5742 3.46289H15.5752C15.53 3.26931 15.4368 3.08983 15.3057 2.94043C15.1746 2.79121 15.0091 2.67635 14.8232 2.60645C14.6372 2.53651 14.4363 2.513 14.2393 2.53906C14.0764 2.5606 13.9208 2.61656 13.7803 2.7002C13.6401 2.6166 13.4847 2.56066 13.3223 2.53906ZM13.2832 3.41016C13.3447 3.43337 13.3984 3.47353 13.4375 3.52637V3.52734L13.4434 3.53418C13.4847 3.58333 13.5365 3.62328 13.5947 3.65039C13.6528 3.67743 13.7162 3.69136 13.7803 3.69141C13.8445 3.69141 13.9086 3.6775 13.9668 3.65039C14.0249 3.6233 14.0759 3.58323 14.1172 3.53418H14.1182L14.123 3.52734C14.1625 3.47475 14.2167 3.43507 14.2783 3.41211C14.3399 3.3892 14.4065 3.38448 14.4707 3.39844C14.5351 3.41248 14.5941 3.44459 14.6406 3.49121C14.6639 3.51451 14.6836 3.54073 14.6992 3.56934L14.7334 3.66113L14.7354 3.66992C14.8029 3.91219 14.7025 4.25786 14.4844 4.55273C14.268 4.84508 13.9805 5.02751 13.7324 5.01855C13.5025 4.97974 13.2357 4.7803 13.042 4.5C12.8704 4.2517 12.7824 3.97906 12.8076 3.76074L12.8252 3.6709L12.8281 3.66016C12.8416 3.59555 12.8735 3.53613 12.9199 3.48926C12.9664 3.44241 13.0254 3.40957 13.0898 3.39551C13.1543 3.3815 13.2215 3.38692 13.2832 3.41016Z" fill="url(#paint0_linear_30_347)" stroke="#FFDBE3" stroke-width="0.3"/>
<defs>
<linearGradient id="paint0_linear_30_347" x1="1.125" y1="9" x2="16.875" y2="9" gradientUnits="userSpaceOnUse">
<stop stop-color="#FFA68D"/>
<stop offset="1" stop-color="#FD3A84"/>
</linearGradient>
</defs>
</svg>
