<svg xmlns="http://www.w3.org/2000/svg" width="16" height="16" fill="none" viewBox="0 0 16 16"><g clip-path="url(#clip0_143_3292)"><path fill="url(#paint0_linear_143_3292)" stroke="url(#paint1_linear_143_3292)" stroke-width=".175" d="M6.86914 0.938354C10.1487 0.938397 12.8232 3.48089 12.8232 6.61316C12.8232 9.74541 10.1487 12.2879 6.86914 12.288C5.75837 12.288 4.68464 11.9959 3.74707 11.4432L1.42676 12.2391C1.30937 12.2801 1.17243 12.2533 1.07812 12.1649V12.1639C0.98236 12.0758 0.944927 11.9429 0.976562 11.8192L0.977539 11.8163L1.69629 9.42957C1.18344 8.57362 0.912117 7.6023 0.912109 6.61316C0.912109 3.48082 3.58962 0.938354 6.86914 0.938354ZM6.86914 1.53796C3.91177 1.53796 1.51172 3.81988 1.51172 6.61316C1.51173 7.42147 1.71451 8.21327 2.10059 8.92566L2.27734 9.22644L2.30566 9.28503C2.32719 9.34482 2.32981 9.4104 2.31152 9.47253L2.31055 9.47351L1.69434 11.5126L3.68652 10.8309L3.68945 10.83C3.71707 10.8217 3.74979 10.8153 3.78223 10.8153C3.83629 10.8153 3.89174 10.8303 3.93945 10.8612C4.80907 11.4015 5.82202 11.6884 6.86914 11.6884C9.82641 11.6883 12.2236 9.40644 12.2236 6.61316C12.2236 3.81986 9.82643 1.53801 6.86914 1.53796Z"/><path fill="url(#paint2_linear_143_3292)" stroke="url(#paint3_linear_143_3292)" stroke-width=".175" d="M11.9727 4.7294C12.0597 4.58723 12.2454 4.54462 12.3867 4.6337L12.6953 4.83878C14.1982 5.90774 15.0878 7.58115 15.0879 9.38663C15.0879 10.3783 14.816 11.3479 14.3027 12.204L15.0205 14.5829L15.0215 14.5858C15.0554 14.7158 15.0188 14.8514 14.9209 14.9403C14.8261 15.0264 14.6913 15.0572 14.5693 15.0126V15.0116L12.252 14.2177C11.3146 14.7699 10.2412 15.0614 9.13086 15.0614C6.58276 15.0614 4.31669 13.5196 3.49414 11.2187C3.43875 11.0641 3.5194 10.8915 3.67676 10.8358L3.73535 10.8212C3.87261 10.8016 4.01077 10.88 4.05957 11.0175C4.79444 13.076 6.82918 14.4618 9.13086 14.4618C10.178 14.4618 11.19 14.175 12.0596 13.6347H12.0605C12.1359 13.5895 12.2296 13.576 12.3174 13.6073H12.3164L14.3066 14.288L13.6914 12.2489C13.6668 12.1657 13.6787 12.0764 13.7246 12.0028L13.7256 12.0019C14.2263 11.2152 14.4902 10.3104 14.4902 9.38663C14.4902 7.67281 13.586 6.08636 12.0684 5.14346V5.14249C11.9443 5.06629 11.896 4.91528 11.9453 4.78409L11.9727 4.7294Z"/><path fill="url(#paint4_linear_143_3292)" stroke="url(#paint5_linear_143_3292)" stroke-width=".175" d="M8.12207 3.5415C8.67686 3.5415 9.19846 3.75858 9.58887 4.14893C10.3975 4.95752 10.3972 6.27381 9.58887 7.08447L7.08008 9.59521H7.0791C7.01972 9.6545 6.94259 9.68203 6.86719 9.68213C6.79163 9.68213 6.7138 9.65465 6.6543 9.59521L4.14453 7.08447C3.33605 6.27599 3.33649 4.9606 4.14453 4.1499V4.14893C4.53722 3.75627 5.05882 3.5415 5.61133 3.5415C6.07146 3.54155 6.50651 3.6916 6.86621 3.96533C7.22601 3.69129 7.66168 3.54157 8.12207 3.5415ZM8.125 4.14111C7.73043 4.14111 7.36088 4.294 7.08203 4.57275C6.9694 4.68538 6.77224 4.68577 6.65918 4.57373L6.54883 4.4751C6.28415 4.25981 5.95822 4.14111 5.61328 4.14111C5.21864 4.14112 4.84917 4.2939 4.57031 4.57275C4.29148 4.85161 4.13867 5.22109 4.13867 5.61572C4.13869 6.01035 4.29146 6.37984 4.57031 6.65869L6.86816 8.95654L9.16699 6.65869C9.44584 6.37984 9.59861 6.01035 9.59863 5.61572C9.59863 5.22107 9.44586 4.85162 9.16699 4.57275C8.88825 4.29414 8.51938 4.14122 8.125 4.14111Z"/></g><defs><linearGradient id="paint0_linear_143_3292" x1="1" x2="12.736" y1="6.613" y2="6.613" gradientUnits="userSpaceOnUse"><stop stop-color="#FFA18D"/><stop offset="1" stop-color="#FD3E84"/></linearGradient><linearGradient id="paint1_linear_143_3292" x1="1" x2="12.736" y1="6.613" y2="6.613" gradientUnits="userSpaceOnUse"><stop stop-color="#FFA18D"/><stop offset="1" stop-color="#FD3E84"/></linearGradient><linearGradient id="paint2_linear_143_3292" x1="3.564" x2="15" y1="9.824" y2="9.824" gradientUnits="userSpaceOnUse"><stop stop-color="#FFA18D"/><stop offset="1" stop-color="#FD3E84"/></linearGradient><linearGradient id="paint3_linear_143_3292" x1="3.564" x2="15" y1="9.824" y2="9.824" gradientUnits="userSpaceOnUse"><stop stop-color="#FFA18D"/><stop offset="1" stop-color="#FD3E84"/></linearGradient><linearGradient id="paint4_linear_143_3292" x1="3.626" x2="10.107" y1="6.612" y2="6.612" gradientUnits="userSpaceOnUse"><stop stop-color="#FFA18D"/><stop offset="1" stop-color="#FD3E84"/></linearGradient><linearGradient id="paint5_linear_143_3292" x1="3.626" x2="10.107" y1="6.612" y2="6.612" gradientUnits="userSpaceOnUse"><stop stop-color="#FFA18D"/><stop offset="1" stop-color="#FD3E84"/></linearGradient><clipPath id="clip0_143_3292"><rect width="16" height="16" fill="#fff"/></clipPath></defs></svg>