<svg width="16" height="16" viewBox="0 0 16 16" fill="none" xmlns="http://www.w3.org/2000/svg">
<path d="M8 15.875C12.3492 15.875 15.875 12.3492 15.875 8C15.875 3.65076 12.3492 0.125 8 0.125C3.65076 0.125 0.125 3.65076 0.125 8C0.125 12.3492 3.65076 15.875 8 15.875Z" fill="url(#paint0_linear_29_310)"/>
<path d="M8 0.275391C12.2664 0.275391 15.7246 3.7336 15.7246 8C15.7246 12.2664 12.2664 15.7246 8 15.7246C3.7336 15.7246 0.275391 12.2664 0.275391 8C0.275391 3.7336 3.7336 0.275391 8 0.275391Z" stroke="#FFDBE3" stroke-opacity="0.9" stroke-width="0.3"/>
<path d="M10.0455 4.37054C9.14742 4.37054 8.45865 4.87539 8 5.62667C7.54127 4.87525 6.85245 4.37054 5.95455 4.37054C5.25879 4.37054 4.62396 4.66422 4.16706 5.19745C3.73692 5.69952 3.5 6.36999 3.5 7.08541C3.5 7.86331 3.79176 8.58246 4.41816 9.34866C4.96738 10.0204 5.75584 10.7115 6.66882 11.5117C7.00635 11.8076 7.35538 12.1135 7.72632 12.4474C7.80413 12.5174 7.90206 12.5524 8 12.5524C8.09794 12.5524 8.19587 12.5174 8.27368 12.4473C8.64462 12.1135 8.99363 11.8076 9.33118 11.5117C10.2442 10.7115 11.0326 10.0204 11.5818 9.34864C12.2082 8.58249 12.5 7.86331 12.5 7.08541C12.5 5.62258 11.4978 4.37054 10.0455 4.37054Z" fill="url(#paint1_linear_29_310)"/>
<defs>
<linearGradient id="paint0_linear_29_310" x1="8" y1="15.875" x2="8" y2="0.125" gradientUnits="userSpaceOnUse">
<stop stop-color="#FD3A84"/>
<stop offset="1" stop-color="#FFA68D"/>
</linearGradient>
<linearGradient id="paint1_linear_29_310" x1="8" y1="12.5524" x2="8" y2="4.37054" gradientUnits="userSpaceOnUse">
<stop stop-color="#FFC2CC"/>
<stop offset="1" stop-color="#FFF2F4"/>
</linearGradient>
</defs>
</svg>
