<svg width="16" height="16" viewBox="0 0 16 16" fill="none" xmlns="http://www.w3.org/2000/svg">
<g clip-path="url(#clip0_143_3395)">
<path d="M11.5446 0.567047C13.77 0.567133 15.4331 2.44966 15.4332 4.91666C15.4332 7.01127 14.1397 8.6261 11.9586 10.6432C11.9686 10.7099 11.9798 10.7773 11.9869 10.8454C12.2089 12.9515 10.9252 14.84 8.97131 15.3131L8.77991 15.3551C8.15375 15.4764 7.50799 15.4562 6.89026 15.2975C6.27302 15.1389 5.69853 14.8457 5.20862 14.4381C4.7568 14.0749 4.39151 13.6158 4.13831 13.0944C3.88504 12.5728 3.75066 12.0013 3.74475 11.4215V11.4206C3.74613 11.0955 3.77727 10.7713 3.83655 10.4518C1.8339 8.57493 0.567017 6.96482 0.567017 4.91666C0.567166 2.4496 2.23016 0.567047 4.45569 0.567047C6.36535 0.567123 7.49928 1.81779 7.99963 2.54654C8.4999 1.81782 9.63453 0.567047 11.5446 0.567047ZM7.47815 11.071C7.14078 11.5896 6.63352 12.5184 6.63342 13.4049C6.63783 13.7564 6.77886 14.0924 7.02698 14.3415C7.2754 14.5906 7.61169 14.7325 7.9635 14.7379C8.00922 14.7379 8.05522 14.7367 8.10315 14.735L8.22913 14.7213C8.52086 14.6749 8.7907 14.5339 8.99573 14.318C9.22988 14.0713 9.3627 13.745 9.36682 13.4049L9.36194 13.2878C9.34195 13.0237 9.25391 12.8246 9.12073 12.6501C8.96558 12.4467 8.74883 12.2753 8.49182 12.0739L8.34045 11.9606C8.0129 11.706 7.72312 11.4062 7.47815 11.071ZM8.14221 5.73306C6.82517 6.75116 6.06925 8.17725 5.89905 9.98404L5.90002 9.98502C5.89396 10.052 5.86767 10.116 5.82581 10.1686C5.78438 10.2206 5.72869 10.2588 5.66565 10.2799L5.66663 10.2809H5.6637H5.66272C5.46127 10.3533 5.24139 10.3578 5.03772 10.2917C4.88645 10.2424 4.75143 10.1559 4.64221 10.0426C4.51065 10.4907 4.43796 10.9541 4.43323 11.4215C4.43936 11.8987 4.55115 12.3686 4.76038 12.7975C4.94377 13.1734 5.19776 13.5104 5.50842 13.7887L5.64514 13.904L5.64612 13.9049C5.797 14.0285 5.95838 14.138 6.12659 14.236C6.00754 13.9765 5.9439 13.6932 5.94397 13.4049C5.94407 12.2899 6.57621 11.1816 6.94495 10.6286C7.00316 10.5408 7.08164 10.4684 7.17444 10.4186C7.26716 10.3689 7.371 10.3434 7.4762 10.3434H7.47913C7.58428 10.3436 7.68846 10.3694 7.78088 10.4196C7.87175 10.4689 7.94832 10.5405 8.00549 10.6266H8.00647C8.19312 10.8876 8.41174 11.124 8.65686 11.3297L8.91077 11.5251L8.91467 11.528L9.11877 11.6911C9.59566 12.0789 10.0552 12.5446 10.0553 13.4049C10.055 13.651 10.0077 13.8934 9.91956 14.1208C10.3625 13.7956 10.7247 13.3701 10.9703 12.8747C11.2704 12.2693 11.3857 11.5891 11.3024 10.9186V10.9167C11.2275 10.2019 10.9833 9.51552 10.5924 8.91275C10.4747 9.09684 10.2803 9.35864 10.0524 9.58365C9.85081 9.78261 9.60991 9.9677 9.36584 10.0319L9.26135 10.0514C9.21596 10.0564 9.16943 10.0526 9.12561 10.0397C9.08192 10.0268 9.04092 10.0049 9.00549 9.97623C7.4747 8.7312 7.8805 6.92326 8.13245 5.78091L8.14221 5.73306ZM11.5446 1.25552C10.4443 1.25552 9.64721 1.75782 9.1178 2.27505C8.72007 2.66364 8.47568 3.05845 8.37073 3.24771L8.31213 3.36099C8.28416 3.41978 8.23925 3.46978 8.1842 3.50455C8.12923 3.53918 8.06559 3.55728 8.00061 3.55728C7.93562 3.55727 7.87199 3.53921 7.81702 3.50455C7.76197 3.46978 7.71804 3.41978 7.69006 3.36099V3.36197C7.67074 3.32223 7.41277 2.79304 6.88245 2.27505C6.35287 1.75784 5.5559 1.25558 4.45569 1.25552C2.6407 1.25552 1.25564 2.81486 1.25549 4.91666C1.25549 6.61892 2.24905 7.98043 4.02991 9.68423L4.03088 9.68228C4.06461 9.57715 4.12639 9.48338 4.20959 9.4108C4.29293 9.33811 4.39461 9.28925 4.50354 9.27017C4.61239 9.25115 4.72475 9.2624 4.82776 9.3024C4.90494 9.33243 4.97523 9.37749 5.03381 9.43521L5.0885 9.49771L5.09436 9.50552L5.13928 9.56314C5.15674 9.58017 5.17669 9.59465 5.19788 9.60709C5.21359 9.61631 5.23069 9.62235 5.24768 9.62857C5.47198 7.87695 6.22018 6.44984 7.47717 5.38443L7.74084 5.17154C7.85018 5.08684 7.98352 5.03805 8.1217 5.03189C8.25998 5.02582 8.39686 5.06254 8.51331 5.13736H8.51233C8.63316 5.21356 8.72749 5.32558 8.78186 5.45767C8.83616 5.58971 8.8482 5.73557 8.81604 5.87466L8.80432 5.92935C8.5577 7.04884 8.27852 8.35201 9.29163 9.30923C9.58617 9.10499 9.83491 8.84159 10.0182 8.53287L10.0201 8.53091C10.0805 8.43484 10.1634 8.35498 10.2623 8.29947C10.3608 8.24428 10.4718 8.21423 10.5846 8.21255C10.6972 8.20918 10.8091 8.23546 10.9088 8.28775C11.008 8.33979 11.0918 8.41656 11.153 8.51041H11.1539C11.4286 8.92804 11.64 9.38388 11.7838 9.86197C13.6836 8.06837 14.7448 6.6509 14.7448 4.91666C14.7446 2.81492 13.3595 1.25561 11.5446 1.25552Z" fill="url(#paint0_linear_143_3395)" stroke="url(#paint1_linear_143_3395)" stroke-width="0.2"/>
</g>
<defs>
<linearGradient id="paint0_linear_143_3395" x1="0.666626" y1="7.99999" x2="15.3333" y2="7.99999" gradientUnits="userSpaceOnUse">
<stop stop-color="#FFA18D"/>
<stop offset="1" stop-color="#FD3E84"/>
</linearGradient>
<linearGradient id="paint1_linear_143_3395" x1="0.666626" y1="7.99999" x2="15.3333" y2="7.99999" gradientUnits="userSpaceOnUse">
<stop stop-color="#FFA18D"/>
<stop offset="1" stop-color="#FD3E84"/>
</linearGradient>
<clipPath id="clip0_143_3395">
<rect width="16" height="16" fill="white"/>
</clipPath>
</defs>
</svg>
