<svg xmlns="http://www.w3.org/2000/svg" width="18" height="18" fill="none" viewBox="0 0 18 18"><path fill="url(#paint0_linear_30_342)" stroke="#FFDBE3" stroke-width=".3" d="M12.3379 9.60547C13.3494 8.62234 15.0502 8.79351 15.8398 10.0039C16.6448 11.2897 16.3261 12.9469 15.4551 14.3145C14.5826 15.6843 13.1967 16.6964 11.96 16.7236C11.3494 16.716 10.6957 16.4638 10.0801 16.0342C9.46467 15.6047 8.8963 15.0049 8.45898 14.3223C7.57986 12.95 7.25379 11.2855 8.06543 10.002C8.82194 8.83559 10.4548 8.63718 11.4697 9.5166L11.5664 9.60547L11.5693 9.6084C11.6641 9.69525 11.7522 9.79036 11.835 9.89453L11.9521 10.043L12.0703 9.89453C12.1522 9.79157 12.2429 9.69605 12.3369 9.60742L12.3379 9.60547ZM2.39062 1.27539H11.3896C11.7708 1.27539 12.084 1.58751 12.084 1.96875V8.70312C12.0396 8.7346 11.996 8.76651 11.9541 8.7998C10.5917 7.68632 8.50451 7.94525 7.45312 9.375L7.35449 9.5166C6.74556 10.3941 6.66547 11.3819 6.78613 12.2461C6.90669 13.1094 7.22908 13.8619 7.44238 14.2871L7.44531 14.293C7.47698 14.3494 7.51318 14.4105 7.54785 14.4746H2.39062C2.00944 14.4746 1.69727 14.1625 1.69727 13.7812V1.96875C1.69727 1.58751 2.00944 1.27539 2.39062 1.27539ZM13.9297 10.0674C13.7967 10.0694 13.6867 10.123 13.6113 10.209C13.5383 10.2924 13.5048 10.3985 13.5049 10.5C13.505 10.6015 13.5381 10.7079 13.6113 10.791C13.6857 10.8753 13.794 10.9267 13.9238 10.9297C14.0542 10.9381 14.1572 11.0113 14.2305 11.1367C14.3057 11.2656 14.3442 11.4437 14.334 11.6299V11.6328C14.3249 11.8769 14.5241 12.0785 14.7666 12.0752L14.7656 12.0742C14.999 12.0737 15.1868 11.8882 15.1953 11.6572C15.2426 10.8821 14.7455 10.0763 13.9336 10.0674H13.9297ZM5.22266 5.5293C5.10825 5.52156 4.99238 5.56252 4.89746 5.65625L4.89648 5.65723L4.19043 6.36523L3.82129 5.99414L3.75391 5.93945C3.58628 5.82875 3.35733 5.84693 3.20996 5.99414C3.04172 6.16239 3.04176 6.4372 3.20996 6.60547L3.88477 7.28027V7.28125L3.88574 7.28223C4.05543 7.44722 4.32545 7.44716 4.49512 7.28223L4.49609 7.28027L5.50879 6.26855L5.50977 6.26758C5.60341 6.17255 5.64354 6.05684 5.63574 5.94238C5.62816 5.83181 5.57659 5.7329 5.50488 5.66113C5.43293 5.58932 5.33335 5.53683 5.22266 5.5293ZM6.79785 6.03711C6.56033 6.03711 6.36622 6.23124 6.36621 6.46875C6.36621 6.70627 6.56033 6.90039 6.79785 6.90039H10.2646C10.5022 6.90039 10.6963 6.70627 10.6963 6.46875C10.6963 6.23124 10.5022 6.03711 10.2646 6.03711H6.79785ZM5.22266 2.94141C5.10825 2.93368 4.99238 2.97464 4.89746 3.06836L4.89648 3.06934L4.19043 3.77734L3.82129 3.40723L3.75391 3.35156C3.58623 3.24094 3.35727 3.25991 3.20996 3.40723C3.04184 3.5755 3.04177 3.85032 3.20996 4.01855L3.88574 4.69434C4.05543 4.85933 4.32545 4.85927 4.49512 4.69434L5.50977 3.67969C5.60332 3.58464 5.64359 3.46894 5.63574 3.35449C5.6281 3.2439 5.57665 3.14499 5.50488 3.07324C5.43294 3.00143 5.33335 2.94894 5.22266 2.94141ZM6.79492 3.4502C6.66232 3.45276 6.55187 3.50506 6.47656 3.59082C6.40351 3.67402 6.36994 3.78041 6.37012 3.88184C6.37033 3.9832 6.40458 4.08897 6.47754 4.17188C6.53405 4.23605 6.60985 4.28197 6.7002 4.30176L6.79492 4.3125H10.2676C10.4001 4.30994 10.5106 4.25758 10.5859 4.17188C10.659 4.08868 10.6926 3.98229 10.6924 3.88086C10.6922 3.77945 10.6579 3.67377 10.585 3.59082C10.5097 3.50531 10.3999 3.45262 10.2676 3.4502H6.79492Z"/><defs><linearGradient id="paint0_linear_30_342" x1="1.547" x2="16.453" y1="9" y2="9" gradientUnits="userSpaceOnUse"><stop stop-color="#FFA68D"/><stop offset="1" stop-color="#FD3A84"/></linearGradient></defs></svg>