<svg width="18" height="18" viewBox="0 0 18 18" fill="none" xmlns="http://www.w3.org/2000/svg">
<mask id="path-1-inside-1_30_337" fill="white">
<path d="M6.52747 12.8422C6.89816 13.2865 7.25043 13.6861 7.58167 14.0462C7.50104 14.5246 7.46707 15.1606 7.14266 15.5342C7.10035 15.5867 7.04407 15.6262 6.9803 15.6482C6.91653 15.6701 6.84787 15.6736 6.78221 15.6582C6.71656 15.6428 6.65658 15.6092 6.60919 15.5612C6.5618 15.5132 6.52892 15.4529 6.51434 15.387C6.37263 14.5443 6.37707 13.6834 6.52747 12.8422ZM8.03911 14.5274C8.00918 14.933 7.88784 15.3267 7.6842 15.6788C7.65956 16.0004 7.59511 16.4112 7.76046 16.7068C7.77432 16.7558 7.804 16.7989 7.84489 16.8293C7.88578 16.8598 7.93558 16.8758 7.98654 16.875C8.33176 16.8807 8.35714 16.471 8.44396 16.2309C8.55335 15.8712 8.61868 15.4996 8.63852 15.1241C8.44923 14.9401 8.2468 14.7429 8.03911 14.5274ZM8.9461 16.3834L8.91192 16.4991C9.11432 16.5535 9.32873 16.5424 9.52447 16.4675C9.65504 16.4055 9.76136 16.302 9.82679 16.1731C9.61647 16.0048 9.3825 15.805 9.12487 15.5737C9.08737 15.848 9.02758 16.1188 8.9461 16.3834ZM14.9401 11.8064L14.6588 12.1534L12.4295 9.37464C12.3854 9.3217 12.3224 9.28817 12.2539 9.28125C12.1853 9.27433 12.1169 9.29458 12.0631 9.33764C12.0094 9.38069 11.9747 9.44312 11.9665 9.51149C11.9583 9.57986 11.9773 9.64871 12.0194 9.70324L14.3591 12.6214L14.0515 13.4968C13.965 13.7024 13.8136 13.8742 13.6204 13.9858L10.9415 10.7233C10.8967 10.6708 10.8332 10.6379 10.7645 10.6318C10.6958 10.6256 10.6274 10.6467 10.574 10.6904C10.5207 10.7341 10.4866 10.797 10.4791 10.8656C10.4716 10.9342 10.4913 11.003 10.534 11.0572L13.2839 14.4064C13.2354 14.5928 13.1402 14.7638 13.0072 14.9032C12.8743 15.0426 12.708 15.1458 12.5241 15.203C12.1271 14.9085 10.463 13.6256 9.52974 12.0457C9.49349 11.9871 9.43573 11.9451 9.36886 11.9287C9.302 11.9123 9.23136 11.9228 9.17214 11.9579C9.11292 11.9931 9.06984 12.05 9.05216 12.1165C9.03447 12.1831 9.04359 12.2539 9.07756 12.3138C9.95825 13.8097 11.4068 15.0137 12.022 15.4843L11.5829 15.8129C10.5869 16.495 9.8801 15.5092 9.09858 14.835C8.19914 13.9731 7.35862 13.0517 6.58268 12.0772C6.17782 11.5777 5.75631 11.0247 5.31816 10.4183C5.29813 10.39 5.27267 10.3658 5.24325 10.3474C5.21384 10.3289 5.18105 10.3164 5.14678 10.3107C5.11252 10.305 5.07746 10.3061 5.04364 10.314C5.00982 10.322 4.9779 10.3365 4.94974 10.3568C4.92158 10.3772 4.89773 10.4029 4.87958 10.4325C4.86143 10.4621 4.84933 10.4951 4.84398 10.5294C4.83864 10.5637 4.84016 10.5988 4.84844 10.6325C4.85673 10.6662 4.87163 10.698 4.89228 10.7259C5.30764 11.3017 5.70724 11.8274 6.09107 12.3085C6.05426 12.482 5.99117 12.8159 5.94385 13.2313L5.53374 13.1077C5.23589 13.0186 4.96883 12.848 4.76262 12.6153C4.55641 12.3827 4.41922 12.097 4.36649 11.7906C4.24225 10.9467 4.20612 10.092 4.25869 9.24056C4.27848 8.79902 4.14471 8.36426 3.88013 8.01022L1.52197 5.32606L4.85284 1.67972L7.75519 4.19823C7.77359 4.21139 7.79199 4.22453 7.8104 4.23504L7.94974 4.30339C7.62885 4.61836 7.40138 5.01598 7.29251 5.45223L6.66943 7.93659C6.56076 8.36597 6.58646 8.81835 6.74305 9.23266C6.97318 9.88623 7.07581 10.5779 7.04539 11.2701C7.04399 11.3494 7.06025 11.4281 7.09298 11.5004C7.12572 11.5727 7.17412 11.6368 7.23467 11.6881C7.29506 11.7418 7.36713 11.7807 7.44516 11.8017C7.5232 11.8227 7.60505 11.8252 7.68423 11.809C8.18417 11.7195 8.62939 11.4383 8.92501 11.0253C9.22064 10.6123 9.34329 10.1002 9.26684 9.59809C9.22754 9.36774 9.1641 9.14217 9.07758 8.9251C9.00744 8.76679 8.9721 8.59527 8.97395 8.42212C8.97581 8.24898 9.01482 8.07825 9.08834 7.92148C9.16186 7.76471 9.26818 7.62555 9.40012 7.51341C9.53206 7.40127 9.68653 7.31876 9.8531 7.27147L11.9405 6.41442C12.712 7.04111 14.6451 8.7429 15.0715 10.4919C15.0995 10.888 15.2555 11.481 14.9401 11.8064ZM13.531 8.73317C13.2031 8.32935 12.8501 7.94652 12.4742 7.58696C12.4239 7.53908 12.3567 7.51308 12.2873 7.51465C12.218 7.51622 12.152 7.54525 12.104 7.59535C12.056 7.64546 12.0298 7.71257 12.0312 7.78196C12.0325 7.85135 12.0614 7.91736 12.1114 7.96552C12.4704 8.31127 12.8084 8.67823 13.1235 9.06441C13.1452 9.09116 13.1721 9.11337 13.2024 9.12977C13.2327 9.14616 13.266 9.15642 13.3003 9.15996C13.3346 9.1635 13.3692 9.16025 13.4023 9.1504C13.4353 9.14054 13.4661 9.12427 13.4929 9.10252C13.5196 9.08077 13.5418 9.05397 13.5582 9.02363C13.5746 8.9933 13.5849 8.96003 13.5884 8.92573C13.592 8.89144 13.5887 8.85678 13.5788 8.82373C13.569 8.79069 13.5527 8.75993 13.531 8.73317ZM16.478 2.63403C16.1425 3.03539 15.0985 4.27626 14.7482 4.69247C14.7051 4.74601 14.6846 4.81432 14.6912 4.88276C14.6978 4.95121 14.7309 5.01435 14.7835 5.05868C14.8361 5.103 14.9039 5.12499 14.9725 5.11993C15.041 5.11488 15.1049 5.08318 15.1504 5.03162L15.7419 4.32967C15.6384 4.73874 15.5863 5.15911 15.5868 5.58106L15.7971 7.51859C15.7869 7.73727 15.7389 7.95252 15.6552 8.15481L15.1688 9.3089C14.472 8.11521 13.5654 7.05716 12.4925 6.18571C12.7309 6.12056 12.946 5.98932 13.113 5.80714L13.7834 4.95275C13.8248 4.89752 13.843 4.82826 13.834 4.75981C13.8249 4.69135 13.7895 4.62915 13.7352 4.58652C13.6809 4.54389 13.612 4.52423 13.5434 4.53175C13.4747 4.53927 13.4118 4.57337 13.368 4.62675L12.6976 5.48115C12.6597 5.53149 12.6088 5.57056 12.5504 5.59416C12.0294 5.85023 9.32953 6.79659 8.96451 7.20837C8.71485 7.45145 8.54534 7.76494 8.47863 8.10695C8.41192 8.44895 8.4512 8.80317 8.5912 9.12225C8.66202 9.30398 8.714 9.4925 8.74631 9.68484C8.80213 10.0526 8.70974 10.4275 8.48941 10.7271C8.26909 11.0268 7.93884 11.2268 7.57118 11.2832C7.604 10.5237 7.48973 9.76488 7.23467 9.04864C7.11688 8.73411 7.09763 8.39117 7.17946 8.06542L7.80253 5.58107C7.92471 5.09295 8.23084 4.67095 8.65694 4.40331L11.2753 2.76284C11.3023 2.74685 11.3256 2.72535 11.3437 2.69975L12.5504 1.125L16.478 2.63403ZM14.8639 2.87062L14.2382 3.52259C14.214 3.54741 14.195 3.57676 14.1822 3.60896C14.1694 3.64116 14.163 3.67557 14.1636 3.71021C14.1641 3.74485 14.1715 3.77905 14.1853 3.81084C14.1991 3.84263 14.219 3.87138 14.2439 3.89544C14.2688 3.9195 14.2983 3.93841 14.3305 3.95106C14.3628 3.96372 14.3972 3.96988 14.4319 3.96919C14.4665 3.9685 14.5007 3.96097 14.5324 3.94705C14.5641 3.93312 14.5928 3.91306 14.6167 3.88802L15.2424 3.23342C15.289 3.18294 15.314 3.11619 15.3119 3.04752C15.3098 2.97884 15.2808 2.91374 15.2312 2.8662C15.1816 2.81866 15.1153 2.79249 15.0466 2.79332C14.9779 2.79415 14.9123 2.8219 14.8639 2.87062Z"/>
</mask>
<path d="M6.52747 12.8422C6.89816 13.2865 7.25043 13.6861 7.58167 14.0462C7.50104 14.5246 7.46707 15.1606 7.14266 15.5342C7.10035 15.5867 7.04407 15.6262 6.9803 15.6482C6.91653 15.6701 6.84787 15.6736 6.78221 15.6582C6.71656 15.6428 6.65658 15.6092 6.60919 15.5612C6.5618 15.5132 6.52892 15.4529 6.51434 15.387C6.37263 14.5443 6.37707 13.6834 6.52747 12.8422ZM8.03911 14.5274C8.00918 14.933 7.88784 15.3267 7.6842 15.6788C7.65956 16.0004 7.59511 16.4112 7.76046 16.7068C7.77432 16.7558 7.804 16.7989 7.84489 16.8293C7.88578 16.8598 7.93558 16.8758 7.98654 16.875C8.33176 16.8807 8.35714 16.471 8.44396 16.2309C8.55335 15.8712 8.61868 15.4996 8.63852 15.1241C8.44923 14.9401 8.2468 14.7429 8.03911 14.5274ZM8.9461 16.3834L8.91192 16.4991C9.11432 16.5535 9.32873 16.5424 9.52447 16.4675C9.65504 16.4055 9.76136 16.302 9.82679 16.1731C9.61647 16.0048 9.3825 15.805 9.12487 15.5737C9.08737 15.848 9.02758 16.1188 8.9461 16.3834ZM14.9401 11.8064L14.6588 12.1534L12.4295 9.37464C12.3854 9.3217 12.3224 9.28817 12.2539 9.28125C12.1853 9.27433 12.1169 9.29458 12.0631 9.33764C12.0094 9.38069 11.9747 9.44312 11.9665 9.51149C11.9583 9.57986 11.9773 9.64871 12.0194 9.70324L14.3591 12.6214L14.0515 13.4968C13.965 13.7024 13.8136 13.8742 13.6204 13.9858L10.9415 10.7233C10.8967 10.6708 10.8332 10.6379 10.7645 10.6318C10.6958 10.6256 10.6274 10.6467 10.574 10.6904C10.5207 10.7341 10.4866 10.797 10.4791 10.8656C10.4716 10.9342 10.4913 11.003 10.534 11.0572L13.2839 14.4064C13.2354 14.5928 13.1402 14.7638 13.0072 14.9032C12.8743 15.0426 12.708 15.1458 12.5241 15.203C12.1271 14.9085 10.463 13.6256 9.52974 12.0457C9.49349 11.9871 9.43573 11.9451 9.36886 11.9287C9.302 11.9123 9.23136 11.9228 9.17214 11.9579C9.11292 11.9931 9.06984 12.05 9.05216 12.1165C9.03447 12.1831 9.04359 12.2539 9.07756 12.3138C9.95825 13.8097 11.4068 15.0137 12.022 15.4843L11.5829 15.8129C10.5869 16.495 9.8801 15.5092 9.09858 14.835C8.19914 13.9731 7.35862 13.0517 6.58268 12.0772C6.17782 11.5777 5.75631 11.0247 5.31816 10.4183C5.29813 10.39 5.27267 10.3658 5.24325 10.3474C5.21384 10.3289 5.18105 10.3164 5.14678 10.3107C5.11252 10.305 5.07746 10.3061 5.04364 10.314C5.00982 10.322 4.9779 10.3365 4.94974 10.3568C4.92158 10.3772 4.89773 10.4029 4.87958 10.4325C4.86143 10.4621 4.84933 10.4951 4.84398 10.5294C4.83864 10.5637 4.84016 10.5988 4.84844 10.6325C4.85673 10.6662 4.87163 10.698 4.89228 10.7259C5.30764 11.3017 5.70724 11.8274 6.09107 12.3085C6.05426 12.482 5.99117 12.8159 5.94385 13.2313L5.53374 13.1077C5.23589 13.0186 4.96883 12.848 4.76262 12.6153C4.55641 12.3827 4.41922 12.097 4.36649 11.7906C4.24225 10.9467 4.20612 10.092 4.25869 9.24056C4.27848 8.79902 4.14471 8.36426 3.88013 8.01022L1.52197 5.32606L4.85284 1.67972L7.75519 4.19823C7.77359 4.21139 7.79199 4.22453 7.8104 4.23504L7.94974 4.30339C7.62885 4.61836 7.40138 5.01598 7.29251 5.45223L6.66943 7.93659C6.56076 8.36597 6.58646 8.81835 6.74305 9.23266C6.97318 9.88623 7.07581 10.5779 7.04539 11.2701C7.04399 11.3494 7.06025 11.4281 7.09298 11.5004C7.12572 11.5727 7.17412 11.6368 7.23467 11.6881C7.29506 11.7418 7.36713 11.7807 7.44516 11.8017C7.5232 11.8227 7.60505 11.8252 7.68423 11.809C8.18417 11.7195 8.62939 11.4383 8.92501 11.0253C9.22064 10.6123 9.34329 10.1002 9.26684 9.59809C9.22754 9.36774 9.1641 9.14217 9.07758 8.9251C9.00744 8.76679 8.9721 8.59527 8.97395 8.42212C8.97581 8.24898 9.01482 8.07825 9.08834 7.92148C9.16186 7.76471 9.26818 7.62555 9.40012 7.51341C9.53206 7.40127 9.68653 7.31876 9.8531 7.27147L11.9405 6.41442C12.712 7.04111 14.6451 8.7429 15.0715 10.4919C15.0995 10.888 15.2555 11.481 14.9401 11.8064ZM13.531 8.73317C13.2031 8.32935 12.8501 7.94652 12.4742 7.58696C12.4239 7.53908 12.3567 7.51308 12.2873 7.51465C12.218 7.51622 12.152 7.54525 12.104 7.59535C12.056 7.64546 12.0298 7.71257 12.0312 7.78196C12.0325 7.85135 12.0614 7.91736 12.1114 7.96552C12.4704 8.31127 12.8084 8.67823 13.1235 9.06441C13.1452 9.09116 13.1721 9.11337 13.2024 9.12977C13.2327 9.14616 13.266 9.15642 13.3003 9.15996C13.3346 9.1635 13.3692 9.16025 13.4023 9.1504C13.4353 9.14054 13.4661 9.12427 13.4929 9.10252C13.5196 9.08077 13.5418 9.05397 13.5582 9.02363C13.5746 8.9933 13.5849 8.96003 13.5884 8.92573C13.592 8.89144 13.5887 8.85678 13.5788 8.82373C13.569 8.79069 13.5527 8.75993 13.531 8.73317ZM16.478 2.63403C16.1425 3.03539 15.0985 4.27626 14.7482 4.69247C14.7051 4.74601 14.6846 4.81432 14.6912 4.88276C14.6978 4.95121 14.7309 5.01435 14.7835 5.05868C14.8361 5.103 14.9039 5.12499 14.9725 5.11993C15.041 5.11488 15.1049 5.08318 15.1504 5.03162L15.7419 4.32967C15.6384 4.73874 15.5863 5.15911 15.5868 5.58106L15.7971 7.51859C15.7869 7.73727 15.7389 7.95252 15.6552 8.15481L15.1688 9.3089C14.472 8.11521 13.5654 7.05716 12.4925 6.18571C12.7309 6.12056 12.946 5.98932 13.113 5.80714L13.7834 4.95275C13.8248 4.89752 13.843 4.82826 13.834 4.75981C13.8249 4.69135 13.7895 4.62915 13.7352 4.58652C13.6809 4.54389 13.612 4.52423 13.5434 4.53175C13.4747 4.53927 13.4118 4.57337 13.368 4.62675L12.6976 5.48115C12.6597 5.53149 12.6088 5.57056 12.5504 5.59416C12.0294 5.85023 9.32953 6.79659 8.96451 7.20837C8.71485 7.45145 8.54534 7.76494 8.47863 8.10695C8.41192 8.44895 8.4512 8.80317 8.5912 9.12225C8.66202 9.30398 8.714 9.4925 8.74631 9.68484C8.80213 10.0526 8.70974 10.4275 8.48941 10.7271C8.26909 11.0268 7.93884 11.2268 7.57118 11.2832C7.604 10.5237 7.48973 9.76488 7.23467 9.04864C7.11688 8.73411 7.09763 8.39117 7.17946 8.06542L7.80253 5.58107C7.92471 5.09295 8.23084 4.67095 8.65694 4.40331L11.2753 2.76284C11.3023 2.74685 11.3256 2.72535 11.3437 2.69975L12.5504 1.125L16.478 2.63403ZM14.8639 2.87062L14.2382 3.52259C14.214 3.54741 14.195 3.57676 14.1822 3.60896C14.1694 3.64116 14.163 3.67557 14.1636 3.71021C14.1641 3.74485 14.1715 3.77905 14.1853 3.81084C14.1991 3.84263 14.219 3.87138 14.2439 3.89544C14.2688 3.9195 14.2983 3.93841 14.3305 3.95106C14.3628 3.96372 14.3972 3.96988 14.4319 3.96919C14.4665 3.9685 14.5007 3.96097 14.5324 3.94705C14.5641 3.93312 14.5928 3.91306 14.6167 3.88802L15.2424 3.23342C15.289 3.18294 15.314 3.11619 15.3119 3.04752C15.3098 2.97884 15.2808 2.91374 15.2312 2.8662C15.1816 2.81866 15.1153 2.79249 15.0466 2.79332C14.9779 2.79415 14.9123 2.8219 14.8639 2.87062Z" fill="url(#paint0_linear_30_337)" stroke="#FFDBE3" stroke-width="0.4" mask="url(#path-1-inside-1_30_337)"/>
<defs>
<linearGradient id="paint0_linear_30_337" x1="1.52184" y1="9" x2="16.4782" y2="9" gradientUnits="userSpaceOnUse">
<stop stop-color="#FFA68D"/>
<stop offset="1" stop-color="#FD3A84"/>
</linearGradient>
</defs>
</svg>
