<svg xmlns="http://www.w3.org/2000/svg" width="16" height="16" fill="none" viewBox="0 0 16 16"><path fill="url(#paint0_linear_143_3408)" d="M12.6222 6.86566C12.6116 6.85792 12.6009 6.85405 12.5902 6.84631C12.4373 8.20847 11.5412 10.3523 7.99954 12.531C7.10938 11.9971 6.27483 11.36 5.5104 10.631C5.51007 10.9256 5.44933 11.2164 5.33261 11.4823C6.1083 12.1789 6.94431 12.7919 7.82886 13.3127C7.88065 13.3457 7.93956 13.363 7.99954 13.363C8.05953 13.363 8.11844 13.3457 8.17023 13.3127C12.5973 10.6503 13.3299 7.90276 13.3334 6.3858C13.1053 6.5609 12.8678 6.72114 12.6222 6.86566ZM3.41597 5.85564C3.4803 5.29411 3.70125 4.76753 4.04903 4.34685C4.39681 3.92616 4.85471 3.63159 5.36106 3.50282C5.48403 3.47653 5.6091 3.46356 5.73443 3.46412C6.49895 3.46412 7.19946 3.95945 7.69373 4.87272C7.72749 4.92722 7.77303 4.97187 7.82635 5.00274C7.87967 5.03361 7.93915 5.04975 7.99954 5.04975C8.05994 5.04975 8.11941 5.03361 8.17273 5.00274C8.22606 4.97187 8.2716 4.92722 8.30535 4.87272C8.87074 3.83175 9.70638 3.33255 10.5918 3.49508C10.6954 3.22061 10.8791 2.99082 11.1145 2.84108C11.0039 2.79583 10.8896 2.76214 10.7732 2.74047C10.2496 2.6427 9.71124 2.70819 9.22042 2.92938C8.7296 3.15057 8.30633 3.51842 7.99954 3.99041C7.69276 3.51842 7.26949 3.15057 6.77866 2.92938C6.28784 2.70819 5.74952 2.6427 5.22593 2.74047C4.57663 2.9007 3.98786 3.2731 3.53852 3.80775C3.08918 4.34239 2.80075 5.01374 2.7119 5.73181C2.60522 6.4632 2.60522 7.87567 3.66844 9.54742C3.8541 9.36266 4.09605 9.25927 4.34762 9.25718C3.33418 7.74797 3.32352 6.49416 3.41597 5.85564Z"/><path fill="url(#paint1_linear_143_3408)" d="M12.6668 7.36302C12.6029 7.36309 12.54 7.3478 12.4839 7.31858C10.0005 6.02357 9.93426 4.63386 10.0214 4.09644C10.0677 3.76585 10.2192 3.45682 10.4554 3.21112C10.6917 2.96541 11.0012 2.79486 11.3421 2.72253C11.5794 2.67808 11.8246 2.69038 12.0557 2.75832C12.2869 2.82627 12.4968 2.94776 12.6668 3.11197C12.8369 2.94779 13.0468 2.82632 13.278 2.75838C13.5091 2.69043 13.7542 2.67812 13.9915 2.72253C14.3325 2.79492 14.6419 2.96549 14.878 3.2112C15.1142 3.4569 15.2656 3.7659 15.312 4.09644C15.3991 4.63386 15.3328 6.02357 12.8494 7.31858C12.7934 7.34775 12.7306 7.36303 12.6668 7.36302ZM11.6263 3.42362C11.58 3.42369 11.5337 3.42803 11.4882 3.43658C11.3011 3.48019 11.1325 3.57743 11.005 3.71523C10.8775 3.85304 10.7972 4.02482 10.7749 4.20748C10.6506 4.97544 11.3548 5.8544 12.6668 6.58141C13.9789 5.8544 14.6831 4.97559 14.5588 4.20752C14.5365 4.02483 14.4562 3.85302 14.3286 3.71521C14.2011 3.57739 14.0324 3.48016 13.8453 3.43658C13.6717 3.41191 13.4945 3.44218 13.3408 3.52277C13.187 3.60336 13.065 3.72982 12.9936 3.88283C12.9572 3.93353 12.9085 3.975 12.8515 4.00366C12.7946 4.03231 12.7312 4.04729 12.6668 4.04729C12.6025 4.04729 12.5391 4.03231 12.4821 4.00366C12.4252 3.975 12.3764 3.93353 12.34 3.88283C12.2746 3.75263 12.174 3.64144 12.0486 3.56072C11.9231 3.48001 11.7773 3.43268 11.6263 3.42362Z"/><path fill="url(#paint2_linear_143_3408)" d="M3.33344 13.363C3.26958 13.3631 3.20674 13.3478 3.15067 13.3186C0.667153 12.0237 0.600906 10.634 0.688155 10.0966C0.7345 9.76603 0.885982 9.45705 1.12214 9.21135C1.35829 8.96566 1.66773 8.79509 2.00866 8.7227C2.24599 8.67807 2.4912 8.69028 2.72238 8.75823C2.95355 8.82619 3.1635 8.94777 3.33344 9.11212C3.50345 8.94786 3.7134 8.82633 3.94456 8.75838C4.17571 8.69043 4.42089 8.67817 4.65822 8.7227C4.99915 8.79509 5.3086 8.96566 5.54475 9.21135C5.7809 9.45705 5.93238 9.76603 5.97873 10.0966C6.06583 10.634 5.99958 12.0236 3.51606 13.3186C3.46004 13.3478 3.39725 13.363 3.33344 13.363ZM2.29305 9.42377C2.24669 9.42384 2.20044 9.42818 2.15496 9.43673C1.96782 9.4803 1.79913 9.57752 1.67157 9.71533C1.54401 9.85313 1.46368 10.0249 1.44138 10.2076C1.31708 10.9755 2.02132 11.8545 3.33344 12.5814C4.64557 11.8545 5.34981 10.9757 5.22551 10.2076C5.20322 10.0249 5.12289 9.85315 4.99533 9.71534C4.86776 9.57753 4.69907 9.4803 4.51193 9.43673C4.33841 9.4121 4.16122 9.44238 4.00743 9.52296C3.85363 9.60354 3.7317 9.72998 3.66025 9.88296C3.62387 9.93366 3.57509 9.97513 3.51815 10.0038C3.46121 10.0324 3.39781 10.0474 3.33344 10.0474C3.26908 10.0474 3.20568 10.0324 3.14873 10.0038C3.09179 9.97513 3.04302 9.93366 3.00663 9.88296C2.94118 9.75276 2.84056 9.64158 2.71513 9.56086C2.58971 9.48015 2.44401 9.43283 2.29305 9.42377Z"/><defs><linearGradient id="paint0_linear_143_3408" x1="2.667" x2="13.333" y1="8.03" y2="8.03" gradientUnits="userSpaceOnUse"><stop stop-color="#FFA18D"/><stop offset="1" stop-color="#FD3E84"/></linearGradient><linearGradient id="paint1_linear_143_3408" x1="10" x2="15.333" y1="5.03" y2="5.03" gradientUnits="userSpaceOnUse"><stop stop-color="#FFA18D"/><stop offset="1" stop-color="#FD3E84"/></linearGradient><linearGradient id="paint2_linear_143_3408" x1=".667" x2="6" y1="11.03" y2="11.03" gradientUnits="userSpaceOnUse"><stop stop-color="#FFA18D"/><stop offset="1" stop-color="#FD3E84"/></linearGradient></defs></svg>