<svg xmlns="http://www.w3.org/2000/svg" width="20" height="20" fill="none" viewBox="0 0 20 20"><path fill="url(#paint0_linear_39_403)" stroke="#FFDBE3" stroke-width=".3" d="M3.43262 13.1729L5.38574 17.0898L5.38672 17.0908C5.39655 17.1103 5.4256 17.1696 5.45508 17.2285L4.25586 17.7998L2.20117 13.6855L3.40234 13.1133L3.43262 13.1729ZM7.65527 11.6338C7.94864 11.4959 8.28577 11.4743 8.59473 11.5752L12.5088 12.8975V12.8984C12.6729 12.9552 12.8074 13.072 12.8838 13.2227C12.96 13.3731 12.9732 13.5464 12.9209 13.7061C12.8685 13.8659 12.7538 14.0011 12.6006 14.0811C12.4473 14.1609 12.2679 14.1789 12.1006 14.1318L12.0938 14.1299H12.0928C12.0853 14.1275 12.0738 14.1238 12.0596 14.1191C12.0311 14.1097 11.9902 14.0954 11.9385 14.0781C11.8351 14.0436 11.689 13.995 11.5146 13.9365C11.1658 13.8195 10.7035 13.6642 10.2412 13.5088C9.31952 13.1989 8.38942 12.886 8.36914 12.8799H8.36816C8.25768 12.846 8.13804 12.8554 8.03418 12.9062C7.92936 12.9576 7.84835 13.0479 7.80957 13.1582C7.77089 13.2685 7.77801 13.389 7.8291 13.4941C7.88029 13.5993 7.97111 13.6803 8.08105 13.7197L8.08984 13.7227L8.09863 13.7246C8.11837 13.729 8.19422 13.7529 8.3252 13.7969C8.4512 13.8392 8.61895 13.8964 8.81445 13.9639C9.20515 14.0987 9.70654 14.2727 10.2041 14.4414C10.7014 14.6101 11.1972 14.7749 11.5771 14.8896C11.7667 14.9469 11.9304 14.9925 12.0518 15.0205C12.1118 15.0344 12.1663 15.0451 12.21 15.0498C12.2312 15.0521 12.2557 15.0534 12.2793 15.0518C12.2866 15.0512 12.3034 15.0491 12.3242 15.043C12.6044 15.0372 12.8783 14.9603 13.1172 14.8154C13.3503 14.6741 13.5405 14.4746 13.6709 14.2383L16.8291 12.7666L16.8408 12.7607C16.9183 12.7162 17.0043 12.6872 17.0938 12.6758C17.1833 12.6643 17.2744 12.6706 17.3613 12.6943C17.4483 12.7181 17.5294 12.7586 17.5996 12.8135C17.6698 12.8683 17.7281 12.9359 17.7705 13.0127C17.8129 13.0895 17.8384 13.1741 17.8467 13.2607C17.8549 13.3473 17.8455 13.4346 17.8184 13.5176C17.7913 13.6005 17.7479 13.6778 17.6895 13.7441C17.631 13.8105 17.5584 13.8644 17.4775 13.9033L11.7861 16.585C11.5285 16.7058 11.237 16.7361 10.9609 16.6729L10.8438 16.6396L8.19727 15.751H8.19629C7.80501 15.6216 7.37735 15.6472 7.00488 15.8223L7.00391 15.8232L5.99902 16.3096L4.4375 13.1777L7.6543 11.6328L7.65527 11.6338ZM15.0547 2.15039C15.8918 2.15039 16.5205 2.57854 16.9502 3.0293C17.3763 3.47634 17.5946 3.9332 17.6113 3.9707V3.97168L17.6152 3.97949C17.6152 3.9795 17.6171 3.98188 17.6191 3.98633C17.6212 3.99079 17.6236 3.99709 17.627 4.00488C17.6338 4.02088 17.6426 4.04366 17.6533 4.07227C17.6747 4.12942 17.7027 4.21016 17.7295 4.31152C17.7832 4.51481 17.8344 4.79929 17.833 5.13672C17.8302 5.80762 17.6191 6.69749 16.7861 7.59473C15.5334 8.86972 14.1728 10.0392 12.7197 11.0918C12.6939 11.1096 12.6632 11.1201 12.6309 11.1201C12.5983 11.1201 12.5669 11.1098 12.541 11.0918C11.271 10.1707 10.0716 9.16034 8.95312 8.06836L8.47852 7.59473C7.02325 6.03002 7.45717 4.47408 7.60547 4.07324L7.64453 3.97559C7.66098 3.94094 7.88048 3.48004 8.31055 3.0293C8.74055 2.57864 9.36984 2.15039 10.21 2.15039C11.5402 2.15051 12.2278 2.72983 12.5459 3.11523L12.6533 3.24609L12.7705 3.12305C13.0617 2.81619 13.4146 2.57083 13.8076 2.40332C14.2008 2.23577 14.6256 2.15008 15.0547 2.15039Z"/><defs><linearGradient id="paint0_linear_39_403" x1="2" x2="18.004" y1="10" y2="10" gradientUnits="userSpaceOnUse"><stop stop-color="#FFA68D"/><stop offset="1" stop-color="#FD3A84"/></linearGradient></defs></svg>