<svg xmlns="http://www.w3.org/2000/svg" width="20" height="20" fill="none" viewBox="0 0 20 20"><path fill="url(#paint0_linear_36_355)" stroke="#FFDBE3" stroke-width=".3" d="M10.4001 14.9404L8.32397 17.0176C8.26515 17.0764 8.17426 17.1376 8.05151 17.1689L4.54565 17.9697H4.40796C4.25767 17.9696 4.10411 17.9099 3.97827 17.7842C3.843 17.6489 3.77997 17.4691 3.80737 17.2832L3.82495 17.2031L4.78198 13.7939H4.78296L4.78394 13.79C4.81486 13.6665 4.87532 13.5749 4.93433 13.5156L6.97339 11.5137L10.4001 14.9404ZM1.69019 2.06445C1.78873 2.03801 1.93603 2.0314 2.13062 2.05078C2.32297 2.06996 2.55107 2.11312 2.80347 2.17578C3.30802 2.30107 3.90191 2.50321 4.49585 2.74316C5.08958 2.98304 5.68048 3.25958 6.17847 3.53223C6.67991 3.80679 7.07595 4.07131 7.28979 4.28516C8.39863 5.39415 8.6443 6.96959 8.03003 8.08984L7.97534 8.18945L8.0564 8.26855L14.1062 14.2422V14.2432C14.354 14.491 14.354 14.8547 14.1062 15.1025C13.9802 15.2285 13.827 15.2891 13.6765 15.2891C13.5261 15.2891 13.3728 15.2285 13.2468 15.1025L7.23315 9.08984L7.15405 9.01074L7.05542 9.06445C6.65707 9.2817 6.22245 9.39061 5.74878 9.39062H5.44897C4.64617 9.31595 3.87679 8.9502 3.25073 8.32422C2.64274 7.71622 2.52787 6.88879 2.45093 6.00391V5.99902L2.36108 5.31543C2.25514 4.63291 2.06655 3.96147 1.48901 3.38379L1.48218 3.37793L1.37476 3.27148C1.14988 3.02553 1.10374 2.78434 1.17847 2.58496L1.1814 2.57715L1.18335 2.56836C1.24655 2.31578 1.43466 2.1276 1.68726 2.06445H1.69019ZM15.6296 3.02637C15.7801 3.02637 15.9343 3.08693 16.0603 3.21289L18.6638 5.81738C18.9158 6.06934 18.9053 6.42717 18.6716 6.63184L18.6638 6.63867L13.8289 11.4727L10.4031 8.04688L15.199 3.21191L15.2 3.21289C15.3259 3.087 15.4792 3.02641 15.6296 3.02637Z"/><defs><linearGradient id="paint0_linear_36_355" x1="9.998" x2="9.998" y1="1.89" y2="18.12" gradientUnits="userSpaceOnUse"><stop stop-color="#FCA771"/><stop offset="1" stop-color="#FF4899"/></linearGradient></defs></svg>