<svg width="20" height="20" viewBox="0 0 20 20" fill="none" xmlns="http://www.w3.org/2000/svg">
<mask id="path-1-inside-1_29_293" fill="white">
<path d="M5.16563 9.2031C4.73359 9.486 4.23823 9.28887 3.87808 8.96875C3.40819 8.57157 2.89575 7.69177 3.35624 7.11563C3.47321 6.9907 3.63424 6.91625 3.80518 6.90809C3.97612 6.89992 4.14352 6.95867 4.27187 7.07188C4.4048 7.18083 4.57442 7.23475 4.74587 7.22254C4.91732 7.21034 5.07759 7.13294 5.19375 7.00625C5.27188 6.95781 5.35936 6.9264 5.45047 6.91409C5.54157 6.90177 5.63425 6.90882 5.72244 6.93478C5.81063 6.96073 5.89235 7.00501 5.96226 7.06472C6.03217 7.12442 6.08869 7.19821 6.12813 7.28125C6.3863 8.03199 5.79356 8.84235 5.16563 9.2031ZM18.75 10.1562V14.8438C18.75 15.1338 18.6348 15.412 18.4296 15.6171C18.2245 15.8223 17.9463 15.9375 17.6562 15.9375H12.9688C12.6787 15.9375 12.4005 15.8223 12.1954 15.6171C11.9902 15.412 11.875 15.1338 11.875 14.8438V11.3406L10.6531 10.2719C10.5907 10.2189 10.51 10.1925 10.4284 10.1984C10.3467 10.2043 10.2706 10.2421 10.2166 10.3035C10.1625 10.365 10.1347 10.4453 10.1392 10.527C10.1437 10.6088 10.1801 10.6855 10.2406 10.7406C10.3295 10.8173 11.1356 11.5269 11.25 11.625V14.8438C11.2514 15.2992 11.4329 15.7356 11.7549 16.0576C12.0769 16.3796 12.5133 16.5612 12.9688 16.5625H15.3125V17.5C15.3125 17.8315 15.1808 18.1495 14.9464 18.3839C14.712 18.6183 14.394 18.75 14.0625 18.75H5.9375C5.60598 18.75 5.28804 18.6183 5.05362 18.3839C4.8192 18.1495 4.6875 17.8315 4.6875 17.5V12.1875H8.87314C8.95522 12.1863 9.03352 12.1528 9.09114 12.0943C9.14875 12.0359 9.18104 11.9571 9.18104 11.875C9.18104 11.7929 9.14875 11.7141 9.09114 11.6557C9.03352 11.5972 8.95522 11.5637 8.87314 11.5625H2.34375C2.05367 11.5625 1.77547 11.4473 1.57035 11.2421C1.36523 11.037 1.25 10.7588 1.25 10.4688V5.78125C1.25 5.49117 1.36523 5.21297 1.57035 5.00785C1.77547 4.80273 2.05367 4.6875 2.34375 4.6875H7.03125C7.32133 4.6875 7.59953 4.80273 7.80465 5.00785C8.00977 5.21297 8.125 5.49117 8.125 5.78125V9.28437L9.34683 10.3541C9.40939 10.4068 9.49011 10.4328 9.57165 10.4266C9.65318 10.4204 9.72904 10.3825 9.78294 10.321C9.83683 10.2595 9.86446 10.1793 9.85989 10.0977C9.85532 10.0161 9.81892 9.93946 9.75851 9.88435L8.75 9V5.78125C8.74867 5.32582 8.56716 4.88942 8.24512 4.56738C7.92308 4.24534 7.48668 4.06383 7.03125 4.0625H4.6875V2.5C4.6875 2.16848 4.8192 1.85054 5.05362 1.61612C5.28804 1.3817 5.60598 1.25 5.9375 1.25L7.03752 1.25004C7.18219 1.61208 7.53088 2.48213 7.67812 2.84687C7.74823 3.02129 7.86892 3.17074 8.02467 3.276C8.18042 3.38126 8.3641 3.4375 8.55207 3.4375H11.4469C11.6352 3.4375 11.8192 3.38116 11.9752 3.27573C12.1312 3.17029 12.2521 3.02059 12.3223 2.84588C12.4714 2.47575 12.8185 1.61033 12.9625 1.25H14.0625C14.394 1.25 14.712 1.3817 14.9464 1.61612C15.1808 1.85054 15.3125 2.16848 15.3125 2.5V8.4375H11.1094C11.0265 8.4375 10.947 8.47042 10.8884 8.52903C10.8298 8.58763 10.7969 8.66712 10.7969 8.75C10.7969 8.83288 10.8298 8.91237 10.8884 8.97097C10.947 9.02958 11.0265 9.0625 11.1094 9.0625H17.6562C17.9463 9.0625 18.2245 9.17773 18.4296 9.38285C18.6348 9.58797 18.75 9.86617 18.75 10.1562ZM5.54062 6.28125C5.22628 6.28273 4.92315 6.39821 4.6875 6.60625C4.49397 6.43384 4.2528 6.32402 3.99569 6.29124C3.73858 6.25846 3.47757 6.30425 3.24697 6.4226C3.01637 6.54094 2.82698 6.72629 2.7037 6.95428C2.58042 7.18228 2.52902 7.44224 2.55625 7.7C2.60106 8.24728 2.82394 8.76482 3.19078 9.17342C3.55762 9.58203 4.04822 9.8592 4.58753 9.96253C5.7427 9.97313 6.67636 8.88599 6.81563 7.77186C6.84027 7.58837 6.8259 7.40176 6.77348 7.2242C6.72106 7.04664 6.63177 6.88215 6.51143 6.74146C6.39109 6.60078 6.24242 6.48707 6.07514 6.40776C5.90785 6.32846 5.72571 6.28535 5.54062 6.28125ZM16.7438 10.7938C16.5141 10.678 16.255 10.6337 15.9999 10.6665C15.7448 10.6994 15.5053 10.8079 15.3125 10.9782C15.1126 10.8047 14.8642 10.6969 14.6009 10.6694C14.3377 10.6418 14.0724 10.6958 13.8409 10.824C13.6093 10.9522 13.4228 11.1485 13.3065 11.3862C13.1902 11.6239 13.1497 11.8917 13.1906 12.1531C13.3015 13.2178 14.2074 14.2612 15.3031 14.3469C16.4254 14.283 17.3671 13.171 17.4437 12.075C17.465 11.8164 17.41 11.5573 17.2856 11.3296C17.1612 11.1019 16.9728 10.9156 16.7438 10.7938ZM16.7531 11.6562C16.6841 11.5083 16.5617 11.3919 16.4104 11.3304C16.2591 11.269 16.0902 11.2671 15.9375 11.325C15.7269 11.4091 15.5575 11.6265 15.3125 11.6031C15.0453 11.6295 14.8772 11.3755 14.6375 11.3062C14.0559 11.1381 13.6713 11.751 13.8376 12.2688C13.9469 12.7215 14.2083 13.123 14.5781 13.4062C14.7117 13.5348 14.8766 13.6261 15.0564 13.671C15.2363 13.716 15.4248 13.713 15.6031 13.6625C16.3216 13.3808 17.0304 12.4515 16.7531 11.6562ZM8.25625 2.60938C8.27822 2.66881 8.31783 2.72012 8.36977 2.75642C8.42171 2.79272 8.48351 2.81229 8.54688 2.8125H11.4531C11.5165 2.8122 11.5782 2.7926 11.6301 2.75631C11.6821 2.72002 11.7217 2.66876 11.7438 2.60938L12.2875 1.25H7.7125C7.84583 1.58452 8.12187 2.27258 8.25625 2.60938Z"/>
</mask>
<path d="M5.16563 9.2031C4.73359 9.486 4.23823 9.28887 3.87808 8.96875C3.40819 8.57157 2.89575 7.69177 3.35624 7.11563C3.47321 6.9907 3.63424 6.91625 3.80518 6.90809C3.97612 6.89992 4.14352 6.95867 4.27187 7.07188C4.4048 7.18083 4.57442 7.23475 4.74587 7.22254C4.91732 7.21034 5.07759 7.13294 5.19375 7.00625C5.27188 6.95781 5.35936 6.9264 5.45047 6.91409C5.54157 6.90177 5.63425 6.90882 5.72244 6.93478C5.81063 6.96073 5.89235 7.00501 5.96226 7.06472C6.03217 7.12442 6.08869 7.19821 6.12813 7.28125C6.3863 8.03199 5.79356 8.84235 5.16563 9.2031ZM18.75 10.1562V14.8438C18.75 15.1338 18.6348 15.412 18.4296 15.6171C18.2245 15.8223 17.9463 15.9375 17.6562 15.9375H12.9688C12.6787 15.9375 12.4005 15.8223 12.1954 15.6171C11.9902 15.412 11.875 15.1338 11.875 14.8438V11.3406L10.6531 10.2719C10.5907 10.2189 10.51 10.1925 10.4284 10.1984C10.3467 10.2043 10.2706 10.2421 10.2166 10.3035C10.1625 10.365 10.1347 10.4453 10.1392 10.527C10.1437 10.6088 10.1801 10.6855 10.2406 10.7406C10.3295 10.8173 11.1356 11.5269 11.25 11.625V14.8438C11.2514 15.2992 11.4329 15.7356 11.7549 16.0576C12.0769 16.3796 12.5133 16.5612 12.9688 16.5625H15.3125V17.5C15.3125 17.8315 15.1808 18.1495 14.9464 18.3839C14.712 18.6183 14.394 18.75 14.0625 18.75H5.9375C5.60598 18.75 5.28804 18.6183 5.05362 18.3839C4.8192 18.1495 4.6875 17.8315 4.6875 17.5V12.1875H8.87314C8.95522 12.1863 9.03352 12.1528 9.09114 12.0943C9.14875 12.0359 9.18104 11.9571 9.18104 11.875C9.18104 11.7929 9.14875 11.7141 9.09114 11.6557C9.03352 11.5972 8.95522 11.5637 8.87314 11.5625H2.34375C2.05367 11.5625 1.77547 11.4473 1.57035 11.2421C1.36523 11.037 1.25 10.7588 1.25 10.4688V5.78125C1.25 5.49117 1.36523 5.21297 1.57035 5.00785C1.77547 4.80273 2.05367 4.6875 2.34375 4.6875H7.03125C7.32133 4.6875 7.59953 4.80273 7.80465 5.00785C8.00977 5.21297 8.125 5.49117 8.125 5.78125V9.28437L9.34683 10.3541C9.40939 10.4068 9.49011 10.4328 9.57165 10.4266C9.65318 10.4204 9.72904 10.3825 9.78294 10.321C9.83683 10.2595 9.86446 10.1793 9.85989 10.0977C9.85532 10.0161 9.81892 9.93946 9.75851 9.88435L8.75 9V5.78125C8.74867 5.32582 8.56716 4.88942 8.24512 4.56738C7.92308 4.24534 7.48668 4.06383 7.03125 4.0625H4.6875V2.5C4.6875 2.16848 4.8192 1.85054 5.05362 1.61612C5.28804 1.3817 5.60598 1.25 5.9375 1.25L7.03752 1.25004C7.18219 1.61208 7.53088 2.48213 7.67812 2.84687C7.74823 3.02129 7.86892 3.17074 8.02467 3.276C8.18042 3.38126 8.3641 3.4375 8.55207 3.4375H11.4469C11.6352 3.4375 11.8192 3.38116 11.9752 3.27573C12.1312 3.17029 12.2521 3.02059 12.3223 2.84588C12.4714 2.47575 12.8185 1.61033 12.9625 1.25H14.0625C14.394 1.25 14.712 1.3817 14.9464 1.61612C15.1808 1.85054 15.3125 2.16848 15.3125 2.5V8.4375H11.1094C11.0265 8.4375 10.947 8.47042 10.8884 8.52903C10.8298 8.58763 10.7969 8.66712 10.7969 8.75C10.7969 8.83288 10.8298 8.91237 10.8884 8.97097C10.947 9.02958 11.0265 9.0625 11.1094 9.0625H17.6562C17.9463 9.0625 18.2245 9.17773 18.4296 9.38285C18.6348 9.58797 18.75 9.86617 18.75 10.1562ZM5.54062 6.28125C5.22628 6.28273 4.92315 6.39821 4.6875 6.60625C4.49397 6.43384 4.2528 6.32402 3.99569 6.29124C3.73858 6.25846 3.47757 6.30425 3.24697 6.4226C3.01637 6.54094 2.82698 6.72629 2.7037 6.95428C2.58042 7.18228 2.52902 7.44224 2.55625 7.7C2.60106 8.24728 2.82394 8.76482 3.19078 9.17342C3.55762 9.58203 4.04822 9.8592 4.58753 9.96253C5.7427 9.97313 6.67636 8.88599 6.81563 7.77186C6.84027 7.58837 6.8259 7.40176 6.77348 7.2242C6.72106 7.04664 6.63177 6.88215 6.51143 6.74146C6.39109 6.60078 6.24242 6.48707 6.07514 6.40776C5.90785 6.32846 5.72571 6.28535 5.54062 6.28125ZM16.7438 10.7938C16.5141 10.678 16.255 10.6337 15.9999 10.6665C15.7448 10.6994 15.5053 10.8079 15.3125 10.9782C15.1126 10.8047 14.8642 10.6969 14.6009 10.6694C14.3377 10.6418 14.0724 10.6958 13.8409 10.824C13.6093 10.9522 13.4228 11.1485 13.3065 11.3862C13.1902 11.6239 13.1497 11.8917 13.1906 12.1531C13.3015 13.2178 14.2074 14.2612 15.3031 14.3469C16.4254 14.283 17.3671 13.171 17.4437 12.075C17.465 11.8164 17.41 11.5573 17.2856 11.3296C17.1612 11.1019 16.9728 10.9156 16.7438 10.7938ZM16.7531 11.6562C16.6841 11.5083 16.5617 11.3919 16.4104 11.3304C16.2591 11.269 16.0902 11.2671 15.9375 11.325C15.7269 11.4091 15.5575 11.6265 15.3125 11.6031C15.0453 11.6295 14.8772 11.3755 14.6375 11.3062C14.0559 11.1381 13.6713 11.751 13.8376 12.2688C13.9469 12.7215 14.2083 13.123 14.5781 13.4062C14.7117 13.5348 14.8766 13.6261 15.0564 13.671C15.2363 13.716 15.4248 13.713 15.6031 13.6625C16.3216 13.3808 17.0304 12.4515 16.7531 11.6562ZM8.25625 2.60938C8.27822 2.66881 8.31783 2.72012 8.36977 2.75642C8.42171 2.79272 8.48351 2.81229 8.54688 2.8125H11.4531C11.5165 2.8122 11.5782 2.7926 11.6301 2.75631C11.6821 2.72002 11.7217 2.66876 11.7438 2.60938L12.2875 1.25H7.7125C7.84583 1.58452 8.12187 2.27258 8.25625 2.60938Z" fill="url(#paint0_linear_29_293)" stroke="#FFDBE3" stroke-opacity="0.9" stroke-width="0.6" mask="url(#path-1-inside-1_29_293)"/>
<defs>
<linearGradient id="paint0_linear_29_293" x1="1.25" y1="10" x2="18.75" y2="10" gradientUnits="userSpaceOnUse">
<stop stop-color="#FFA68D"/>
<stop offset="1" stop-color="#FD3A84"/>
</linearGradient>
</defs>
</svg>
