<svg xmlns="http://www.w3.org/2000/svg" width="16" height="16" fill="none" viewBox="0 0 16 16"><path fill="url(#paint0_linear_143_3297)" d="M8.00008 14.6667C7.79128 14.6667 7.58998 14.5894 7.4331 14.449C6.8406 13.9196 6.26936 13.4221 5.76537 12.9833L5.7628 12.981C4.28519 11.6943 3.00922 10.5832 2.12142 9.48859C1.129 8.26493 0.666748 7.10473 0.666748 5.83728C0.666748 4.60585 1.07999 3.46977 1.83026 2.63818C2.58949 1.79676 3.63126 1.33334 4.764 1.33334C5.61062 1.33334 6.38596 1.60684 7.06842 2.14618C7.41284 2.41842 7.72504 2.75161 8.00008 3.14025C8.27524 2.75161 8.58732 2.41842 8.93185 2.14618C9.61432 1.60684 10.3897 1.33334 11.2363 1.33334C12.3689 1.33334 13.4108 1.79676 14.17 2.63818C14.9203 3.46977 15.3334 4.60585 15.3334 5.83728C15.3334 7.10473 14.8713 8.26493 13.8789 9.48848C12.9911 10.5832 11.7152 11.6942 10.2378 12.9807C9.73293 13.4203 9.1608 13.9186 8.56696 14.4492C8.41019 14.5894 8.20877 14.6667 8.00008 14.6667ZM4.764 2.21124C3.87407 2.21124 3.05655 2.57415 2.46181 3.23321C1.85824 3.9022 1.52579 4.82698 1.52579 5.83728C1.52579 6.90327 1.91351 7.85663 2.78285 8.92844C3.62309 9.96447 4.87287 11.0528 6.31994 12.3129L6.32262 12.3152C6.82851 12.7557 7.40199 13.2552 7.99885 13.7884C8.59929 13.2541 9.17367 12.7539 9.68056 12.3127C11.1275 11.0525 12.3772 9.96447 13.2174 8.92844C14.0866 7.85663 14.4744 6.90327 14.4744 5.83728C14.4744 4.82698 14.1419 3.9022 13.5384 3.23321C12.9437 2.57415 12.1261 2.21124 11.2363 2.21124C10.5844 2.21124 9.98582 2.423 9.45733 2.84056C8.98635 3.21285 8.65826 3.68347 8.46591 4.01277C8.36699 4.18211 8.19288 4.28318 8.00008 4.28318C7.80728 4.28318 7.63317 4.18211 7.53425 4.01277C7.34201 3.68347 7.01393 3.21285 6.54284 2.84056C6.01434 2.423 5.4158 2.21124 4.764 2.21124Z"/><defs><linearGradient id="paint0_linear_143_3297" x1=".667" x2="15.333" y1="8" y2="8" gradientUnits="userSpaceOnUse"><stop stop-color="#FFA18D"/><stop offset="1" stop-color="#FD3E84"/></linearGradient></defs></svg>