<svg xmlns="http://www.w3.org/2000/svg" width="20" height="20" fill="none" viewBox="0 0 20 20"><path fill="url(#paint0_linear_39_361)" stroke="#FFDBE3" stroke-width=".3" d="M14.25 11.0934C14.8322 11.7045 15.6387 12.0562 16.5049 12.0563H17.8496V14.2497C17.8496 16.2379 16.2382 17.8503 14.25 17.8503C12.2618 17.8503 10.6504 16.2379 10.6504 14.2497V12.0563H11.9951C12.8613 12.0562 13.6678 11.7045 14.25 11.0934Z"/><path fill="url(#paint1_linear_39_361)" stroke="#FFDBE3" stroke-width=".3" d="M5.28125 11.1572C5.7895 11.7233 6.51645 12.0566 7.30371 12.0566H9.34961V14.2499C9.34961 16.2382 7.73822 17.8495 5.75 17.8495C3.76178 17.8495 2.15039 16.2382 2.15039 14.2499V12.0566H3.25879C4.04602 12.0566 4.773 11.7233 5.28125 11.1572Z"/><path fill="url(#paint2_linear_39_361)" d="M7.9375 13.1562C7.9375 13.4151 7.72763 13.625 7.46875 13.625C7.20987 13.625 7 13.4151 7 13.1562C7 12.8974 7.20987 12.6875 7.46875 12.6875C7.72763 12.6875 7.9375 12.8974 7.9375 13.1562Z"/><path fill="url(#paint3_linear_39_361)" stroke="#FFDBE3" stroke-width=".3" d="M5.75 7.83789C7.73822 7.83789 9.34961 9.44928 9.34961 11.4375V11.7559H7.30371C6.54627 11.7558 5.85259 11.4115 5.39941 10.833L5.28125 10.6826L5.16309 10.833C4.70987 11.4115 4.0162 11.7558 3.25879 11.7559H2.15039V11.4375C2.15039 9.44928 3.76178 7.83789 5.75 7.83789Z"/><path fill="url(#paint4_linear_39_361)" d="M4.03125 12.6875C3.77237 12.6875 3.5625 12.8974 3.5625 13.1562C3.5625 13.4151 3.77237 13.625 4.03125 13.625C4.29013 13.625 4.5 13.4151 4.5 13.1562C4.5 12.8974 4.29013 12.6875 4.03125 12.6875Z"/><path fill="url(#paint5_linear_39_361)" d="M6.1723 15.3248C6.0593 15.4378 5.90933 15.5 5.74992 15.5C5.59052 15.5 5.44055 15.4378 5.32755 15.3248C5.14455 15.1417 4.84773 15.1418 4.66464 15.3248C4.48158 15.5079 4.48158 15.8046 4.66464 15.9877C4.9547 16.2777 5.34014 16.4375 5.74992 16.4375C6.1597 16.4375 6.54514 16.2777 6.8352 15.9877C7.01827 15.8046 7.01827 15.5078 6.8352 15.3248C6.65214 15.1417 6.35533 15.1417 6.1723 15.3248Z"/><path fill="url(#paint6_linear_39_361)" stroke="#FFDBE3" stroke-width=".3" d="M11.0352 2.15039C11.5117 2.15039 11.9599 2.33487 12.2969 2.67188C12.992 3.36702 12.992 4.49916 12.2969 5.19434L10.2256 7.26562C10.1011 7.38995 9.89886 7.38999 9.77441 7.26562L7.70312 5.19434C7.00812 4.49917 7.00804 3.36703 7.70312 2.67188C8.04012 2.33488 8.48822 2.15039 8.96484 2.15039C9.30873 2.15045 9.63744 2.2469 9.91992 2.42676L10 2.47754L10.0811 2.42676C10.3634 2.247 10.6914 2.15047 11.0352 2.15039Z"/><path fill="url(#paint7_linear_39_361)" d="M15.9688 12.6875C15.7099 12.6875 15.5 12.8974 15.5 13.1562C15.5 13.4151 15.7099 13.625 15.9688 13.625C16.2276 13.625 16.4375 13.4151 16.4375 13.1562C16.4375 12.8974 16.2276 12.6875 15.9688 12.6875Z"/><path fill="url(#paint8_linear_39_361)" d="M14.6723 15.3248C14.5593 15.4378 14.4093 15.5 14.2499 15.5C14.0905 15.5 13.9405 15.4378 13.8275 15.3248C13.6445 15.1417 13.3477 15.1418 13.1646 15.3248C12.9816 15.5079 12.9816 15.8046 13.1646 15.9877C13.4547 16.2777 13.8401 16.4375 14.2499 16.4375C14.6597 16.4375 15.0451 16.2777 15.3352 15.9877C15.5183 15.8046 15.5183 15.5078 15.3352 15.3248C15.1521 15.1417 14.8553 15.1417 14.6723 15.3248Z"/><path fill="url(#paint9_linear_39_361)" d="M12.5312 12.6875C12.2724 12.6875 12.0625 12.8974 12.0625 13.1562C12.0625 13.4151 12.2724 13.625 12.5312 13.625C12.7901 13.625 13 13.4151 13 13.1562C13 12.8974 12.7901 12.6875 12.5312 12.6875Z"/><path fill="url(#paint10_linear_39_361)" stroke="#FFDBE3" stroke-width=".3" d="M16.125 6.27539C17.076 6.27539 17.8496 7.04897 17.8496 8C17.8496 8.48753 17.6432 8.94857 17.2871 9.27344L17.1924 9.35938L17.2627 9.4668C17.6338 10.033 17.8496 10.7097 17.8496 11.4375V11.7559H16.5049C15.6688 11.7557 14.8956 11.3951 14.3643 10.7734L14.25 10.6396L14.1357 10.7734C13.6044 11.3951 12.8312 11.7557 11.9951 11.7559H10.6504V11.4375C10.6504 9.44928 12.2618 7.83789 14.25 7.83789C14.2613 7.83789 14.2584 7.83777 14.2754 7.83789L14.4033 7.83887L14.4248 7.71289C14.562 6.89798 15.2721 6.27539 16.125 6.27539Z"/><defs><linearGradient id="paint0_linear_39_361" x1="10" x2="10" y1="18" y2="10.871" gradientUnits="userSpaceOnUse"><stop stop-color="#FFC8D1"/><stop offset="1" stop-color="#FFF6F7"/></linearGradient><linearGradient id="paint1_linear_39_361" x1="10" x2="10" y1="18" y2="10.871" gradientUnits="userSpaceOnUse"><stop stop-color="#FFC8D1"/><stop offset="1" stop-color="#FFF6F7"/></linearGradient><linearGradient id="paint2_linear_39_361" x1="10" x2="10" y1="16.438" y2="2" gradientUnits="userSpaceOnUse"><stop stop-color="#FD3A84"/><stop offset="1" stop-color="#FFA68D"/></linearGradient><linearGradient id="paint3_linear_39_361" x1="10" x2="10" y1="16.438" y2="2" gradientUnits="userSpaceOnUse"><stop stop-color="#FD3A84"/><stop offset="1" stop-color="#FFA68D"/></linearGradient><linearGradient id="paint4_linear_39_361" x1="10" x2="10" y1="16.438" y2="2" gradientUnits="userSpaceOnUse"><stop stop-color="#FD3A84"/><stop offset="1" stop-color="#FFA68D"/></linearGradient><linearGradient id="paint5_linear_39_361" x1="10" x2="10" y1="16.438" y2="2" gradientUnits="userSpaceOnUse"><stop stop-color="#FD3A84"/><stop offset="1" stop-color="#FFA68D"/></linearGradient><linearGradient id="paint6_linear_39_361" x1="10" x2="10" y1="16.438" y2="2" gradientUnits="userSpaceOnUse"><stop stop-color="#FD3A84"/><stop offset="1" stop-color="#FFA68D"/></linearGradient><linearGradient id="paint7_linear_39_361" x1="10" x2="10" y1="16.438" y2="2" gradientUnits="userSpaceOnUse"><stop stop-color="#FD3A84"/><stop offset="1" stop-color="#FFA68D"/></linearGradient><linearGradient id="paint8_linear_39_361" x1="10" x2="10" y1="16.438" y2="2" gradientUnits="userSpaceOnUse"><stop stop-color="#FD3A84"/><stop offset="1" stop-color="#FFA68D"/></linearGradient><linearGradient id="paint9_linear_39_361" x1="10" x2="10" y1="16.438" y2="2" gradientUnits="userSpaceOnUse"><stop stop-color="#FD3A84"/><stop offset="1" stop-color="#FFA68D"/></linearGradient><linearGradient id="paint10_linear_39_361" x1="10" x2="10" y1="16.438" y2="2" gradientUnits="userSpaceOnUse"><stop stop-color="#FD3A84"/><stop offset="1" stop-color="#FFA68D"/></linearGradient></defs></svg>