<svg xmlns="http://www.w3.org/2000/svg" width="16" height="16" fill="none" viewBox="0 0 16 16"><g clip-path="url(#clip0_143_3306)"><mask id="path-1-outside-1_143_3306" width="15" height="16" x=".073" y="-.01" fill="#000" maskUnits="userSpaceOnUse"><rect width="15" height="16" x=".073" y="-.01" fill="#fff"/><path d="M14.8438 14.4728L12.4969 11.8144L13.8276 11.3525C14.3941 11.2388 14.7582 10.7497 14.7582 10.0988C14.7582 9.71689 14.6348 9.39064 14.4179 9.16126C14.6198 8.9397 14.7304 8.6222 14.7304 8.23407C14.7304 7.83032 14.5938 7.49001 14.361 7.26189C14.5854 7.0272 14.7163 6.68001 14.7163 6.26876C14.7163 5.79564 14.5304 5.42157 14.2191 5.2122C14.3602 5.0214 14.4454 4.79519 14.4655 4.55878C14.4855 4.32237 14.4395 4.08504 14.3325 3.87324C14.2256 3.66144 14.062 3.48349 13.8599 3.35921C13.6578 3.23494 13.4251 3.16922 13.1879 3.16939C13.0504 3.17489 12.9136 3.19055 12.7785 3.21626C12.4154 3.30189 11.9326 3.44314 11.4019 3.61001C11.5752 3.36361 11.6888 3.08033 11.7338 2.78251C11.8679 1.8722 11.2963 1.13907 11.271 1.10814C11.2257 1.05118 11.162 1.0118 11.0908 0.996798C11.0196 0.981795 10.9454 0.992104 10.881 1.02595L8.361 2.35126L4.40319 1.6072C4.28086 1.57729 4.15308 1.5778 4.031 1.60869C3.90891 1.63958 3.79626 1.6999 3.70288 1.78439C3.61502 1.86318 3.54777 1.96225 3.50698 2.07299C3.46618 2.18372 3.45308 2.30275 3.46881 2.4197C3.59006 3.29782 4.07725 3.96876 4.84038 4.30907C4.95975 4.36251 5.06256 4.4147 5.16475 4.46689L4.16475 4.21689C3.5085 4.05189 2.836 4.4247 2.65819 5.04439C2.61661 5.18889 2.60456 5.34028 2.62276 5.48954C2.64096 5.6388 2.68904 5.78286 2.76413 5.91314C2.43163 6.05095 2.1635 6.32126 2.061 6.67782C2.01908 6.82347 2.00714 6.9761 2.02588 7.1265C2.04463 7.27689 2.09368 7.42192 2.17006 7.55282C2.19831 7.59874 2.22963 7.6427 2.26381 7.68439C1.99959 7.83536 1.80422 8.08293 1.71881 8.37501C1.67683 8.52063 1.66482 8.67326 1.68352 8.82366C1.70221 8.97405 1.75121 9.1191 1.82756 9.25001C1.86659 9.31684 1.91213 9.37964 1.9635 9.43751C1.71837 9.58844 1.53747 9.82441 1.45538 10.1003C1.41348 10.246 1.40154 10.3986 1.42028 10.549C1.43903 10.6994 1.48807 10.8444 1.56444 10.9753C1.64826 11.1173 1.75966 11.2409 1.89207 11.3391C2.02448 11.4373 2.17522 11.5079 2.33538 11.5469L3.10944 11.7344L1.136 14.5153C1.11082 14.5487 1.0926 14.5868 1.08241 14.6274C1.07223 14.6679 1.07028 14.7101 1.0767 14.7514C1.08311 14.7928 1.09775 14.8324 1.11976 14.8679C1.14176 14.9035 1.17068 14.9343 1.20479 14.9584C1.23891 14.9826 1.27753 14.9997 1.31837 15.0087C1.35921 15.0177 1.40144 15.0184 1.44255 15.0107C1.48367 15.0031 1.52283 14.9873 1.55772 14.9643C1.59262 14.9412 1.62253 14.9114 1.64569 14.8766L3.761 11.8888L4.1985 11.9938C4.30023 12.019 4.40463 12.0318 4.50944 12.0319C5.0535 12.0319 5.55444 11.6881 5.70319 11.1656C5.74384 11.0236 5.75593 10.8749 5.73877 10.7281C5.7216 10.5814 5.67552 10.4395 5.60319 10.3106C5.93694 10.1734 6.20663 9.90189 6.30913 9.54439C6.35102 9.39875 6.36298 9.24614 6.34429 9.09576C6.3256 8.94538 6.27664 8.80034 6.20038 8.66939C6.17124 8.6228 6.13887 8.57832 6.1035 8.53626C6.36863 8.38683 6.56546 8.14037 6.65256 7.84876C6.69413 7.70426 6.70616 7.55287 6.68796 7.40361C6.66976 7.25436 6.6217 7.11029 6.54663 6.98001C6.87913 6.84251 7.14756 6.57157 7.24975 6.21532C7.2963 6.04862 7.30336 5.87336 7.27038 5.70345C8.25006 5.34376 11.5276 4.15626 12.9035 3.82939C12.9971 3.81187 13.0918 3.8006 13.1869 3.79564C13.3385 3.7946 13.4857 3.84602 13.6036 3.94117C13.7215 4.03632 13.8028 4.16934 13.8338 4.31766C13.8648 4.46597 13.8435 4.62044 13.7736 4.75484C13.7036 4.88924 13.5893 4.9953 13.4501 5.05501C13.3845 5.0839 13.3309 5.13441 13.2982 5.19809C13.2655 5.26177 13.2556 5.33476 13.2702 5.40485C13.2849 5.47494 13.3231 5.53787 13.3786 5.58312C13.4341 5.62838 13.5035 5.6532 13.5751 5.65345C14.0235 5.65345 14.0901 6.04001 14.0901 6.27032C14.0901 6.37876 14.0685 6.92032 13.6363 6.96095C13.5592 6.96869 13.4878 7.00479 13.4358 7.06224C13.3838 7.1197 13.355 7.19441 13.355 7.27189C13.355 7.34936 13.3838 7.42408 13.4358 7.48153C13.4878 7.53899 13.5592 7.57509 13.6363 7.58282C14.0704 7.62345 14.1051 8.09282 14.1051 8.23564C14.1051 8.58782 13.9851 8.79814 13.7476 8.86345C13.6814 8.88144 13.6229 8.92071 13.5813 8.97521C13.5396 9.02971 13.517 9.09641 13.517 9.16501C13.517 9.23361 13.5396 9.30031 13.5813 9.35481C13.6229 9.40931 13.6814 9.44858 13.7476 9.46657C14.0963 9.56032 14.1338 9.94001 14.1338 10.0988C14.1338 10.2313 14.1026 10.6691 13.6926 10.7425C13.6765 10.7454 13.6606 10.7495 13.6451 10.7547L9.00006 12.3663C8.94821 12.3842 8.90205 12.4156 8.86631 12.4572L7.106 14.4916C7.07726 14.5223 7.05502 14.5585 7.0406 14.598C7.02618 14.6375 7.01989 14.6795 7.02209 14.7215C7.0243 14.7635 7.03496 14.8046 7.05344 14.8424C7.07192 14.8802 7.09784 14.9139 7.12964 14.9414C7.16143 14.9689 7.19846 14.9897 7.2385 15.0026C7.27854 15.0155 7.32077 15.0201 7.36265 15.0163C7.40453 15.0125 7.44521 15.0002 7.48225 14.9803C7.51928 14.9604 7.55192 14.9332 7.57819 14.9003L8.12506 14.2688L8.736 14.8972C8.76412 14.9285 8.79827 14.9538 8.8364 14.9715C8.87452 14.9893 8.91584 14.9992 8.95788 15.0006C8.99992 15.002 9.04181 14.9949 9.08105 14.9798C9.12028 14.9646 9.15605 14.9417 9.18621 14.9123C9.21637 14.883 9.2403 14.8479 9.25657 14.8091C9.27284 14.7703 9.28111 14.7287 9.28088 14.6866C9.28066 14.6445 9.27195 14.603 9.25527 14.5643C9.23859 14.5257 9.21428 14.4909 9.18381 14.4619L8.53538 13.7947L9.28538 12.9294L11.8601 12.0356L14.3751 14.8863C14.4299 14.9484 14.5072 14.9863 14.5899 14.9914C14.6726 14.9966 14.754 14.9687 14.8162 14.9139C14.8783 14.8591 14.9162 14.7818 14.9213 14.6991C14.9265 14.6164 14.8986 14.535 14.8438 14.4728ZM5.101 10.9938C5.01569 11.2928 4.67819 11.4688 4.34725 11.3872H4.34444L2.48444 10.9391C2.40579 10.9208 2.33164 10.8869 2.26644 10.8392C2.20125 10.7916 2.14636 10.7313 2.10506 10.6619C2.07094 10.6034 2.049 10.5386 2.04057 10.4714C2.03213 10.4042 2.03738 10.3361 2.056 10.2709C2.12725 10.0209 2.37319 9.85751 2.646 9.85751C2.70215 9.85767 2.75807 9.86459 2.81256 9.87814L3.18756 9.96876L4.74131 10.3575C4.8709 10.4007 4.9814 10.4876 5.05381 10.6034C5.08765 10.6619 5.10927 10.7267 5.11738 10.7938C5.12549 10.8609 5.11992 10.9289 5.101 10.9938ZM5.70694 9.37251C5.62163 9.6722 5.28194 9.84751 4.95413 9.76626C4.91095 9.74806 4.86682 9.73221 4.82194 9.71876L3.32663 9.35939L2.74788 9.21439C2.66923 9.19622 2.59508 9.16233 2.52988 9.11474C2.46468 9.06716 2.40978 9.00687 2.3685 8.93751C2.33426 8.87913 2.31223 8.81441 2.30375 8.74726C2.29526 8.68012 2.30049 8.61195 2.31913 8.54689C2.39069 8.29689 2.63756 8.13282 2.90881 8.13282C2.9532 8.13394 2.99736 8.13938 3.04069 8.14907L5.14475 8.67564C5.15569 8.67814 5.16663 8.6772 5.17756 8.6797L5.2785 8.70501C5.35716 8.72314 5.43133 8.75702 5.49653 8.80461C5.56174 8.8522 5.61662 8.9125 5.65788 8.98189C5.69206 9.04029 5.71404 9.10502 5.72247 9.17217C5.73091 9.23931 5.72562 9.30747 5.70694 9.37251ZM6.05069 7.67532C5.96881 7.96876 5.64038 8.13876 5.31881 8.07064L3.22506 7.54689C3.21131 7.54345 3.19756 7.54345 3.18381 7.54064L3.09006 7.51751C3.01139 7.49931 2.93722 7.46537 2.87202 7.41773C2.80682 7.37009 2.75194 7.30974 2.71069 7.24032C2.6765 7.18192 2.65453 7.11719 2.64609 7.05004C2.63766 6.9829 2.64294 6.91474 2.66163 6.8497C2.73288 6.5997 2.97975 6.43564 3.251 6.43564C3.30642 6.43565 3.36162 6.44247 3.41538 6.45595L3.49631 6.47626C3.50975 6.48001 3.52194 6.48657 3.53538 6.49001L5.64006 7.01657C5.79063 7.05555 5.91989 7.15205 6.00006 7.28532C6.03443 7.34353 6.05663 7.40811 6.06533 7.47514C6.07403 7.54217 6.06905 7.61027 6.05069 7.67532ZM6.64756 6.0422C6.56256 6.34189 6.22194 6.51751 5.89381 6.43751L5.81069 6.41657C5.79788 6.41314 5.78663 6.40657 5.77381 6.40345L3.66819 5.87501C3.51813 5.83604 3.38926 5.73993 3.30913 5.6072C3.27489 5.54882 3.25286 5.4841 3.24437 5.41695C3.23588 5.34981 3.24112 5.28164 3.25975 5.21657C3.33131 4.96657 3.57819 4.80251 3.84944 4.80251C3.90475 4.8025 3.95986 4.80933 4.0135 4.82282L6.21881 5.37501C6.29749 5.39321 6.37166 5.42716 6.43686 5.47479C6.50206 5.52243 6.55694 5.58278 6.59819 5.6522C6.63234 5.7105 6.65433 5.77511 6.66281 5.84214C6.6713 5.90917 6.66611 5.97723 6.64756 6.0422ZM6.99131 5.13876C6.96648 5.11372 6.9404 5.08994 6.91319 5.06751C6.80131 4.88001 6.37881 4.31095 5.09538 3.73845C4.37913 3.41939 4.15225 2.79845 4.08819 2.33439C4.08607 2.31812 4.08808 2.30157 4.09403 2.28628C4.09999 2.27099 4.10969 2.25744 4.12225 2.24689C4.13913 2.23126 4.18475 2.19814 4.27256 2.21814L8.28819 2.97345C9.10819 3.53345 9.61881 3.8797 9.94819 4.08939C8.6985 4.51501 7.48288 4.95814 6.99194 5.13876H6.99131ZM11.1148 2.69282C11.061 3.05407 10.8391 3.38345 10.4726 3.67782C10.1776 3.4922 9.60881 3.11532 9.01631 2.71282L10.9151 1.71501C11.0313 1.93501 11.1729 2.29814 11.1148 2.69282Z"/></mask><path fill="url(#paint0_linear_143_3306)" d="M14.8438 14.4728L12.4969 11.8144L13.8276 11.3525C14.3941 11.2388 14.7582 10.7497 14.7582 10.0988C14.7582 9.71689 14.6348 9.39064 14.4179 9.16126C14.6198 8.9397 14.7304 8.6222 14.7304 8.23407C14.7304 7.83032 14.5938 7.49001 14.361 7.26189C14.5854 7.0272 14.7163 6.68001 14.7163 6.26876C14.7163 5.79564 14.5304 5.42157 14.2191 5.2122C14.3602 5.0214 14.4454 4.79519 14.4655 4.55878C14.4855 4.32237 14.4395 4.08504 14.3325 3.87324C14.2256 3.66144 14.062 3.48349 13.8599 3.35921C13.6578 3.23494 13.4251 3.16922 13.1879 3.16939C13.0504 3.17489 12.9136 3.19055 12.7785 3.21626C12.4154 3.30189 11.9326 3.44314 11.4019 3.61001C11.5752 3.36361 11.6888 3.08033 11.7338 2.78251C11.8679 1.8722 11.2963 1.13907 11.271 1.10814C11.2257 1.05118 11.162 1.0118 11.0908 0.996798C11.0196 0.981795 10.9454 0.992104 10.881 1.02595L8.361 2.35126L4.40319 1.6072C4.28086 1.57729 4.15308 1.5778 4.031 1.60869C3.90891 1.63958 3.79626 1.6999 3.70288 1.78439C3.61502 1.86318 3.54777 1.96225 3.50698 2.07299C3.46618 2.18372 3.45308 2.30275 3.46881 2.4197C3.59006 3.29782 4.07725 3.96876 4.84038 4.30907C4.95975 4.36251 5.06256 4.4147 5.16475 4.46689L4.16475 4.21689C3.5085 4.05189 2.836 4.4247 2.65819 5.04439C2.61661 5.18889 2.60456 5.34028 2.62276 5.48954C2.64096 5.6388 2.68904 5.78286 2.76413 5.91314C2.43163 6.05095 2.1635 6.32126 2.061 6.67782C2.01908 6.82347 2.00714 6.9761 2.02588 7.1265C2.04463 7.27689 2.09368 7.42192 2.17006 7.55282C2.19831 7.59874 2.22963 7.6427 2.26381 7.68439C1.99959 7.83536 1.80422 8.08293 1.71881 8.37501C1.67683 8.52063 1.66482 8.67326 1.68352 8.82366C1.70221 8.97405 1.75121 9.1191 1.82756 9.25001C1.86659 9.31684 1.91213 9.37964 1.9635 9.43751C1.71837 9.58844 1.53747 9.82441 1.45538 10.1003C1.41348 10.246 1.40154 10.3986 1.42028 10.549C1.43903 10.6994 1.48807 10.8444 1.56444 10.9753C1.64826 11.1173 1.75966 11.2409 1.89207 11.3391C2.02448 11.4373 2.17522 11.5079 2.33538 11.5469L3.10944 11.7344L1.136 14.5153C1.11082 14.5487 1.0926 14.5868 1.08241 14.6274C1.07223 14.6679 1.07028 14.7101 1.0767 14.7514C1.08311 14.7928 1.09775 14.8324 1.11976 14.8679C1.14176 14.9035 1.17068 14.9343 1.20479 14.9584C1.23891 14.9826 1.27753 14.9997 1.31837 15.0087C1.35921 15.0177 1.40144 15.0184 1.44255 15.0107C1.48367 15.0031 1.52283 14.9873 1.55772 14.9643C1.59262 14.9412 1.62253 14.9114 1.64569 14.8766L3.761 11.8888L4.1985 11.9938C4.30023 12.019 4.40463 12.0318 4.50944 12.0319C5.0535 12.0319 5.55444 11.6881 5.70319 11.1656C5.74384 11.0236 5.75593 10.8749 5.73877 10.7281C5.7216 10.5814 5.67552 10.4395 5.60319 10.3106C5.93694 10.1734 6.20663 9.90189 6.30913 9.54439C6.35102 9.39875 6.36298 9.24614 6.34429 9.09576C6.3256 8.94538 6.27664 8.80034 6.20038 8.66939C6.17124 8.6228 6.13887 8.57832 6.1035 8.53626C6.36863 8.38683 6.56546 8.14037 6.65256 7.84876C6.69413 7.70426 6.70616 7.55287 6.68796 7.40361C6.66976 7.25436 6.6217 7.11029 6.54663 6.98001C6.87913 6.84251 7.14756 6.57157 7.24975 6.21532C7.2963 6.04862 7.30336 5.87336 7.27038 5.70345C8.25006 5.34376 11.5276 4.15626 12.9035 3.82939C12.9971 3.81187 13.0918 3.8006 13.1869 3.79564C13.3385 3.7946 13.4857 3.84602 13.6036 3.94117C13.7215 4.03632 13.8028 4.16934 13.8338 4.31766C13.8648 4.46597 13.8435 4.62044 13.7736 4.75484C13.7036 4.88924 13.5893 4.9953 13.4501 5.05501C13.3845 5.0839 13.3309 5.13441 13.2982 5.19809C13.2655 5.26177 13.2556 5.33476 13.2702 5.40485C13.2849 5.47494 13.3231 5.53787 13.3786 5.58312C13.4341 5.62838 13.5035 5.6532 13.5751 5.65345C14.0235 5.65345 14.0901 6.04001 14.0901 6.27032C14.0901 6.37876 14.0685 6.92032 13.6363 6.96095C13.5592 6.96869 13.4878 7.00479 13.4358 7.06224C13.3838 7.1197 13.355 7.19441 13.355 7.27189C13.355 7.34936 13.3838 7.42408 13.4358 7.48153C13.4878 7.53899 13.5592 7.57509 13.6363 7.58282C14.0704 7.62345 14.1051 8.09282 14.1051 8.23564C14.1051 8.58782 13.9851 8.79814 13.7476 8.86345C13.6814 8.88144 13.6229 8.92071 13.5813 8.97521C13.5396 9.02971 13.517 9.09641 13.517 9.16501C13.517 9.23361 13.5396 9.30031 13.5813 9.35481C13.6229 9.40931 13.6814 9.44858 13.7476 9.46657C14.0963 9.56032 14.1338 9.94001 14.1338 10.0988C14.1338 10.2313 14.1026 10.6691 13.6926 10.7425C13.6765 10.7454 13.6606 10.7495 13.6451 10.7547L9.00006 12.3663C8.94821 12.3842 8.90205 12.4156 8.86631 12.4572L7.106 14.4916C7.07726 14.5223 7.05502 14.5585 7.0406 14.598C7.02618 14.6375 7.01989 14.6795 7.02209 14.7215C7.0243 14.7635 7.03496 14.8046 7.05344 14.8424C7.07192 14.8802 7.09784 14.9139 7.12964 14.9414C7.16143 14.9689 7.19846 14.9897 7.2385 15.0026C7.27854 15.0155 7.32077 15.0201 7.36265 15.0163C7.40453 15.0125 7.44521 15.0002 7.48225 14.9803C7.51928 14.9604 7.55192 14.9332 7.57819 14.9003L8.12506 14.2688L8.736 14.8972C8.76412 14.9285 8.79827 14.9538 8.8364 14.9715C8.87452 14.9893 8.91584 14.9992 8.95788 15.0006C8.99992 15.002 9.04181 14.9949 9.08105 14.9798C9.12028 14.9646 9.15605 14.9417 9.18621 14.9123C9.21637 14.883 9.2403 14.8479 9.25657 14.8091C9.27284 14.7703 9.28111 14.7287 9.28088 14.6866C9.28066 14.6445 9.27195 14.603 9.25527 14.5643C9.23859 14.5257 9.21428 14.4909 9.18381 14.4619L8.53538 13.7947L9.28538 12.9294L11.8601 12.0356L14.3751 14.8863C14.4299 14.9484 14.5072 14.9863 14.5899 14.9914C14.6726 14.9966 14.754 14.9687 14.8162 14.9139C14.8783 14.8591 14.9162 14.7818 14.9213 14.6991C14.9265 14.6164 14.8986 14.535 14.8438 14.4728ZM5.101 10.9938C5.01569 11.2928 4.67819 11.4688 4.34725 11.3872H4.34444L2.48444 10.9391C2.40579 10.9208 2.33164 10.8869 2.26644 10.8392C2.20125 10.7916 2.14636 10.7313 2.10506 10.6619C2.07094 10.6034 2.049 10.5386 2.04057 10.4714C2.03213 10.4042 2.03738 10.3361 2.056 10.2709C2.12725 10.0209 2.37319 9.85751 2.646 9.85751C2.70215 9.85767 2.75807 9.86459 2.81256 9.87814L3.18756 9.96876L4.74131 10.3575C4.8709 10.4007 4.9814 10.4876 5.05381 10.6034C5.08765 10.6619 5.10927 10.7267 5.11738 10.7938C5.12549 10.8609 5.11992 10.9289 5.101 10.9938ZM5.70694 9.37251C5.62163 9.6722 5.28194 9.84751 4.95413 9.76626C4.91095 9.74806 4.86682 9.73221 4.82194 9.71876L3.32663 9.35939L2.74788 9.21439C2.66923 9.19622 2.59508 9.16233 2.52988 9.11474C2.46468 9.06716 2.40978 9.00687 2.3685 8.93751C2.33426 8.87913 2.31223 8.81441 2.30375 8.74726C2.29526 8.68012 2.30049 8.61195 2.31913 8.54689C2.39069 8.29689 2.63756 8.13282 2.90881 8.13282C2.9532 8.13394 2.99736 8.13938 3.04069 8.14907L5.14475 8.67564C5.15569 8.67814 5.16663 8.6772 5.17756 8.6797L5.2785 8.70501C5.35716 8.72314 5.43133 8.75702 5.49653 8.80461C5.56174 8.8522 5.61662 8.9125 5.65788 8.98189C5.69206 9.04029 5.71404 9.10502 5.72247 9.17217C5.73091 9.23931 5.72562 9.30747 5.70694 9.37251ZM6.05069 7.67532C5.96881 7.96876 5.64038 8.13876 5.31881 8.07064L3.22506 7.54689C3.21131 7.54345 3.19756 7.54345 3.18381 7.54064L3.09006 7.51751C3.01139 7.49931 2.93722 7.46537 2.87202 7.41773C2.80682 7.37009 2.75194 7.30974 2.71069 7.24032C2.6765 7.18192 2.65453 7.11719 2.64609 7.05004C2.63766 6.9829 2.64294 6.91474 2.66163 6.8497C2.73288 6.5997 2.97975 6.43564 3.251 6.43564C3.30642 6.43565 3.36162 6.44247 3.41538 6.45595L3.49631 6.47626C3.50975 6.48001 3.52194 6.48657 3.53538 6.49001L5.64006 7.01657C5.79063 7.05555 5.91989 7.15205 6.00006 7.28532C6.03443 7.34353 6.05663 7.40811 6.06533 7.47514C6.07403 7.54217 6.06905 7.61027 6.05069 7.67532ZM6.64756 6.0422C6.56256 6.34189 6.22194 6.51751 5.89381 6.43751L5.81069 6.41657C5.79788 6.41314 5.78663 6.40657 5.77381 6.40345L3.66819 5.87501C3.51813 5.83604 3.38926 5.73993 3.30913 5.6072C3.27489 5.54882 3.25286 5.4841 3.24437 5.41695C3.23588 5.34981 3.24112 5.28164 3.25975 5.21657C3.33131 4.96657 3.57819 4.80251 3.84944 4.80251C3.90475 4.8025 3.95986 4.80933 4.0135 4.82282L6.21881 5.37501C6.29749 5.39321 6.37166 5.42716 6.43686 5.47479C6.50206 5.52243 6.55694 5.58278 6.59819 5.6522C6.63234 5.7105 6.65433 5.77511 6.66281 5.84214C6.6713 5.90917 6.66611 5.97723 6.64756 6.0422ZM6.99131 5.13876C6.96648 5.11372 6.9404 5.08994 6.91319 5.06751C6.80131 4.88001 6.37881 4.31095 5.09538 3.73845C4.37913 3.41939 4.15225 2.79845 4.08819 2.33439C4.08607 2.31812 4.08808 2.30157 4.09403 2.28628C4.09999 2.27099 4.10969 2.25744 4.12225 2.24689C4.13913 2.23126 4.18475 2.19814 4.27256 2.21814L8.28819 2.97345C9.10819 3.53345 9.61881 3.8797 9.94819 4.08939C8.6985 4.51501 7.48288 4.95814 6.99194 5.13876H6.99131ZM11.1148 2.69282C11.061 3.05407 10.8391 3.38345 10.4726 3.67782C10.1776 3.4922 9.60881 3.11532 9.01631 2.71282L10.9151 1.71501C11.0313 1.93501 11.1729 2.29814 11.1148 2.69282Z"/><path stroke="url(#paint1_linear_143_3306)" stroke-width=".227" d="M14.8438 14.4728L12.4969 11.8144L13.8276 11.3525C14.3941 11.2388 14.7582 10.7497 14.7582 10.0988C14.7582 9.71689 14.6348 9.39064 14.4179 9.16126C14.6198 8.9397 14.7304 8.6222 14.7304 8.23407C14.7304 7.83032 14.5938 7.49001 14.361 7.26189C14.5854 7.0272 14.7163 6.68001 14.7163 6.26876C14.7163 5.79564 14.5304 5.42157 14.2191 5.2122C14.3602 5.0214 14.4454 4.79519 14.4655 4.55878C14.4855 4.32237 14.4395 4.08504 14.3325 3.87324C14.2256 3.66144 14.062 3.48349 13.8599 3.35921C13.6578 3.23494 13.4251 3.16922 13.1879 3.16939C13.0504 3.17489 12.9136 3.19055 12.7785 3.21626C12.4154 3.30189 11.9326 3.44314 11.4019 3.61001C11.5752 3.36361 11.6888 3.08033 11.7338 2.78251C11.8679 1.8722 11.2963 1.13907 11.271 1.10814C11.2257 1.05118 11.162 1.0118 11.0908 0.996798C11.0196 0.981795 10.9454 0.992104 10.881 1.02595L8.361 2.35126L4.40319 1.6072C4.28086 1.57729 4.15308 1.5778 4.031 1.60869C3.90891 1.63958 3.79626 1.6999 3.70288 1.78439C3.61502 1.86318 3.54777 1.96225 3.50698 2.07299C3.46618 2.18372 3.45308 2.30275 3.46881 2.4197C3.59006 3.29782 4.07725 3.96876 4.84038 4.30907C4.95975 4.36251 5.06256 4.4147 5.16475 4.46689L4.16475 4.21689C3.5085 4.05189 2.836 4.4247 2.65819 5.04439C2.61661 5.18889 2.60456 5.34028 2.62276 5.48954C2.64096 5.6388 2.68904 5.78286 2.76413 5.91314C2.43163 6.05095 2.1635 6.32126 2.061 6.67782C2.01908 6.82347 2.00714 6.9761 2.02588 7.1265C2.04463 7.27689 2.09368 7.42192 2.17006 7.55282C2.19831 7.59874 2.22963 7.6427 2.26381 7.68439C1.99959 7.83536 1.80422 8.08293 1.71881 8.37501C1.67683 8.52063 1.66482 8.67326 1.68352 8.82366C1.70221 8.97405 1.75121 9.1191 1.82756 9.25001C1.86659 9.31684 1.91213 9.37964 1.9635 9.43751C1.71837 9.58844 1.53747 9.82441 1.45538 10.1003C1.41348 10.246 1.40154 10.3986 1.42028 10.549C1.43903 10.6994 1.48807 10.8444 1.56444 10.9753C1.64826 11.1173 1.75966 11.2409 1.89207 11.3391C2.02448 11.4373 2.17522 11.5079 2.33538 11.5469L3.10944 11.7344L1.136 14.5153C1.11082 14.5487 1.0926 14.5868 1.08241 14.6274C1.07223 14.6679 1.07028 14.7101 1.0767 14.7514C1.08311 14.7928 1.09775 14.8324 1.11976 14.8679C1.14176 14.9035 1.17068 14.9343 1.20479 14.9584C1.23891 14.9826 1.27753 14.9997 1.31837 15.0087C1.35921 15.0177 1.40144 15.0184 1.44255 15.0107C1.48367 15.0031 1.52283 14.9873 1.55772 14.9643C1.59262 14.9412 1.62253 14.9114 1.64569 14.8766L3.761 11.8888L4.1985 11.9938C4.30023 12.019 4.40463 12.0318 4.50944 12.0319C5.0535 12.0319 5.55444 11.6881 5.70319 11.1656C5.74384 11.0236 5.75593 10.8749 5.73877 10.7281C5.7216 10.5814 5.67552 10.4395 5.60319 10.3106C5.93694 10.1734 6.20663 9.90189 6.30913 9.54439C6.35102 9.39875 6.36298 9.24614 6.34429 9.09576C6.3256 8.94538 6.27664 8.80034 6.20038 8.66939C6.17124 8.6228 6.13887 8.57832 6.1035 8.53626C6.36863 8.38683 6.56546 8.14037 6.65256 7.84876C6.69413 7.70426 6.70616 7.55287 6.68796 7.40361C6.66976 7.25436 6.6217 7.11029 6.54663 6.98001C6.87913 6.84251 7.14756 6.57157 7.24975 6.21532C7.2963 6.04862 7.30336 5.87336 7.27038 5.70345C8.25006 5.34376 11.5276 4.15626 12.9035 3.82939C12.9971 3.81187 13.0918 3.8006 13.1869 3.79564C13.3385 3.7946 13.4857 3.84602 13.6036 3.94117C13.7215 4.03632 13.8028 4.16934 13.8338 4.31766C13.8648 4.46597 13.8435 4.62044 13.7736 4.75484C13.7036 4.88924 13.5893 4.9953 13.4501 5.05501C13.3845 5.0839 13.3309 5.13441 13.2982 5.19809C13.2655 5.26177 13.2556 5.33476 13.2702 5.40485C13.2849 5.47494 13.3231 5.53787 13.3786 5.58312C13.4341 5.62838 13.5035 5.6532 13.5751 5.65345C14.0235 5.65345 14.0901 6.04001 14.0901 6.27032C14.0901 6.37876 14.0685 6.92032 13.6363 6.96095C13.5592 6.96869 13.4878 7.00479 13.4358 7.06224C13.3838 7.1197 13.355 7.19441 13.355 7.27189C13.355 7.34936 13.3838 7.42408 13.4358 7.48153C13.4878 7.53899 13.5592 7.57509 13.6363 7.58282C14.0704 7.62345 14.1051 8.09282 14.1051 8.23564C14.1051 8.58782 13.9851 8.79814 13.7476 8.86345C13.6814 8.88144 13.6229 8.92071 13.5813 8.97521C13.5396 9.02971 13.517 9.09641 13.517 9.16501C13.517 9.23361 13.5396 9.30031 13.5813 9.35481C13.6229 9.40931 13.6814 9.44858 13.7476 9.46657C14.0963 9.56032 14.1338 9.94001 14.1338 10.0988C14.1338 10.2313 14.1026 10.6691 13.6926 10.7425C13.6765 10.7454 13.6606 10.7495 13.6451 10.7547L9.00006 12.3663C8.94821 12.3842 8.90205 12.4156 8.86631 12.4572L7.106 14.4916C7.07726 14.5223 7.05502 14.5585 7.0406 14.598C7.02618 14.6375 7.01989 14.6795 7.02209 14.7215C7.0243 14.7635 7.03496 14.8046 7.05344 14.8424C7.07192 14.8802 7.09784 14.9139 7.12964 14.9414C7.16143 14.9689 7.19846 14.9897 7.2385 15.0026C7.27854 15.0155 7.32077 15.0201 7.36265 15.0163C7.40453 15.0125 7.44521 15.0002 7.48225 14.9803C7.51928 14.9604 7.55192 14.9332 7.57819 14.9003L8.12506 14.2688L8.736 14.8972C8.76412 14.9285 8.79827 14.9538 8.8364 14.9715C8.87452 14.9893 8.91584 14.9992 8.95788 15.0006C8.99992 15.002 9.04181 14.9949 9.08105 14.9798C9.12028 14.9646 9.15605 14.9417 9.18621 14.9123C9.21637 14.883 9.2403 14.8479 9.25657 14.8091C9.27284 14.7703 9.28111 14.7287 9.28088 14.6866C9.28066 14.6445 9.27195 14.603 9.25527 14.5643C9.23859 14.5257 9.21428 14.4909 9.18381 14.4619L8.53538 13.7947L9.28538 12.9294L11.8601 12.0356L14.3751 14.8863C14.4299 14.9484 14.5072 14.9863 14.5899 14.9914C14.6726 14.9966 14.754 14.9687 14.8162 14.9139C14.8783 14.8591 14.9162 14.7818 14.9213 14.6991C14.9265 14.6164 14.8986 14.535 14.8438 14.4728ZM5.101 10.9938C5.01569 11.2928 4.67819 11.4688 4.34725 11.3872H4.34444L2.48444 10.9391C2.40579 10.9208 2.33164 10.8869 2.26644 10.8392C2.20125 10.7916 2.14636 10.7313 2.10506 10.6619C2.07094 10.6034 2.049 10.5386 2.04057 10.4714C2.03213 10.4042 2.03738 10.3361 2.056 10.2709C2.12725 10.0209 2.37319 9.85751 2.646 9.85751C2.70215 9.85767 2.75807 9.86459 2.81256 9.87814L3.18756 9.96876L4.74131 10.3575C4.8709 10.4007 4.9814 10.4876 5.05381 10.6034C5.08765 10.6619 5.10927 10.7267 5.11738 10.7938C5.12549 10.8609 5.11992 10.9289 5.101 10.9938ZM5.70694 9.37251C5.62163 9.6722 5.28194 9.84751 4.95413 9.76626C4.91095 9.74806 4.86682 9.73221 4.82194 9.71876L3.32663 9.35939L2.74788 9.21439C2.66923 9.19622 2.59508 9.16233 2.52988 9.11474C2.46468 9.06716 2.40978 9.00687 2.3685 8.93751C2.33426 8.87913 2.31223 8.81441 2.30375 8.74726C2.29526 8.68012 2.30049 8.61195 2.31913 8.54689C2.39069 8.29689 2.63756 8.13282 2.90881 8.13282C2.9532 8.13394 2.99736 8.13938 3.04069 8.14907L5.14475 8.67564C5.15569 8.67814 5.16663 8.6772 5.17756 8.6797L5.2785 8.70501C5.35716 8.72314 5.43133 8.75702 5.49653 8.80461C5.56174 8.8522 5.61662 8.9125 5.65788 8.98189C5.69206 9.04029 5.71404 9.10502 5.72247 9.17217C5.73091 9.23931 5.72562 9.30747 5.70694 9.37251ZM6.05069 7.67532C5.96881 7.96876 5.64038 8.13876 5.31881 8.07064L3.22506 7.54689C3.21131 7.54345 3.19756 7.54345 3.18381 7.54064L3.09006 7.51751C3.01139 7.49931 2.93722 7.46537 2.87202 7.41773C2.80682 7.37009 2.75194 7.30974 2.71069 7.24032C2.6765 7.18192 2.65453 7.11719 2.64609 7.05004C2.63766 6.9829 2.64294 6.91474 2.66163 6.8497C2.73288 6.5997 2.97975 6.43564 3.251 6.43564C3.30642 6.43565 3.36162 6.44247 3.41538 6.45595L3.49631 6.47626C3.50975 6.48001 3.52194 6.48657 3.53538 6.49001L5.64006 7.01657C5.79063 7.05555 5.91989 7.15205 6.00006 7.28532C6.03443 7.34353 6.05663 7.40811 6.06533 7.47514C6.07403 7.54217 6.06905 7.61027 6.05069 7.67532ZM6.64756 6.0422C6.56256 6.34189 6.22194 6.51751 5.89381 6.43751L5.81069 6.41657C5.79788 6.41314 5.78663 6.40657 5.77381 6.40345L3.66819 5.87501C3.51813 5.83604 3.38926 5.73993 3.30913 5.6072C3.27489 5.54882 3.25286 5.4841 3.24437 5.41695C3.23588 5.34981 3.24112 5.28164 3.25975 5.21657C3.33131 4.96657 3.57819 4.80251 3.84944 4.80251C3.90475 4.8025 3.95986 4.80933 4.0135 4.82282L6.21881 5.37501C6.29749 5.39321 6.37166 5.42716 6.43686 5.47479C6.50206 5.52243 6.55694 5.58278 6.59819 5.6522C6.63234 5.7105 6.65433 5.77511 6.66281 5.84214C6.6713 5.90917 6.66611 5.97723 6.64756 6.0422ZM6.99131 5.13876C6.96648 5.11372 6.9404 5.08994 6.91319 5.06751C6.80131 4.88001 6.37881 4.31095 5.09538 3.73845C4.37913 3.41939 4.15225 2.79845 4.08819 2.33439C4.08607 2.31812 4.08808 2.30157 4.09403 2.28628C4.09999 2.27099 4.10969 2.25744 4.12225 2.24689C4.13913 2.23126 4.18475 2.19814 4.27256 2.21814L8.28819 2.97345C9.10819 3.53345 9.61881 3.8797 9.94819 4.08939C8.6985 4.51501 7.48288 4.95814 6.99194 5.13876H6.99131ZM11.1148 2.69282C11.061 3.05407 10.8391 3.38345 10.4726 3.67782C10.1776 3.4922 9.60881 3.11532 9.01631 2.71282L10.9151 1.71501C11.0313 1.93501 11.1729 2.29814 11.1148 2.69282Z" mask="url(#path-1-outside-1_143_3306)"/></g><defs><linearGradient id="paint0_linear_143_3306" x1="1.073" x2="14.922" y1="8.004" y2="8.004" gradientUnits="userSpaceOnUse"><stop stop-color="#FFA18D"/><stop offset="1" stop-color="#FD3E84"/></linearGradient><linearGradient id="paint1_linear_143_3306" x1="1.073" x2="14.922" y1="8.004" y2="8.004" gradientUnits="userSpaceOnUse"><stop stop-color="#FFA18D"/><stop offset="1" stop-color="#FD3E84"/></linearGradient><clipPath id="clip0_143_3306"><rect width="16" height="16" fill="#fff"/></clipPath></defs></svg>