<svg xmlns="http://www.w3.org/2000/svg" width="16" height="16" fill="none" viewBox="0 0 16 16"><path fill="url(#paint0_linear_143_3398)" stroke="url(#paint1_linear_143_3398)" stroke-width=".1" d="M15.4951 4.39191C15.5386 4.39104 15.5815 4.40131 15.6191 4.42316C15.6569 4.44508 15.6882 4.47661 15.709 4.51495C15.7298 4.55336 15.7395 4.5973 15.7373 4.64093C15.7362 4.66259 15.7324 4.68404 15.7256 4.70441L15.6963 4.76202L11.2383 11.4036C11.2041 11.4546 11.1517 11.4902 11.0918 11.5032C11.0317 11.5162 10.9683 11.5054 10.916 11.473L8.62109 10.053L4.94629 12.8948L4.94336 12.8968L4.94238 12.8958C4.92591 12.9079 4.90867 12.9187 4.88965 12.9261C4.86227 12.9368 4.83309 12.9426 4.80371 12.9427C4.80099 12.9427 4.79736 12.9428 4.79395 12.9427C4.74432 12.9406 4.69642 12.9224 4.65723 12.8919L4.65625 12.8909C4.63183 12.8717 4.6109 12.8478 4.5957 12.8206C4.58807 12.8069 4.58192 12.7925 4.57715 12.7776L4.56738 12.7327L3.85352 7.1048L0.375 4.95245H0.374023C0.331379 4.9248 0.299252 4.88377 0.28125 4.83624C0.263301 4.78873 0.260779 4.73673 0.274414 4.68781C0.288143 4.6388 0.317319 4.59512 0.357422 4.56378C0.397465 4.53254 0.446305 4.5145 0.49707 4.513H0.498047L15.4951 4.39093V4.39191ZM5.24316 12.0638L8.18945 9.78644L6.28027 8.60577L5.24316 12.0638ZM4.33789 7.1507L4.89746 11.5628L5.91406 8.17413L5.94141 8.11554V8.11456L5.94531 8.10675L5.94629 8.10577L5.94727 8.10382H5.94824L5.95117 8.09894H5.95215C5.9685 8.07702 5.98908 8.05926 6.01172 8.04425L6.01074 8.03156L6.04785 8.02179L6.11523 7.98859V7.9964C6.46133 7.86262 8.07565 7.24035 9.68652 6.61847C10.5948 6.26784 11.5029 5.9168 12.1846 5.65363C12.403 5.56932 12.5983 5.49347 12.7627 5.42999L4.33789 7.1507ZM6.67285 8.29034L10.9717 10.9485L14.8828 5.12042L6.67285 8.29034ZM1.32324 4.98077L4.12012 6.71027L13.0547 4.88507L1.32324 4.98077Z"/><path stroke="url(#paint2_linear_143_3398)" stroke-width=".2" d="M3.16602 11.403C3.18291 11.4482 3.21847 11.4838 3.26367 11.5007L3.71094 11.6667L3.26367 11.8327C3.22978 11.8454 3.20092 11.8683 3.18164 11.8981L3.16602 11.9304L3 12.3776L2.83398 11.9304C2.81709 11.8852 2.78153 11.8496 2.73633 11.8327L2.28809 11.6667L2.73633 11.5007C2.78153 11.4838 2.81709 11.4482 2.83398 11.403L3 10.9548L3.16602 11.403Z"/><path stroke="url(#paint3_linear_143_3398)" stroke-width=".2" d="M5.83276 2.73633C5.84966 2.78153 5.88522 2.81709 5.93042 2.83398L6.37769 3L5.93042 3.16602C5.89653 3.17868 5.86766 3.20157 5.84839 3.23145L5.83276 3.26367L5.66675 3.71094L5.50073 3.26367C5.48384 3.21847 5.44827 3.18291 5.40308 3.16602L4.95483 3L5.40308 2.83398C5.44827 2.81709 5.48384 2.78153 5.50073 2.73633L5.66675 2.28809L5.83276 2.73633Z"/><circle cx="8.333" cy="11.667" r=".233" stroke="url(#paint4_linear_143_3398)" stroke-width=".2"/><defs><linearGradient id="paint0_linear_143_3398" x1=".315" x2="15.688" y1="8.667" y2="8.667" gradientUnits="userSpaceOnUse"><stop stop-color="#FFA18D"/><stop offset="1" stop-color="#FD3E84"/></linearGradient><linearGradient id="paint1_linear_143_3398" x1=".315" x2="15.688" y1="8.667" y2="8.667" gradientUnits="userSpaceOnUse"><stop stop-color="#FFA18D"/><stop offset="1" stop-color="#FD3E84"/></linearGradient><linearGradient id="paint2_linear_143_3398" x1="2" x2="4" y1="11.667" y2="11.667" gradientUnits="userSpaceOnUse"><stop stop-color="#FFA18D"/><stop offset="1" stop-color="#FD3E84"/></linearGradient><linearGradient id="paint3_linear_143_3398" x1="4.667" x2="6.667" y1="3" y2="3" gradientUnits="userSpaceOnUse"><stop stop-color="#FFA18D"/><stop offset="1" stop-color="#FD3E84"/></linearGradient><linearGradient id="paint4_linear_143_3398" x1="8" x2="8.667" y1="11.667" y2="11.667" gradientUnits="userSpaceOnUse"><stop stop-color="#FFA18D"/><stop offset="1" stop-color="#FD3E84"/></linearGradient></defs></svg>