<svg xmlns="http://www.w3.org/2000/svg" width="16" height="16" fill="none" viewBox="0 0 16 16"><path fill="url(#paint0_linear_143_3420)" stroke="url(#paint1_linear_143_3420)" stroke-width=".133" d="M8.00024 1.27002C8.04225 1.27006 8.08426 1.27909 8.12231 1.29639C8.16017 1.31367 8.19359 1.33893 8.21997 1.37061L8.2229 1.37354L9.07935 2.521L10.5374 2.91553C10.5788 2.92683 10.6169 2.9477 10.6487 2.97607C10.6804 3.00444 10.7048 3.03977 10.719 3.07959C10.7332 3.11964 10.7366 3.16287 10.7288 3.20459C10.7209 3.2463 10.7024 3.28516 10.675 3.31787L9.75024 4.41846L9.79321 5.80713C9.79448 5.84959 9.78406 5.89168 9.76392 5.9292C9.74383 5.96652 9.71451 5.99825 9.67896 6.02197C9.6433 6.04575 9.60163 6.06123 9.55884 6.06689C9.51623 6.07246 9.47265 6.06848 9.43188 6.05518L8.00024 5.5874L6.5686 6.05518H6.56763C6.52675 6.06844 6.48337 6.07256 6.44067 6.06689C6.39785 6.0612 6.35623 6.04676 6.32056 6.02295C6.2849 5.99913 6.25567 5.96669 6.2356 5.9292C6.21553 5.89167 6.20596 5.84955 6.20728 5.80713L6.24829 4.41943L5.32446 3.31787C5.29708 3.28522 5.27862 3.24625 5.27075 3.20459C5.26289 3.16282 5.26632 3.11969 5.28052 3.07959C5.29471 3.03959 5.31894 3.00356 5.35083 2.9751C5.3827 2.94669 5.42156 2.92677 5.46313 2.91553L6.91919 2.521L7.77759 1.37354L7.77954 1.37061C7.80606 1.3387 7.84005 1.31371 7.87817 1.29639C7.91632 1.27906 7.95814 1.27002 8.00024 1.27002ZM7.30981 2.88721C7.27375 2.93563 7.22131 2.97001 7.16235 2.98584L6.00122 3.29932L6.73657 4.17627C6.77538 4.22267 6.79695 4.28111 6.79517 4.34131L6.76099 5.45166L7.9104 5.07764C7.96823 5.05874 8.03127 5.05877 8.08911 5.07764L9.23853 5.45264L9.20532 4.34033C9.20356 4.28037 9.22426 4.22246 9.26294 4.17627L9.99829 3.29932L8.83716 2.98584C8.77833 2.96996 8.72569 2.93555 8.6897 2.88721L7.99927 1.9624L7.30981 2.88721Z"/><path fill="url(#paint2_linear_143_3420)" stroke="url(#paint3_linear_143_3420)" stroke-width=".133" d="M3.3335 4.60333C3.37652 4.60337 3.41896 4.61305 3.45752 4.63165C3.49622 4.65035 3.53066 4.67762 3.55615 4.71173L4.4126 5.85822L5.86963 6.25177C5.91128 6.26298 5.95001 6.28388 5.98193 6.31232C6.01373 6.34067 6.03804 6.37599 6.05225 6.41583C6.06646 6.45592 6.0699 6.49907 6.06201 6.54083C6.05804 6.56186 6.0517 6.58225 6.04248 6.60138L6.0083 6.65411L5.0835 7.75372L5.12646 9.14044C5.12782 9.18292 5.11729 9.22494 5.09717 9.26251C5.07711 9.2999 5.04779 9.33152 5.01221 9.35529C4.97665 9.379 4.93573 9.39448 4.89307 9.40021C4.85025 9.40588 4.80611 9.40184 4.76514 9.38849L3.33252 8.92169L1.90088 9.38849C1.86 9.40176 1.81662 9.40586 1.77393 9.40021C1.73111 9.39452 1.68948 9.38006 1.65381 9.35626C1.61816 9.33246 1.58891 9.29999 1.56885 9.26251C1.54882 9.22502 1.53918 9.18282 1.54053 9.14044L1.58154 7.75372L0.657715 6.65411C0.630332 6.62149 0.611868 6.58247 0.604004 6.54083C0.596134 6.49909 0.599565 6.4559 0.61377 6.41583C0.627944 6.37602 0.652348 6.34066 0.684082 6.31232C0.716008 6.28388 0.75474 6.26298 0.796387 6.25177L2.25244 5.85822L3.11084 4.71173C3.13629 4.67768 3.16988 4.65034 3.2085 4.63165C3.24718 4.61297 3.29032 4.60333 3.3335 4.60333ZM2.64307 6.22443C2.607 6.27271 2.55444 6.30718 2.49561 6.32306L1.33447 6.63556L2.06982 7.51154H2.0708C2.10952 7.55787 2.1302 7.61648 2.12842 7.67657L2.09424 8.78497L3.24365 8.41193C3.30145 8.39305 3.36455 8.3931 3.42236 8.41193L4.5708 8.78497L4.53857 7.67657C4.53658 7.6164 4.55745 7.55797 4.59619 7.51154L5.33057 6.63654L4.17041 6.32306C4.11163 6.30715 4.05906 6.27261 4.02295 6.22443L3.33252 5.3006L2.64307 6.22443Z"/><path fill="url(#paint4_linear_143_3420)" stroke="url(#paint5_linear_143_3420)" stroke-width=".133" d="M4.99951 9.93671C5.03883 9.93671 5.07781 9.94597 5.11279 9.96405C5.14772 9.98216 5.17836 10.0083 5.20166 10.0402L5.20361 10.0432L5.95264 11.1896L7.22412 11.5822C7.26289 11.5942 7.29817 11.6166 7.32666 11.6457C7.35498 11.6747 7.37614 11.7103 7.38818 11.7492C7.40017 11.788 7.40256 11.8292 7.396 11.8693C7.38939 11.9094 7.374 11.9479 7.3501 11.9807L6.53955 13.0832L6.57666 14.4738C6.5778 14.5147 6.56956 14.556 6.55225 14.593C6.53493 14.6298 6.50931 14.6621 6.47705 14.6867C6.4447 14.7114 6.40684 14.7275 6.3667 14.7336C6.32654 14.7397 6.28564 14.7351 6.24756 14.7209L4.99951 14.2551L3.75244 14.7209C3.71447 14.735 3.67334 14.7396 3.6333 14.7336C3.59326 14.7275 3.55525 14.7113 3.52295 14.6867C3.49063 14.662 3.4641 14.6299 3.44678 14.593C3.42946 14.556 3.42125 14.5147 3.42236 14.4738L3.4585 13.0832L2.6499 11.9807C2.62593 11.9479 2.60964 11.9095 2.60303 11.8693C2.59648 11.8292 2.59982 11.788 2.61182 11.7492C2.62388 11.7103 2.64494 11.6747 2.67334 11.6457C2.70183 11.6166 2.73711 11.5942 2.77588 11.5822L4.04639 11.1896L4.79639 10.0432L4.79736 10.0402H4.79834C4.82158 10.0085 4.85145 9.98213 4.88623 9.96405C4.9212 9.94591 4.96018 9.93676 4.99951 9.93671ZM4.40479 11.551C4.37318 11.5992 4.32587 11.6356 4.271 11.6525L3.25635 11.965L3.90381 12.8469C3.93759 12.8931 3.95497 12.9496 3.95361 13.007V13.008L3.92432 14.1144L4.9165 13.7453L4.95752 13.7336C4.99937 13.7261 5.04306 13.7303 5.0835 13.7453L6.07471 14.1144L6.04639 13.008C6.04488 12.9503 6.06218 12.8933 6.09619 12.8469L6.74268 11.965L5.72803 11.6525C5.67325 11.6356 5.6268 11.5991 5.59521 11.551L4.99951 10.6408L4.40479 11.551Z"/><path fill="url(#paint6_linear_143_3420)" stroke="url(#paint7_linear_143_3420)" stroke-width=".133" d="M10.9995 9.93671C11.0388 9.93671 11.0778 9.94597 11.1128 9.96405C11.1477 9.98216 11.1784 10.0083 11.2017 10.0402L11.2036 10.0432L11.9526 11.1896L13.2241 11.5822C13.2629 11.5942 13.2982 11.6166 13.3267 11.6457C13.355 11.6747 13.3761 11.7103 13.3882 11.7492C13.4002 11.788 13.4026 11.8292 13.396 11.8693C13.3894 11.9094 13.374 11.9479 13.3501 11.9807L12.5396 13.0832L12.5767 14.4738C12.5778 14.5147 12.5695 14.556 12.5522 14.593C12.5349 14.6298 12.5093 14.6621 12.4771 14.6867C12.4447 14.7114 12.4068 14.7275 12.3667 14.7336C12.3466 14.7366 12.3262 14.7376 12.3062 14.7355L12.2476 14.7219L10.9995 14.2551L9.75244 14.7219C9.71446 14.736 9.67335 14.7396 9.6333 14.7336C9.59324 14.7275 9.55525 14.7113 9.52295 14.6867C9.49063 14.662 9.46408 14.6299 9.44678 14.593C9.42948 14.556 9.42123 14.5147 9.42236 14.4738L9.4585 13.0832L8.6499 11.9807C8.62592 11.9479 8.60966 11.9095 8.60303 11.8693C8.59646 11.8292 8.59982 11.788 8.61182 11.7492C8.62387 11.7103 8.64494 11.6747 8.67334 11.6457C8.70182 11.6166 8.73712 11.5942 8.77588 11.5822L10.0464 11.1896L10.7964 10.0432L10.7974 10.0402H10.7983C10.8216 10.0085 10.8514 9.98213 10.8862 9.96405C10.9212 9.94591 10.9602 9.93676 10.9995 9.93671ZM10.4048 11.551C10.3732 11.5991 10.3267 11.6355 10.272 11.6525L9.25635 11.965L9.90381 12.8469C9.93782 12.8932 9.95524 12.9503 9.95361 13.008L9.92432 14.1144L10.9165 13.7453L10.9575 13.7336C10.9993 13.7261 11.0431 13.7303 11.0835 13.7453L12.0747 14.1144L12.0464 13.008C12.0448 12.9502 12.0621 12.8933 12.0962 12.8469L12.7427 11.965L11.728 11.6525C11.7007 11.6441 11.6753 11.6306 11.6528 11.6135L11.5942 11.551L10.9995 10.6408L10.4048 11.551Z"/><path fill="url(#paint8_linear_143_3420)" stroke="url(#paint9_linear_143_3420)" stroke-width=".133" d="M12.667 4.60333C12.7102 4.60333 12.7533 4.61297 12.792 4.63165C12.8305 4.65034 12.8642 4.67772 12.8896 4.71173L13.7461 5.85822L15.2031 6.25177C15.2448 6.26297 15.2835 6.28388 15.3154 6.31232C15.3472 6.34067 15.3716 6.37597 15.3857 6.41583C15.4 6.4559 15.4034 6.49908 15.3955 6.54083C15.3876 6.58249 15.3692 6.62147 15.3418 6.65411L14.417 7.75372L14.46 9.14044L14.4531 9.20392C14.4483 9.22425 14.4406 9.24386 14.4307 9.26251C14.4106 9.30002 14.3814 9.33245 14.3457 9.35626C14.3102 9.37991 14.2691 9.39448 14.2266 9.40021C14.1837 9.4059 14.1396 9.40183 14.0986 9.38849L12.666 8.92169L11.2344 9.38849C11.1935 9.40179 11.1501 9.40583 11.1074 9.40021C11.0646 9.39452 11.023 9.38004 10.9873 9.35626C10.9516 9.33245 10.9224 9.30002 10.9023 9.26251C10.8823 9.22499 10.8727 9.18286 10.874 9.14044L10.915 7.75372L9.99121 6.65411C9.96383 6.62144 9.94533 6.58251 9.9375 6.54083C9.92966 6.4991 9.93307 6.45589 9.94727 6.41583C9.96145 6.37603 9.98585 6.34067 10.0176 6.31232C10.0495 6.28388 10.0883 6.26304 10.1299 6.25177L11.5859 5.85822L12.4443 4.71173C12.4697 4.67776 12.5035 4.65034 12.542 4.63165C12.5807 4.61298 12.6238 4.60334 12.667 4.60333ZM11.9766 6.22443C11.9405 6.27277 11.888 6.30723 11.8291 6.32306L10.668 6.63556L11.4033 7.51154H11.4023C11.4413 7.5579 11.4628 7.61629 11.4609 7.67657L11.4277 8.78595L12.5771 8.41193C12.635 8.39309 12.698 8.39311 12.7559 8.41193L13.9053 8.78595L13.8721 7.67657C13.8701 7.61635 13.8908 7.55788 13.9297 7.51154L14.6641 6.63654L13.5039 6.32306C13.445 6.30721 13.3925 6.27277 13.3564 6.22443L12.666 5.3006L11.9766 6.22443Z"/><defs><linearGradient id="paint0_linear_143_3420" x1="5.333" x2="10.667" y1="3.67" y2="3.67" gradientUnits="userSpaceOnUse"><stop stop-color="#FFA18D"/><stop offset="1" stop-color="#FD3E84"/></linearGradient><linearGradient id="paint1_linear_143_3420" x1="5.333" x2="10.667" y1="3.67" y2="3.67" gradientUnits="userSpaceOnUse"><stop stop-color="#FFA18D"/><stop offset="1" stop-color="#FD3E84"/></linearGradient><linearGradient id="paint2_linear_143_3420" x1=".667" x2="6" y1="7.003" y2="7.003" gradientUnits="userSpaceOnUse"><stop stop-color="#FFA18D"/><stop offset="1" stop-color="#FD3E84"/></linearGradient><linearGradient id="paint3_linear_143_3420" x1=".667" x2="6" y1="7.003" y2="7.003" gradientUnits="userSpaceOnUse"><stop stop-color="#FFA18D"/><stop offset="1" stop-color="#FD3E84"/></linearGradient><linearGradient id="paint4_linear_143_3420" x1="2.667" x2="7.333" y1="12.336" y2="12.336" gradientUnits="userSpaceOnUse"><stop stop-color="#FFA18D"/><stop offset="1" stop-color="#FD3E84"/></linearGradient><linearGradient id="paint5_linear_143_3420" x1="2.667" x2="7.333" y1="12.336" y2="12.336" gradientUnits="userSpaceOnUse"><stop stop-color="#FFA18D"/><stop offset="1" stop-color="#FD3E84"/></linearGradient><linearGradient id="paint6_linear_143_3420" x1="8.666" x2="13.333" y1="12.336" y2="12.336" gradientUnits="userSpaceOnUse"><stop stop-color="#FFA18D"/><stop offset="1" stop-color="#FD3E84"/></linearGradient><linearGradient id="paint7_linear_143_3420" x1="8.666" x2="13.333" y1="12.336" y2="12.336" gradientUnits="userSpaceOnUse"><stop stop-color="#FFA18D"/><stop offset="1" stop-color="#FD3E84"/></linearGradient><linearGradient id="paint8_linear_143_3420" x1="10" x2="15.333" y1="7.003" y2="7.003" gradientUnits="userSpaceOnUse"><stop stop-color="#FFA18D"/><stop offset="1" stop-color="#FD3E84"/></linearGradient><linearGradient id="paint9_linear_143_3420" x1="10" x2="15.333" y1="7.003" y2="7.003" gradientUnits="userSpaceOnUse"><stop stop-color="#FFA18D"/><stop offset="1" stop-color="#FD3E84"/></linearGradient></defs></svg>