<svg xmlns="http://www.w3.org/2000/svg" width="16" height="16" fill="none" viewBox="0 0 16 16"><g clip-path="url(#clip0_142_3285)"><path fill="url(#paint0_linear_142_3285)" d="M4.55542 5.81367H11.4325C11.6051 5.81367 11.7451 5.67369 11.7451 5.50107C11.7451 5.32846 11.6051 5.18848 11.4325 5.18848H4.55542C4.14327 5.20286 4.13945 5.79772 4.55542 5.81367Z"/><path fill="url(#paint1_linear_142_3285)" d="M4.55542 7.06403H11.4325C11.6051 7.06403 11.7451 6.92405 11.7451 6.75144C11.7451 6.57882 11.6051 6.43884 11.4325 6.43884H4.55542C4.14327 6.45322 4.13945 7.04809 4.55542 7.06403Z"/><path fill="url(#paint2_linear_142_3285)" d="M4.55542 8.31443H11.4325C11.6051 8.31443 11.7451 8.17445 11.7451 8.00183C11.7451 7.82922 11.6051 7.68924 11.4325 7.68924H4.55542C4.14327 7.70362 4.13945 8.29849 4.55542 8.31443Z"/><path fill="url(#paint3_linear_142_3285)" d="M7.994 8.93961H4.55546C4.14221 8.95449 4.14049 9.5492 4.55546 9.5648H7.994C8.40725 9.54992 8.40897 8.9552 7.994 8.93961Z"/><path fill="url(#paint4_linear_142_3285)" d="M15.2461 10.0726C15.0578 9.92817 14.8353 9.81673 14.5951 9.74952C16.3902 7.13489 16.6613 3.65852 14.1195 1.69765C12.3235 0.291939 9.67977 0.386561 7.99398 1.95416C3.44508 -1.96081 -3.73976 3.88965 2.33239 11.0195L1.86441 12.7681C1.79214 13.0394 1.86832 13.3189 2.06822 13.5159C2.26547 13.7103 2.5524 13.7849 2.81757 13.711C3.39372 13.5566 3.97002 13.402 4.54613 13.2474C5.83858 14.3182 7.04648 15.0926 7.99395 15.3021C8.78191 15.1332 9.72879 14.5641 10.8041 13.7601C11.4404 14.4909 12.4495 15.323 13.0122 15.2915C14.7527 14.7096 17.2762 11.694 15.2461 10.0726ZM7.99405 14.6645C7.18983 14.4211 5.988 13.6638 4.82762 12.6659C4.74925 12.5985 4.64269 12.5743 4.54281 12.601C3.91309 12.77 3.27952 12.9399 2.65012 13.1087C2.5307 13.1398 2.44124 13.032 2.46847 12.9295L2.97831 11.0244C3.00475 10.9256 2.98118 10.8201 2.91516 10.7419C2.3961 10.1272 1.95662 9.51026 1.60902 8.90817C-0.22885 5.72487 0.80512 3.30157 2.24899 2.19364C3.64213 1.12469 5.96499 0.797592 7.77295 2.60551C7.89502 2.72755 8.09295 2.72755 8.21505 2.60551C10.023 0.797623 12.3458 1.12463 13.7389 2.19364C15.576 3.54705 16.1215 6.61057 13.8843 9.68638C13.5593 9.71867 13.2308 9.83708 12.9313 10.0636C12.1689 9.48678 11.218 9.61101 10.6165 10.0726C9.85689 10.6091 9.49697 11.9515 10.4261 13.2623C9.50113 13.9697 8.62893 14.4729 7.99405 14.6645ZM15.0429 12.7124C14.5023 13.6488 13.4599 14.4669 12.9313 14.6616C11.8172 14.2484 9.44264 11.8119 10.9971 10.5686C11.5032 10.1879 12.2114 10.1919 12.7102 10.6987C12.8323 10.8208 13.0302 10.8208 13.1523 10.6987C13.7139 10.1371 14.434 10.2375 14.8654 10.5686C15.3396 10.9324 15.6351 11.6866 15.0429 12.7124Z"/></g><defs><linearGradient id="paint0_linear_142_3285" x1="4.245" x2="11.745" y1="5.501" y2="5.501" gradientUnits="userSpaceOnUse"><stop stop-color="#FFA18D"/><stop offset="1" stop-color="#FD3E84"/></linearGradient><linearGradient id="paint1_linear_142_3285" x1="4.245" x2="11.745" y1="6.751" y2="6.751" gradientUnits="userSpaceOnUse"><stop stop-color="#FFA18D"/><stop offset="1" stop-color="#FD3E84"/></linearGradient><linearGradient id="paint2_linear_142_3285" x1="4.245" x2="11.745" y1="8.002" y2="8.002" gradientUnits="userSpaceOnUse"><stop stop-color="#FFA18D"/><stop offset="1" stop-color="#FD3E84"/></linearGradient><linearGradient id="paint3_linear_142_3285" x1="4.245" x2="8.305" y1="9.252" y2="9.252" gradientUnits="userSpaceOnUse"><stop stop-color="#FFA18D"/><stop offset="1" stop-color="#FD3E84"/></linearGradient><linearGradient id="paint4_linear_142_3285" x1="0" x2="16" y1="8" y2="8" gradientUnits="userSpaceOnUse"><stop stop-color="#FFA18D"/><stop offset="1" stop-color="#FD3E84"/></linearGradient><clipPath id="clip0_142_3285"><rect width="16" height="16" fill="#fff"/></clipPath></defs></svg>