<svg width="20" height="20" viewBox="0 0 20 20" fill="none" xmlns="http://www.w3.org/2000/svg">
<mask id="path-1-outside-1_39_400" maskUnits="userSpaceOnUse" x="1" y="1" width="18" height="18" fill="black">
<rect fill="white" x="1" y="1" width="18" height="18"/>
<path d="M5.92285 16.7686C5.97235 16.7148 5.99988 16.6445 5.99999 16.5714V16C6.00065 15.7728 6.09117 15.5552 6.25177 15.3946C6.41238 15.234 6.63001 15.1435 6.85713 15.1428H16.2959V3.42858C16.2958 3.04974 16.1452 2.68646 15.8773 2.41857C15.6094 2.15069 15.2462 2.00014 14.8673 2H3.42857C3.35279 2 3.28012 2.0301 3.22654 2.08368C3.17296 2.13727 3.14286 2.20994 3.14286 2.28572C3.14286 2.36149 3.17296 2.43417 3.22654 2.48775C3.28012 2.54133 3.35279 2.57143 3.42857 2.57143C3.65569 2.5721 3.87333 2.66262 4.03393 2.82322C4.19453 2.98382 4.28505 3.20146 4.28571 3.42858V16.5714C4.28592 16.7932 4.33765 17.0118 4.43682 17.2101C4.53598 17.4085 4.67987 17.5811 4.85714 17.7143C4.8578 17.4871 4.94832 17.2695 5.10892 17.1089C5.26952 16.9483 5.48716 16.8578 5.71428 16.8571C5.75327 16.8575 5.79192 16.8498 5.82781 16.8346C5.8637 16.8194 5.89605 16.7969 5.92285 16.7686ZM10.1428 13.7144H6.71428C6.63927 13.7132 6.56773 13.6826 6.51509 13.6292C6.46246 13.5757 6.43296 13.5037 6.43296 13.4287C6.43296 13.3536 6.46246 13.2816 6.51509 13.2282C6.56773 13.1747 6.63927 13.1441 6.71428 13.1429H10.1428C10.2179 13.1441 10.2895 13.1747 10.3421 13.2281C10.3948 13.2816 10.4243 13.3536 10.4243 13.4287C10.4243 13.5037 10.3948 13.5758 10.3421 13.6292C10.2895 13.6827 10.2179 13.7133 10.1428 13.7144ZM10.4286 10.8572H14.7245C14.7995 10.8584 14.871 10.889 14.9237 10.9424C14.9763 10.9959 15.0058 11.0679 15.0058 11.1429C15.0058 11.218 14.9763 11.29 14.9237 11.3434C14.871 11.3969 14.7995 11.4275 14.7245 11.4286H10.4286C10.3535 11.4275 10.282 11.3969 10.2294 11.3434C10.1767 11.29 10.1472 11.218 10.1472 11.1429C10.1472 11.0679 10.1767 10.9959 10.2294 10.9424C10.282 10.889 10.3536 10.8584 10.4286 10.8572ZM14.7245 13.7144H11.5714C11.4964 13.7133 11.4248 13.6827 11.3721 13.6292C11.3194 13.5758 11.2899 13.5037 11.2899 13.4287C11.2899 13.3536 11.3194 13.2816 11.3721 13.2281C11.4248 13.1747 11.4964 13.1441 11.5714 13.1429H14.7245C14.7995 13.1441 14.871 13.1747 14.9237 13.2282C14.9763 13.2816 15.0058 13.3536 15.0058 13.4287C15.0058 13.5037 14.9763 13.5757 14.9237 13.6292C14.871 13.6826 14.7995 13.7132 14.7245 13.7144ZM14.7245 8.57148C14.7995 8.5726 14.8711 8.60319 14.9238 8.65665C14.9764 8.71012 15.006 8.78216 15.006 8.85721C15.006 8.93226 14.9764 9.0043 14.9238 9.05776C14.8711 9.11122 14.7995 9.14181 14.7245 9.14292H12.1428C12.0678 9.1418 11.9962 9.11121 11.9435 9.05775C11.8909 9.00429 11.8613 8.93225 11.8613 8.8572C11.8613 8.78215 11.8909 8.71011 11.9435 8.65665C11.9962 8.60319 12.0678 8.5726 12.1428 8.57148H14.7245ZM8.31429 4.01716C8.84409 3.19466 9.61623 3.35344 10.1429 3.78287C10.6693 3.35179 11.441 3.19503 11.9714 4.01716C12.4486 4.74859 11.9172 5.70289 10.5114 6.63147C10.4022 6.70413 10.274 6.7429 10.1429 6.7429C10.0117 6.7429 9.88348 6.70413 9.7743 6.63147C8.36856 5.70288 7.83715 4.74859 8.31429 4.01716ZM6.71429 8.57148H10.7143C10.7893 8.5726 10.8609 8.60319 10.9136 8.65665C10.9663 8.71012 10.9958 8.78216 10.9958 8.85721C10.9958 8.93226 10.9662 9.0043 10.9136 9.05776C10.8609 9.11122 10.7893 9.14181 10.7143 9.14292H6.71428C6.63927 9.14175 6.56773 9.11114 6.51509 9.05768C6.46246 9.00423 6.43296 8.93222 6.43296 8.8572C6.43296 8.78218 6.46246 8.71017 6.51509 8.65671C6.56773 8.60326 6.63928 8.57265 6.71429 8.57148ZM6.71429 10.8572C6.73556 10.8585 9.00973 10.8563 9 10.8572C9.07504 10.8583 9.14663 10.8889 9.1993 10.9424C9.25198 10.9959 9.2815 11.0679 9.2815 11.1429C9.2815 11.218 9.25197 11.29 9.19929 11.3435C9.14662 11.3969 9.07502 11.4275 8.99998 11.4286H6.71428C6.63924 11.4275 6.56765 11.3969 6.51497 11.3435C6.4623 11.29 6.43277 11.218 6.43277 11.1429C6.43277 11.0679 6.4623 10.9958 6.51497 10.9424C6.56765 10.8889 6.63925 10.8583 6.71429 10.8572ZM8.77428 4.36004C9.01978 3.90404 9.41642 3.92061 9.78285 4.22573C9.92369 4.3335 9.96666 4.45663 10.1428 4.45714C10.3132 4.45808 10.3695 4.32935 10.5029 4.22571C10.6977 4.07734 10.9662 3.91865 11.2086 4.04571C12.2396 4.72777 10.7579 5.7689 10.1686 6.16862C10.0673 6.18115 10.0279 6.09919 9.91715 6.03716C9.72597 5.89998 9.54192 5.75312 9.36572 5.59716C9.0338 5.27718 8.55573 4.81213 8.77428 4.36004ZM3.71428 3.42858V6.57147H2.28571C2.21001 6.57124 2.13747 6.54107 2.08393 6.48753C2.0304 6.434 2.00023 6.36146 2 6.28575V3.42858C2.00021 3.20684 2.05194 2.98818 2.1511 2.78984C2.25027 2.59151 2.39416 2.41893 2.57143 2.28572C2.57209 2.51284 2.66261 2.73048 2.82321 2.89108C2.98382 3.05168 3.20145 3.1422 3.42857 3.14287C3.50397 3.14406 3.57596 3.17454 3.62928 3.22787C3.68261 3.28119 3.71309 3.35318 3.71428 3.42858ZM16.8673 18H5.71428C5.67658 18.0003 5.63918 17.9931 5.60426 17.9789C5.56934 17.9647 5.53759 17.9437 5.51082 17.9171C5.48406 17.8905 5.46281 17.8589 5.44831 17.8241C5.43382 17.7893 5.42635 17.752 5.42635 17.7143C5.42635 17.6766 5.43382 17.6392 5.44831 17.6044C5.46281 17.5696 5.48406 17.538 5.51082 17.5115C5.53759 17.4849 5.56934 17.4639 5.60426 17.4497C5.63918 17.4355 5.67658 17.4283 5.71428 17.4286C5.94238 17.4285 6.16117 17.3381 6.32282 17.1771C6.63872 16.9007 6.56639 16.3725 6.57139 16C6.57162 15.9243 6.6018 15.8517 6.65534 15.7982C6.70887 15.7447 6.78141 15.7145 6.85712 15.7143H16.8673C17.1687 15.717 17.4567 15.8386 17.6689 16.0526C17.881 16.2666 18 16.5558 18 16.8571C18 17.1585 17.881 17.4476 17.6689 17.6617C17.4567 17.8757 17.1687 17.9973 16.8673 18Z"/>
</mask>
<path d="M5.92285 16.7686C5.97235 16.7148 5.99988 16.6445 5.99999 16.5714V16C6.00065 15.7728 6.09117 15.5552 6.25177 15.3946C6.41238 15.234 6.63001 15.1435 6.85713 15.1428H16.2959V3.42858C16.2958 3.04974 16.1452 2.68646 15.8773 2.41857C15.6094 2.15069 15.2462 2.00014 14.8673 2H3.42857C3.35279 2 3.28012 2.0301 3.22654 2.08368C3.17296 2.13727 3.14286 2.20994 3.14286 2.28572C3.14286 2.36149 3.17296 2.43417 3.22654 2.48775C3.28012 2.54133 3.35279 2.57143 3.42857 2.57143C3.65569 2.5721 3.87333 2.66262 4.03393 2.82322C4.19453 2.98382 4.28505 3.20146 4.28571 3.42858V16.5714C4.28592 16.7932 4.33765 17.0118 4.43682 17.2101C4.53598 17.4085 4.67987 17.5811 4.85714 17.7143C4.8578 17.4871 4.94832 17.2695 5.10892 17.1089C5.26952 16.9483 5.48716 16.8578 5.71428 16.8571C5.75327 16.8575 5.79192 16.8498 5.82781 16.8346C5.8637 16.8194 5.89605 16.7969 5.92285 16.7686ZM10.1428 13.7144H6.71428C6.63927 13.7132 6.56773 13.6826 6.51509 13.6292C6.46246 13.5757 6.43296 13.5037 6.43296 13.4287C6.43296 13.3536 6.46246 13.2816 6.51509 13.2282C6.56773 13.1747 6.63927 13.1441 6.71428 13.1429H10.1428C10.2179 13.1441 10.2895 13.1747 10.3421 13.2281C10.3948 13.2816 10.4243 13.3536 10.4243 13.4287C10.4243 13.5037 10.3948 13.5758 10.3421 13.6292C10.2895 13.6827 10.2179 13.7133 10.1428 13.7144ZM10.4286 10.8572H14.7245C14.7995 10.8584 14.871 10.889 14.9237 10.9424C14.9763 10.9959 15.0058 11.0679 15.0058 11.1429C15.0058 11.218 14.9763 11.29 14.9237 11.3434C14.871 11.3969 14.7995 11.4275 14.7245 11.4286H10.4286C10.3535 11.4275 10.282 11.3969 10.2294 11.3434C10.1767 11.29 10.1472 11.218 10.1472 11.1429C10.1472 11.0679 10.1767 10.9959 10.2294 10.9424C10.282 10.889 10.3536 10.8584 10.4286 10.8572ZM14.7245 13.7144H11.5714C11.4964 13.7133 11.4248 13.6827 11.3721 13.6292C11.3194 13.5758 11.2899 13.5037 11.2899 13.4287C11.2899 13.3536 11.3194 13.2816 11.3721 13.2281C11.4248 13.1747 11.4964 13.1441 11.5714 13.1429H14.7245C14.7995 13.1441 14.871 13.1747 14.9237 13.2282C14.9763 13.2816 15.0058 13.3536 15.0058 13.4287C15.0058 13.5037 14.9763 13.5757 14.9237 13.6292C14.871 13.6826 14.7995 13.7132 14.7245 13.7144ZM14.7245 8.57148C14.7995 8.5726 14.8711 8.60319 14.9238 8.65665C14.9764 8.71012 15.006 8.78216 15.006 8.85721C15.006 8.93226 14.9764 9.0043 14.9238 9.05776C14.8711 9.11122 14.7995 9.14181 14.7245 9.14292H12.1428C12.0678 9.1418 11.9962 9.11121 11.9435 9.05775C11.8909 9.00429 11.8613 8.93225 11.8613 8.8572C11.8613 8.78215 11.8909 8.71011 11.9435 8.65665C11.9962 8.60319 12.0678 8.5726 12.1428 8.57148H14.7245ZM8.31429 4.01716C8.84409 3.19466 9.61623 3.35344 10.1429 3.78287C10.6693 3.35179 11.441 3.19503 11.9714 4.01716C12.4486 4.74859 11.9172 5.70289 10.5114 6.63147C10.4022 6.70413 10.274 6.7429 10.1429 6.7429C10.0117 6.7429 9.88348 6.70413 9.7743 6.63147C8.36856 5.70288 7.83715 4.74859 8.31429 4.01716ZM6.71429 8.57148H10.7143C10.7893 8.5726 10.8609 8.60319 10.9136 8.65665C10.9663 8.71012 10.9958 8.78216 10.9958 8.85721C10.9958 8.93226 10.9662 9.0043 10.9136 9.05776C10.8609 9.11122 10.7893 9.14181 10.7143 9.14292H6.71428C6.63927 9.14175 6.56773 9.11114 6.51509 9.05768C6.46246 9.00423 6.43296 8.93222 6.43296 8.8572C6.43296 8.78218 6.46246 8.71017 6.51509 8.65671C6.56773 8.60326 6.63928 8.57265 6.71429 8.57148ZM6.71429 10.8572C6.73556 10.8585 9.00973 10.8563 9 10.8572C9.07504 10.8583 9.14663 10.8889 9.1993 10.9424C9.25198 10.9959 9.2815 11.0679 9.2815 11.1429C9.2815 11.218 9.25197 11.29 9.19929 11.3435C9.14662 11.3969 9.07502 11.4275 8.99998 11.4286H6.71428C6.63924 11.4275 6.56765 11.3969 6.51497 11.3435C6.4623 11.29 6.43277 11.218 6.43277 11.1429C6.43277 11.0679 6.4623 10.9958 6.51497 10.9424C6.56765 10.8889 6.63925 10.8583 6.71429 10.8572ZM8.77428 4.36004C9.01978 3.90404 9.41642 3.92061 9.78285 4.22573C9.92369 4.3335 9.96666 4.45663 10.1428 4.45714C10.3132 4.45808 10.3695 4.32935 10.5029 4.22571C10.6977 4.07734 10.9662 3.91865 11.2086 4.04571C12.2396 4.72777 10.7579 5.7689 10.1686 6.16862C10.0673 6.18115 10.0279 6.09919 9.91715 6.03716C9.72597 5.89998 9.54192 5.75312 9.36572 5.59716C9.0338 5.27718 8.55573 4.81213 8.77428 4.36004ZM3.71428 3.42858V6.57147H2.28571C2.21001 6.57124 2.13747 6.54107 2.08393 6.48753C2.0304 6.434 2.00023 6.36146 2 6.28575V3.42858C2.00021 3.20684 2.05194 2.98818 2.1511 2.78984C2.25027 2.59151 2.39416 2.41893 2.57143 2.28572C2.57209 2.51284 2.66261 2.73048 2.82321 2.89108C2.98382 3.05168 3.20145 3.1422 3.42857 3.14287C3.50397 3.14406 3.57596 3.17454 3.62928 3.22787C3.68261 3.28119 3.71309 3.35318 3.71428 3.42858ZM16.8673 18H5.71428C5.67658 18.0003 5.63918 17.9931 5.60426 17.9789C5.56934 17.9647 5.53759 17.9437 5.51082 17.9171C5.48406 17.8905 5.46281 17.8589 5.44831 17.8241C5.43382 17.7893 5.42635 17.752 5.42635 17.7143C5.42635 17.6766 5.43382 17.6392 5.44831 17.6044C5.46281 17.5696 5.48406 17.538 5.51082 17.5115C5.53759 17.4849 5.56934 17.4639 5.60426 17.4497C5.63918 17.4355 5.67658 17.4283 5.71428 17.4286C5.94238 17.4285 6.16117 17.3381 6.32282 17.1771C6.63872 16.9007 6.56639 16.3725 6.57139 16C6.57162 15.9243 6.6018 15.8517 6.65534 15.7982C6.70887 15.7447 6.78141 15.7145 6.85712 15.7143H16.8673C17.1687 15.717 17.4567 15.8386 17.6689 16.0526C17.881 16.2666 18 16.5558 18 16.8571C18 17.1585 17.881 17.4476 17.6689 17.6617C17.4567 17.8757 17.1687 17.9973 16.8673 18Z" fill="url(#paint0_linear_39_400)"/>
<path d="M5.92285 16.7686C5.97235 16.7148 5.99988 16.6445 5.99999 16.5714V16C6.00065 15.7728 6.09117 15.5552 6.25177 15.3946C6.41238 15.234 6.63001 15.1435 6.85713 15.1428H16.2959V3.42858C16.2958 3.04974 16.1452 2.68646 15.8773 2.41857C15.6094 2.15069 15.2462 2.00014 14.8673 2H3.42857C3.35279 2 3.28012 2.0301 3.22654 2.08368C3.17296 2.13727 3.14286 2.20994 3.14286 2.28572C3.14286 2.36149 3.17296 2.43417 3.22654 2.48775C3.28012 2.54133 3.35279 2.57143 3.42857 2.57143C3.65569 2.5721 3.87333 2.66262 4.03393 2.82322C4.19453 2.98382 4.28505 3.20146 4.28571 3.42858V16.5714C4.28592 16.7932 4.33765 17.0118 4.43682 17.2101C4.53598 17.4085 4.67987 17.5811 4.85714 17.7143C4.8578 17.4871 4.94832 17.2695 5.10892 17.1089C5.26952 16.9483 5.48716 16.8578 5.71428 16.8571C5.75327 16.8575 5.79192 16.8498 5.82781 16.8346C5.8637 16.8194 5.89605 16.7969 5.92285 16.7686ZM10.1428 13.7144H6.71428C6.63927 13.7132 6.56773 13.6826 6.51509 13.6292C6.46246 13.5757 6.43296 13.5037 6.43296 13.4287C6.43296 13.3536 6.46246 13.2816 6.51509 13.2282C6.56773 13.1747 6.63927 13.1441 6.71428 13.1429H10.1428C10.2179 13.1441 10.2895 13.1747 10.3421 13.2281C10.3948 13.2816 10.4243 13.3536 10.4243 13.4287C10.4243 13.5037 10.3948 13.5758 10.3421 13.6292C10.2895 13.6827 10.2179 13.7133 10.1428 13.7144ZM10.4286 10.8572H14.7245C14.7995 10.8584 14.871 10.889 14.9237 10.9424C14.9763 10.9959 15.0058 11.0679 15.0058 11.1429C15.0058 11.218 14.9763 11.29 14.9237 11.3434C14.871 11.3969 14.7995 11.4275 14.7245 11.4286H10.4286C10.3535 11.4275 10.282 11.3969 10.2294 11.3434C10.1767 11.29 10.1472 11.218 10.1472 11.1429C10.1472 11.0679 10.1767 10.9959 10.2294 10.9424C10.282 10.889 10.3536 10.8584 10.4286 10.8572ZM14.7245 13.7144H11.5714C11.4964 13.7133 11.4248 13.6827 11.3721 13.6292C11.3194 13.5758 11.2899 13.5037 11.2899 13.4287C11.2899 13.3536 11.3194 13.2816 11.3721 13.2281C11.4248 13.1747 11.4964 13.1441 11.5714 13.1429H14.7245C14.7995 13.1441 14.871 13.1747 14.9237 13.2282C14.9763 13.2816 15.0058 13.3536 15.0058 13.4287C15.0058 13.5037 14.9763 13.5757 14.9237 13.6292C14.871 13.6826 14.7995 13.7132 14.7245 13.7144ZM14.7245 8.57148C14.7995 8.5726 14.8711 8.60319 14.9238 8.65665C14.9764 8.71012 15.006 8.78216 15.006 8.85721C15.006 8.93226 14.9764 9.0043 14.9238 9.05776C14.8711 9.11122 14.7995 9.14181 14.7245 9.14292H12.1428C12.0678 9.1418 11.9962 9.11121 11.9435 9.05775C11.8909 9.00429 11.8613 8.93225 11.8613 8.8572C11.8613 8.78215 11.8909 8.71011 11.9435 8.65665C11.9962 8.60319 12.0678 8.5726 12.1428 8.57148H14.7245ZM8.31429 4.01716C8.84409 3.19466 9.61623 3.35344 10.1429 3.78287C10.6693 3.35179 11.441 3.19503 11.9714 4.01716C12.4486 4.74859 11.9172 5.70289 10.5114 6.63147C10.4022 6.70413 10.274 6.7429 10.1429 6.7429C10.0117 6.7429 9.88348 6.70413 9.7743 6.63147C8.36856 5.70288 7.83715 4.74859 8.31429 4.01716ZM6.71429 8.57148H10.7143C10.7893 8.5726 10.8609 8.60319 10.9136 8.65665C10.9663 8.71012 10.9958 8.78216 10.9958 8.85721C10.9958 8.93226 10.9662 9.0043 10.9136 9.05776C10.8609 9.11122 10.7893 9.14181 10.7143 9.14292H6.71428C6.63927 9.14175 6.56773 9.11114 6.51509 9.05768C6.46246 9.00423 6.43296 8.93222 6.43296 8.8572C6.43296 8.78218 6.46246 8.71017 6.51509 8.65671C6.56773 8.60326 6.63928 8.57265 6.71429 8.57148ZM6.71429 10.8572C6.73556 10.8585 9.00973 10.8563 9 10.8572C9.07504 10.8583 9.14663 10.8889 9.1993 10.9424C9.25198 10.9959 9.2815 11.0679 9.2815 11.1429C9.2815 11.218 9.25197 11.29 9.19929 11.3435C9.14662 11.3969 9.07502 11.4275 8.99998 11.4286H6.71428C6.63924 11.4275 6.56765 11.3969 6.51497 11.3435C6.4623 11.29 6.43277 11.218 6.43277 11.1429C6.43277 11.0679 6.4623 10.9958 6.51497 10.9424C6.56765 10.8889 6.63925 10.8583 6.71429 10.8572ZM8.77428 4.36004C9.01978 3.90404 9.41642 3.92061 9.78285 4.22573C9.92369 4.3335 9.96666 4.45663 10.1428 4.45714C10.3132 4.45808 10.3695 4.32935 10.5029 4.22571C10.6977 4.07734 10.9662 3.91865 11.2086 4.04571C12.2396 4.72777 10.7579 5.7689 10.1686 6.16862C10.0673 6.18115 10.0279 6.09919 9.91715 6.03716C9.72597 5.89998 9.54192 5.75312 9.36572 5.59716C9.0338 5.27718 8.55573 4.81213 8.77428 4.36004ZM3.71428 3.42858V6.57147H2.28571C2.21001 6.57124 2.13747 6.54107 2.08393 6.48753C2.0304 6.434 2.00023 6.36146 2 6.28575V3.42858C2.00021 3.20684 2.05194 2.98818 2.1511 2.78984C2.25027 2.59151 2.39416 2.41893 2.57143 2.28572C2.57209 2.51284 2.66261 2.73048 2.82321 2.89108C2.98382 3.05168 3.20145 3.1422 3.42857 3.14287C3.50397 3.14406 3.57596 3.17454 3.62928 3.22787C3.68261 3.28119 3.71309 3.35318 3.71428 3.42858ZM16.8673 18H5.71428C5.67658 18.0003 5.63918 17.9931 5.60426 17.9789C5.56934 17.9647 5.53759 17.9437 5.51082 17.9171C5.48406 17.8905 5.46281 17.8589 5.44831 17.8241C5.43382 17.7893 5.42635 17.752 5.42635 17.7143C5.42635 17.6766 5.43382 17.6392 5.44831 17.6044C5.46281 17.5696 5.48406 17.538 5.51082 17.5115C5.53759 17.4849 5.56934 17.4639 5.60426 17.4497C5.63918 17.4355 5.67658 17.4283 5.71428 17.4286C5.94238 17.4285 6.16117 17.3381 6.32282 17.1771C6.63872 16.9007 6.56639 16.3725 6.57139 16C6.57162 15.9243 6.6018 15.8517 6.65534 15.7982C6.70887 15.7447 6.78141 15.7145 6.85712 15.7143H16.8673C17.1687 15.717 17.4567 15.8386 17.6689 16.0526C17.881 16.2666 18 16.5558 18 16.8571C18 17.1585 17.881 17.4476 17.6689 17.6617C17.4567 17.8757 17.1687 17.9973 16.8673 18Z" stroke="#FFDBE3" stroke-width="0.6" mask="url(#path-1-outside-1_39_400)"/>
<defs>
<linearGradient id="paint0_linear_39_400" x1="1.99991" y1="10.0001" x2="17.9999" y2="10.0001" gradientUnits="userSpaceOnUse">
<stop stop-color="#FFA68D"/>
<stop offset="1" stop-color="#FD3A84"/>
</linearGradient>
</defs>
</svg>
